<svg width="54" height="80" viewBox="0 0 54 80" fill="none" xmlns="http://www.w3.org/2000/svg">
<path d="M10.0138 53.2484L8.66494 53.9047L10.0138 53.2484ZM52.5441 66.6587C53.1458 67.2282 53.172 68.1775 52.6026 68.7793L43.3235 78.5848C42.7541 79.1865 41.8047 79.2127 41.203 78.6432C40.6013 78.0738 40.5751 77.1244 41.1445 76.5227L49.3926 67.8067L40.6766 59.5586C40.0749 58.9892 40.0487 58.0398 40.6181 57.4381C41.1875 56.8364 42.1369 56.8102 42.7386 57.3796L52.5441 66.6587ZM29.0138 9.74843L27.8836 10.7347L29.0138 9.74843ZM11.3626 52.5922C13.0397 56.0394 16.2495 58.678 20.3276 60.6802C24.3978 62.6785 29.2009 63.9766 33.8451 64.8109C38.4794 65.6436 42.8937 66.0038 46.1545 66.1551C47.783 66.2307 49.1191 66.254 50.0452 66.2584C50.5081 66.2606 50.8683 66.2581 51.111 66.2551C51.2324 66.2536 51.3244 66.252 51.3851 66.2508C51.4155 66.2502 51.438 66.2496 51.4526 66.2493C51.4598 66.2491 51.4651 66.249 51.4683 66.2489C51.4699 66.2489 51.471 66.2488 51.4716 66.2488C51.4718 66.2488 51.4719 66.2488 51.472 66.2488C51.472 66.2488 51.4718 66.2488 51.5131 67.7482C51.5545 69.2477 51.554 69.2477 51.5534 69.2477C51.553 69.2477 51.5523 69.2477 51.5516 69.2478C51.5501 69.2478 51.5481 69.2479 51.5456 69.2479C51.5405 69.248 51.5334 69.2482 51.5243 69.2484C51.5061 69.2489 51.4798 69.2495 51.4456 69.2502C51.3773 69.2515 51.2775 69.2533 51.1481 69.2549C50.8893 69.2581 50.5119 69.2607 50.0308 69.2584C49.0688 69.2538 47.6908 69.2296 46.0155 69.1519C42.6687 68.9966 38.1164 68.6264 33.3146 67.7637C28.5228 66.9028 23.4204 65.5407 19.0054 63.3731C14.5983 61.2093 10.7431 58.1761 8.66494 53.9047L11.3626 52.5922ZM0.513763 2.24802C0.429976 0.750364 0.430374 0.750342 0.43085 0.750316C0.431115 0.750301 0.431673 0.75027 0.432204 0.750241C0.433266 0.750182 0.434646 0.750107 0.436343 0.750015C0.439738 0.749831 0.4444 0.74958 0.450312 0.74927C0.462137 0.748649 0.478964 0.747786 0.500664 0.746723C0.544062 0.744598 0.606957 0.741673 0.688298 0.738286C0.850967 0.731513 1.0875 0.722892 1.38948 0.715133C1.99328 0.69962 2.8597 0.687531 3.9213 0.700644C6.04173 0.726837 8.95476 0.853715 12.1166 1.25856C15.2725 1.66262 18.7174 2.34864 21.8847 3.50987C25.0401 4.66675 28.0244 6.33317 30.144 8.76219L27.8836 10.7347C26.2197 8.82794 23.7497 7.38893 20.852 6.32653C17.9661 5.26848 14.7589 4.62136 11.7356 4.23426C8.71839 3.84794 5.92523 3.72563 3.88425 3.70042C2.86515 3.68783 2.03706 3.69949 1.46653 3.71414C1.18135 3.72147 0.960758 3.72954 0.813096 3.73569C0.739273 3.73876 0.683701 3.74135 0.647423 3.74313C0.629285 3.74402 0.615973 3.7447 0.607616 3.74514C0.603438 3.74536 0.600499 3.74552 0.598816 3.74561C0.597975 3.74566 0.597447 3.74569 0.597235 3.7457C0.597129 3.7457 0.597208 3.7457 0.597155 3.7457C0.597313 3.74569 0.59755 3.74568 0.513763 2.24802ZM30.144 8.76219C31.8454 10.712 32.7294 12.7444 32.8612 14.8503C32.9917 16.9348 32.3752 18.9291 31.3679 20.8037C29.3906 24.4831 25.6767 28.0918 22.0858 31.5635C18.3982 35.1288 14.7824 38.5991 12.5474 42.1778C10.3564 45.6863 9.63992 49.0513 11.3626 52.5922L8.66494 53.9047C6.33268 49.1109 7.4873 44.6169 10.0029 40.5887C12.4746 36.6309 16.401 32.8869 20.0006 29.4067C23.697 25.833 27.0155 22.5652 28.7253 19.3836C29.5614 17.8276 29.9521 16.3952 29.8671 15.0377C29.7835 13.7017 29.2293 12.2767 27.8836 10.7347L30.144 8.76219Z" fill="#3E4248"/>
</svg>
