<svg width="49" height="49" viewBox="0 0 49 49" fill="none" xmlns="http://www.w3.org/2000/svg">
<g id="Frame">
<g id="Group">
<path id="Vector" d="M33.1206 37.4029C32.8191 37.4561 32.5134 37.4831 32.2072 37.4835H16.1328C14.9755 37.4801 13.8515 37.0955 12.9346 36.3891C12.0178 35.6828 11.3592 34.6941 11.0607 33.5758L10.9996 33.3471L10.7679 33.3956C10.5494 33.4414 10.3268 33.4646 10.1037 33.4647H9.59571C8.33166 33.4632 7.11982 32.9603 6.226 32.0665C5.33221 31.1727 4.82941 29.961 4.82785 28.697V23.6638C4.83039 22.5534 5.21994 21.4786 5.92947 20.6244C6.63905 19.7702 7.62425 19.1901 8.71546 18.984L8.90102 18.949L8.91804 18.7609C9.62389 10.961 16.1906 4.82788 24.1698 4.82788C32.1491 4.82788 38.7158 10.961 39.4216 18.7609L39.4386 18.949L39.6242 18.984C40.7154 19.1901 41.7006 19.7702 42.4102 20.6244C43.1198 21.4787 43.5093 22.5535 43.5118 23.664V28.6968C43.5103 29.9609 43.0075 31.1727 42.1137 32.0665C41.2198 32.9603 40.008 33.4632 38.7439 33.4647H38.2359C38.2305 33.4647 38.2221 33.464 38.1966 33.4602L38.1905 33.4592C38.1686 33.4559 38.1318 33.4503 38.0928 33.4488L37.8646 33.44L37.8352 33.6664C37.1157 39.2126 32.3732 43.5118 26.6354 43.5118H24.1678C23.8344 43.5118 23.5147 43.3794 23.2789 43.1437C23.0432 42.9079 22.9107 42.5882 22.9107 42.2548C22.9107 41.9214 23.0432 41.6016 23.2789 41.3659C23.5147 41.1301 23.8344 40.9977 24.1678 40.9977H26.6354C29.3478 40.9977 31.743 39.7383 33.3558 37.8095L33.7953 37.2839L33.1206 37.4029ZM10.6358 21.6284L10.459 21.8052L10.6358 21.6284C10.4947 21.4873 10.3033 21.4081 10.1038 21.4081H9.59541H9.59516C8.99738 21.4087 8.42428 21.6466 8.0018 22.0695L8.17866 22.2461L8.0018 22.0695C7.57931 22.4924 7.342 23.0657 7.342 23.6635V28.6971C7.342 29.9404 8.35215 30.9505 9.59541 30.9505H10.1038C10.3033 30.9505 10.4947 30.8713 10.6358 30.7302L10.459 30.5534L10.6358 30.7302C10.7769 30.5891 10.8562 30.3977 10.8562 30.1982V22.1604C10.8562 21.9609 10.7769 21.7695 10.6358 21.6284ZM13.5169 13.0514L12.9935 13.835L13.8365 13.414C14.5498 13.0577 15.3355 12.8701 16.1328 12.8656H32.2076C33.0327 12.8656 33.8052 13.0737 34.5053 13.415L35.337 13.8206L34.8227 13.0514C32.5239 9.61344 28.6076 7.34203 24.1698 7.34203C19.7321 7.34203 15.8137 9.61339 13.5169 13.0514ZM40.9977 23.6635V23.6632C40.9971 23.0657 40.7596 22.4928 40.3373 22.07C39.915 21.6473 39.3423 21.4093 38.7448 21.4081H38.7443H38.2359C38.0363 21.4081 37.845 21.4873 37.7039 21.6284C37.5628 21.7695 37.4835 21.9609 37.4835 22.1604V30.1982C37.4835 30.6135 37.8205 30.9505 38.2359 30.9505H38.7443C39.9875 30.9505 40.9977 29.9404 40.9977 28.6971V23.6635ZM20.151 25.4269C19.8176 25.4269 19.4978 25.2945 19.2621 25.0587C19.0263 24.823 18.8939 24.5033 18.8939 24.1699V22.1604C18.8939 21.827 19.0263 21.5073 19.2621 21.2715C19.4978 21.0358 19.8176 20.9034 20.151 20.9034C20.4844 20.9034 20.8041 21.0358 21.0398 21.2715C21.2756 21.5073 21.408 21.827 21.408 22.1604V24.1699C21.408 24.5033 21.2756 24.823 21.0398 25.0587C20.8041 25.2945 20.4844 25.4269 20.151 25.4269ZM32.2076 34.9694C33.7301 34.9694 34.9694 33.7302 34.9694 32.2076V18.1416C34.9694 16.619 33.7301 15.3798 32.2076 15.3798H16.1321C14.6095 15.3798 13.3703 16.619 13.3703 18.1416V32.2076C13.3703 33.7302 14.6095 34.9694 16.1321 34.9694H32.2076ZM27.2998 21.2715C27.5356 21.0358 27.8553 20.9034 28.1887 20.9034C28.5221 20.9034 28.8418 21.0358 29.0776 21.2715C29.3133 21.5073 29.4458 21.827 29.4458 22.1604V24.1699C29.4458 24.5033 29.3133 24.823 29.0776 25.0587C28.8418 25.2945 28.5221 25.4269 28.1887 25.4269C27.8553 25.4269 27.5356 25.2945 27.2998 25.0587C27.0641 24.823 26.9316 24.5033 26.9316 24.1699V22.1604C26.9316 21.827 27.0641 21.5073 27.2998 21.2715ZM21.2715 29.3093C21.5073 29.0735 21.827 28.9411 22.1604 28.9411H26.1793C26.5127 28.9411 26.8324 29.0735 27.0681 29.3093C27.3039 29.545 27.4363 29.8648 27.4363 30.1982C27.4363 30.5316 27.3039 30.8513 27.0681 31.087C26.8324 31.3228 26.5127 31.4552 26.1793 31.4552H22.1604C21.827 31.4552 21.5073 31.3228 21.2715 31.087C21.0358 30.8513 20.9033 30.5316 20.9033 30.1982C20.9033 29.8648 21.0358 29.545 21.2715 29.3093Z" fill="white" stroke="#3E4248" stroke-width="0.5"/>
</g>
</g>
</svg>
