<svg width="100" height="100" viewBox="0 0 100 100" fill="none" xmlns="http://www.w3.org/2000/svg">
<g id="social-media-marketing 3" clip-path="url(#clip0_98_3238)">
<path id="Vector" d="M40.0317 90.82C39.8631 90.82 39.6984 90.7688 39.5595 90.6732C39.4206 90.5777 39.3139 90.4422 39.2536 90.2848C39.1933 90.1273 39.1822 89.9553 39.2217 89.7913C39.2612 89.6274 39.3496 89.4793 39.475 89.3667L41.7983 87.2784L38.7983 89.0084C38.6229 89.1083 38.4171 89.141 38.2192 89.1006C38.0214 89.0602 37.845 88.9493 37.7227 88.7886C37.6005 88.6279 37.5408 88.4282 37.5547 88.2268C37.5686 88.0253 37.6552 87.8358 37.7983 87.6934L39.845 85.6817L38.7983 86.285C38.6586 86.3654 38.4985 86.4035 38.3375 86.3947C38.1766 86.386 38.0216 86.3307 37.8914 86.2356C37.7612 86.1405 37.6614 86.0097 37.604 85.859C37.5467 85.7083 37.5343 85.5443 37.5683 85.3867L38.0917 82.9784C37.9096 82.9115 37.7572 82.7821 37.6617 82.6134C37.5516 82.4223 37.5217 82.1954 37.5785 81.9824C37.6354 81.7693 37.7744 81.5875 37.965 81.4767L38.7983 80.9917C38.9381 80.9113 39.0982 80.8732 39.2591 80.882C39.4201 80.8907 39.5751 80.946 39.7053 81.0411C39.8355 81.1362 39.9353 81.267 39.9926 81.4177C40.05 81.5684 40.0624 81.7324 40.0283 81.89L39.5917 83.9017L44.6817 80.9617C44.8572 80.8618 45.063 80.829 45.2608 80.8694C45.4586 80.9098 45.6351 81.0207 45.7573 81.1814C45.8795 81.3422 45.9392 81.5418 45.9253 81.7433C45.9114 81.9447 45.8248 82.1343 45.6817 82.2767L43.635 84.2867L47.8667 81.85C48.0439 81.7549 48.2496 81.7271 48.4457 81.7718C48.6418 81.8164 48.8152 81.9305 48.9338 82.093C49.0524 82.2554 49.1082 82.4553 49.091 82.6557C49.0737 82.8561 48.9846 83.0435 48.84 83.1834L46.5067 85.275L47.8617 84.4934C48.0252 84.3997 48.2157 84.3642 48.4019 84.3927C48.5882 84.4212 48.7593 84.512 48.8874 84.6503C49.0154 84.7886 49.0928 84.9662 49.1069 85.1541C49.121 85.342 49.071 85.5292 48.965 85.685L47.7117 87.5184C47.9005 87.5006 48.0897 87.5477 48.2481 87.652C48.4065 87.7563 48.5246 87.9115 48.5828 88.0919C48.6411 88.2724 48.6361 88.4673 48.5686 88.6446C48.5011 88.8218 48.3752 88.9707 48.2117 89.0667L45.4533 90.6584C45.29 90.7514 45.1 90.7864 44.9142 90.7578C44.7284 90.7292 44.5577 90.6386 44.4299 90.5008C44.3021 90.3629 44.2246 90.1859 44.2101 89.9985C44.1956 89.8111 44.2449 89.6242 44.35 89.4684L45.5167 87.77L40.4433 90.7C40.3191 90.7757 40.1771 90.8171 40.0317 90.82Z" fill="#444477"/>
<path id="Vector_2" d="M35.1366 99.1167C35.0108 99.1162 34.8866 99.0874 34.7732 99.0326C34.6599 98.9779 34.5603 98.8984 34.4816 98.8C34.358 98.6428 34.295 98.4464 34.3042 98.2466C34.3133 98.0468 34.3941 97.8569 34.5316 97.7117L35.4433 96.7434L33.1333 98.0767C32.9611 98.1757 32.7591 98.21 32.5639 98.1732C32.3686 98.1365 32.193 98.0312 32.0685 97.8764C31.944 97.7215 31.8789 97.5273 31.885 97.3288C31.8911 97.1302 31.9679 96.9403 32.1016 96.7934L35.6983 92.8567L32.1333 94.9134C31.9537 95.0137 31.7433 95.0441 31.5426 94.9985C31.3419 94.953 31.1652 94.8349 31.0464 94.6669C30.9277 94.4989 30.8753 94.2928 30.8993 94.0885C30.9233 93.8842 31.0221 93.6959 31.1766 93.5601L32.4933 92.435L32.1333 92.6417C31.9547 92.7449 31.7442 92.7781 31.5425 92.735C31.3408 92.6919 31.1622 92.5756 31.0414 92.4085C30.9205 92.2413 30.8659 92.0353 30.8881 91.8303C30.9103 91.6253 31.0078 91.4357 31.1616 91.2984L33.3333 89.3634L32.135 90.055C31.9574 90.163 31.7459 90.2008 31.5419 90.1608C31.338 90.1209 31.1563 90.0062 31.0325 89.8393C30.9088 89.6723 30.8519 89.4651 30.873 89.2584C30.8941 89.0516 30.9917 88.8602 31.1466 88.7217L34.0683 85.975L32.135 87.0917C31.9609 87.191 31.7569 87.2242 31.5603 87.1853C31.3637 87.1463 31.1877 87.0379 31.0646 86.8797C30.9415 86.7216 30.8795 86.5244 30.89 86.3242C30.9005 86.1241 30.9827 85.9345 31.1216 85.79L31.745 85.1484C31.5471 85.1425 31.3555 85.0775 31.195 84.9617C31.0643 84.8558 30.9688 84.7128 30.9209 84.5516C30.873 84.3904 30.875 84.2184 30.9266 84.0584L31.295 82.91C31.1695 82.8366 31.0654 82.7315 30.993 82.6054C30.9207 82.4792 30.8826 82.3363 30.8826 82.1909C30.8826 82.0454 30.9207 81.9026 30.993 81.7764C31.0654 81.6502 31.1695 81.5452 31.295 81.4717L32.1283 80.985C32.2741 80.9009 32.4419 80.8629 32.6097 80.8759C32.7775 80.889 32.9374 80.9526 33.0683 81.0583C33.1993 81.164 33.2952 81.3069 33.3434 81.4682C33.3916 81.6294 33.3898 81.8015 33.3383 81.9617L33.16 82.5117L35.845 80.9634C36.0191 80.8641 36.2231 80.8309 36.4197 80.8698C36.6163 80.9088 36.7922 81.0172 36.9153 81.1754C37.0385 81.3335 37.1005 81.5307 37.09 81.7308C37.0795 81.931 36.9973 82.1206 36.8583 82.265L36.49 82.645L39.4416 80.94C39.6192 80.8321 39.8307 80.7943 40.0347 80.8342C40.2387 80.8742 40.4203 80.9889 40.5441 81.1558C40.6679 81.3228 40.7248 81.53 40.7037 81.7367C40.6825 81.9435 40.5849 82.1349 40.43 82.2734L37.51 85.02L39.52 83.8534C39.6986 83.7502 39.9091 83.717 40.1108 83.7601C40.3125 83.8032 40.491 83.9195 40.6119 84.0866C40.7328 84.2537 40.7874 84.4598 40.7652 84.6648C40.743 84.8698 40.6455 85.0594 40.4916 85.1967L38.3333 87.14L39.5366 86.4467C39.7165 86.3445 39.928 86.3128 40.13 86.3579C40.3319 86.4029 40.5099 86.5215 40.6292 86.6906C40.7485 86.8596 40.8007 87.067 40.7756 87.2723C40.7505 87.4777 40.6499 87.6664 40.4933 87.8017L39.1766 88.925L39.5366 88.7184C39.7089 88.6194 39.9108 88.5851 40.1061 88.6219C40.3013 88.6586 40.477 88.7639 40.6015 88.9187C40.7259 89.0735 40.791 89.2678 40.7849 89.4663C40.7788 89.6649 40.702 89.8548 40.5683 90.0017L36.9666 93.94L39.5333 92.4601C39.7063 92.3621 39.9087 92.3293 40.1038 92.3675C40.2989 92.4057 40.474 92.5124 40.5973 92.6683C40.7207 92.8243 40.7842 93.0192 40.7764 93.2179C40.7687 93.4165 40.6901 93.6059 40.555 93.7517L39.6166 94.7517C39.8113 94.6831 40.0245 94.6891 40.215 94.7687C40.4055 94.8483 40.5596 94.9957 40.6476 95.1825C40.7356 95.3692 40.7511 95.582 40.6912 95.7795C40.6313 95.977 40.5002 96.1453 40.3233 96.2517L35.5533 99.0001C35.4274 99.0757 35.2835 99.116 35.1366 99.1167Z" fill="#E4F1FF"/>
<path id="Vector_3" d="M78.3532 80.6017C78.1879 80.6016 78.0264 80.5524 77.8891 80.4604C77.7518 80.3683 77.6451 80.2374 77.5823 80.0845C77.5196 79.9315 77.5038 79.7634 77.5369 79.6015C77.57 79.4395 77.6505 79.2911 77.7682 79.175L79.4999 77.4717L75.4666 79.805C75.2861 79.9084 75.0734 79.9406 74.8704 79.8952C74.6674 79.8499 74.4887 79.7302 74.3694 79.5598C74.2501 79.3893 74.1989 79.1804 74.2259 78.9742C74.2528 78.7679 74.3559 78.5791 74.5149 78.445L77.0716 76.2983L75.4666 77.225C75.2919 77.3257 75.0867 77.3597 74.8889 77.3206C74.6912 77.2816 74.5142 77.1722 74.3909 77.0127C74.2677 76.8532 74.2064 76.6544 74.2184 76.4532C74.2305 76.252 74.3151 76.062 74.4566 75.9183L78.9316 71.38L75.4666 73.38C75.2952 73.478 75.0946 73.512 74.9005 73.4759C74.7064 73.4398 74.5314 73.3359 74.4067 73.1828C74.282 73.0297 74.2158 72.8373 74.2197 72.64C74.2236 72.4426 74.2975 72.253 74.4282 72.105L77.6766 68.4667L75.4666 69.7433C75.295 69.8424 75.0937 69.8771 74.8989 69.8412C74.704 69.8053 74.5283 69.7012 74.4033 69.5475C74.2783 69.3938 74.2122 69.2006 74.2167 69.0025C74.2213 68.8044 74.2963 68.6145 74.4282 68.4667L75.5166 67.25L75.4666 67.2767C75.3243 67.3584 75.1611 67.3962 74.9973 67.3856C74.8336 67.3749 74.6767 67.3161 74.5463 67.2166C74.4158 67.1171 74.3176 66.9814 74.264 66.8263C74.2104 66.6712 74.2037 66.5038 74.2449 66.345L74.6966 64.6233C74.5585 64.5588 74.4408 64.4576 74.3563 64.3308C74.2718 64.204 74.2236 64.0565 74.2171 63.9042C74.2105 63.752 74.2459 63.6008 74.3193 63.4673C74.3926 63.3337 74.5012 63.2228 74.6332 63.1467L75.4666 62.6667C75.609 62.5842 75.7727 62.5458 75.9369 62.5562C76.1012 62.5667 76.2586 62.6255 76.3895 62.7254C76.5203 62.8252 76.6187 62.9615 76.6721 63.1172C76.7256 63.2728 76.7318 63.4408 76.6899 63.6L76.3566 64.835L79.1732 63.21C79.3446 63.112 79.5452 63.078 79.7393 63.1141C79.9334 63.1502 80.1084 63.2541 80.2331 63.4072C80.3578 63.5603 80.424 63.7526 80.4201 63.95C80.4161 64.1474 80.3422 64.337 80.2116 64.485L79.1249 65.7017L81.3366 64.425C81.5081 64.3259 81.7094 64.2912 81.9042 64.3271C82.0991 64.363 82.2748 64.4671 82.3998 64.6208C82.5248 64.7745 82.5909 64.9678 82.5864 65.1658C82.5818 65.3639 82.5068 65.5539 82.3749 65.7017L79.1316 69.3333L83.4366 66.8467C83.6112 66.7447 83.817 66.7097 84.0156 66.7482C84.2141 66.7868 84.3918 66.8962 84.5157 67.0561C84.6395 67.2161 84.7009 67.4156 84.6885 67.6174C84.6761 67.8193 84.5907 68.0098 84.4482 68.1533L79.9699 72.6917L84.4832 70.0883C84.6635 69.9853 84.8758 69.9533 85.0784 69.9986C85.281 70.0439 85.4595 70.1632 85.5788 70.3331C85.6981 70.5031 85.7496 70.7115 85.7233 70.9174C85.697 71.1234 85.5947 71.3121 85.4366 71.4467L82.8816 73.59L84.3299 72.7567C84.5054 72.6568 84.7112 72.624 84.909 72.6644C85.1068 72.7048 85.2833 72.8157 85.4055 72.9764C85.5277 73.1372 85.5875 73.3368 85.5735 73.5383C85.5596 73.7397 85.4731 73.9293 85.3299 74.0717L82.9966 76.3683C83.1615 76.4032 83.312 76.4872 83.4281 76.6094C83.5443 76.7315 83.6207 76.886 83.6472 77.0525C83.6738 77.2189 83.6492 77.3895 83.5768 77.5417C83.5043 77.6939 83.3875 77.8206 83.2416 77.905L78.7699 80.4883C78.6437 80.5629 78.4998 80.602 78.3532 80.6017Z" fill="#444477"/>
<path id="Vector_4" d="M27.5 80.7834C27.3196 80.7841 27.1439 80.7255 27 80.6167C26.8696 80.5192 26.7705 80.3857 26.7151 80.2325C26.6597 80.0794 26.6504 79.9134 26.6884 79.755L27.0584 78.2117L22.975 80.5684C22.8004 80.6691 22.5952 80.703 22.3974 80.664C22.1996 80.625 22.0227 80.5156 21.8994 80.3561C21.7761 80.1966 21.7148 79.9978 21.7269 79.7966C21.739 79.5953 21.8236 79.4053 21.965 79.2617L23.39 77.8167L21.0117 79.19C20.8369 79.2861 20.6333 79.3162 20.4382 79.275C20.243 79.2338 20.0691 79.1239 19.948 78.9653C19.827 78.8067 19.7668 78.61 19.7785 78.4109C19.7902 78.2117 19.8729 78.0233 20.0117 77.88L23.2417 74.6484L20.47 76.2484C20.2905 76.3499 20.0798 76.3813 19.8785 76.3365C19.6772 76.2916 19.4997 76.1737 19.3802 76.0056C19.2608 75.8375 19.208 75.631 19.232 75.4262C19.2559 75.2214 19.355 75.0327 19.51 74.8967L21.01 73.6084L20.4717 73.9184C20.2918 74.0206 20.0803 74.0523 19.8784 74.0072C19.6764 73.9621 19.4985 73.8435 19.3791 73.6745C19.2598 73.5055 19.2076 73.2981 19.2327 73.0927C19.2578 72.8873 19.3585 72.6986 19.515 72.5633L20.8484 71.4234L20.4717 71.64C20.2943 71.7376 20.0876 71.7673 19.8899 71.7235C19.6923 71.6798 19.5173 71.5656 19.3977 71.4023C19.2781 71.239 19.222 71.0378 19.2399 70.8362C19.2578 70.6346 19.3485 70.4463 19.495 70.3067L21.9617 68.0684L20.4717 68.9267C20.309 69.021 20.1191 69.0575 19.9331 69.0303C19.747 69.0031 19.5755 68.9137 19.4467 68.7767C19.3177 68.6391 19.2393 68.4618 19.2241 68.2738C19.209 68.0858 19.2581 67.8982 19.3634 67.7417L20.665 65.8067C20.4982 65.8316 20.3278 65.8062 20.1755 65.7337C20.0232 65.6613 19.896 65.5451 19.81 65.4C19.6999 65.209 19.67 64.9821 19.7269 64.769C19.7837 64.556 19.9227 64.3741 20.1134 64.2634L22.875 62.67C23.0377 62.5757 23.2276 62.5392 23.4137 62.5664C23.5998 62.5936 23.7712 62.683 23.9 62.82C24.0294 62.9578 24.1081 63.1354 24.1233 63.3238C24.1384 63.5121 24.0891 63.7 23.9834 63.8567L22.7517 65.69L27.8717 62.7367C28.049 62.6391 28.2558 62.6094 28.4535 62.6532C28.6511 62.6969 28.8261 62.8111 28.9457 62.9744C29.0653 63.1377 29.1214 63.3389 29.1035 63.5405C29.0856 63.7421 28.9949 63.9304 28.8484 64.07L26.3867 66.3034L27.8867 65.4434C28.0663 65.343 28.2767 65.3127 28.4774 65.3582C28.6781 65.4037 28.8548 65.5218 28.9736 65.6898C29.0923 65.8579 29.1447 66.0639 29.1207 66.2682C29.0967 66.4726 28.9979 66.6608 28.8434 66.7967L27.51 67.94L27.8984 67.7167C28.0779 67.6135 28.2894 67.5809 28.4917 67.6252C28.694 67.6694 28.8725 67.7874 28.9926 67.9561C29.1126 68.1249 29.1655 68.3322 29.141 68.5378C29.1165 68.7434 29.0163 68.9326 28.86 69.0684L27.36 70.3534L27.9 70.0417C28.0751 69.9444 28.2793 69.9134 28.4754 69.9544C28.6714 69.9954 28.8461 70.1056 28.9675 70.2648C29.089 70.4241 29.149 70.6218 29.1366 70.8217C29.1242 71.0216 29.0402 71.2103 28.9 71.3534L25.6667 74.5817L27.9034 73.2917C28.078 73.1897 28.2838 73.1547 28.4824 73.1933C28.6809 73.2318 28.8587 73.3412 28.9825 73.5012C29.1063 73.6611 29.1677 73.8606 29.1553 74.0625C29.1429 74.2643 29.0575 74.4548 28.915 74.5984L27.4867 76.0434L27.9117 75.7984C28.0529 75.7169 28.2148 75.6787 28.3775 75.6883C28.5401 75.698 28.6964 75.7551 28.827 75.8526C28.9575 75.9502 29.0566 76.0839 29.1119 76.2372C29.1673 76.3904 29.1765 76.5566 29.1384 76.715L28.6617 78.7017C28.8042 78.7622 28.9271 78.8612 29.0165 78.9877C29.1058 79.1141 29.1582 79.263 29.1678 79.4175C29.1773 79.5721 29.1435 79.7262 29.0703 79.8627C28.9971 79.9991 28.8874 80.1125 28.7534 80.19L27.92 80.67C27.7925 80.7443 27.6476 80.7834 27.5 80.7834Z" fill="#444477"/>
<path id="Vector_5" d="M35.39 84.1167C35.2151 84.1167 35.0446 84.0616 34.9028 83.9594C34.7609 83.8571 34.6547 83.7128 34.5994 83.5469C34.5441 83.3809 34.5424 83.2018 34.5946 83.0349C34.6467 82.8679 34.7501 82.7216 34.89 82.6167L40.475 78.3867L30.7467 84C30.5632 84.1044 30.347 84.1353 30.1416 84.0865C29.9363 84.0377 29.7571 83.9127 29.6403 83.7369C29.5235 83.561 29.4778 83.3474 29.5124 83.1392C29.547 82.931 29.6593 82.7436 29.8267 82.615L40.4417 74.5833L27.4417 82.0833C27.255 82.1917 27.0335 82.2234 26.8238 82.1717C26.6142 82.12 26.4329 81.989 26.3179 81.8062C26.203 81.6234 26.1635 81.4032 26.2077 81.1919C26.2519 80.9806 26.3764 80.7947 26.555 80.6733L32.8333 76.4L27.1333 79.6883C26.9468 79.7933 26.727 79.8224 26.5195 79.7696C26.312 79.7169 26.1328 79.5863 26.019 79.405C25.9052 79.2237 25.8656 79.0056 25.9083 78.7958C25.951 78.586 26.0727 78.4007 26.2483 78.2783L32.3017 74.1667L27.135 77.15C26.9509 77.2547 26.7339 77.2853 26.5281 77.2357C26.3222 77.1862 26.143 77.0601 26.0267 76.8832C25.9104 76.7062 25.8659 76.4917 25.9021 76.283C25.9383 76.0744 26.0526 75.8874 26.2217 75.76L36.7083 67.9783L27.1333 73.5C26.9516 73.6067 26.7362 73.6405 26.5305 73.5948C26.3248 73.549 26.1441 73.427 26.0248 73.2534C25.9054 73.0797 25.8563 72.8673 25.8872 72.6588C25.9182 72.4504 26.027 72.2615 26.1917 72.13L33.7417 66.0067L27.1333 69.8333C26.9574 69.9362 26.75 69.971 26.5501 69.9312C26.3503 69.8914 26.172 69.7799 26.0489 69.6175C25.9257 69.4552 25.8663 69.2534 25.8819 69.0502C25.8975 68.8471 25.9869 68.6567 26.1333 68.515L30.6667 64.105L27.1333 66.145C26.9739 66.2365 26.7887 66.2728 26.6065 66.2481C26.4244 66.2234 26.2555 66.1392 26.1261 66.0086C25.9968 65.8779 25.9143 65.7081 25.8915 65.5257C25.8687 65.3433 25.9068 65.1585 26 65L27.57 62.3967C27.4739 62.4491 27.3685 62.4821 27.2596 62.4937C27.1508 62.5054 27.0407 62.4955 26.9357 62.4646C26.8307 62.4337 26.7328 62.3825 26.6476 62.3138C26.5624 62.2451 26.4916 62.1603 26.4392 62.0642C26.3868 61.9681 26.3538 61.8626 26.3421 61.7538C26.3305 61.645 26.3403 61.5349 26.3712 61.4299C26.4021 61.3249 26.4534 61.227 26.5221 61.1418C26.5908 61.0566 26.6756 60.9858 26.7717 60.9333L29.5333 59.34C29.6932 59.2484 29.8789 59.2123 30.0614 59.2375C30.2439 59.2626 30.413 59.3475 30.5421 59.4789C30.6713 59.6104 30.7532 59.7809 30.7751 59.9638C30.7971 60.1467 30.7577 60.3318 30.6633 60.49L29.095 63.0933L35.6283 59.3217C35.8042 59.2188 36.0117 59.184 36.2115 59.2238C36.4114 59.2636 36.5897 59.3752 36.7128 59.5375C36.836 59.6998 36.8954 59.9016 36.8798 60.1048C36.8642 60.3079 36.7748 60.4983 36.6283 60.64L32.1 65.0367L42.0367 59.3C42.2181 59.196 42.4321 59.164 42.6361 59.2104C42.84 59.2568 43.0191 59.3782 43.1377 59.5505C43.2562 59.7228 43.3057 59.9334 43.2762 60.1405C43.2467 60.3476 43.1403 60.536 42.9783 60.6683L35.4283 66.7917L48.4283 59.2917C48.6123 59.1892 48.8283 59.1602 49.0327 59.2105C49.2372 59.2608 49.4151 59.3866 49.5306 59.5627C49.6461 59.7388 49.6906 59.9521 49.6553 60.1596C49.6199 60.3672 49.5073 60.5537 49.34 60.6817L38.8517 68.465L51.205 61.3333C51.392 61.2225 51.615 61.1892 51.8262 61.2404C52.0375 61.2917 52.2204 61.4234 52.3358 61.6076C52.4513 61.7918 52.4902 62.0139 52.4443 62.2263C52.3984 62.4388 52.2712 62.6249 52.09 62.745L46.04 66.8517L51.2067 63.8683C51.3934 63.76 51.6149 63.7283 51.8245 63.78C52.0341 63.8317 52.2155 63.9627 52.3304 64.1455C52.4453 64.3282 52.4849 64.5485 52.4406 64.7598C52.3964 64.9711 52.2719 65.157 52.0933 65.2783L45.8167 69.5567L51.215 66.4417C51.3985 66.3373 51.6147 66.3063 51.8201 66.3552C52.0254 66.404 52.2046 66.529 52.3214 66.7048C52.4382 66.8806 52.4839 67.0942 52.4493 67.3025C52.4147 67.5107 52.3024 67.6981 52.135 67.8267L41.52 75.8617L51.2233 70.2583C51.4068 70.1539 51.623 70.123 51.8284 70.1718C52.0338 70.2207 52.2129 70.3456 52.3297 70.5215C52.4465 70.6973 52.4922 70.9109 52.4576 71.1191C52.423 71.3274 52.3107 71.5147 52.1433 71.6433L46.555 75.875L51.23 73.1767C51.4132 73.073 51.6289 73.0425 51.8337 73.0913C52.0385 73.1402 52.2172 73.2647 52.3339 73.4399C52.4506 73.6151 52.4967 73.828 52.4629 74.0358C52.4291 74.2435 52.3179 74.4308 52.1517 74.56L50.2267 76.0283L51.235 75.4467C51.4155 75.3432 51.6281 75.311 51.8312 75.3564C52.0342 75.4018 52.2129 75.5215 52.3322 75.6919C52.4514 75.8624 52.5026 76.0712 52.4757 76.2775C52.4488 76.4838 52.3457 76.6725 52.1867 76.8067L51.0433 77.7617L51.24 77.65C51.4012 77.5598 51.5879 77.5257 51.7706 77.5531C51.9533 77.5805 52.1218 77.6679 52.2494 77.8014C52.3771 77.935 52.4567 78.1072 52.4758 78.291C52.4949 78.4748 52.4524 78.6597 52.355 78.8167L51.055 80.8167L51.2467 80.7067C51.3415 80.6464 51.4476 80.6059 51.5585 80.5877C51.6694 80.5694 51.7828 80.5738 51.892 80.6005C52.0012 80.6273 52.1038 80.6758 52.1937 80.7432C52.2836 80.8107 52.359 80.8956 52.4152 80.9929C52.4715 81.0902 52.5074 81.1979 52.521 81.3095C52.5345 81.421 52.5254 81.5342 52.4941 81.6421C52.4628 81.7501 52.4099 81.8506 52.3388 81.9375C52.2676 82.0245 52.1796 82.0962 52.08 82.1483L48.8833 84C48.7219 84.0954 48.5327 84.1326 48.3472 84.1057C48.1617 84.0787 47.9909 83.9891 47.8633 83.8517C47.7346 83.716 47.6552 83.541 47.638 83.3548C47.6208 83.1686 47.6667 82.982 47.7683 82.825L49.0667 80.825L43.5667 84.0017C43.3861 84.1069 43.1726 84.1405 42.9685 84.0958C42.7644 84.051 42.5845 83.9312 42.4646 83.7601C42.3446 83.589 42.2933 83.379 42.3209 83.1719C42.3484 82.9647 42.4528 82.7755 42.6133 82.6417L43.7567 81.6883L39.7417 84C39.5585 84.1037 39.3428 84.1342 39.138 84.0853C38.9332 84.0365 38.7545 83.912 38.6378 83.7368C38.5211 83.5616 38.475 83.3487 38.5088 83.1409C38.5426 82.9331 38.6538 82.7458 38.82 82.6167L40.7417 81.1517L35.8067 84C35.6807 84.0754 35.5368 84.1157 35.39 84.1167Z" fill="#444477"/>
<path id="Vector_6" d="M25.805 37.4583C25.6215 37.4583 25.4432 37.3978 25.2977 37.2861C25.1522 37.1744 25.0476 37.0179 25.0001 36.8407C24.9526 36.6635 24.9649 36.4756 25.0351 36.3061C25.1053 36.1366 25.2295 35.9951 25.3883 35.9033L42.8666 25.8133C43.0475 25.7107 43.2601 25.6795 43.4629 25.7256C43.6656 25.7718 43.8437 25.8921 43.9623 26.0629C44.0809 26.2336 44.1313 26.4426 44.1038 26.6487C44.0762 26.8547 43.9726 27.0431 43.8133 27.1767L39.26 30.9467L42.8666 28.865C43.0396 28.7648 43.2427 28.7301 43.4391 28.7672C43.6355 28.8043 43.812 28.9107 43.9365 29.0671C44.0609 29.2235 44.125 29.4194 44.1171 29.6191C44.1092 29.8188 44.0298 30.009 43.8933 30.155L41.1366 33.1133L42.7 32.2117C42.7948 32.1514 42.9009 32.1109 43.0118 32.0926C43.1227 32.0744 43.2361 32.0788 43.3453 32.1055C43.4545 32.1323 43.5571 32.1808 43.647 32.2482C43.7369 32.3157 43.8123 32.4006 43.8685 32.4979C43.9248 32.5952 43.9607 32.7029 43.9743 32.8144C43.9878 32.926 43.9787 33.0392 43.9474 33.1471C43.9161 33.255 43.8632 33.3555 43.7921 33.4425C43.7209 33.5295 43.6329 33.6012 43.5333 33.6533L37.1516 37.3333C36.9789 37.4324 36.7764 37.4663 36.5809 37.4289C36.3853 37.3916 36.2096 37.2854 36.0855 37.1297C35.9614 36.974 35.8972 36.779 35.9044 36.58C35.9116 36.3811 35.9899 36.1913 36.125 36.045L38.8816 33.085L31.515 37.3367C31.3344 37.4372 31.1229 37.467 30.9216 37.4204C30.7202 37.3737 30.5434 37.2539 30.4255 37.0842C30.3075 36.9145 30.2568 36.7071 30.2832 36.5021C30.3096 36.2971 30.4112 36.1093 30.5683 35.975L35.1233 32.2017L26.2216 37.34C26.0956 37.4155 25.9519 37.4563 25.805 37.4583Z" fill="#444477"/>
<path id="Vector_7" d="M10.5667 45.14C10.3885 45.1399 10.2149 45.0826 10.0716 44.9765C9.9283 44.8705 9.82279 44.7213 9.77056 44.5508C9.71834 44.3803 9.72217 44.1976 9.78148 44.0295C9.84079 43.8613 9.95245 43.7167 10.1001 43.6167L23.5134 34.5367L10.4534 42.075C10.2658 42.1783 10.0457 42.2055 9.83865 42.1508C9.6316 42.0961 9.45355 41.9638 9.34143 41.7814C9.22931 41.599 9.19172 41.3804 9.23646 41.1709C9.28121 40.9615 9.40485 40.7774 9.58174 40.6567L17.3517 35.5834L10.4351 39.5834C10.2479 39.7009 10.0216 39.7393 9.80613 39.6901C9.59062 39.6409 9.40349 39.5081 9.28591 39.3209C9.16833 39.1337 9.12993 38.9074 9.17916 38.6919C9.22839 38.4764 9.36121 38.2893 9.54841 38.1717L23.8817 28.4417L8.46341 37.3334C8.27539 37.4368 8.05473 37.4637 7.84738 37.4084C7.64003 37.3532 7.46197 37.2202 7.35028 37.0369C7.23859 36.8537 7.20188 36.6345 7.24779 36.4249C7.2937 36.2153 7.41869 36.0315 7.59674 35.9117L13.0251 32.4267L5.18174 36.9584C4.99444 37.0649 4.77315 37.0947 4.56432 37.0416C4.35548 36.9885 4.17534 36.8566 4.0617 36.6735C3.94806 36.4904 3.90975 36.2704 3.95482 36.0597C3.99988 35.849 4.12482 35.6639 4.30341 35.5434L21.5301 24.0434L2.79507 34.8584C2.60692 34.9603 2.38675 34.986 2.18019 34.9301C1.97363 34.8741 1.7965 34.7409 1.68551 34.5579C1.57453 34.3749 1.53819 34.1562 1.58403 33.9472C1.62987 33.7382 1.75437 33.5548 1.93174 33.435L8.79674 29.0817L2.16674 32.9084C1.9793 33.0132 1.75863 33.0416 1.55074 32.9877C1.34285 32.9338 1.1638 32.8017 1.05094 32.619C0.938085 32.4363 0.90013 32.217 0.944994 32.007C0.989858 31.797 1.11408 31.6124 1.29174 31.4917L18.4801 20.1934L2.13341 29.6317C1.94655 29.7337 1.72773 29.7603 1.52185 29.7061C1.31598 29.6519 1.13866 29.521 1.02628 29.3401C0.913911 29.1593 0.875004 28.9423 0.917549 28.7337C0.960094 28.5251 1.08086 28.3407 1.25507 28.2184L19.3184 16.1667L2.13341 26.0834C1.94579 26.1921 1.72316 26.2235 1.51279 26.1708C1.30243 26.118 1.12091 25.9854 1.00679 25.801C0.892669 25.6165 0.854937 25.3949 0.901608 25.1831C0.948279 24.9713 1.07568 24.7861 1.25674 24.6667L14.7234 15.7217L2.13341 23C1.94583 23.1033 1.72569 23.1305 1.51865 23.0758C1.3116 23.0211 1.13355 22.8888 1.02143 22.7064C0.909306 22.524 0.871718 22.3054 0.916463 22.0959C0.961207 21.8865 1.08485 21.7024 1.26174 21.5817L7.69674 17.37L2.13341 20.5734C1.94798 20.6663 1.73455 20.6868 1.53485 20.6307C1.33514 20.5747 1.16351 20.4462 1.05351 20.2703C0.943498 20.0945 0.903023 19.884 0.939991 19.6799C0.976959 19.4758 1.08871 19.2928 1.25341 19.1667L7.28674 15.1334L2.13341 18.1C1.94949 18.2062 1.732 18.2381 1.52534 18.1893C1.31868 18.1405 1.13844 18.0146 1.02144 17.8374C0.904439 17.6602 0.859498 17.445 0.895795 17.2358C0.932092 17.0266 1.04689 16.8391 1.21674 16.7117L10.9517 9.42169L2.13341 14.5134C1.95292 14.6168 1.74027 14.649 1.53725 14.6036C1.33424 14.5582 1.15553 14.4386 1.03626 14.2681C0.916996 14.0977 0.865789 13.8888 0.892709 13.6825C0.919628 13.4762 1.02273 13.2875 1.18174 13.1534L8.25174 7.23669L2.13341 10.7684C1.95593 10.87 1.74728 10.9028 1.54718 10.8606C1.34708 10.8183 1.1695 10.704 1.04825 10.5393C0.926998 10.3746 0.87054 10.171 0.889623 9.96743C0.908707 9.76381 1.002 9.57432 1.15174 9.43503L4.66674 6.18836L2.13341 7.65336C1.96347 7.7518 1.76423 7.78706 1.57083 7.75292C1.37743 7.71878 1.2023 7.61744 1.07634 7.46676C0.950382 7.31609 0.881683 7.12577 0.882366 6.92938C0.883049 6.73299 0.953069 6.54315 1.08007 6.39336L2.63674 4.56003C2.45613 4.55077 2.28343 4.48302 2.14471 4.36699C2.006 4.25096 1.90879 4.09295 1.86777 3.91681C1.82675 3.74068 1.84413 3.55598 1.91731 3.3906C1.99048 3.22522 2.11547 3.08813 2.27341 3.00003L5.69007 1.03336C5.86001 0.934918 6.05925 0.899657 6.25265 0.933796C6.44605 0.967936 6.62118 1.06928 6.74714 1.21996C6.8731 1.37063 6.9418 1.56095 6.94112 1.75734C6.94043 1.95373 6.87041 2.14357 6.74341 2.29336L5.45507 3.81169L10.3334 1.00003C10.5109 0.898404 10.7195 0.865591 10.9196 0.907836C11.1197 0.950081 11.2973 1.06443 11.4186 1.22912C11.5398 1.39381 11.5963 1.59734 11.5772 1.80096C11.5581 2.00458 11.4648 2.19407 11.3151 2.33336L7.79507 5.57669L15.7284 1.00003C15.9089 0.894767 16.1224 0.86118 16.3266 0.905923C16.5307 0.950667 16.7106 1.07047 16.8305 1.2416C16.9505 1.41272 17.0018 1.62267 16.9742 1.82982C16.9466 2.03698 16.8423 2.22621 16.6817 2.36003L9.61174 8.27169L22.2151 1.00003C22.399 0.893885 22.6165 0.861956 22.8231 0.910759C23.0298 0.959563 23.21 1.08542 23.327 1.26262C23.444 1.43983 23.489 1.65501 23.4527 1.86423C23.4164 2.07345 23.3016 2.26092 23.1317 2.38836L13.3984 9.66669L28.4284 1.00003C28.6154 0.895195 28.8356 0.866468 29.0433 0.919815C29.2509 0.973162 29.43 1.10448 29.5433 1.28647C29.6566 1.46846 29.6954 1.68712 29.6517 1.89699C29.6079 2.10686 29.485 2.2918 29.3084 2.41336L23.2734 6.44669L32.7101 1.00003C32.8972 0.900564 33.1152 0.876135 33.3197 0.931709C33.5242 0.987282 33.6999 1.11868 33.8109 1.29918C33.922 1.47967 33.9601 1.6957 33.9175 1.9033C33.875 2.1109 33.7549 2.29448 33.5817 2.41669L27.1351 6.63336L36.9017 1.00003C37.0885 0.900386 37.3061 0.875523 37.5105 0.930485C37.7149 0.985446 37.8907 1.11611 38.0022 1.29597C38.1138 1.47582 38.1527 1.69138 38.1112 1.8989C38.0696 2.10642 37.9506 2.29035 37.7784 2.41336L24.3217 11.3517L40.7251 1.88003C40.9124 1.77349 41.1337 1.74364 41.3425 1.79675C41.5513 1.84987 41.7315 1.98181 41.8451 2.16489C41.9588 2.34797 41.9971 2.56795 41.952 2.77866C41.9069 2.98938 41.782 3.17445 41.6034 3.29503L23.5417 15.3484L42.5934 4.34836C42.7812 4.24162 43.003 4.21195 43.2122 4.26558C43.4214 4.31921 43.6016 4.45197 43.7149 4.63587C43.8281 4.81977 43.8655 5.04045 43.8192 5.2514C43.7729 5.46235 43.6466 5.6471 43.4667 5.76669L26.2684 17.07L42.8667 7.48836C43.0552 7.38472 43.2765 7.35796 43.4842 7.41369C43.6919 7.46942 43.8701 7.60331 43.9814 7.78737C44.0927 7.97143 44.1285 8.19139 44.0814 8.40124C44.0342 8.6111 43.9077 8.7946 43.7284 8.91336L36.8701 13.26L42.8701 9.80003C43.0574 9.69349 43.2787 9.66364 43.4875 9.71675C43.6963 9.76987 43.8765 9.90181 43.9901 10.0849C44.1038 10.268 44.1421 10.4879 44.097 10.6987C44.0519 10.9094 43.927 11.0944 43.7484 11.215L26.5317 22.715L42.8651 13.2817C43.0531 13.1783 43.2738 13.1514 43.4811 13.2066C43.6885 13.2618 43.8665 13.3949 43.9782 13.5781C44.0899 13.7613 44.1266 13.9806 44.0807 14.1902C44.0348 14.3998 43.9098 14.5836 43.7317 14.7034L38.2817 18.2034L42.8651 15.5567C43.0521 15.4459 43.275 15.4125 43.4863 15.4638C43.6976 15.515 43.8804 15.6468 43.9959 15.831C44.1114 16.0152 44.1503 16.2372 44.1044 16.4497C44.0585 16.6622 43.9313 16.8483 43.7501 16.9684L29.4167 26.7L42.8667 18.9334C43.0548 18.824 43.2782 18.7925 43.4892 18.8457C43.7002 18.8988 43.882 19.0324 43.9959 19.2178C44.1097 19.4032 44.1465 19.6258 44.0984 19.838C44.0503 20.0502 43.9211 20.2352 43.7384 20.3534L35.9667 25.4217L42.8667 21.4384C43.0536 21.3319 43.2744 21.3017 43.483 21.3543C43.6915 21.4068 43.8717 21.538 43.9858 21.7203C44.0999 21.9027 44.1391 22.122 44.0951 22.3326C44.0512 22.5431 43.9276 22.7285 43.7501 22.85L30.3334 31.9334L42.8684 24.6967C43.0597 24.5879 43.2863 24.5592 43.4986 24.6169C43.711 24.6746 43.8919 24.8139 44.002 25.0045C44.112 25.195 44.1422 25.4214 44.0859 25.6341C44.0297 25.8469 43.8916 26.0287 43.7017 26.14L10.9834 45.0284C10.8569 45.102 10.7131 45.1405 10.5667 45.14Z" fill="#444477"/>
<path id="Vector_8" d="M90.805 37.4866C90.6221 37.486 90.4445 37.4252 90.2996 37.3136C90.1547 37.202 90.0505 37.0459 90.0031 36.8692C89.9557 36.6925 89.9677 36.5052 90.0374 36.336C90.107 36.1669 90.2303 36.0254 90.3884 35.9333L97.815 31.6449C97.9098 31.5894 98.0147 31.5531 98.1236 31.5382C98.2325 31.5233 98.3432 31.5301 98.4495 31.5582C98.5557 31.5863 98.6554 31.6351 98.7427 31.7019C98.83 31.7686 98.9032 31.852 98.9582 31.9472C99.0131 32.0424 99.0487 32.1475 99.0629 32.2564C99.077 32.3654 99.0695 32.4761 99.0407 32.5822C99.0119 32.6883 98.9624 32.7876 98.8951 32.8744C98.8278 32.9613 98.7439 33.034 98.6484 33.0883L91.2217 37.3749C91.0952 37.4485 90.9514 37.4871 90.805 37.4866Z" fill="#D7A609"/>
<path id="Vector_9" d="M87.5667 45.7284C87.4185 45.7285 87.273 45.6892 87.1451 45.6144C87.0172 45.5396 86.9116 45.432 86.8391 45.3028C86.7666 45.1736 86.7298 45.0274 86.7326 44.8793C86.7355 44.7311 86.7777 44.5864 86.855 44.4601L87.5317 43.3534L85.8334 44.3334C85.6593 44.4339 85.4547 44.468 85.2574 44.4296C85.0601 44.3911 84.8833 44.2826 84.7597 44.1241C84.6361 43.9655 84.5739 43.7677 84.5847 43.5669C84.5955 43.3662 84.6785 43.1761 84.8184 43.0317L85.2067 42.6301L84.18 43.2234C83.9985 43.3294 83.7836 43.3629 83.5785 43.3172C83.3733 43.2715 83.193 43.1499 83.0736 42.9768C82.9543 42.8037 82.9048 42.592 82.9351 42.3839C82.9653 42.1759 83.0731 41.987 83.2367 41.8551L89.675 36.6167L81.4284 41.3751C81.2463 41.4741 81.0339 41.5017 80.8326 41.4526C80.6313 41.4034 80.4555 41.2811 80.3395 41.1093C80.2236 40.9376 80.1758 40.7288 80.2054 40.5237C80.2351 40.3186 80.3402 40.1319 80.5 40.0001L88.4784 33.7501L78.58 39.4634C78.394 39.5701 78.174 39.6011 77.9658 39.5497C77.7575 39.4984 77.5771 39.3687 77.462 39.1877C77.347 39.0068 77.3061 38.7884 77.3479 38.578C77.3898 38.3677 77.5111 38.1815 77.6867 38.0584L81.7117 35.2534L76.6567 38.1667C76.4704 38.2703 76.2515 38.2986 76.045 38.2457C75.8384 38.1928 75.6601 38.0628 75.5465 37.8824C75.4329 37.702 75.3928 37.485 75.4344 37.2759C75.4759 37.0668 75.5961 36.8816 75.77 36.7584L79.88 33.9451L74.0084 37.3334C73.8229 37.4376 73.6046 37.4669 73.3981 37.4153C73.1917 37.3637 73.0129 37.2351 72.8982 37.0559C72.7836 36.8767 72.7418 36.6604 72.7815 36.4514C72.8212 36.2424 72.9393 36.0564 73.1117 35.9317L82.675 29.1967L68.5784 37.3334C68.3915 37.4354 68.1727 37.462 67.9668 37.4078C67.7609 37.3536 67.5836 37.2227 67.4713 37.0418C67.3589 36.861 67.32 36.644 67.3625 36.4354C67.4051 36.2268 67.5258 36.0424 67.7 35.9201L75.945 30.4351L64 37.3334C63.8119 37.4354 63.5917 37.461 63.3852 37.4051C63.1786 37.3491 63.0015 37.2159 62.8905 37.0329C62.7795 36.8499 62.7432 36.6313 62.789 36.4222C62.8348 36.2132 62.9593 36.0298 63.1367 35.9101L66.27 33.9101L60.6934 37.1284C60.5065 37.2304 60.2877 37.257 60.0818 37.2028C59.8759 37.1486 59.6986 37.0177 59.5862 36.8368C59.4739 36.656 59.435 36.439 59.4775 36.2304C59.5201 36.0218 59.6408 35.8374 59.815 35.7151L76.3867 24.6667L58.0534 35.2501C57.8647 35.3579 57.6413 35.3877 57.4309 35.3332C57.2206 35.2788 57.0398 35.1442 56.9272 34.9583C56.8145 34.7725 56.779 34.5499 56.8281 34.3382C56.8772 34.1265 57.0071 33.9424 57.19 33.8251L63.1684 30.0417L57.2584 33.4534C57.0709 33.5582 56.8503 33.5867 56.6424 33.5327C56.4345 33.4788 56.2554 33.3467 56.1426 33.164C56.0297 32.9813 55.9918 32.762 56.0366 32.552C56.0815 32.342 56.2057 32.1574 56.3834 32.0367L74.065 20.3884L57.1334 30.1567C56.9455 30.2617 56.7243 30.2899 56.5161 30.2355C56.3078 30.181 56.1288 30.0481 56.0163 29.8646C55.9039 29.6811 55.8668 29.4612 55.9129 29.2509C55.9589 29.0407 56.0845 28.8564 56.2634 28.7367L70.5184 19.4501L57.1334 27.1767C56.9447 27.2846 56.7213 27.3144 56.5109 27.2599C56.3006 27.2054 56.1198 27.0709 56.0072 26.885C55.8945 26.6991 55.859 26.4766 55.9081 26.2649C55.9572 26.0532 56.0871 25.869 56.27 25.7517L61.615 22.3551L57.1334 24.9417C56.9468 25.0466 56.727 25.0758 56.5195 25.023C56.3121 24.9703 56.1329 24.8397 56.0191 24.6584C55.9053 24.4771 55.8656 24.2589 55.9083 24.0492C55.951 23.8394 56.0728 23.6541 56.2484 23.5317L70.77 13.6401L57.1334 21.5117C56.9472 21.6168 56.7278 21.6464 56.5204 21.5943C56.3131 21.5421 56.1337 21.4123 56.0194 21.2316C55.9051 21.051 55.8646 20.8333 55.9063 20.6236C55.948 20.4139 56.0687 20.2283 56.2434 20.1051L66.8684 12.7717L57.1334 18.3901C56.9486 18.4979 56.7294 18.5305 56.5212 18.4811C56.3131 18.4318 56.1319 18.3042 56.0151 18.125C55.8984 17.9457 55.8551 17.7284 55.8941 17.518C55.9332 17.3077 56.0517 17.1204 56.225 16.9951L65.5 10.2234L57.1267 15.0567C56.9449 15.1582 56.7318 15.1879 56.5292 15.1401C56.3266 15.0923 56.1493 14.9704 56.032 14.7984C55.9148 14.6264 55.8662 14.4168 55.8957 14.2107C55.9253 14.0047 56.0309 13.8172 56.1917 13.6851L63.335 7.98005L57.1334 11.5634C56.953 11.6682 56.74 11.7015 56.5362 11.6569C56.3325 11.6122 56.1529 11.4928 56.033 11.3222C55.913 11.1515 55.8614 10.9421 55.8883 10.7353C55.9153 10.5285 56.0187 10.3393 56.1784 10.2051L59.8584 7.09339L57.1334 8.66672C56.9689 8.76103 56.7773 8.79647 56.59 8.76717C56.4027 8.73788 56.231 8.64562 56.1032 8.5056C55.9754 8.36558 55.8992 8.18619 55.8871 7.99702C55.875 7.80784 55.9278 7.6202 56.0367 7.46505L58.2217 4.38339L58.1067 4.44839C57.9163 4.54801 57.6947 4.5702 57.4883 4.51032C57.2818 4.45043 57.1065 4.3131 56.999 4.12702C56.8914 3.94094 56.8599 3.72049 56.911 3.51172C56.9622 3.30296 57.092 3.12203 57.2734 3.00672L60.69 1.03339C60.8546 0.93838 61.0468 0.902488 61.2346 0.931664C61.4224 0.960839 61.5945 1.05333 61.7226 1.19379C61.8506 1.33426 61.9267 1.51426 61.9384 1.70395C61.9501 1.89364 61.8965 2.08162 61.7867 2.23672L59.6034 5.31672L67.0884 1.00005C67.2685 0.897433 67.4803 0.865607 67.6826 0.910788C67.8849 0.955968 68.0631 1.07491 68.1824 1.2444C68.3017 1.41389 68.3536 1.62176 68.3279 1.82743C68.3022 2.0331 68.2007 2.22181 68.0434 2.35672L64.3767 5.46339L72.1034 1.00005C72.2851 0.898616 72.4983 0.868874 72.7009 0.916679C72.9035 0.964484 73.0808 1.08637 73.1981 1.25837C73.3153 1.43036 73.3639 1.64 73.3344 1.84605C73.3048 2.05209 73.1992 2.23961 73.0384 2.37172L65.89 8.07672L78.1567 1.00005C78.3414 0.894994 78.5593 0.864456 78.7657 0.914684C78.9722 0.964912 79.1517 1.09211 79.2675 1.27027C79.3832 1.44843 79.4266 1.6641 79.3887 1.87317C79.3507 2.08224 79.2344 2.26893 79.0634 2.39505L69.785 9.16672L83.9317 1.00005C84.1176 0.896179 84.3362 0.86741 84.5427 0.919654C84.7491 0.971898 84.9277 1.10119 85.0418 1.28099C85.1559 1.46078 85.1969 1.67744 85.1562 1.88648C85.1156 2.09552 84.9965 2.28107 84.8234 2.40505L74.2067 9.73839L89.3334 1.00005C89.5196 0.898914 89.7373 0.872487 89.9422 0.926148C90.1472 0.979808 90.324 1.10953 90.4368 1.28892C90.5495 1.46831 90.5897 1.68391 90.5491 1.89187C90.5085 2.09982 90.3903 2.28452 90.2184 2.40839L75.6934 12.3017L94.6934 1.33339C94.8817 1.22811 95.1035 1.19999 95.3122 1.25494C95.5209 1.30989 95.7001 1.44362 95.8121 1.62801C95.9242 1.81239 95.9603 2.03306 95.913 2.24357C95.8657 2.45408 95.7386 2.63803 95.5584 2.75672L90.225 6.14505L96.5 2.53005C96.6875 2.42946 96.9063 2.40434 97.1116 2.45984C97.3169 2.51535 97.4933 2.64727 97.6045 2.82858C97.7157 3.0099 97.7534 3.22688 97.7098 3.43507C97.6662 3.64327 97.5447 3.82691 97.37 3.94839L83.0984 13.2417L97.725 4.79839C97.9125 4.69355 98.1332 4.66512 98.341 4.71904C98.5489 4.77295 98.728 4.90505 98.8408 5.08777C98.9537 5.27049 98.9917 5.48973 98.9468 5.69976C98.9019 5.90979 98.7777 6.09439 98.6 6.21505L80.9134 17.8667L97.8667 8.08005C98.0552 7.97641 98.2764 7.94965 98.4842 8.00538C98.6919 8.06111 98.8701 8.195 98.9814 8.37906C99.0927 8.56312 99.1285 8.78308 99.0813 8.99294C99.0342 9.2028 98.9077 9.3863 98.7284 9.50505L92.7684 13.2767L97.8667 10.3334C98.054 10.2268 98.2753 10.197 98.4841 10.2501C98.693 10.3032 98.8731 10.4352 98.9868 10.6182C99.1004 10.8013 99.1387 11.0213 99.0936 11.232C99.0486 11.4427 98.9236 11.6278 98.745 11.7484L82.1667 22.8084L97.8667 13.7434C98.0554 13.6356 98.2788 13.6057 98.4891 13.6602C98.6995 13.7147 98.8803 13.8492 98.9929 14.0351C99.1055 14.221 99.1411 14.4435 99.092 14.6552C99.0429 14.8669 98.913 15.0511 98.73 15.1684L95.6 17.1667L97.8667 15.8601C98.0536 15.758 98.2724 15.7314 98.4783 15.7856C98.6841 15.8398 98.8615 15.9708 98.9738 16.1516C99.0862 16.3324 99.1251 16.5494 99.0826 16.758C99.04 16.9666 98.9193 17.151 98.745 17.2734L90.5 22.7617L97.8667 18.5001C98.0522 18.3958 98.2705 18.3665 98.4769 18.4181C98.6833 18.4697 98.8622 18.5983 98.9769 18.7775C99.0915 18.9567 99.1333 19.173 99.0936 19.3821C99.0539 19.5911 98.9357 19.777 98.7634 19.9017L89.2 26.6434L97.8667 21.6434C98.053 21.5398 98.2719 21.5115 98.4785 21.5644C98.685 21.6173 98.8634 21.7473 98.9769 21.9277C99.0905 22.1081 99.1306 22.3252 99.0891 22.5342C99.0475 22.7433 98.9273 22.9285 98.7534 23.0517L94.6667 25.8517L97.8667 24.0001C98.0527 23.8933 98.2727 23.8624 98.481 23.9137C98.6892 23.9651 98.8696 24.0947 98.9847 24.2757C99.0998 24.4567 99.1407 24.6751 99.0988 24.8854C99.057 25.0958 98.9356 25.2819 98.76 25.4051L94.7167 28.2234L97.8667 26.4051C98.0491 26.302 98.2637 26.2714 98.4676 26.3194C98.6715 26.3674 98.8499 26.4905 98.9672 26.6641C99.0845 26.8377 99.132 27.0491 99.1004 27.2562C99.0689 27.4634 98.9604 27.651 98.7967 27.7817L90.8167 34.0334L97.8667 29.9651C98.0479 29.8633 98.2606 29.8329 98.463 29.8799C98.6655 29.9268 98.843 30.0477 98.961 30.2188C99.0789 30.39 99.1286 30.599 99.1004 30.8049C99.0721 31.0107 98.968 31.1986 98.8084 31.3317L90.3634 38.2051C90.4736 38.2681 90.5681 38.3555 90.6394 38.4606C90.7107 38.5657 90.7571 38.6857 90.7749 38.8114C90.7928 38.9372 90.7816 39.0654 90.7424 39.1861C90.7031 39.3069 90.6367 39.4172 90.5484 39.5084L89.9167 40.1617C90.1503 40.1623 90.3749 40.2516 90.545 40.4117C90.6745 40.5443 90.7561 40.7162 90.7769 40.9003C90.7978 41.0844 90.7566 41.2703 90.66 41.4284L89.8584 42.7417C90.0407 42.7438 90.2173 42.8056 90.3612 42.9177C90.505 43.0298 90.6081 43.186 90.6546 43.3623C90.7012 43.5386 90.6886 43.7254 90.6188 43.8938C90.549 44.0623 90.4259 44.2033 90.2684 44.2951L87.9834 45.6151C87.8572 45.6895 87.7133 45.7287 87.5667 45.7284Z" fill="#D7A609"/>
<path id="Vector_10" d="M24.6033 30.7834C24.4353 30.7832 24.2714 30.7324 24.1328 30.6374C23.9943 30.5425 23.8877 30.4079 23.827 30.2513C23.7663 30.0948 23.7543 29.9235 23.7926 29.76C23.8309 29.5965 23.9177 29.4483 24.0416 29.335L28.5599 25.2084L19.8333 30.2434C19.6539 30.3462 19.4428 30.3787 19.2408 30.3345C19.0389 30.2904 18.8605 30.1727 18.7405 30.0044C18.6204 29.8362 18.5672 29.6293 18.5911 29.424C18.615 29.2186 18.7144 29.0295 18.8699 28.8934L25.1249 23.44L15.4583 29.0184C15.2761 29.1208 15.062 29.1511 14.8586 29.1032C14.6551 29.0552 14.4771 28.9325 14.3598 28.7595C14.2426 28.5864 14.1946 28.3756 14.2255 28.1689C14.2564 27.9622 14.3639 27.7746 14.5266 27.6434L18.0266 24.8784L15.4383 26.3784C15.2543 26.4808 15.0384 26.5098 14.8339 26.4595C14.6294 26.4092 14.4515 26.2834 14.336 26.1073C14.2205 25.9312 14.176 25.718 14.2113 25.5104C14.2467 25.3028 14.3593 25.1163 14.5266 24.9884L16.4299 23.5784L15.4299 24.155C15.2455 24.2591 15.0283 24.2891 14.8226 24.2388C14.6168 24.1885 14.4379 24.0618 14.3223 23.8844C14.2066 23.707 14.1628 23.4921 14.1999 23.2836C14.2369 23.0751 14.3519 22.8885 14.5216 22.7617L16.7716 21.1167L15.4183 21.8984C15.2742 21.9815 15.1085 22.0197 14.9425 22.0079C14.7766 21.9961 14.6179 21.9349 14.4871 21.8322C14.3562 21.7295 14.2591 21.5899 14.2082 21.4315C14.1573 21.2731 14.155 21.1031 14.2016 20.9434L14.5949 19.61C14.464 19.5398 14.3542 19.4358 14.277 19.3089C14.1997 19.1819 14.1578 19.0366 14.1556 18.8881C14.1534 18.7395 14.191 18.593 14.2644 18.4638C14.3378 18.3347 14.4445 18.2275 14.5733 18.1534L15.4066 17.675C15.5508 17.5927 15.7162 17.5553 15.8818 17.5677C16.0473 17.58 16.2054 17.6415 16.3358 17.7443C16.4662 17.8471 16.5629 17.9865 16.6135 18.1446C16.6641 18.3027 16.6664 18.4723 16.6199 18.6317L16.3899 19.4217L29.3649 11.9217C29.5494 11.8176 29.7666 11.7876 29.9723 11.8379C30.1781 11.8882 30.3569 12.0149 30.4726 12.1923C30.5883 12.3698 30.632 12.5846 30.595 12.7931C30.558 13.0016 30.4429 13.1883 30.2733 13.315L28.0183 14.9634L28.2699 14.82C28.454 14.7154 28.671 14.6847 28.8768 14.7343C29.0827 14.7838 29.262 14.9099 29.3782 15.0869C29.4945 15.2638 29.5391 15.4784 29.5028 15.687C29.4666 15.8956 29.3524 16.0826 29.1833 16.21L27.2533 17.6367C27.4387 17.5462 27.6511 17.5277 27.8494 17.5848C28.0477 17.6419 28.2177 17.7706 28.3266 17.9458C28.4355 18.1211 28.4755 18.3305 28.4388 18.5336C28.4022 18.7366 28.2915 18.9189 28.1283 19.045L24.6199 21.81L31.7266 17.7084C31.9059 17.6055 32.1171 17.5731 32.319 17.6172C32.521 17.6614 32.6993 17.779 32.8194 17.9473C32.9395 18.1155 32.9927 18.3224 32.9688 18.5278C32.9449 18.7331 32.8455 18.9222 32.6899 19.0584L26.4466 24.5L34.3699 19.9267C34.5473 19.8278 34.7547 19.7971 34.9531 19.8404C35.1516 19.8836 35.3274 19.9979 35.4475 20.1616C35.5677 20.3253 35.6239 20.5273 35.6056 20.7296C35.5873 20.9318 35.4958 21.1205 35.3483 21.26L30.8333 25.3917L34.5366 23.255C34.7123 23.1537 34.9189 23.1199 35.1177 23.16C35.3165 23.2001 35.4939 23.3114 35.6166 23.4729C35.7392 23.6344 35.7988 23.8351 35.7841 24.0374C35.7693 24.2397 35.6814 24.4296 35.5366 24.5717L34.1583 25.92L34.5383 25.7017C34.7287 25.6021 34.9503 25.5799 35.1567 25.6398C35.3631 25.6996 35.5385 25.837 35.646 26.0231C35.7536 26.2091 35.7851 26.4296 35.7339 26.6384C35.6828 26.8471 35.553 27.0281 35.3716 27.1434L29.2566 30.6667C29.0809 30.768 28.8743 30.8018 28.6755 30.7617C28.4767 30.7216 28.2993 30.6103 28.1767 30.4488C28.054 30.2873 27.9944 30.0866 28.0091 29.8843C28.0239 29.682 28.1118 29.4921 28.2566 29.35L29.6333 28.0034L25.0199 30.67C24.8937 30.7445 24.7498 30.7836 24.6033 30.7834Z" fill="white"/>
<path id="Vector_11" d="M21.7701 15.845C21.6167 15.8439 21.4666 15.8004 21.3364 15.7195C21.2061 15.6386 21.1007 15.5232 21.0318 15.3862C20.9629 15.2492 20.9331 15.0959 20.9457 14.943C20.9583 14.7902 21.0129 14.6438 21.1034 14.52L23.8117 10.8117C23.6332 10.801 23.4628 10.7331 23.3258 10.6181C23.1888 10.5031 23.0925 10.3471 23.051 10.1731C23.0095 9.99914 23.0251 9.81642 23.0955 9.65199C23.1658 9.48755 23.2872 9.35012 23.4417 9.26L26.1951 7.66667C26.3604 7.57246 26.553 7.53767 26.7408 7.56809C26.9286 7.5985 27.1004 7.69229 27.2276 7.83385C27.3547 7.97541 27.4296 8.15623 27.4398 8.34625C27.4499 8.53626 27.3947 8.72403 27.2834 8.87833L24.7717 12.3167L29.2834 9.71167C29.3782 9.65137 29.4843 9.61089 29.5952 9.59264C29.7061 9.5744 29.8195 9.57878 29.9287 9.60552C30.0379 9.63226 30.1405 9.68081 30.2304 9.74824C30.3203 9.81567 30.3957 9.90059 30.4519 9.99789C30.5082 10.0952 30.5441 10.2029 30.5577 10.3144C30.5713 10.426 30.5621 10.5392 30.5308 10.6471C30.4995 10.7551 30.4466 10.8555 30.3755 10.9425C30.3043 11.0295 30.2163 11.1012 30.1167 11.1533L22.1867 15.7317C22.0602 15.8054 21.9165 15.8445 21.7701 15.845Z" fill="white"/>
<path id="Vector_12" d="M13.515 30.7833C13.3677 30.783 13.2231 30.7437 13.096 30.6694C12.9688 30.595 12.8636 30.4883 12.7911 30.3601C12.7186 30.2319 12.6814 30.0867 12.6833 29.9394C12.6851 29.7921 12.726 29.648 12.8017 29.5216L14.2534 27.0933L10.5 29.265C10.3211 29.3687 10.1099 29.4022 9.90755 29.3589C9.70524 29.3155 9.52629 29.1985 9.4055 29.0305C9.28471 28.8625 9.23073 28.6556 9.25406 28.4501C9.27739 28.2445 9.37636 28.0549 9.53171 27.9183L10.1267 27.3933C9.9913 27.403 9.85553 27.38 9.73083 27.3264C9.60612 27.2727 9.49611 27.1899 9.41004 27.085C9.28528 26.9303 9.2199 26.7361 9.22571 26.5374C9.23151 26.3388 9.30812 26.1488 9.44171 26.0016L12.4017 22.7533L10.475 23.8633C10.3037 23.9613 10.103 23.9953 9.90894 23.9592C9.71483 23.9231 9.53986 23.8192 9.41519 23.6661C9.29051 23.513 9.22424 23.3206 9.22819 23.1233C9.23213 22.9259 9.30602 22.7363 9.43671 22.5883L11.5884 20.1783L10.475 20.82C10.3148 20.9183 10.126 20.9596 9.93937 20.9371C9.75272 20.9145 9.57916 20.8296 9.4469 20.696C9.31464 20.5624 9.23144 20.3879 9.21083 20.2011C9.19022 20.0142 9.23341 19.8258 9.33338 19.6666L9.94671 18.6416C9.78385 18.6038 9.63613 18.5179 9.52276 18.395C9.40938 18.2721 9.33558 18.118 9.31095 17.9526C9.28633 17.7873 9.31201 17.6183 9.38467 17.4677C9.45733 17.3172 9.5736 17.1919 9.71838 17.1083L11.6567 16C11.8164 15.9081 12.0021 15.8718 12.1846 15.8967C12.3672 15.9215 12.5363 16.0062 12.6657 16.1374C12.795 16.2687 12.8772 16.439 12.8994 16.6219C12.9216 16.8048 12.8825 16.9899 12.7884 17.1483L12.4117 17.7766L15.245 16.145C15.4164 16.0469 15.617 16.013 15.8111 16.0491C16.0053 16.0852 16.1802 16.189 16.3049 16.3421C16.4296 16.4952 16.4958 16.6876 16.4919 16.885C16.488 17.0824 16.4141 17.272 16.2834 17.42L14.1317 19.8333L16.2 18.6383C16.3721 18.5393 16.5739 18.5049 16.769 18.5414C16.9642 18.578 17.1398 18.683 17.2645 18.8375C17.3891 18.9921 17.4544 19.186 17.4487 19.3845C17.443 19.5829 17.3666 19.7728 17.2334 19.92L14.2734 23.1666L16.2 22.05C16.379 21.9462 16.5902 21.9127 16.7925 21.956C16.9948 21.9994 17.1738 22.1164 17.2946 22.2844C17.4154 22.4524 17.4694 22.6593 17.446 22.8649C17.4227 23.0704 17.3237 23.26 17.1684 23.3966L16.5584 23.9333C16.6787 23.923 16.7997 23.9401 16.9126 23.9831C17.0254 24.026 17.1271 24.0939 17.21 24.1816C17.3391 24.3132 17.4209 24.4839 17.4426 24.667C17.4644 24.85 17.4248 25.0351 17.33 25.1933L15.8784 27.6233L16.2 27.4383C16.3905 27.3387 16.6121 27.3165 16.8185 27.3764C17.0249 27.4362 17.2002 27.5736 17.3078 27.7597C17.4153 27.9457 17.4469 28.1662 17.3957 28.375C17.3446 28.5837 17.2148 28.7646 17.0334 28.88L13.9317 30.6666C13.8058 30.7423 13.6619 30.7826 13.515 30.7833Z" fill="#444477"/>
<path id="Vector_13" d="M75.8901 28.3817C75.7188 28.3813 75.5517 28.3282 75.4117 28.2295C75.2717 28.1308 75.1655 27.9913 75.1075 27.8301C75.0496 27.6689 75.0428 27.4937 75.088 27.3285C75.1332 27.1633 75.2282 27.016 75.3601 26.9067L79.9301 23.1383L73.6751 26.7483C73.4922 26.8527 73.2767 26.884 73.0717 26.8359C72.8667 26.7878 72.6876 26.6639 72.5702 26.4891C72.4528 26.3143 72.406 26.1016 72.439 25.8937C72.4721 25.6858 72.5826 25.4981 72.7484 25.3683L77.8018 21.46L71.4884 25.105C71.3071 25.2104 71.0927 25.2436 70.888 25.1979C70.6833 25.1523 70.5034 25.0311 70.3841 24.8586C70.2648 24.686 70.2149 24.4749 70.2445 24.2672C70.274 24.0596 70.3808 23.8707 70.5434 23.7383L78.0584 17.5816L69.2067 22.69C69.0248 22.7919 68.8112 22.8219 68.6082 22.774C68.4052 22.7262 68.2275 22.6039 68.1102 22.4314C67.993 22.2589 67.9447 22.0486 67.9749 21.8423C68.0051 21.6359 68.1116 21.4483 68.2734 21.3167L74.2251 16.6033L67.8234 20.2983C67.6459 20.4046 67.4351 20.441 67.2322 20.4004C67.0293 20.3599 66.8487 20.2453 66.7256 20.0789C66.6025 19.9126 66.5457 19.7064 66.5663 19.5005C66.5868 19.2946 66.6832 19.1037 66.8368 18.965L70.3234 15.6833L67.1668 17.51C67.0003 17.6068 66.8055 17.6429 66.6154 17.6123C66.4253 17.5817 66.2517 17.4862 66.124 17.342C65.9964 17.1979 65.9226 17.014 65.9152 16.8216C65.9078 16.6292 65.9672 16.4402 66.0834 16.2867L68.6551 12.87L68.5117 12.9516C68.3213 13.0513 68.0997 13.0735 67.8933 13.0136C67.6869 12.9537 67.5116 12.8164 67.404 12.6303C67.2964 12.4442 67.2649 12.2238 67.3161 12.015C67.3672 11.8062 67.497 11.6253 67.6784 11.51L71.3651 9.38165C71.5314 9.28566 71.7257 9.25003 71.9152 9.28078C72.1047 9.31154 72.2778 9.4068 72.4052 9.55046C72.5326 9.69411 72.6065 9.87735 72.6144 10.0692C72.6222 10.261 72.5636 10.4497 72.4484 10.6033L69.8751 14.0217L75.6968 10.6667C75.8743 10.5587 76.0858 10.5209 76.2898 10.5608C76.4938 10.6008 76.6755 10.7155 76.7992 10.8824C76.923 11.0494 76.9799 11.2566 76.9588 11.4633C76.9376 11.6701 76.84 11.8615 76.6851 12L73.2001 15.27L83.2468 9.46998C83.4288 9.36617 83.6433 9.33476 83.8474 9.382C84.0516 9.42925 84.2305 9.55168 84.3484 9.7249C84.4663 9.89813 84.5147 10.1094 84.4838 10.3167C84.4529 10.524 84.3451 10.712 84.1818 10.8433L78.2284 15.5583L86.0701 11.0317C86.2511 10.9303 86.4633 10.9002 86.6654 10.947C86.8675 10.9939 87.0448 11.1144 87.1627 11.285C87.2806 11.4557 87.3307 11.6641 87.3031 11.8697C87.2755 12.0753 87.1722 12.2632 87.0134 12.3967L79.5001 18.555L87.6668 13.8433C87.8495 13.741 88.0641 13.7112 88.2679 13.76C88.4716 13.8087 88.6495 13.9324 88.7661 14.1064C88.8828 14.2804 88.9296 14.492 88.8973 14.699C88.865 14.9059 88.7559 15.0931 88.5918 15.2233L83.5318 19.1367L87.7768 16.6883C87.9576 16.5857 88.1702 16.5545 88.373 16.6006C88.5757 16.6468 88.7538 16.7671 88.8724 16.9379C88.991 17.1086 89.0415 17.3176 89.0139 17.5236C88.9863 17.7297 88.8827 17.918 88.7234 18.0517L84.1618 21.8133L86.2601 20.6017C86.4514 20.4929 86.6779 20.4642 86.8903 20.5219C87.1027 20.5795 87.2836 20.7188 87.3937 20.9094C87.5037 21.1 87.5339 21.3263 87.4776 21.5391C87.4214 21.7518 87.2833 21.9337 87.0934 22.045L76.3118 28.27C76.1839 28.3447 76.0382 28.3833 75.8901 28.3817Z" fill="white"/>
<path id="Vector_14" d="M70.0132 95.7833C69.8658 95.7834 69.721 95.7443 69.5936 95.6701C69.4662 95.5958 69.3608 95.4892 69.2881 95.3609C69.2154 95.2326 69.178 95.0873 69.1798 94.9399C69.1816 94.7925 69.2224 94.6482 69.2982 94.5217L70.9649 91.7533L67.3199 93.8567C67.1463 93.957 66.9423 93.9914 66.7455 93.9535C66.5486 93.9156 66.3719 93.808 66.248 93.6504C66.124 93.4928 66.061 93.2958 66.0705 93.0955C66.0801 92.8952 66.1615 92.7051 66.2999 92.56L68.6899 90.06L64.7232 92.35C64.5443 92.4507 64.3346 92.4817 64.1342 92.4373C63.9338 92.3928 63.7568 92.276 63.6372 92.1091C63.5177 91.9423 63.4639 91.7372 63.4862 91.5331C63.5086 91.329 63.6054 91.1404 63.7582 91.0033L66.3499 88.7367L62.4149 91C62.2312 91.1052 62.0144 91.1366 61.8084 91.0878C61.6024 91.039 61.4227 90.9136 61.3058 90.7371C61.189 90.5606 61.1436 90.3462 61.179 90.1375C61.2145 89.9288 61.328 89.7414 61.4966 89.6133L61.9016 89.31L60.6999 90.0033C60.5205 90.1078 60.3086 90.1416 60.1056 90.098C59.9027 90.0545 59.7233 89.9367 59.6025 89.7679C59.4818 89.599 59.4285 89.3911 59.453 89.185C59.4775 88.9788 59.578 88.7893 59.7349 88.6533L66.3099 82.9167L57.3816 88.0717C57.1968 88.1795 56.9776 88.2121 56.7694 88.1627C56.5613 88.1134 56.3801 87.9859 56.2633 87.8066C56.1466 87.6273 56.1033 87.41 56.1423 87.1997C56.1814 86.9893 56.2999 86.8021 56.4732 86.6767L60.2249 83.94L55.2332 86.8333C55.0498 86.9378 54.8335 86.9687 54.6282 86.9198C54.4228 86.871 54.2437 86.746 54.1269 86.5702C54.0101 86.3944 53.9643 86.1808 53.9989 85.9725C54.0335 85.7643 54.1459 85.577 54.3132 85.4483L62.0882 79.5667L52.3799 85.1667C52.1951 85.2745 51.9759 85.3071 51.7678 85.2577C51.5596 85.2084 51.3784 85.0809 51.2617 84.9016C51.1449 84.7223 51.1016 84.505 51.1407 84.2947C51.1798 84.0843 51.2982 83.8971 51.4716 83.7717L60.2066 77.3983L50.4649 83.0217C50.2793 83.1245 50.0614 83.1526 49.8558 83.1003C49.6501 83.0479 49.4722 82.9191 49.3582 82.7401C49.2443 82.5611 49.2029 82.3454 49.2426 82.137C49.2822 81.9285 49.3999 81.743 49.5716 81.6183L56.8332 76.5633L50.4699 80.23C50.283 80.3365 50.0622 80.3666 49.8537 80.3141C49.6451 80.2615 49.4649 80.1304 49.3509 79.948C49.2368 79.7657 49.1976 79.5463 49.2415 79.3358C49.2855 79.1252 49.4091 78.9398 49.5866 78.8183L53.5866 76.1067L50.4649 77.9083C50.2807 78.0116 50.0642 78.041 49.8591 77.9907C49.654 77.9405 49.4756 77.8142 49.36 77.6374C49.2445 77.4607 49.2003 77.2467 49.2365 77.0386C49.2727 76.8306 49.3865 76.644 49.5549 76.5167L60.7216 68.3017L50.4666 74.2217C50.2799 74.3251 50.0606 74.3529 49.8539 74.2994C49.6473 74.2459 49.4691 74.1152 49.356 73.9341C49.2429 73.7531 49.2036 73.5356 49.2462 73.3264C49.2888 73.1173 49.41 72.9324 49.5849 72.81L53.0749 70.455L50.4649 71.955C50.2786 72.0634 50.0576 72.0954 49.8482 72.0443C49.6388 71.9932 49.4573 71.863 49.3419 71.6809C49.2265 71.4989 49.1862 71.2792 49.2293 71.068C49.2724 70.8568 49.3957 70.6706 49.5732 70.5483L56.3332 65.8633L50.4516 69.2583C50.2651 69.3649 50.0448 69.3954 49.8364 69.3434C49.628 69.2915 49.4477 69.1611 49.3332 68.9795C49.2186 68.7978 49.1786 68.579 49.2214 68.3685C49.2643 68.1581 49.3868 67.9724 49.5632 67.85L54.9782 64.1383L50.4482 66.755C50.2629 66.8607 50.0441 66.8913 49.8368 66.8405C49.6296 66.7897 49.4497 66.6613 49.3343 66.4818C49.219 66.3023 49.1768 66.0854 49.2166 65.8758C49.2564 65.6661 49.3751 65.4797 49.5482 65.355L58.3566 59.0983L50.4449 63.6667C50.2588 63.7772 50.0369 63.811 49.8263 63.7608C49.6157 63.7106 49.4329 63.5805 49.3166 63.3979C49.2003 63.2153 49.1596 62.9946 49.2031 62.7825C49.2467 62.5704 49.371 62.3836 49.5499 62.2617L54.6299 58.7117L50.4432 61.1283C50.3484 61.1886 50.2423 61.2291 50.1314 61.2474C50.0205 61.2656 49.9071 61.2612 49.7979 61.2345C49.6888 61.2077 49.5861 61.1592 49.4962 61.0918C49.4063 61.0243 49.3309 60.9394 49.2747 60.8421C49.2185 60.7448 49.1825 60.6371 49.1689 60.5256C49.1554 60.414 49.1645 60.3008 49.1958 60.1929C49.2272 60.085 49.28 59.9845 49.3511 59.8975C49.4223 59.8105 49.5103 59.7388 49.6099 59.6867L70.4516 47.65C70.6377 47.5395 70.8596 47.5057 71.0702 47.5559C71.2808 47.6061 71.4636 47.7362 71.5799 47.9188C71.6962 48.1014 71.7369 48.3221 71.6933 48.5342C71.6498 48.7462 71.5254 48.933 71.3466 49.055L66.2549 52.6133L72.8682 48.7967C73.0535 48.6935 73.2711 48.6648 73.4767 48.7165C73.6824 48.7681 73.8606 48.8962 73.9751 49.0747C74.0896 49.2531 74.1318 49.4685 74.093 49.677C74.0543 49.8854 73.9375 50.0713 73.7666 50.1967L64.9666 56.4467L72.8716 51.885C73.0579 51.7814 73.2768 51.7531 73.4833 51.806C73.6898 51.8589 73.8682 51.9889 73.9818 52.1693C74.0954 52.3497 74.1355 52.5668 74.0939 52.7759C74.0523 52.9849 73.9322 53.1701 73.7582 53.2933L68.3332 57.0117L72.8782 54.39C73.0645 54.2816 73.2856 54.2496 73.495 54.3007C73.7044 54.3518 73.8858 54.4821 74.0012 54.6641C74.1166 54.8462 74.157 55.0658 74.1139 55.277C74.0707 55.4882 73.9474 55.6745 73.7699 55.7967L66.9999 60.485L72.8716 57.0967C73.0579 56.9968 73.2752 56.9715 73.4795 57.0258C73.6838 57.0801 73.8598 57.2101 73.9719 57.3893C74.084 57.5685 74.1237 57.7837 74.0831 57.9912C74.0425 58.1986 73.9246 58.3829 73.7532 58.5067L70.2616 60.8633L72.8732 59.3633C73.0574 59.2601 73.274 59.2307 73.4791 59.2809C73.6842 59.3312 73.8625 59.4575 73.9781 59.6342C74.0937 59.811 74.1378 60.025 74.1017 60.233C74.0655 60.4411 73.9517 60.6276 73.7832 60.755L62.6332 68.9617L72.8816 63.0433C73.0686 62.9325 73.2915 62.8992 73.5028 62.9504C73.7141 63.0017 73.8969 63.1335 74.0124 63.3176C74.1279 63.5018 74.1668 63.7239 74.1209 63.9363C74.0749 64.1488 73.9478 64.335 73.7666 64.455L69.7399 67.1817L72.8849 65.3667C73.071 65.2561 73.2929 65.2224 73.5035 65.2726C73.7141 65.3227 73.8969 65.4529 74.0132 65.6355C74.1295 65.8181 74.1702 66.0388 74.1267 66.2508C74.0831 66.4629 73.9588 66.6497 73.7799 66.7717L66.5266 71.8333L72.8882 68.1667C73.0727 68.0626 73.2899 68.0326 73.4956 68.0829C73.7014 68.1332 73.8802 68.2599 73.9959 68.4373C74.1116 68.6147 74.1553 68.8295 74.1183 69.0381C74.0813 69.2466 73.9662 69.4332 73.7966 69.56L65.0732 75.9233L72.8916 71.41C73.075 71.3056 73.2913 71.2747 73.4966 71.3235C73.702 71.3724 73.8812 71.4973 73.9979 71.6731C74.1147 71.849 74.1605 72.0626 74.1259 72.2708C74.0913 72.479 73.9789 72.6664 73.8116 72.795L66.0316 78.6667L72.8949 74.705C73.0797 74.5972 73.2989 74.5646 73.507 74.614C73.7152 74.6633 73.8964 74.7908 74.0132 74.9701C74.1299 75.1494 74.1732 75.3667 74.1341 75.577C74.0951 75.7874 73.9766 75.9746 73.8032 76.1L70.0516 78.8333L72.8982 77.19C73.0776 77.0855 73.2895 77.0518 73.4925 77.0953C73.6955 77.1389 73.8749 77.2566 73.9956 77.4255C74.1163 77.5944 74.1697 77.8022 74.1452 78.0084C74.1207 78.2145 74.0202 78.4041 73.8632 78.54L67.2916 84.2733L72.9016 81.035C73.0853 80.9298 73.3021 80.8984 73.5081 80.9472C73.7141 80.9961 73.8937 81.1215 74.0106 81.2979C74.1275 81.4744 74.1728 81.6888 74.1374 81.8975C74.102 82.1062 73.9885 82.2936 73.8199 82.4217L73.1532 82.9217C73.312 82.8898 73.4765 82.9043 73.6272 82.9634C73.778 83.0225 73.9085 83.1237 74.0032 83.255C74.1236 83.4232 74.1771 83.6301 74.1534 83.8356C74.1297 84.041 74.0304 84.2303 73.8749 84.3667L71.2849 86.6317L72.9116 85.6933C73.0851 85.5942 73.2886 85.5608 73.4848 85.5991C73.6809 85.6375 73.8568 85.7451 73.9803 85.9023C74.1037 86.0595 74.1666 86.2558 74.1573 86.4555C74.1481 86.6552 74.0674 86.8449 73.9299 86.99L71.5399 89.49L72.9149 88.6967C73.0746 88.6048 73.2603 88.5685 73.4428 88.5934C73.6254 88.6183 73.7945 88.7029 73.9238 88.8342C74.0532 88.9654 74.1354 89.1358 74.1576 89.3187C74.1798 89.5016 74.1407 89.6867 74.0466 89.845L72.3799 92.6133L72.9132 92.3067C73.0081 92.2464 73.1142 92.2059 73.2251 92.1877C73.336 92.1694 73.4494 92.1738 73.5586 92.2005C73.6677 92.2273 73.7703 92.2758 73.8603 92.3432C73.9502 92.4107 74.0255 92.4956 74.0818 92.5929C74.138 92.6902 74.174 92.7979 74.1876 92.9095C74.2011 93.021 74.1919 93.1342 74.1606 93.2421C74.1293 93.3501 74.0765 93.4506 74.0053 93.5376C73.9342 93.6245 73.8462 93.6963 73.7466 93.7483L70.4299 95.6667C70.304 95.7423 70.1601 95.7826 70.0132 95.7833Z" fill="#E4F1FF"/>
<path id="Vector_15" d="M73.3799 99.1133C73.2252 99.1133 73.0735 99.0702 72.9418 98.9889C72.8102 98.9075 72.7038 98.7911 72.6346 98.6527C72.5654 98.5142 72.5361 98.3593 72.55 98.2051C72.5638 98.051 72.6204 97.9038 72.7132 97.78L73.4382 96.8267L71.3899 98.0083C71.2218 98.1047 71.0253 98.1395 70.8343 98.1066C70.6433 98.0738 70.4697 97.9754 70.3434 97.8284C70.2171 97.6814 70.146 97.4949 70.1423 97.3011C70.1386 97.1074 70.2026 96.9184 70.3232 96.7667L73.1799 93.205L70.4616 94.7733C70.2877 94.8725 70.0838 94.9058 69.8874 94.8671C69.6909 94.8284 69.515 94.7202 69.3918 94.5623C69.2686 94.4045 69.2063 94.2076 69.2163 94.0076C69.2264 93.8076 69.3081 93.618 69.4466 93.4733L71.8583 90.985L70.4616 91.79C70.2892 91.8879 70.0876 91.9211 69.8929 91.8838C69.6982 91.8464 69.5232 91.7408 69.3994 91.5861C69.2755 91.4313 69.2109 91.2374 69.2171 91.0393C69.2233 90.8411 69.2999 90.6517 69.4332 90.505L72.2816 87.4183L70.4616 88.4683C70.2871 88.5677 70.0827 88.6008 69.8858 88.5615C69.6889 88.5222 69.5129 88.4131 69.39 88.2543C69.2671 88.0956 69.2057 87.8978 69.217 87.6973C69.2283 87.4969 69.3116 87.3073 69.4516 87.1633L71.7099 84.8683L70.4616 85.5883C70.29 85.6874 70.0887 85.7221 69.8939 85.6862C69.6991 85.6503 69.5234 85.5462 69.3984 85.3925C69.2734 85.2388 69.2072 85.0456 69.2118 84.8475C69.2163 84.6494 69.2913 84.4594 69.4232 84.3117L72.5349 80.825L70.4616 82.0217C70.2898 82.1207 70.0884 82.1553 69.8935 82.1192C69.6985 82.0831 69.5229 81.9787 69.398 81.8247C69.2731 81.6707 69.2072 81.4772 69.2122 81.279C69.2171 81.0808 69.2925 80.8909 69.4249 80.7433L72.5132 77.295L70.4616 78.4783C70.288 78.5775 70.0846 78.6109 69.8884 78.5726C69.6922 78.5342 69.5164 78.4266 69.3929 78.2694C69.2694 78.1122 69.2066 77.9158 69.2158 77.7162C69.2251 77.5165 69.3058 77.3268 69.4432 77.1817L71.9533 74.5633L70.4616 75.425C70.289 75.524 70.0867 75.558 69.8913 75.5209C69.6958 75.4837 69.5201 75.3779 69.3959 75.2225C69.2717 75.067 69.2071 74.8723 69.214 74.6735C69.2209 74.4746 69.2986 74.2848 69.4332 74.1383L72.2832 71.0483L70.4616 72.1C70.288 72.1991 70.0846 72.2326 69.8884 72.1942C69.6922 72.1559 69.5164 72.0483 69.3929 71.8911C69.2694 71.7339 69.2066 71.5375 69.2158 71.3378C69.2251 71.1382 69.3058 70.9484 69.4432 70.8033L71.9999 68.1183L70.4616 69.005C70.2892 69.104 70.0871 69.1381 69.8917 69.1012C69.6964 69.0642 69.5207 68.9587 69.3963 68.8036C69.272 68.6484 69.2072 68.454 69.2137 68.2552C69.2201 68.0565 69.2974 67.8667 69.4316 67.72L72.3082 64.5933L70.4616 65.66C70.2893 65.759 70.0874 65.7932 69.8922 65.7565C69.6969 65.7198 69.5212 65.6145 69.3967 65.4597C69.2723 65.3048 69.2072 65.1106 69.2133 64.912C69.2194 64.7135 69.2962 64.5236 69.4299 64.3766L72.3666 61.16L70.4616 62.2583C70.2905 62.3564 70.0902 62.3906 69.8963 62.355C69.7024 62.3193 69.5274 62.216 69.4024 62.0634C69.2775 61.9109 69.2107 61.719 69.2139 61.5218C69.2171 61.3247 69.2901 61.135 69.4199 60.9866L72.5982 57.395L70.4616 58.6266C70.2898 58.7257 70.0884 58.7603 69.8935 58.7242C69.6985 58.6881 69.5229 58.5837 69.398 58.4297C69.2731 58.2757 69.2072 58.0822 69.2122 57.884C69.2171 57.6858 69.2925 57.4959 69.4249 57.3483L72.5049 53.9133L70.4616 55.0917C70.2824 55.1941 70.0716 55.2265 69.87 55.1825C69.6684 55.1384 69.4902 55.0211 69.3701 54.8533C69.25 54.6855 69.1964 54.479 69.2198 54.274C69.2432 54.0689 69.3418 53.8798 69.4966 53.7433L70.0549 53.255C69.9296 53.2683 69.803 53.2474 69.6885 53.1946C69.5741 53.1418 69.4761 53.059 69.4049 52.955C69.2789 52.8049 69.2098 52.6151 69.2098 52.4191C69.2098 52.2232 69.2789 52.0334 69.4049 51.8833L71.8133 49.05L70.4583 49.8316C70.2899 49.9289 70.0929 49.9643 69.9013 49.9316C69.7096 49.8989 69.5354 49.8003 69.4089 49.6527C69.2823 49.5052 69.2113 49.318 69.2081 49.1236C69.205 48.9293 69.2699 48.7399 69.3916 48.5883L70.2966 47.4583C70.1381 47.4148 69.996 47.3254 69.8882 47.2014C69.7804 47.0774 69.7116 46.9243 69.6906 46.7613C69.6696 46.5983 69.6972 46.4327 69.7701 46.2854C69.8429 46.1381 69.9577 46.0156 70.0999 45.9333L72.8632 44.34C73.0314 44.2436 73.2279 44.2088 73.4189 44.2417C73.6099 44.2745 73.7835 44.3729 73.9098 44.5199C74.0361 44.6669 74.1072 44.8534 74.1109 45.0472C74.1145 45.241 74.0506 45.43 73.9299 45.5816L73.4532 46.1783L75.1299 45.21C75.2998 45.1115 75.4991 45.0763 75.6925 45.1104C75.8859 45.1446 76.061 45.2459 76.187 45.3966C76.3129 45.5473 76.3816 45.7376 76.381 45.934C76.3803 46.1304 76.3103 46.3202 76.1832 46.47L73.7766 49.3033L76.1916 47.91C76.3707 47.8075 76.5815 47.7751 76.7832 47.8192C76.9848 47.8632 77.1629 47.9805 77.283 48.1483C77.4032 48.3161 77.4567 48.5226 77.4334 48.7276C77.41 48.9327 77.3114 49.1218 77.1566 49.2583L76.5982 49.7466C76.8469 49.7667 77.08 49.8755 77.2549 50.0533C77.3804 50.2074 77.4466 50.4013 77.4417 50.5999C77.4368 50.7986 77.3611 50.9889 77.2283 51.1366L74.1482 54.5716L76.1916 53.3933C76.3628 53.2942 76.5638 53.2592 76.7584 53.2947C76.9531 53.3302 77.1288 53.4337 77.2541 53.5869C77.3793 53.74 77.446 53.9328 77.4422 54.1306C77.4384 54.3284 77.3643 54.5184 77.2332 54.6666L74.0532 58.2583L76.1916 57.0266C76.3636 56.9287 76.5649 56.8953 76.7594 56.9322C76.9539 56.9692 77.1288 57.0742 77.253 57.2284C77.3771 57.3826 77.4423 57.5759 77.4368 57.7738C77.4314 57.9717 77.3557 58.1612 77.2232 58.3083L74.2883 61.5233L76.1916 60.425C76.364 60.326 76.5661 60.2918 76.7614 60.3288C76.9568 60.3657 77.1325 60.4713 77.2568 60.6264C77.3812 60.7815 77.446 60.976 77.4395 61.1747C77.433 61.3734 77.3557 61.5633 77.2216 61.71L74.3516 64.8333L76.1999 63.7683C76.3733 63.6704 76.576 63.6377 76.7714 63.6763C76.9667 63.7149 77.1418 63.8222 77.2649 63.9787C77.388 64.1353 77.451 64.3307 77.4424 64.5297C77.4338 64.7286 77.3543 64.9179 77.2183 65.0633L74.6666 67.7466L76.2032 66.86C76.3758 66.761 76.5781 66.727 76.7736 66.7641C76.969 66.8012 77.1447 66.9071 77.269 67.0625C77.3932 67.2179 77.4577 67.4127 77.4508 67.6115C77.444 67.8103 77.3662 68.0002 77.2316 68.1467L74.3799 71.2367L76.2032 70.185C76.377 70.0846 76.5812 70.0503 76.7782 70.0884C76.9752 70.1265 77.1519 70.2344 77.2758 70.3923C77.3996 70.5502 77.4623 70.7475 77.4524 70.9479C77.4424 71.1484 77.3605 71.3385 77.2216 71.4833L74.7083 74.1017L76.2082 73.24C76.38 73.1409 76.5814 73.1064 76.7763 73.1425C76.9713 73.1786 77.147 73.283 77.2718 73.437C77.3967 73.591 77.4626 73.7844 77.4577 73.9826C77.4527 74.1808 77.3773 74.3707 77.2449 74.5183L74.1482 77.9667L76.1999 76.7833C76.3715 76.6842 76.5727 76.6495 76.7676 76.6854C76.9624 76.7213 77.1381 76.8255 77.2631 76.9792C77.3881 77.1329 77.4543 77.3261 77.4497 77.5242C77.4452 77.7222 77.3702 77.9122 77.2382 78.06L74.1299 81.545L76.1999 80.3483C76.3744 80.2489 76.5788 80.2158 76.7757 80.2552C76.9726 80.2945 77.1486 80.4035 77.2715 80.5623C77.3944 80.7211 77.4558 80.9189 77.4445 81.1193C77.4332 81.3198 77.3499 81.5094 77.2099 81.6533L74.9499 83.9517L76.1999 83.23C76.3725 83.131 76.5748 83.097 76.7702 83.1341C76.9657 83.1712 77.1414 83.2771 77.2656 83.4325C77.3898 83.5879 77.4544 83.7827 77.4475 83.9815C77.4406 84.1803 77.3629 84.3702 77.2283 84.5167L74.3833 87.6L76.1999 86.5517C76.3738 86.4524 76.5777 86.4191 76.7741 86.4579C76.9706 86.4966 77.1465 86.6048 77.2697 86.7626C77.3929 86.9205 77.4552 87.1174 77.4451 87.3173C77.4351 87.5173 77.3534 87.707 77.2149 87.8517L74.8016 90.3517L76.1999 89.545C76.368 89.4496 76.5641 89.4155 76.7546 89.4488C76.945 89.482 77.118 89.5804 77.2438 89.7272C77.3697 89.8739 77.4406 90.0598 77.4445 90.2531C77.4483 90.4464 77.3848 90.635 77.2649 90.7867L74.4099 94.3333L76.1999 93.2983C76.3667 93.2027 76.5613 93.1677 76.7509 93.1992C76.9405 93.2307 77.1134 93.3267 77.2403 93.4711C77.3672 93.6154 77.4403 93.7992 77.4472 93.9913C77.4541 94.1833 77.3944 94.3719 77.2782 94.525L76.2666 95.8583C76.4366 95.885 76.5941 95.9637 76.7176 96.0836C76.8411 96.2034 76.9244 96.3585 76.9562 96.5277C76.988 96.6968 76.9666 96.8716 76.8951 97.0281C76.8235 97.1846 76.7053 97.3151 76.5566 97.4017L73.7966 98.995C73.6709 99.0712 73.5269 99.1121 73.3799 99.1133Z" fill="#444477"/>
<g id="Group">
<path id="Vector_16" d="M14.5448 30.7416C15.4829 30.7426 16.3903 30.408 17.1032 29.7983C22.6387 31.3189 28.4688 31.4152 34.0515 30.0783C36.9882 28.3116 36.2182 24.4633 36.2182 21.555C36.1265 17.7216 32.1632 17.2216 29.1132 17.51C32.5398 12.2766 31.1865 4.59328 23.7598 8.60162C20.9648 10.87 21.6482 16.4066 17.7298 17.435C16.3248 14.7983 8.92985 15.1016 8.78818 18.7083C9.21318 23.7683 6.38485 32.5616 14.5448 30.7416ZM15.3332 29.26C15.3515 29.2582 15.3699 29.2582 15.3882 29.26C15.4998 29.2733 15.3965 29.2633 15.3332 29.26ZM22.4448 15.91C24.1115 14.0566 23.9132 8.02162 27.4715 9.48329C30.5032 11.745 27.1032 15.51 26.4548 18.2316C28.7882 21.4816 34.7698 15.3433 33.7882 25.0183C34.0682 27.04 33.5198 29.7016 30.9232 29.185C26.6348 28.91 21.8498 30.06 17.9232 27.915C17.8348 24.9266 17.9132 21.9583 17.8882 18.97C18.8127 18.7877 19.6918 18.4233 20.4741 17.898C21.2564 17.3726 21.9263 16.6968 22.4448 15.91ZM11.3548 17.445C11.3438 17.4528 11.3312 17.4581 11.3179 17.4605C11.3046 17.4629 11.2909 17.4624 11.2779 17.4589C11.2648 17.4554 11.2527 17.449 11.2424 17.4403C11.232 17.4315 11.2238 17.4206 11.2182 17.4083C11.2298 17.4266 11.2848 17.4383 11.3548 17.445ZM11.2115 27.125C11.3782 23.9316 10.8665 20.565 11.4198 17.4583C12.9198 17.605 15.5398 16.61 15.4482 18.8416C15.2815 22.275 15.7982 25.9566 15.2048 29.265C13.4032 29.2166 10.6298 29.8816 11.2115 27.125Z" fill="#262626"/>
<path id="Vector_17" d="M9.92162 45.1483C15.2 46.2683 19.4949 40.01 24.0566 37.9183C30.0949 34.8333 43.3333 41.3916 44.5416 31.0716C42.865 23.4533 49.3116 2.34828 39.12 1.20828C28.4716 2.61495 9.92328 -2.05172 1.60495 3.73828C-1.16672 11.475 1.21162 20.62 0.458282 28.8333C-0.653385 34.4166 3.32328 38.195 8.84162 37.1016C9.06495 39.6183 7.78162 43.3116 9.92162 45.1483ZM3.43828 33.6366C2.09328 24.4433 3.06828 14.6666 2.99995 5.33328C3.94662 1.02495 8.67995 2.12495 11.9583 2.12495C38.385 3.74495 44.1033 -7.20838 42.125 25.3216C44.3116 40.4783 35.2916 35.3966 25.1249 36.3733C20.5166 38.3433 16.6516 42.0783 12.3416 44.56C10.1383 43.06 11.5249 38.7616 11.2066 36.3433C8.45162 35.9133 5.01995 36.85 3.43828 33.6366Z" fill="#262626"/>
<path id="Vector_18" d="M99.5399 7.37159C99.6196 6.53851 99.5162 5.69808 99.2369 4.90915C98.9577 4.12023 98.5093 3.40189 97.9233 2.80444C97.3373 2.20698 96.6277 1.74486 95.8444 1.45042C95.061 1.15599 94.2227 1.03636 93.3882 1.09992C81.9849 1.61326 70.0549 -0.135078 58.8882 1.86992C51.9999 6.85492 56.8332 19.6433 55.4566 27.2749C53.7666 37.9416 61.1082 37.6483 69.2799 37.2316C77.5632 34.7449 92.4999 56.8549 91.2066 37.2533C105.702 37.7983 97.5616 16.3816 99.5399 7.37159ZM73.8816 37.1116C73.9284 37.1503 73.9774 37.1865 74.0282 37.2199C73.9744 37.191 73.925 37.1546 73.8816 37.1116ZM74.0482 37.2299C74.3099 37.3583 74.5116 37.2399 74.0482 37.2299V37.2299ZM97.1216 31.9899C96.7666 38.1949 91.2366 34.6116 88.7882 36.9899C88.4682 39.2816 89.4799 42.4416 88.3299 44.3799C82.9549 41.8333 78.4499 35.3049 72.0416 36.0999H62.3666C54.0332 35.6499 59.1866 12.9199 57.8666 6.36659C57.4999 -1.61674 83.4566 3.66659 89.7482 2.23159C102.903 0.261589 95.1999 24.0266 97.1266 31.9899H97.1216Z" fill="#262626"/>
<path id="Vector_19" d="M84.3965 9.57001C83.2201 9.36138 82.0117 9.42088 80.8615 9.74408C79.7113 10.0673 78.6488 10.6458 77.7532 11.4367C63.2532 3.53167 60.7165 23.8783 76.3932 28.79C84.8332 28.5433 96.3232 13.6467 84.3965 9.57001ZM81.8965 25.2367C80.6636 26.1437 79.3478 26.9322 77.9665 27.5917C63.1998 22.6933 67.0348 3.69334 76.2998 13.2583C76.7148 13.925 78.3882 13.2583 78.7032 12.7433C86.6815 5.02334 90.6665 20.6967 81.8898 25.2417L81.8965 25.2367Z" fill="#262626"/>
<path id="Vector_20" d="M75.1033 44.4266C72.4366 43.53 68.8916 45.3666 68.7983 48.3566C62.5966 51.9233 56.4949 55.64 50.2416 59.1183C43.2416 60.5066 29.6583 55.6183 25.7033 62.3683C22.4816 61.8816 18.6866 63.3683 18.7733 67.0866C18.9666 72.71 16.7449 82.4733 25.6066 80.9383C25.8563 81.995 26.4936 82.9195 27.3923 83.5288C28.2911 84.138 29.3859 84.3877 30.4599 84.2283C30.6266 88.2933 30.1266 92.485 30.6683 96.4866C32.1283 99.9866 37.6949 99.7166 40.1266 97.43C41.7716 95.64 41.0599 93.1066 41.2099 90.905C45.8383 91.6466 50.6216 89.6666 49.5599 84.2283C56.0599 87.8483 62.4549 91.7766 68.9333 95.4633C68.9432 95.9941 69.0655 96.5168 69.2919 96.997C69.5183 97.4771 69.8438 97.904 70.247 98.2494C70.6501 98.5948 71.1218 98.8509 71.6311 99.0009C72.1403 99.151 72.6756 99.1916 73.2016 99.12C81.3683 97.85 76.7399 86.56 77.8849 80.8216C88.5916 79.76 88.8199 63.2766 77.8849 62.4883C76.8049 57.03 80.6416 47.6116 75.1033 44.4266ZM68.7816 49.7216C68.7816 64.2138 68.7816 78.7027 68.7816 93.1883L51.2233 82.9466V59.9633L68.7816 49.7216ZM31.3133 60.8883H48.7766V82.4383C43.6533 81.215 29.3349 85.4383 27.8933 79.69C29.1183 75.2233 24.6466 60.1666 31.3133 60.895V60.8883ZM21.2266 76.055C21.9683 72.045 18.6216 63.005 25.4399 64.2633V79.0533C23.2566 79.405 21.0333 78.6116 21.2266 76.0633V76.055ZM38.0516 97.1433C30.3133 100.268 33.4649 88.455 32.8749 84.2283H38.7949C38.3683 88.4333 39.8333 93.2883 38.0516 97.1433ZM46.7333 88.1833C45.5199 89.86 42.9966 88.8233 41.2116 89.095V84.2283H47.1116C47.2697 85.5587 47.1396 86.9076 46.7299 88.1833H46.7333ZM73.5666 97.525C68.6816 95.73 72.2433 84.4266 71.2133 79.8733C72.0799 76.7316 68.2616 35.0233 75.4483 48.72C75.4561 62.4133 75.4561 76.1083 75.4483 89.805C75.4499 91.6666 76.2766 97.1666 73.5666 97.525ZM83.7716 71.7433C83.7977 73.4442 83.2206 75.0994 82.1428 76.4155C81.065 77.7316 79.556 78.6236 77.8833 78.9333V64.4333C79.542 64.8159 81.0242 65.7444 82.0922 67.0699C83.1602 68.3954 83.7506 70.0412 83.7716 71.7433Z" fill="#262626"/>
</g>
</g>
<defs>
<clipPath id="clip0_98_3238">
<rect width="100" height="100" fill="white"/>
</clipPath>
</defs>
</svg>
