<svg width="100" height="99" viewBox="0 0 100 99" fill="none" xmlns="http://www.w3.org/2000/svg">
<g id="Group 89">
<path id="Rectangle 42" d="M5.2793 0H33.2793L60.7793 1L72.2793 0.5L95.2793 1L98.2793 4.5L98.7793 20.5L98.2793 30.5L95.7793 35L90.2793 36.5V42L88.2793 44L85.2793 43.5L77.2793 37.5L75.7793 46.5L76.2793 62.5L80.2793 63L84.7793 68.5L83.2793 76.5L76.7793 79L75.7793 95.5L73.7793 97.5L67.7793 93L62.2793 90L49.2793 82L47.7793 88.5L39.7793 89.5L39.2793 96.5L35.2793 98L31.7793 96L30.2793 83L25.2793 79.5L19.7793 77.5L19.2793 65L22.7793 62.5H25.7793L29.2793 59.5L35.2793 58.5L49.7793 59L69.7793 47.5L72.7793 44L75.2793 46.5L76.5071 42.1329L76.7793 37.5L72.7793 36H60.7793L56.2793 31V5.5L57.2793 3L59.7793 1.5L48.7793 0.5L37.7793 1L42.7793 4L43.7793 33L38.7793 36H24.7793L12.2793 44.5L9.7793 43.5V36.5L4.7793 35.5L1.2793 32L0.779297 13V1L5.2793 0Z" fill="#19191E"/>
<g id="Group 88" style="mix-blend-mode:luminosity">
<g id="Group 83">
<path id="Vector" d="M25.5843 36.7077C25.4008 36.7077 25.2225 36.6472 25.077 36.5355C24.9315 36.4238 24.8269 36.2673 24.7794 36.0901C24.7319 35.9129 24.7442 35.725 24.8144 35.5555C24.8846 35.386 25.0087 35.2444 25.1676 35.1527L42.6459 25.0627C42.8268 24.9601 43.0394 24.9289 43.2422 24.975C43.4449 25.0212 43.623 25.1415 43.7416 25.3123C43.8602 25.483 43.9106 25.692 43.8831 25.898C43.8555 26.1041 43.7519 26.2924 43.5926 26.426L39.0393 30.1961L42.6459 28.1144C42.8189 28.0142 43.022 27.9795 43.2184 28.0166C43.4148 28.0537 43.5913 28.1601 43.7158 28.3165C43.8402 28.4729 43.9043 28.6688 43.8964 28.8685C43.8885 29.0682 43.8091 29.2584 43.6726 29.4044L40.9159 32.3627L42.4793 31.461C42.5741 31.4008 42.6802 31.3603 42.7911 31.342C42.902 31.3238 43.0154 31.3282 43.1246 31.3549C43.2338 31.3816 43.3364 31.4302 43.4263 31.4976C43.5162 31.565 43.5916 31.65 43.6478 31.7473C43.7041 31.8446 43.74 31.9523 43.7536 32.0638C43.7671 32.1754 43.758 32.2886 43.7267 32.3965C43.6954 32.5044 43.6425 32.6049 43.5714 32.6919C43.5002 32.7789 43.4122 32.8506 43.3126 32.9027L36.9309 36.5827C36.7582 36.6817 36.5557 36.7157 36.3602 36.6783C36.1646 36.641 35.9889 36.5348 35.8648 36.3791C35.7407 36.2234 35.6764 36.0284 35.6837 35.8294C35.6909 35.6305 35.7692 35.4407 35.9043 35.2944L38.6609 32.3344L31.2943 36.5861C31.1137 36.6866 30.9022 36.7164 30.7009 36.6697C30.4995 36.6231 30.3227 36.5033 30.2048 36.3336C30.0868 36.1639 30.0361 35.9564 30.0625 35.7515C30.0889 35.5465 30.1905 35.3586 30.3476 35.2244L34.9026 31.451L26.0009 36.5894C25.8749 36.6649 25.7312 36.7057 25.5843 36.7077Z" fill="#6671FF"/>
<path id="Vector_2" d="M10.3459 44.3894C10.1676 44.3893 9.99409 44.332 9.85078 44.2259C9.70747 44.1199 9.60196 43.9706 9.54974 43.8002C9.49752 43.6297 9.50134 43.447 9.56065 43.2789C9.61996 43.1107 9.73163 42.9661 9.87925 42.8661L23.2926 33.7861L10.2326 41.3244C10.045 41.4277 9.82486 41.4549 9.61782 41.4002C9.41078 41.3455 9.23273 41.2132 9.1206 41.0308C9.00848 40.8484 8.97089 40.6298 9.01564 40.4203C9.06038 40.2109 9.18402 40.0268 9.36092 39.9061L17.1309 34.8328L10.2142 38.8328C10.0271 38.9503 9.80081 38.9887 9.5853 38.9395C9.36979 38.8903 9.18266 38.7575 9.06508 38.5703C8.9475 38.3831 8.9091 38.1568 8.95833 37.9413C9.00756 37.7258 9.14038 37.5387 9.32758 37.4211L23.6609 27.6911L8.24258 36.5828C8.05457 36.6862 7.83391 36.7131 7.62656 36.6578C7.41921 36.6026 7.24115 36.4695 7.12946 36.2863C7.01777 36.1031 6.98105 35.8839 7.02696 35.6743C7.07287 35.4647 7.19787 35.2808 7.37592 35.1611L12.8042 31.6761L4.96092 36.2078C4.77362 36.3143 4.55233 36.3441 4.34349 36.291C4.13466 36.2379 3.95452 36.106 3.84088 35.9229C3.72723 35.7398 3.68892 35.5198 3.73399 35.3091C3.77906 35.0984 3.904 34.9133 4.08258 34.7928L21.3092 23.2928L2.57425 34.1078C2.3861 34.2097 2.16593 34.2354 1.95936 34.1795C1.7528 34.1235 1.57567 33.9902 1.46469 33.8073C1.3537 33.6243 1.31736 33.4056 1.3632 33.1966C1.40904 32.9876 1.53355 32.8042 1.71092 32.6844L8.57592 28.3311L1.94592 32.1578C1.75848 32.2626 1.5378 32.291 1.32991 32.2371C1.12202 32.1832 0.942977 32.0511 0.830118 31.8684C0.71726 31.6856 0.679305 31.4664 0.724169 31.2564C0.769033 31.0463 0.893252 30.8618 1.07092 30.7411L18.2593 19.4428L1.91258 28.8811C1.72572 28.9831 1.5069 29.0097 1.30103 28.9555C1.09515 28.9013 0.917833 28.7704 0.805459 28.5895C0.693086 28.4087 0.654179 28.1917 0.696724 27.9831C0.739269 27.7745 0.860038 27.5901 1.03425 27.4678L19.0976 15.4161L1.91258 25.3328C1.72497 25.4415 1.50233 25.4729 1.29197 25.4202C1.08161 25.3674 0.900087 25.2348 0.785966 25.0503C0.671844 24.8659 0.634112 24.6443 0.680783 24.4325C0.727454 24.2207 0.854851 24.0355 1.03592 23.9161L14.5026 14.9711L1.91258 22.2494C1.72501 22.3527 1.50486 22.3799 1.29782 22.3252C1.09078 22.2705 0.912726 22.1382 0.800603 21.9558C0.68848 21.7734 0.650893 21.5548 0.695637 21.3453C0.740382 21.1359 0.864025 20.9518 1.04092 20.8311L7.47592 16.6194L1.91258 19.8228C1.72715 19.9157 1.51373 19.9362 1.31402 19.8801C1.11432 19.8241 0.942687 19.6956 0.83268 19.5197C0.722673 19.3439 0.682198 19.1333 0.719166 18.9292C0.756134 18.7251 0.867888 18.5422 1.03258 18.4161L7.06592 14.3828L1.91258 17.3494C1.72867 17.4556 1.51117 17.4875 1.30451 17.4387C1.09785 17.3899 0.917616 17.264 0.800615 17.0868C0.683614 16.9096 0.638673 16.6944 0.67497 16.4852C0.711267 16.276 0.826064 16.0885 0.995916 15.9611L10.7309 8.67108L1.91258 13.7628C1.7321 13.8662 1.51945 13.8984 1.31643 13.853C1.11341 13.8076 0.934707 13.688 0.815439 13.5175C0.696171 13.3471 0.644964 13.1382 0.671884 12.9319C0.698803 12.7256 0.801902 12.5369 0.960916 12.4028L8.03092 6.48608L1.91258 10.0177C1.73511 10.1194 1.52646 10.1522 1.32636 10.1099C1.12626 10.0677 0.948678 9.95334 0.827426 9.78865C0.706173 9.62397 0.649715 9.42044 0.668798 9.21682C0.687881 9.0132 0.781174 8.82371 0.930916 8.68442L4.44592 5.43775L1.91258 6.90275C1.74265 7.00119 1.5434 7.03645 1.35001 7.00231C1.15661 6.96817 0.981478 6.86683 0.855517 6.71615C0.729557 6.56548 0.660858 6.37516 0.661541 6.17877C0.662224 5.98238 0.732244 5.79254 0.85925 5.64275L2.41592 3.80942C2.23531 3.80016 2.06261 3.73241 1.92389 3.61638C1.78517 3.50034 1.68797 3.34234 1.64694 3.1662C1.60592 2.99007 1.62331 2.80537 1.69648 2.63999C1.76966 2.47461 1.89465 2.33752 2.05258 2.24942L5.46925 0.282749C5.63919 0.184308 5.83843 0.149046 6.03183 0.183186C6.22523 0.217326 6.40035 0.318673 6.52632 0.469347C6.65228 0.620021 6.72097 0.810341 6.72029 1.00673C6.71961 1.20312 6.64959 1.39295 6.52258 1.54275L5.23425 3.06108L10.1126 0.249416C10.2901 0.147793 10.4987 0.114981 10.6988 0.157226C10.8989 0.199471 11.0765 0.313822 11.1977 0.478512C11.319 0.643201 11.3755 0.846728 11.3564 1.05035C11.3373 1.25397 11.244 1.44346 11.0942 1.58275L7.57425 4.82608L15.5076 0.249416C15.6881 0.144156 15.9016 0.110569 16.1057 0.155313C16.3099 0.200057 16.4897 0.319864 16.6097 0.490988C16.7297 0.662111 16.7809 0.872058 16.7534 1.07921C16.7258 1.28637 16.6214 1.4756 16.4609 1.60942L9.39092 7.52108L21.9943 0.249416C22.1782 0.143275 22.3957 0.111345 22.6023 0.160149C22.809 0.208953 22.9892 0.334808 23.1062 0.512011C23.2232 0.689215 23.2682 0.904399 23.2319 1.11362C23.1956 1.32284 23.0808 1.51031 22.9109 1.63775L13.1776 8.91608L28.2076 0.249416C28.3946 0.144585 28.6148 0.115857 28.8224 0.169204C29.0301 0.222552 29.2092 0.35387 29.3225 0.535859C29.4358 0.717849 29.4746 0.936508 29.4309 1.14638C29.3871 1.35625 29.2642 1.54119 29.0876 1.66275L23.0526 5.69608L32.4893 0.249416C32.6764 0.149954 32.8944 0.125525 33.0989 0.181098C33.3034 0.236672 33.479 0.368074 33.5901 0.548567C33.7012 0.729061 33.7393 0.945085 33.6967 1.15269C33.6541 1.36029 33.5341 1.54387 33.3609 1.66608L26.9143 5.88275L36.6809 0.249416C36.8676 0.149775 37.0853 0.124913 37.2897 0.179874C37.494 0.234836 37.6699 0.365504 37.7814 0.545357C37.893 0.725209 37.9319 0.940772 37.8904 1.14829C37.8488 1.35581 37.7298 1.53974 37.5576 1.66275L24.1009 10.6011L40.5042 1.12942C40.6916 1.02288 40.9128 0.993031 41.1217 1.04614C41.3305 1.09926 41.5107 1.2312 41.6243 1.41428C41.7379 1.59736 41.7762 1.81734 41.7312 2.02805C41.6861 2.23877 41.5612 2.42384 41.3826 2.54442L23.3209 14.5977L42.3726 3.59775C42.5603 3.49101 42.7822 3.46134 42.9914 3.51497C43.2006 3.5686 43.3808 3.70136 43.494 3.88526C43.6073 4.06916 43.6447 4.28984 43.5984 4.50079C43.5521 4.71174 43.4257 4.89648 43.2459 5.01608L26.0476 16.3194L42.6459 6.73775C42.8344 6.63411 43.0556 6.60735 43.2634 6.66308C43.4711 6.71881 43.6493 6.8527 43.7606 7.03676C43.8719 7.22082 43.9077 7.44078 43.8605 7.65063C43.8134 7.86049 43.6869 8.04399 43.5076 8.16275L36.6493 12.5094L42.6493 9.04942C42.8366 8.94288 43.0578 8.91303 43.2667 8.96614C43.4755 9.01926 43.6556 9.1512 43.7693 9.33428C43.8829 9.51736 43.9212 9.73734 43.8762 9.94805C43.8311 10.1588 43.7062 10.3438 43.5276 10.4644L26.3109 21.9644L42.6443 12.5311C42.8323 12.4277 43.0529 12.4008 43.2603 12.456C43.4676 12.5112 43.6457 12.6443 43.7574 12.8275C43.8691 13.0107 43.9058 13.23 43.8599 13.4396C43.814 13.6492 43.689 13.833 43.5109 13.9528L38.0609 17.4528L42.6443 14.8061C42.8313 14.6953 43.0542 14.6619 43.2655 14.7132C43.4767 14.7644 43.6596 14.8962 43.7751 15.0804C43.8906 15.2646 43.9295 15.4866 43.8836 15.6991C43.8376 15.9116 43.7105 16.0977 43.5293 16.2178L29.1959 25.9494L42.6459 18.1828C42.834 18.0734 43.0574 18.0419 43.2684 18.095C43.4794 18.1482 43.6612 18.2817 43.775 18.4672C43.8889 18.6526 43.9257 18.8752 43.8775 19.0874C43.8294 19.2996 43.7002 19.4845 43.5176 19.6028L35.7459 24.6711L42.6459 20.6878C42.8328 20.5813 43.0536 20.5511 43.2621 20.6037C43.4707 20.6562 43.6509 20.7874 43.765 20.9697C43.8791 21.152 43.9182 21.3714 43.8743 21.582C43.8304 21.7925 43.7067 21.9779 43.5293 22.0994L30.1126 31.1828L42.6476 23.9461C42.8389 23.8373 43.0654 23.8086 43.2778 23.8663C43.4902 23.924 43.6711 24.0633 43.7811 24.2538C43.8912 24.4444 43.9214 24.6708 43.8651 24.8835C43.8089 25.0963 43.6708 25.2781 43.4809 25.3894L10.7626 44.2778C10.6361 44.3513 10.4923 44.3899 10.3459 44.3894Z" fill="#6671FF"/>
<path id="Vector_3" d="M24.3827 30.0327C24.2148 30.0326 24.0508 29.9817 23.9123 29.8868C23.7737 29.7919 23.6671 29.6573 23.6064 29.5007C23.5457 29.3441 23.5337 29.1729 23.572 29.0094C23.6103 28.8459 23.6971 28.6977 23.821 28.5844L28.3394 24.4577L19.6127 29.4927C19.4333 29.5956 19.2222 29.628 19.0202 29.5839C18.8183 29.5397 18.64 29.4221 18.5199 29.2538C18.3998 29.0856 18.3466 28.8787 18.3705 28.6733C18.3944 28.468 18.4938 28.2789 18.6494 28.1427L24.9044 22.6894L15.2377 28.2677C15.0555 28.3702 14.8414 28.4005 14.638 28.3526C14.4345 28.3046 14.2565 28.1819 14.1393 28.0089C14.022 27.8358 13.9741 27.625 14.005 27.4183C14.0358 27.2115 14.1433 27.024 14.306 26.8927L17.806 24.1277L15.2177 25.6277C15.0337 25.7302 14.8178 25.7592 14.6133 25.7089C14.4088 25.6586 14.2309 25.5328 14.1154 25.3567C14 25.1806 13.9554 24.9674 13.9908 24.7598C14.0261 24.5522 14.1388 24.3657 14.306 24.2377L16.2094 22.8277L15.2094 23.4044C15.0249 23.5085 14.8077 23.5385 14.602 23.4882C14.3962 23.4379 14.2173 23.3112 14.1017 23.1338C13.986 22.9564 13.9422 22.7415 13.9793 22.533C14.0163 22.3245 14.1313 22.1378 14.301 22.0111L16.551 20.3661L15.1977 21.1477C15.0536 21.2309 14.8879 21.2691 14.722 21.2573C14.556 21.2455 14.3974 21.1843 14.2665 21.0816C14.1356 20.9788 14.0385 20.8393 13.9876 20.6809C13.9367 20.5225 13.9344 20.3525 13.981 20.1927L14.3744 18.8594C14.2434 18.7892 14.1336 18.6852 14.0564 18.5583C13.9791 18.4313 13.9372 18.286 13.935 18.1375C13.9328 17.9889 13.9704 17.8424 14.0438 17.7132C14.1172 17.584 14.2239 17.4769 14.3527 17.4027L15.186 16.9244C15.3302 16.8421 15.4957 16.8047 15.6612 16.817C15.8268 16.8294 15.9849 16.8909 16.1152 16.9937C16.2456 17.0965 16.3423 17.2359 16.3929 17.394C16.4435 17.5521 16.4458 17.7217 16.3994 17.8811L16.1694 18.6711L29.1444 11.1711C29.3288 11.067 29.546 11.037 29.7517 11.0873C29.9575 11.1376 30.1364 11.2643 30.252 11.4417C30.3677 11.6191 30.4115 11.834 30.3744 12.0425C30.3374 12.251 30.2224 12.4376 30.0527 12.5644L27.7977 14.2127L28.0494 14.0694C28.2334 13.9648 28.4504 13.9341 28.6563 13.9837C28.8621 14.0332 29.0414 14.1593 29.1577 14.3362C29.2739 14.5132 29.3185 14.7278 29.2823 14.9364C29.2461 15.145 29.1318 15.332 28.9627 15.4594L27.0327 16.8861C27.2181 16.7956 27.4305 16.7771 27.6288 16.8342C27.8271 16.8913 27.9971 17.0199 28.106 17.1952C28.2149 17.3705 28.2549 17.5799 28.2183 17.783C28.1816 17.986 28.071 18.1683 27.9077 18.2944L24.3994 21.0594L31.506 16.9577C31.6854 16.8549 31.8965 16.8224 32.0985 16.8666C32.3004 16.9107 32.4787 17.0284 32.5988 17.1967C32.7189 17.3649 32.7721 17.5718 32.7482 17.7772C32.7243 17.9825 32.6249 18.1716 32.4694 18.3077L26.226 23.7494L34.1494 19.1761C34.3267 19.0772 34.5341 19.0465 34.7326 19.0898C34.931 19.133 35.1068 19.2473 35.2269 19.411C35.3471 19.5747 35.4033 19.7767 35.385 19.979C35.3667 20.1812 35.2752 20.3699 35.1277 20.5094L30.6127 24.6411L34.316 22.5044C34.4917 22.4031 34.6983 22.3693 34.8971 22.4094C35.0959 22.4495 35.2733 22.5608 35.396 22.7223C35.5186 22.8838 35.5782 23.0845 35.5635 23.2868C35.5488 23.4891 35.4608 23.679 35.316 23.8211L33.9377 25.1694L34.3177 24.9511C34.5081 24.8515 34.7297 24.8293 34.9361 24.8892C35.1426 24.949 35.3179 25.0864 35.4254 25.2724C35.533 25.4585 35.5645 25.679 35.5134 25.8877C35.4622 26.0965 35.3324 26.2774 35.151 26.3927L29.036 29.9161C28.8603 30.0174 28.6537 30.0512 28.4549 30.0111C28.2561 29.971 28.0787 29.8597 27.9561 29.6982C27.8334 29.5367 27.7738 29.336 27.7886 29.1337C27.8033 28.9314 27.8913 28.7415 28.036 28.5994L29.4127 27.2527L24.7994 29.9194C24.6732 29.9939 24.5292 30.033 24.3827 30.0327Z" fill="white"/>
<path id="Vector_4" d="M21.5494 15.0944C21.396 15.0933 21.2459 15.0498 21.1157 14.9689C20.9854 14.8879 20.88 14.7726 20.8111 14.6356C20.7422 14.4986 20.7124 14.3453 20.725 14.1924C20.7376 14.0396 20.7922 13.8932 20.8827 13.7694L23.591 10.0611C23.4125 10.0504 23.2421 9.98249 23.1051 9.8675C22.9681 9.75251 22.8718 9.59649 22.8303 9.42251C22.7888 9.24853 22.8044 9.06581 22.8748 8.90138C22.9451 8.73694 23.0665 8.59951 23.221 8.50939L25.9744 6.91606C26.1397 6.82185 26.3323 6.78706 26.5201 6.81748C26.7079 6.84789 26.8797 6.94168 27.0069 7.08324C27.134 7.2248 27.2089 7.40562 27.2191 7.59563C27.2292 7.78565 27.174 7.97342 27.0627 8.12772L24.551 11.5661L29.0627 8.96106C29.1575 8.90076 29.2636 8.86027 29.3745 8.84203C29.4854 8.82379 29.5988 8.82817 29.708 8.85491C29.8172 8.88165 29.9198 8.9302 30.0097 8.99763C30.0996 9.06506 30.175 9.14998 30.2312 9.24728C30.2875 9.34459 30.3234 9.45226 30.337 9.56383C30.3506 9.6754 30.3414 9.78856 30.3101 9.8965C30.2788 10.0044 30.2259 10.1049 30.1548 10.1919C30.0836 10.2789 29.9956 10.3506 29.896 10.4027L21.966 14.9811C21.8395 15.0548 21.6958 15.0939 21.5494 15.0944Z" fill="white"/>
<path id="Vector_5" d="M13.2943 30.0327C13.147 30.0324 13.0024 29.9931 12.8753 29.9188C12.7481 29.8444 12.6429 29.7377 12.5704 29.6095C12.4979 29.4813 12.4607 29.3361 12.4626 29.1888C12.4644 29.0415 12.5053 28.8974 12.581 28.771L14.0327 26.3427L10.2793 28.5143C10.1003 28.6181 9.88915 28.6516 9.68685 28.6083C9.48454 28.5649 9.30558 28.4479 9.1848 28.2799C9.06401 28.1119 9.01003 27.905 9.03336 27.6994C9.05668 27.4939 9.15565 27.3043 9.31101 27.1677L9.90601 26.6427C9.77059 26.6524 9.63483 26.6294 9.51012 26.5758C9.38542 26.5221 9.27541 26.4393 9.18934 26.3343C9.06457 26.1797 8.9992 25.9855 9.005 25.7868C9.01081 25.5882 9.08742 25.3981 9.22101 25.251L12.181 22.0027L10.2543 23.1127C10.083 23.2107 9.88233 23.2447 9.68823 23.2086C9.49413 23.1724 9.31916 23.0686 9.19448 22.9155C9.06981 22.7624 9.00354 22.57 9.00748 22.3726C9.01142 22.1752 9.08532 21.9857 9.21601 21.8377L11.3677 19.4277L10.2543 20.0693C10.0941 20.1677 9.90532 20.209 9.71867 20.1864C9.53202 20.1639 9.35846 20.079 9.2262 19.9454C9.09394 19.8117 9.01074 19.6373 8.99013 19.4505C8.96952 19.2636 9.01271 19.0752 9.11267 18.916L9.72601 17.891C9.56315 17.8532 9.41543 17.7673 9.30205 17.6444C9.18867 17.5215 9.11488 17.3674 9.09025 17.202C9.06563 17.0366 9.09131 16.8677 9.16397 16.7171C9.23663 16.5665 9.3529 16.4413 9.49767 16.3577L11.436 15.2493C11.5957 15.1575 11.7814 15.1212 11.9639 15.1461C12.1465 15.1709 12.3156 15.2556 12.445 15.3868C12.5743 15.5181 12.6565 15.6884 12.6787 15.8713C12.7009 16.0542 12.6618 16.2393 12.5677 16.3977L12.191 17.026L15.0243 15.3943C15.1957 15.2963 15.3963 15.2624 15.5904 15.2985C15.7845 15.3346 15.9595 15.4384 16.0842 15.5915C16.2089 15.7446 16.2751 15.937 16.2712 16.1344C16.2673 16.3318 16.1934 16.5214 16.0627 16.6693L13.911 19.0827L15.9793 17.8877C16.1514 17.7887 16.3532 17.7543 16.5483 17.7908C16.7435 17.8274 16.9191 17.9323 17.0437 18.0869C17.1684 18.2414 17.2337 18.4354 17.228 18.6339C17.2223 18.8323 17.1459 19.0222 17.0127 19.1693L14.0527 22.416L15.9793 21.2993C16.1583 21.1956 16.3695 21.1621 16.5718 21.2054C16.7741 21.2488 16.9531 21.3658 17.0739 21.5338C17.1947 21.7018 17.2486 21.9087 17.2253 22.1142C17.202 22.3198 17.103 22.5094 16.9477 22.646L16.3377 23.1827C16.458 23.1724 16.579 23.1894 16.6919 23.2324C16.8047 23.2754 16.9064 23.3433 16.9893 23.431C17.1184 23.5626 17.2002 23.7333 17.2219 23.9164C17.2436 24.0994 17.2041 24.2845 17.1093 24.4427L15.6577 26.8727L15.9793 26.6877C16.1698 26.588 16.3914 26.5659 16.5978 26.6257C16.8042 26.6856 16.9795 26.823 17.0871 27.009C17.1946 27.1951 17.2262 27.4156 17.175 27.6243C17.1239 27.8331 16.9941 28.014 16.8127 28.1293L13.711 29.916C13.5851 29.9917 13.4412 30.032 13.2943 30.0327Z" fill="#3C3CBF"/>
<path id="Vector_6" d="M14.3243 29.991C15.2623 29.992 16.1697 29.6574 16.8826 29.0477C22.4181 30.5683 28.2482 30.6646 33.8309 29.3277C36.7676 27.561 35.9976 23.7127 35.9976 20.8043C35.9059 16.971 31.9426 16.471 28.8926 16.7593C32.3193 11.526 30.9659 3.84267 23.5393 7.85101C20.7443 10.1193 21.4276 15.656 17.5093 16.6843C16.1043 14.0477 8.70926 14.351 8.5676 17.9577C8.9926 23.0177 6.16426 31.811 14.3243 29.991ZM15.1126 28.5093C15.1309 28.5076 15.1493 28.5076 15.1676 28.5093C15.2793 28.5227 15.1759 28.5127 15.1126 28.5093ZM22.2243 15.1593C23.8909 13.306 23.6926 7.27101 27.2509 8.73268C30.2826 10.9943 26.8826 14.7593 26.2343 17.481C28.5676 20.731 34.5493 14.5927 33.5676 24.2677C33.8476 26.2893 33.2993 28.951 30.7026 28.4343C26.4143 28.1593 21.6293 29.3093 17.7026 27.1643C17.6143 24.176 17.6926 21.2077 17.6676 18.2193C18.5922 18.0371 19.4712 17.6727 20.2535 17.1474C21.0358 16.622 21.7058 15.9462 22.2243 15.1593ZM11.1343 16.6943C11.1233 16.7022 11.1106 16.7075 11.0973 16.7099C11.084 16.7123 11.0703 16.7118 11.0573 16.7082C11.0442 16.7047 11.0321 16.6984 11.0218 16.6896C11.0115 16.6809 11.0032 16.67 10.9976 16.6577C11.0093 16.676 11.0643 16.6877 11.1343 16.6943ZM10.9909 26.3743C11.1576 23.181 10.6459 19.8143 11.1993 16.7077C12.6993 16.8543 15.3193 15.8593 15.2276 18.091C15.0609 21.5243 15.5776 25.206 14.9843 28.5143C13.1826 28.466 10.4093 29.131 10.9909 26.3743Z" fill="#262626"/>
<path id="Vector_7" d="M9.70091 44.3977C14.9792 45.5177 19.2742 39.2593 23.8359 37.1677C29.8742 34.0827 43.1126 40.641 44.3209 30.321C42.6442 22.7027 49.0909 1.59767 38.8993 0.457674C28.2509 1.86434 9.70258 -2.80233 1.38425 2.98767C-1.38742 10.7243 0.990912 19.8693 0.237579 28.0827C-0.874088 33.666 3.10258 37.4443 8.62091 36.351C8.84425 38.8677 7.56091 42.561 9.70091 44.3977ZM3.21758 32.886C1.87258 23.6927 2.84758 13.916 2.77925 4.58267C3.72591 0.274341 8.45925 1.37434 11.7376 1.37434C38.1642 2.99434 43.8826 -7.95899 41.9042 24.571C44.0909 39.7277 35.0709 34.646 24.9042 35.6227C20.2959 37.5927 16.4309 41.3277 12.1209 43.8093C9.91758 42.3093 11.3042 38.011 10.9859 35.5927C8.23091 35.1627 4.79925 36.0993 3.21758 32.886Z" fill="#262626"/>
</g>
<g id="Group 82">
<path id="Vector_8" d="M90.5843 36.736C90.4014 36.7354 90.2238 36.6746 90.0789 36.563C89.9339 36.4514 89.8297 36.2952 89.7824 36.1186C89.735 35.9419 89.747 35.7546 89.8167 35.5854C89.8863 35.4163 90.0096 35.2748 90.1677 35.1827L97.5943 30.8943C97.6891 30.8388 97.794 30.8025 97.9029 30.7876C98.0118 30.7727 98.1225 30.7795 98.2288 30.8076C98.335 30.8357 98.4347 30.8845 98.522 30.9513C98.6093 31.018 98.6825 31.1014 98.7375 31.1966C98.7924 31.2917 98.828 31.3968 98.8422 31.5058C98.8563 31.6148 98.8488 31.7255 98.82 31.8316C98.7912 31.9376 98.7417 32.037 98.6744 32.1238C98.6071 32.2107 98.5232 32.2834 98.4277 32.3377L91.001 36.6243C90.8745 36.6979 90.7307 36.7365 90.5843 36.736Z" fill="#EA524E"/>
<path id="Vector_9" d="M87.346 44.9778C87.1978 44.9779 87.0523 44.9386 86.9244 44.8638C86.7965 44.789 86.6909 44.6814 86.6184 44.5522C86.5459 44.423 86.5091 44.2768 86.5119 44.1287C86.5147 43.9805 86.557 43.8358 86.6343 43.7094L87.311 42.6028L85.6127 43.5828C85.4386 43.6833 85.234 43.7174 85.0367 43.679C84.8393 43.6405 84.6626 43.532 84.539 43.3735C84.4154 43.2149 84.3532 43.017 84.364 42.8163C84.3748 42.6156 84.4578 42.4255 84.5977 42.2811L84.986 41.8794L83.9593 42.4728C83.7778 42.5788 83.5629 42.6123 83.3578 42.5666C83.1526 42.5209 82.9723 42.3993 82.8529 42.2262C82.7336 42.0531 82.6841 41.8414 82.7144 41.6333C82.7446 41.4253 82.8524 41.2364 83.016 41.1044L89.4543 35.8661L81.2077 40.6244C81.0256 40.7235 80.8132 40.7511 80.6119 40.702C80.4106 40.6528 80.2348 40.5304 80.1188 40.3587C80.0029 40.1869 79.9551 39.9782 79.9847 39.7731C80.0144 39.568 80.1194 39.3813 80.2793 39.2494L88.2577 32.9994L78.3593 38.7128C78.1733 38.8195 77.9533 38.8505 77.7451 38.7991C77.5368 38.7478 77.3564 38.6181 77.2413 38.4371C77.1262 38.2561 77.0854 38.0378 77.1272 37.8274C77.1691 37.6171 77.2904 37.4309 77.466 37.3078L81.491 34.5028L76.436 37.4161C76.2497 37.5197 76.0308 37.548 75.8243 37.4951C75.6177 37.4422 75.4394 37.3122 75.3258 37.1318C75.2122 36.9514 75.1721 36.7343 75.2137 36.5253C75.2552 36.3162 75.3754 36.131 75.5493 36.0078L79.6593 33.1944L73.7877 36.5828C73.6022 36.687 73.3839 36.7163 73.1774 36.6647C72.971 36.6131 72.7922 36.4845 72.6775 36.3053C72.5629 36.1261 72.5211 35.9098 72.5608 35.7008C72.6005 35.4918 72.7186 35.3058 72.891 35.1811L82.4543 28.4461L68.3577 36.5828C68.1708 36.6848 67.952 36.7114 67.7461 36.6572C67.5402 36.603 67.3629 36.472 67.2506 36.2912C67.1382 36.1104 67.0993 35.8934 67.1418 35.6848C67.1844 35.4762 67.3051 35.2918 67.4793 35.1694L75.7243 29.6844L63.7793 36.5828C63.5912 36.6847 63.371 36.7104 63.1645 36.6545C62.9579 36.5985 62.7808 36.4653 62.6698 36.2823C62.5588 36.0993 62.5225 35.8807 62.5683 35.6716C62.6141 35.4626 62.7386 35.2792 62.916 35.1594L66.0493 33.1594L60.4727 36.3778C60.2858 36.4798 60.067 36.5064 59.8611 36.4522C59.6552 36.398 59.4779 36.267 59.3655 36.0862C59.2532 35.9054 59.2143 35.6884 59.2568 35.4798C59.2994 35.2712 59.4201 35.0868 59.5943 34.9644L76.166 23.9161L57.8327 34.4994C57.644 34.6073 57.4206 34.6371 57.2102 34.5826C56.9998 34.5281 56.8191 34.3936 56.7065 34.2077C56.5938 34.0219 56.5583 33.7993 56.6074 33.5876C56.6565 33.3759 56.7864 33.1918 56.9693 33.0744L62.9477 29.2911L57.0377 32.7028C56.8502 32.8076 56.6296 32.836 56.4217 32.7821C56.2138 32.7282 56.0347 32.5961 55.9219 32.4134C55.809 32.2307 55.7711 32.0114 55.8159 31.8014C55.8608 31.5914 55.985 31.4068 56.1627 31.2861L73.8443 19.6378L56.9127 29.4061C56.7248 29.5111 56.5036 29.5393 56.2954 29.4849C56.0871 29.4304 55.9081 29.2975 55.7956 29.114C55.6832 28.9305 55.6461 28.7106 55.6922 28.5003C55.7382 28.2901 55.8638 28.1058 56.0427 27.9861L70.2977 18.6994L56.9127 26.4261C56.724 26.5339 56.5006 26.5638 56.2902 26.5093C56.0799 26.4548 55.8991 26.3203 55.7865 26.1344C55.6738 25.9485 55.6383 25.726 55.6874 25.5143C55.7365 25.3026 55.8664 25.1184 56.0493 25.0011L61.3943 21.6044L56.9127 24.1911C56.7261 24.296 56.5063 24.3251 56.2988 24.2724C56.0914 24.2196 55.9122 24.0891 55.7984 23.9078C55.6846 23.7265 55.6449 23.5083 55.6876 23.2986C55.7303 23.0888 55.8521 22.9035 56.0277 22.7811L70.5493 12.8894L56.9127 20.7611C56.7265 20.8662 56.5071 20.8958 56.2997 20.8436C56.0924 20.7915 55.913 20.6617 55.7987 20.481C55.6844 20.3004 55.6439 20.0827 55.6856 19.873C55.7273 19.6633 55.848 19.4777 56.0227 19.3544L66.6477 12.0211L56.9127 17.6394C56.7279 17.7472 56.5087 17.7799 56.3005 17.7305C56.0924 17.6812 55.9112 17.5536 55.7944 17.3744C55.6777 17.1951 55.6344 16.9778 55.6734 16.7674C55.7125 16.5571 55.831 16.3698 56.0043 16.2444L65.2793 9.47278L56.906 14.3061C56.7242 14.4075 56.5111 14.4373 56.3085 14.3895C56.1059 14.3417 55.9286 14.2198 55.8113 14.0478C55.6941 13.8758 55.6455 13.6662 55.675 13.4601C55.7046 13.2541 55.8102 13.0666 55.971 12.9344L63.1143 7.22944L56.9127 10.8128C56.7323 10.9176 56.5193 10.9509 56.3155 10.9063C56.1118 10.8616 55.9322 10.7422 55.8123 10.5715C55.6923 10.4009 55.6407 10.1915 55.6676 9.9847C55.6946 9.77788 55.798 9.58867 55.9577 9.45444L59.6377 6.34278L56.9127 7.91611C56.7482 8.01042 56.5566 8.04586 56.3693 8.01656C56.182 7.98727 56.0103 7.89501 55.8825 7.75499C55.7547 7.61497 55.6785 7.43558 55.6664 7.24641C55.6543 7.05723 55.7071 6.86959 55.816 6.71444L58.001 3.63278L57.886 3.69778C57.6956 3.7974 57.474 3.81959 57.2676 3.75971C57.0611 3.69982 56.8858 3.56249 56.7783 3.37641C56.6707 3.19033 56.6392 2.96988 56.6903 2.76111C56.7415 2.55235 56.8713 2.37142 57.0527 2.25611L60.4693 0.282776C60.6339 0.18777 60.8261 0.151878 61.0139 0.181053C61.2017 0.210229 61.3738 0.302718 61.5019 0.443184C61.6299 0.58365 61.706 0.763653 61.7177 0.953343C61.7294 1.14303 61.6758 1.33101 61.566 1.48611L59.3827 4.56611L66.8677 0.249443C67.0478 0.146823 67.2596 0.114997 67.4619 0.160177C67.6642 0.205358 67.8424 0.324302 67.9617 0.49379C68.081 0.663279 68.1329 0.871147 68.1072 1.07682C68.0815 1.28249 67.98 1.4712 67.8227 1.60611L64.156 4.71278L71.8827 0.249443C72.0644 0.148006 72.2776 0.118263 72.4802 0.166068C72.6828 0.213873 72.8601 0.335764 72.9774 0.507757C73.0946 0.67975 73.1432 0.889392 73.1137 1.09544C73.0841 1.30148 72.9785 1.489 72.8177 1.62111L65.6693 7.32611L77.936 0.249443C78.1207 0.144383 78.3386 0.113846 78.545 0.164073C78.7515 0.214301 78.931 0.341501 79.0468 0.519663C79.1625 0.697824 79.2059 0.91349 79.168 1.12256C79.13 1.33163 79.0137 1.51832 78.8427 1.64444L69.5643 8.41611L83.711 0.249443C83.8969 0.145568 84.1155 0.1168 84.322 0.169044C84.5284 0.221288 84.707 0.350581 84.8211 0.530377C84.9352 0.710173 84.9762 0.926831 84.9355 1.13587C84.8949 1.34491 84.7758 1.53046 84.6027 1.65444L73.986 8.98778L89.1127 0.249443C89.2988 0.148303 89.5166 0.121877 89.7215 0.175537C89.9265 0.229198 90.1033 0.358916 90.2161 0.53831C90.3288 0.717704 90.3689 0.933303 90.3284 1.14126C90.2878 1.34921 90.1696 1.53391 89.9977 1.65778L75.4727 11.5511L94.4727 0.582776C94.661 0.4775 94.8828 0.449379 95.0915 0.504328C95.3001 0.559277 95.4794 0.693012 95.5914 0.877398C95.7035 1.06178 95.7396 1.28245 95.6923 1.49296C95.645 1.70347 95.5179 1.88742 95.3377 2.00611L90.0043 5.39444L96.2793 1.77944C96.4668 1.67885 96.6856 1.65373 96.8909 1.70923C97.0962 1.76474 97.2726 1.89666 97.3838 2.07797C97.495 2.25929 97.5327 2.47627 97.4891 2.68446C97.4455 2.89266 97.324 3.0763 97.1493 3.19778L82.8777 12.4911L97.5043 4.04778C97.6918 3.94294 97.9125 3.91451 98.1203 3.96843C98.3282 4.02234 98.5073 4.15444 98.6201 4.33716C98.733 4.51988 98.771 4.73912 98.7261 4.94915C98.6812 5.15918 98.557 5.34378 98.3793 5.46444L80.6927 17.1161L97.646 7.32944C97.8345 7.2258 98.0557 7.19904 98.2635 7.25477C98.4712 7.3105 98.6494 7.44439 98.7607 7.62845C98.872 7.81251 98.9078 8.03247 98.8606 8.24233C98.8135 8.45219 98.687 8.63568 98.5077 8.75444L92.5477 12.5261L97.646 9.58278C97.8333 9.47624 98.0546 9.44639 98.2634 9.49951C98.4723 9.55262 98.6524 9.68456 98.766 9.86764C98.8797 10.0507 98.918 10.2707 98.8729 10.4814C98.8279 10.6921 98.7029 10.8772 98.5243 10.9978L81.946 22.0578L97.646 12.9928C97.8347 12.8849 98.0581 12.8551 98.2684 12.9096C98.4788 12.9641 98.6596 13.0986 98.7722 13.2845C98.8848 13.4704 98.9204 13.6929 98.8713 13.9046C98.8222 14.1163 98.6923 14.3005 98.5093 14.4178L95.3793 16.4161L97.646 15.1094C97.8329 15.0074 98.0517 14.9808 98.2576 15.035C98.4634 15.0892 98.6408 15.2202 98.7531 15.401C98.8655 15.5818 98.9044 15.7988 98.8619 16.0074C98.8193 16.216 98.6986 16.4004 98.5243 16.5228L90.2793 22.0111L97.646 17.7494C97.8315 17.6452 98.0498 17.6159 98.2562 17.6675C98.4626 17.7191 98.6415 17.8477 98.7561 18.0269C98.8708 18.2061 98.9126 18.4224 98.8729 18.6314C98.8332 18.8405 98.715 19.0264 98.5427 19.1511L88.9793 25.8928L97.646 20.8928C97.8323 20.7892 98.0512 20.7609 98.2578 20.8138C98.4643 20.8667 98.6427 20.9967 98.7562 21.1771C98.8698 21.3575 98.9099 21.5745 98.8684 21.7836C98.8268 21.9927 98.7066 22.1779 98.5327 22.3011L94.446 25.1011L97.646 23.2494C97.832 23.1427 98.052 23.1118 98.2603 23.1631C98.4685 23.2144 98.6489 23.3441 98.764 23.5251C98.8791 23.7061 98.92 23.9245 98.8781 24.1348C98.8363 24.3452 98.7149 24.5313 98.5393 24.6544L94.496 27.4728L97.646 25.6544C97.8284 25.5514 98.043 25.5208 98.2469 25.5688C98.4508 25.6168 98.6292 25.7399 98.7465 25.9135C98.8638 26.0871 98.9113 26.2985 98.8797 26.5056C98.8482 26.7127 98.7397 26.9004 98.576 27.0311L90.596 33.2828L97.646 29.2144C97.8272 29.1127 98.0399 29.0823 98.2423 29.1293C98.4448 29.1762 98.6223 29.2971 98.7403 29.4682C98.8582 29.6394 98.9079 29.8484 98.8797 30.0542C98.8514 30.2601 98.7473 30.448 98.5877 30.5811L90.1427 37.4544C90.2529 37.5175 90.3474 37.6049 90.4187 37.71C90.49 37.8151 90.5364 37.9351 90.5542 38.0608C90.5721 38.1866 90.5609 38.3147 90.5217 38.4355C90.4824 38.5563 90.416 38.6666 90.3277 38.7578L89.696 39.4111C89.9296 39.4117 90.1542 39.501 90.3243 39.6611C90.4538 39.7937 90.5354 39.9656 90.5562 40.1497C90.5771 40.3338 90.5359 40.5196 90.4393 40.6778L89.6377 41.9911C89.82 41.9932 89.9966 42.055 90.1405 42.1671C90.2843 42.2792 90.3874 42.4354 90.4339 42.6117C90.4805 42.788 90.4679 42.9747 90.3981 43.1432C90.3283 43.3117 90.2052 43.4527 90.0477 43.5444L87.7627 44.8644C87.6365 44.9389 87.4925 44.9781 87.346 44.9778Z" fill="#EA524E"/>
<path id="Vector_10" d="M75.6693 27.631C75.498 27.6307 75.3309 27.5776 75.1909 27.4789C75.0509 27.3802 74.9446 27.2407 74.8867 27.0795C74.8288 26.9183 74.822 26.7431 74.8671 26.5779C74.9123 26.4126 75.0073 26.2653 75.1393 26.156L79.7093 22.3877L73.4543 25.9977C73.2714 26.1021 73.0558 26.1333 72.8509 26.0853C72.6459 26.0372 72.4667 25.9133 72.3494 25.7385C72.232 25.5637 72.1851 25.351 72.2182 25.1431C72.2513 24.9352 72.3618 24.7475 72.5276 24.6177L77.5809 20.7094L71.2676 24.3544C71.0863 24.4598 70.8719 24.493 70.6672 24.4473C70.4625 24.4016 70.2825 24.2805 70.1632 24.1079C70.044 23.9354 69.9941 23.7243 70.0236 23.5166C70.0532 23.309 70.1599 23.1201 70.3226 22.9877L77.8376 16.831L68.9859 21.9394C68.8039 22.0413 68.5904 22.0713 68.3873 22.0234C68.1843 21.9755 68.0067 21.8533 67.8894 21.6808C67.7722 21.5082 67.7239 21.298 67.7541 21.0916C67.7843 20.8853 67.8908 20.6977 68.0526 20.566L74.0043 15.8527L67.6026 19.5477C67.425 19.654 67.2143 19.6904 67.0114 19.6498C66.8085 19.6093 66.6279 19.4947 66.5048 19.3283C66.3817 19.162 66.3249 18.9558 66.3455 18.7499C66.366 18.544 66.4624 18.3531 66.6159 18.2144L70.1026 14.9327L66.9459 16.7594C66.7795 16.8562 66.5846 16.8923 66.3946 16.8617C66.2045 16.8311 66.0308 16.7356 65.9032 16.5914C65.7755 16.4473 65.7017 16.2634 65.6943 16.071C65.6869 15.8786 65.7464 15.6896 65.8626 15.536L68.4343 12.1194L68.2909 12.201C68.1005 12.3007 67.8789 12.3229 67.6725 12.263C67.466 12.2031 67.2907 12.0658 67.1832 11.8797C67.0756 11.6936 67.0441 11.4731 67.0953 11.2644C67.1464 11.0556 67.2762 10.8747 67.4576 10.7594L71.1443 8.63104C71.3105 8.53505 71.5049 8.49941 71.6944 8.53017C71.8839 8.56093 72.057 8.65619 72.1844 8.79985C72.3118 8.9435 72.3857 9.12674 72.3935 9.31858C72.4014 9.51042 72.3428 9.6991 72.2276 9.85271L69.6543 13.271L75.4759 9.91604C75.6535 9.80805 75.865 9.77032 76.069 9.81024C76.2729 9.85016 76.4546 9.96485 76.5784 10.1318C76.7021 10.2988 76.759 10.506 76.7379 10.7127C76.7168 10.9195 76.6192 11.1109 76.4643 11.2494L72.9793 14.5194L83.0259 8.71937C83.208 8.61556 83.4224 8.58415 83.6266 8.63139C83.8308 8.67864 84.0096 8.80107 84.1276 8.97429C84.2455 9.14752 84.2939 9.35882 84.263 9.56609C84.2321 9.77336 84.1242 9.96139 83.9609 10.0927L78.0076 14.8077L85.8493 10.281C86.0302 10.1797 86.2425 10.1495 86.4446 10.1964C86.6466 10.2433 86.8239 10.3638 86.9419 10.5344C87.0598 10.7051 87.1098 10.9135 87.0822 11.1191C87.0546 11.3247 86.9514 11.5126 86.7926 11.646L79.2793 17.8044L87.4459 13.0927C87.6287 12.9904 87.8433 12.9606 88.0471 13.0094C88.2508 13.0581 88.4287 13.1818 88.5453 13.3558C88.6619 13.5298 88.7088 13.7414 88.6765 13.9483C88.6441 14.1553 88.5351 14.3425 88.3709 14.4727L83.3109 18.386L87.5559 15.9377C87.7368 15.8351 87.9494 15.8039 88.1521 15.85C88.3549 15.8962 88.533 16.0165 88.6516 16.1873C88.7702 16.358 88.8206 16.567 88.7931 16.773C88.7655 16.9791 88.6619 17.1674 88.5026 17.301L83.9409 21.0627L86.0393 19.851C86.2306 19.7423 86.4571 19.7136 86.6695 19.7712C86.8819 19.8289 87.0628 19.9682 87.1728 20.1588C87.2829 20.3494 87.313 20.5757 87.2568 20.7885C87.2005 21.0012 87.0624 21.1831 86.8726 21.2944L76.0909 27.5194C75.9631 27.5941 75.8173 27.6327 75.6693 27.631Z" fill="white"/>
<path id="Vector_11" d="M99.3192 6.62098C99.3989 5.78789 99.2955 4.94747 99.0162 4.15854C98.737 3.36962 98.2886 2.65128 97.7026 2.05383C97.1166 1.45637 96.407 0.994246 95.6236 0.699811C94.8403 0.405377 94.002 0.285751 93.1675 0.349312C81.7642 0.862645 69.8342 -0.885688 58.6675 1.11931C51.7792 6.10431 56.6125 18.8926 55.2359 26.5243C53.5459 37.191 60.8875 36.8976 69.0592 36.481C77.3425 33.9943 92.2792 56.1043 90.9859 36.5026C105.481 37.0476 97.3409 15.631 99.3192 6.62098ZM73.6609 36.361C73.7077 36.3997 73.7567 36.4359 73.8075 36.4693C73.7537 36.4404 73.7043 36.4039 73.6609 36.361ZM73.8275 36.4793C74.0892 36.6076 74.2909 36.4893 73.8275 36.4793V36.4793ZM96.9009 31.2393C96.5459 37.4443 91.0159 33.861 88.5675 36.2393C88.2475 38.531 89.2592 41.691 88.1092 43.6293C82.7342 41.0826 78.2292 34.5543 71.8209 35.3493H62.1459C53.8125 34.8993 58.9659 12.1693 57.6459 5.61598C57.2792 -2.36735 83.2359 2.91598 89.5275 1.48098C102.683 -0.489022 94.9792 23.276 96.9059 31.2393H96.9009Z" fill="#262626"/>
<path id="Vector_12" d="M84.1759 8.8194C82.9995 8.61077 81.7912 8.67027 80.6409 8.99347C79.4907 9.31667 78.4282 9.89523 77.5326 10.6861C63.0326 2.78106 60.4959 23.1277 76.1726 28.0394C84.6126 27.7927 96.1026 12.8961 84.1759 8.8194ZM81.6759 24.4861C80.4431 25.3931 79.1272 26.1816 77.7459 26.8411C62.9793 21.9427 66.8143 2.94273 76.0793 12.5077C76.4943 13.1744 78.1676 12.5077 78.4826 11.9927C86.4609 4.27273 90.4459 19.9461 81.6693 24.4911L81.6759 24.4861Z" fill="#262626"/>
</g>
<g id="Group 84">
<path id="Vector_13" d="M39.811 90.0694C39.6424 90.0694 39.4777 90.0182 39.3388 89.9226C39.1999 89.8271 39.0932 89.6916 39.0329 89.5342C38.9726 89.3767 38.9615 89.2046 39.001 89.0407C39.0405 88.8768 39.1289 88.7287 39.2543 88.6161L41.5776 86.5277L38.5776 88.2577C38.4022 88.3576 38.1964 88.3904 37.9985 88.35C37.8007 88.3096 37.6242 88.1987 37.502 88.038C37.3798 87.8772 37.3201 87.6776 37.334 87.4761C37.3479 87.2747 37.4345 87.0852 37.5776 86.9427L39.6243 84.9311L38.5776 85.5344C38.4379 85.6148 38.2778 85.6529 38.1168 85.6441C37.9559 85.6353 37.8009 85.5801 37.6707 85.485C37.5405 85.3899 37.4407 85.2591 37.3833 85.1084C37.326 84.9577 37.3136 84.7937 37.3476 84.6361L37.871 82.2277C37.6889 82.1609 37.5365 82.0315 37.441 81.8627C37.3309 81.6717 37.301 81.4448 37.3578 81.2317C37.4147 81.0187 37.5536 80.8369 37.7443 80.7261L38.5776 80.2411C38.7174 80.1607 38.8775 80.1226 39.0384 80.1314C39.1994 80.1401 39.3544 80.1954 39.4846 80.2905C39.6148 80.3856 39.7146 80.5164 39.7719 80.6671C39.8293 80.8178 39.8417 80.9818 39.8076 81.1394L39.371 83.1511L44.461 80.2111C44.6365 80.1112 44.8422 80.0784 45.0401 80.1188C45.2379 80.1592 45.4144 80.2701 45.5366 80.4308C45.6588 80.5916 45.7185 80.7912 45.7046 80.9927C45.6907 81.1941 45.6041 81.3837 45.461 81.5261L43.4143 83.5361L47.646 81.0994C47.8232 81.0043 48.0289 80.9765 48.225 81.0212C48.4211 81.0658 48.5945 81.1799 48.7131 81.3424C48.8317 81.5048 48.8875 81.7047 48.8703 81.9051C48.853 82.1055 48.7639 82.2929 48.6193 82.4327L46.286 84.5244L47.641 83.7427C47.8045 83.6491 47.9949 83.6136 48.1812 83.6421C48.3675 83.6706 48.5386 83.7614 48.6667 83.8997C48.7947 84.038 48.8721 84.2156 48.8862 84.4035C48.9003 84.5914 48.8503 84.7786 48.7443 84.9344L47.491 86.7677C47.6798 86.75 47.869 86.7971 48.0274 86.9014C48.1858 87.0057 48.3039 87.1609 48.3621 87.3413C48.4204 87.5218 48.4154 87.7167 48.3479 87.8939C48.2804 88.0712 48.1545 88.2201 47.991 88.3161L45.2326 89.9077C45.0693 90.0008 44.8793 90.0358 44.6935 90.0072C44.5077 89.9786 44.337 89.888 44.2092 89.7502C44.0814 89.6123 44.0039 89.4353 43.9894 89.2479C43.9749 89.0604 44.0242 88.8736 44.1293 88.7177L45.296 87.0194L40.2226 89.9494C40.0984 90.0251 39.9564 90.0665 39.811 90.0694Z" fill="#4B5EE2"/>
<path id="Vector_14" d="M34.9159 98.3661C34.79 98.3656 34.6659 98.3368 34.5525 98.282C34.4392 98.2272 34.3396 98.1478 34.2609 98.0494C34.1373 97.8922 34.0743 97.6958 34.0835 97.496C34.0926 97.2962 34.1734 97.1063 34.3109 96.9611L35.2226 95.9928L32.9126 97.3261C32.7404 97.4251 32.5384 97.4594 32.3432 97.4226C32.1479 97.3859 31.9723 97.2806 31.8478 97.1258C31.7233 96.9709 31.6582 96.7767 31.6643 96.5781C31.6704 96.3796 31.7472 96.1897 31.8809 96.0428L35.4776 92.1061L31.9126 94.1628C31.733 94.2631 31.5226 94.2934 31.3219 94.2479C31.1212 94.2024 30.9445 94.0843 30.8257 93.9163C30.707 93.7483 30.6546 93.5422 30.6786 93.3379C30.7026 93.1335 30.8014 92.9453 30.9559 92.8094L32.2726 91.6844L31.9126 91.8911C31.734 91.9942 31.5235 92.0275 31.3218 91.9844C31.1201 91.9413 30.9415 91.825 30.8207 91.6578C30.6998 91.4907 30.6452 91.2847 30.6674 91.0797C30.6896 90.8746 30.7871 90.6851 30.9409 90.5478L33.1126 88.6128L31.9143 89.3044C31.7367 89.4124 31.5252 89.4502 31.3212 89.4102C31.1173 89.3703 30.9356 89.2556 30.8118 89.0887C30.6881 88.9217 30.6311 88.7145 30.6523 88.5078C30.6734 88.301 30.771 88.1096 30.9259 87.9711L33.8476 85.2244L31.9143 86.3411C31.7402 86.4404 31.5361 86.4736 31.3396 86.4347C31.143 86.3957 30.967 86.2872 30.8439 86.1291C30.7208 85.971 30.6588 85.7738 30.6693 85.5736C30.6797 85.3735 30.762 85.1839 30.9009 85.0394L31.5243 84.3978C31.3264 84.3919 31.1348 84.3269 30.9743 84.2111C30.8436 84.1052 30.7481 83.9622 30.7002 83.801C30.6523 83.6398 30.6543 83.4678 30.7059 83.3078L31.0743 82.1594C30.9488 82.086 30.8447 81.9809 30.7723 81.8548C30.7 81.7286 30.6619 81.5857 30.6619 81.4403C30.6619 81.2948 30.7 81.1519 30.7723 81.0258C30.8447 80.8996 30.9488 80.7946 31.0743 80.7211L31.9076 80.2344C32.0534 80.1503 32.2212 80.1123 32.389 80.1253C32.5568 80.1384 32.7167 80.202 32.8476 80.3077C32.9786 80.4134 33.0745 80.5563 33.1227 80.7175C33.1709 80.8788 33.1691 81.0509 33.1176 81.2111L32.9393 81.7611L35.6243 80.2128C35.7984 80.1135 36.0024 80.0803 36.199 80.1192C36.3956 80.1582 36.5715 80.2666 36.6946 80.4248C36.8178 80.5829 36.8797 80.7801 36.8693 80.9802C36.8588 81.1804 36.7765 81.37 36.6376 81.5144L36.2693 81.8944L39.2209 80.1894C39.3985 80.0814 39.61 80.0437 39.814 80.0836C40.018 80.1236 40.1996 80.2382 40.3234 80.4052C40.4472 80.5722 40.5041 80.7794 40.483 80.9861C40.4618 81.1929 40.3642 81.3843 40.2093 81.5228L37.2893 84.2694L39.2993 83.1028C39.4779 82.9996 39.6884 82.9664 39.8901 83.0095C40.0918 83.0526 40.2703 83.1689 40.3912 83.336C40.5121 83.5031 40.5667 83.7091 40.5445 83.9142C40.5223 84.1192 40.4248 84.3088 40.2709 84.4461L38.1126 86.3894L39.3159 85.6961C39.4958 85.5939 39.7073 85.5622 39.9093 85.6073C40.1112 85.6523 40.2891 85.7709 40.4085 85.94C40.5278 86.109 40.58 86.3164 40.5549 86.5217C40.5298 86.7271 40.4292 86.9158 40.2726 87.0511L38.9559 88.1744L39.3159 87.9678C39.4882 87.8688 39.6901 87.8345 39.8854 87.8713C40.0806 87.908 40.2563 88.0133 40.3808 88.1681C40.5052 88.3229 40.5703 88.5172 40.5642 88.7157C40.5581 88.9143 40.4813 89.1042 40.3476 89.2511L36.7459 93.1894L39.3126 91.7094C39.4856 91.6115 39.688 91.5787 39.8831 91.6169C40.0782 91.6551 40.2533 91.7618 40.3766 91.9177C40.5 92.0737 40.5635 92.2686 40.5557 92.4672C40.548 92.6659 40.4694 92.8553 40.3343 93.0011L39.3959 94.0011C39.5906 93.9325 39.8038 93.9385 39.9943 94.0181C40.1848 94.0977 40.3389 94.2451 40.4269 94.4319C40.5149 94.6186 40.5304 94.8314 40.4705 95.0289C40.4106 95.2264 40.2795 95.3947 40.1026 95.5011L35.3326 98.2494C35.2067 98.3251 35.0628 98.3654 34.9159 98.3661Z" fill="#E4F1FF"/>
<path id="Vector_15" d="M78.1326 79.851C77.9673 79.851 77.8058 79.8018 77.6685 79.7097C77.5313 79.6176 77.4245 79.4868 77.3618 79.3339C77.299 79.1809 77.2832 79.0128 77.3163 78.8508C77.3494 78.6889 77.4299 78.5405 77.5476 78.4244L79.2793 76.7211L75.246 79.0544C75.0655 79.1578 74.8528 79.19 74.6498 79.1446C74.4468 79.0993 74.2681 78.9796 74.1488 78.8091C74.0296 78.6387 73.9784 78.4298 74.0053 78.2235C74.0322 78.0173 74.1353 77.8285 74.2943 77.6944L76.851 75.5477L75.246 76.4744C75.0713 76.5751 74.8661 76.6091 74.6683 76.57C74.4706 76.531 74.2937 76.4216 74.1704 76.2621C74.0471 76.1026 73.9858 75.9038 73.9979 75.7026C74.0099 75.5014 74.0945 75.3113 74.236 75.1677L78.711 70.6294L75.246 72.6294C75.0746 72.7274 74.874 72.7614 74.6799 72.7253C74.4858 72.6891 74.3108 72.5853 74.1861 72.4322C74.0614 72.2791 73.9952 72.0867 73.9991 71.8893C74.0031 71.692 74.077 71.5024 74.2076 71.3544L77.456 67.7161L75.246 68.9927C75.0744 69.0918 74.8731 69.1265 74.6783 69.0906C74.4835 69.0547 74.3078 68.9506 74.1828 68.7969C74.0577 68.6432 73.9916 68.4499 73.9961 68.2519C74.0007 68.0538 74.0757 67.8638 74.2076 67.7161L75.296 66.4994L75.246 66.5261C75.1037 66.6077 74.9405 66.6456 74.7768 66.6349C74.613 66.6243 74.4561 66.5655 74.3257 66.466C74.1952 66.3665 74.097 66.2307 74.0434 66.0757C73.9898 65.9206 73.9832 65.7532 74.0243 65.5944L74.476 63.8727C74.3379 63.8081 74.2202 63.707 74.1357 63.5802C74.0512 63.4534 74.003 63.3058 73.9965 63.1536C73.99 63.0013 74.0253 62.8502 74.0987 62.7166C74.172 62.5831 74.2806 62.4722 74.4126 62.3961L75.246 61.916C75.3884 61.8336 75.5521 61.7952 75.7163 61.8056C75.8806 61.8161 76.038 61.8749 76.1689 61.9748C76.2997 62.0746 76.3981 62.2109 76.4515 62.3666C76.505 62.5222 76.5112 62.6902 76.4693 62.8494L76.136 64.0844L78.9526 62.4594C79.124 62.3614 79.3246 62.3274 79.5187 62.3635C79.7128 62.3996 79.8878 62.5035 80.0125 62.6566C80.1372 62.8096 80.2034 63.002 80.1995 63.1994C80.1956 63.3968 80.1217 63.5864 79.991 63.7344L78.9043 64.9511L81.116 63.6744C81.2875 63.5753 81.4888 63.5406 81.6836 63.5765C81.8785 63.6124 82.0542 63.7165 82.1792 63.8702C82.3042 64.0239 82.3704 64.2172 82.3658 64.4152C82.3612 64.6133 82.2863 64.8033 82.1543 64.9511L78.911 68.5827L83.216 66.0961C83.3906 65.9941 83.5964 65.9591 83.795 65.9976C83.9935 66.0362 84.1713 66.1456 84.2951 66.3055C84.4189 66.4655 84.4803 66.665 84.4679 66.8668C84.4555 67.0687 84.3701 67.2592 84.2276 67.4027L79.7493 71.9411L84.2626 69.3377C84.4429 69.2347 84.6552 69.2027 84.8578 69.248C85.0605 69.2933 85.2389 69.4126 85.3582 69.5825C85.4775 69.7525 85.529 69.9609 85.5027 70.1668C85.4764 70.3728 85.3741 70.5615 85.216 70.696L82.661 72.8394L84.1093 72.006C84.2848 71.9061 84.4906 71.8734 84.6884 71.9138C84.8863 71.9542 85.0627 72.0651 85.1849 72.2258C85.3072 72.3865 85.3669 72.5862 85.353 72.7876C85.3391 72.9891 85.2525 73.1786 85.1093 73.3211L82.776 75.6177C82.9409 75.6526 83.0914 75.7366 83.2075 75.8587C83.3237 75.9809 83.4001 76.1354 83.4266 76.3018C83.4532 76.4683 83.4286 76.6389 83.3562 76.7911C83.2838 76.9433 83.1669 77.07 83.021 77.1544L78.5493 79.7377C78.4231 79.8123 78.2792 79.8514 78.1326 79.851Z" fill="#4B5EE2"/>
<path id="Vector_16" d="M27.2793 80.0327C27.0989 80.0335 26.9232 79.9749 26.7793 79.8661C26.6489 79.7686 26.5498 79.6351 26.4944 79.4819C26.439 79.3288 26.4297 79.1628 26.4677 79.0044L26.8377 77.4611L22.7543 79.8177C22.5797 79.9184 22.3745 79.9524 22.1767 79.9134C21.9789 79.8744 21.802 79.765 21.6787 79.6055C21.5554 79.446 21.4941 79.2472 21.5062 79.046C21.5183 78.8447 21.6029 78.6547 21.7443 78.5111L23.1693 77.0661L20.791 78.4394C20.6162 78.5355 20.4126 78.5656 20.2175 78.5244C20.0223 78.4832 19.8483 78.3733 19.7273 78.2147C19.6063 78.0561 19.5461 77.8594 19.5578 77.6602C19.5695 77.4611 19.6522 77.2727 19.791 77.1294L23.021 73.8977L20.2493 75.4977C20.0698 75.5993 19.8591 75.6307 19.6578 75.5859C19.4565 75.541 19.279 75.4231 19.1595 75.255C19.0401 75.0869 18.9873 74.8804 19.0113 74.6756C19.0352 74.4708 19.1343 74.2821 19.2893 74.1461L20.7893 72.8577L20.251 73.1677C20.0711 73.27 19.8596 73.3017 19.6577 73.2566C19.4557 73.2115 19.2778 73.0929 19.1584 72.9239C19.0391 72.7549 18.9869 72.5475 19.012 72.3421C19.0371 72.1367 19.1378 71.948 19.2943 71.8127L20.6277 70.6727L20.251 70.8894C20.0736 70.987 19.8668 71.0167 19.6692 70.9729C19.4716 70.9292 19.2966 70.815 19.177 70.6517C19.0574 70.4884 19.0013 70.2872 19.0192 70.0856C19.0371 69.8839 19.1278 69.6957 19.2743 69.5561L21.741 67.3177L20.251 68.1761C20.0883 68.2704 19.8984 68.3069 19.7124 68.2797C19.5263 68.2525 19.3548 68.1631 19.226 68.0261C19.097 67.8884 19.0186 67.7111 19.0034 67.5231C18.9883 67.3351 19.0374 67.1476 19.1427 66.9911L20.4443 65.0561C20.2775 65.081 20.1071 65.0555 19.9548 64.9831C19.8025 64.9107 19.6753 64.7945 19.5893 64.6494C19.4792 64.4584 19.4493 64.2315 19.5062 64.0184C19.563 63.8054 19.702 63.6235 19.8927 63.5127L22.6543 61.9194C22.817 61.8251 23.0069 61.7886 23.193 61.8158C23.3791 61.843 23.5505 61.9324 23.6793 62.0694C23.8087 62.2072 23.8874 62.3848 23.9026 62.5731C23.9177 62.7615 23.8684 62.9494 23.7627 63.1061L22.531 64.9394L27.651 61.9861C27.8283 61.8885 28.0351 61.8588 28.2328 61.9025C28.4304 61.9463 28.6054 62.0605 28.725 62.2238C28.8446 62.3871 28.9007 62.5883 28.8828 62.7899C28.8649 62.9915 28.7742 63.1798 28.6277 63.3194L26.166 65.5527L27.666 64.6927C27.8456 64.5924 28.056 64.5621 28.2567 64.6076C28.4574 64.6531 28.6341 64.7712 28.7529 64.9392C28.8716 65.1073 28.924 65.3133 28.9 65.5176C28.876 65.722 28.7772 65.9102 28.6227 66.0461L27.2893 67.1894L27.6777 66.9661C27.8572 66.8629 28.0687 66.8303 28.271 66.8746C28.4733 66.9188 28.6518 67.0368 28.7719 67.2055C28.8919 67.3742 28.9448 67.5816 28.9203 67.7872C28.8958 67.9928 28.7956 68.182 28.6393 68.3177L27.1393 69.6027L27.6793 69.2911C27.8544 69.1938 28.0586 69.1628 28.2547 69.2038C28.4507 69.2448 28.6254 69.355 28.7468 69.5142C28.8683 69.6735 28.9283 69.8712 28.9159 70.0711C28.9035 70.271 28.8195 70.4597 28.6793 70.6027L25.446 73.8311L27.6827 72.5411C27.8573 72.4391 28.0631 72.4041 28.2617 72.4427C28.4602 72.4812 28.6379 72.5906 28.7618 72.7506C28.8856 72.9105 28.947 73.11 28.9346 73.3118C28.9222 73.5137 28.8368 73.7042 28.6943 73.8477L27.266 75.2927L27.691 75.0477C27.8321 74.9663 27.9941 74.928 28.1568 74.9377C28.3194 74.9473 28.4757 75.0045 28.6063 75.102C28.7368 75.1996 28.8359 75.3333 28.8912 75.4865C28.9466 75.6398 28.9558 75.806 28.9177 75.9644L28.441 77.9511C28.5835 78.0116 28.7064 78.1106 28.7958 78.2371C28.8851 78.3635 28.9375 78.5123 28.9471 78.6669C28.9566 78.8214 28.9228 78.9756 28.8496 79.112C28.7764 79.2485 28.6667 79.3619 28.5327 79.4394L27.6993 79.9194C27.5718 79.9937 27.4269 80.0328 27.2793 80.0327Z" fill="#4B5EE2"/>
<path id="Vector_17" d="M35.1693 83.3661C34.9944 83.3661 34.8239 83.311 34.682 83.2088C34.5402 83.1065 34.434 82.9622 34.3787 82.7962C34.3234 82.6303 34.3217 82.4512 34.3739 82.2843C34.426 82.1173 34.5294 81.971 34.6693 81.8661L40.2543 77.6361L30.526 83.2494C30.3425 83.3538 30.1263 83.3847 29.9209 83.3359C29.7156 83.287 29.5364 83.1621 29.4196 82.9863C29.3028 82.8104 29.2571 82.5968 29.2917 82.3886C29.3263 82.1804 29.4386 81.993 29.606 81.8644L40.221 73.8327L27.221 81.3327C27.0342 81.4411 26.8128 81.4728 26.6031 81.4211C26.3935 81.3694 26.2122 81.2384 26.0972 81.0556C25.9823 80.8728 25.9428 80.6526 25.987 80.4413C26.0312 80.23 26.1557 80.0441 26.3343 79.9227L32.6126 75.6494L26.9126 78.9377C26.7261 79.0427 26.5063 79.0718 26.2988 79.019C26.0913 78.9663 25.9121 78.8357 25.7983 78.6544C25.6845 78.4731 25.6449 78.2549 25.6876 78.0452C25.7303 77.8354 25.852 77.6501 26.0276 77.5277L32.081 73.4161L26.9143 76.3994C26.7302 76.504 26.5132 76.5347 26.3074 76.4851C26.1015 76.4356 25.9223 76.3095 25.806 76.1326C25.6897 75.9556 25.6452 75.741 25.6814 75.5324C25.7176 75.3238 25.8319 75.1368 26.001 75.0094L36.4876 67.2277L26.9126 72.7494C26.7309 72.8561 26.5155 72.8899 26.3098 72.8442C26.1041 72.7984 25.9234 72.6764 25.8041 72.5028C25.6847 72.3291 25.6356 72.1167 25.6665 71.9082C25.6975 71.6998 25.8063 71.5108 25.971 71.3794L33.521 65.2561L26.9126 69.0827C26.7367 69.1856 26.5293 69.2204 26.3294 69.1806C26.1296 69.1408 25.9513 69.0292 25.8282 68.8669C25.705 68.7046 25.6456 68.5028 25.6612 68.2996C25.6768 68.0965 25.7662 67.9061 25.9126 67.7644L30.446 63.3544L26.9126 65.3944C26.7532 65.4859 26.568 65.5222 26.3858 65.4975C26.2037 65.4728 26.0348 65.3886 25.9054 65.2579C25.7761 65.1273 25.6936 64.9575 25.6708 64.7751C25.648 64.5927 25.6861 64.4079 25.7793 64.2494L27.3493 61.6461C27.2532 61.6985 27.1478 61.7315 27.0389 61.7431C26.9301 61.7548 26.82 61.7449 26.715 61.714C26.61 61.6831 26.5121 61.6319 26.4269 61.5632C26.3417 61.4945 26.2709 61.4096 26.2185 61.3136C26.1661 61.2175 26.1331 61.112 26.1214 61.0032C26.1098 60.8944 26.1196 60.7843 26.1505 60.6793C26.1814 60.5743 26.2327 60.4764 26.3014 60.3912C26.3701 60.306 26.4549 60.2351 26.551 60.1827L29.3126 58.5894C29.4725 58.4978 29.6582 58.4617 29.8407 58.4869C30.0232 58.512 30.1923 58.5969 30.3214 58.7283C30.4505 58.8598 30.5325 59.0303 30.5544 59.2132C30.5764 59.3961 30.537 59.5812 30.4426 59.7394L28.8743 62.3427L35.4076 58.5711C35.5835 58.4682 35.791 58.4334 35.9908 58.4732C36.1907 58.513 36.369 58.6245 36.4921 58.7869C36.6153 58.9492 36.6747 59.151 36.6591 59.3542C36.6435 59.5573 36.5541 59.7477 36.4076 59.8894L31.8793 64.2861L41.816 58.5494C41.9974 58.4454 42.2114 58.4134 42.4154 58.4598C42.6193 58.5062 42.7984 58.6276 42.917 58.7999C43.0355 58.9722 43.085 59.1828 43.0555 59.3899C43.026 59.597 42.9196 59.7854 42.7576 59.9177L35.2076 66.0411L48.2076 58.5411C48.3916 58.4386 48.6076 58.4096 48.812 58.4599C49.0165 58.5102 49.1944 58.636 49.3099 58.8121C49.4254 58.9882 49.4699 59.2015 49.4346 59.409C49.3992 59.6166 49.2866 59.8031 49.1193 59.9311L38.631 67.7144L50.9843 60.5827C51.1713 60.4719 51.3943 60.4386 51.6055 60.4898C51.8168 60.5411 51.9997 60.6728 52.1151 60.857C52.2306 61.0412 52.2695 61.2632 52.2236 61.4757C52.1777 61.6882 52.0505 61.8743 51.8693 61.9944L45.8193 66.1011L50.986 63.1177C51.1727 63.0094 51.3942 62.9777 51.6038 63.0294C51.8134 63.0811 51.9948 63.2121 52.1097 63.3949C52.2246 63.5776 52.2642 63.7978 52.2199 64.0092C52.1757 64.2205 52.0512 64.4064 51.8726 64.5277L45.596 68.8061L50.9943 65.6911C51.1778 65.5866 51.394 65.5557 51.5994 65.6046C51.8047 65.6534 51.9839 65.7784 52.1007 65.9542C52.2175 66.13 52.2632 66.3436 52.2286 66.5519C52.194 66.7601 52.0817 66.9474 51.9143 67.0761L41.2993 75.1111L51.0026 69.5077C51.1861 69.4033 51.4023 69.3724 51.6077 69.4212C51.813 69.4701 51.9922 69.595 52.109 69.7709C52.2258 69.9467 52.2715 70.1603 52.2369 70.3685C52.2023 70.5768 52.09 70.7641 51.9226 70.8927L46.3343 75.1244L51.0093 72.4261C51.1925 72.3224 51.4082 72.2919 51.613 72.3407C51.8178 72.3896 51.9965 72.5141 52.1132 72.6893C52.2299 72.8645 52.276 73.0774 52.2422 73.2851C52.2084 73.4929 52.0972 73.6802 51.931 73.8094L50.006 75.2777L51.0143 74.6961C51.1948 74.5926 51.4074 74.5604 51.6105 74.6058C51.8135 74.6512 51.9922 74.7709 52.1115 74.9413C52.2307 75.1117 52.2819 75.3206 52.255 75.5269C52.2281 75.7332 52.125 75.9219 51.966 76.0561L50.8226 77.0111L51.0193 76.8994C51.1805 76.8092 51.3672 76.7751 51.5499 76.8025C51.7326 76.8299 51.9011 76.9173 52.0287 77.0508C52.1564 77.1844 52.236 77.3566 52.2551 77.5404C52.2742 77.7242 52.2317 77.9091 52.1343 78.0661L50.8343 80.0661L51.026 79.9561C51.1208 79.8958 51.2269 79.8553 51.3378 79.837C51.4487 79.8188 51.5621 79.8232 51.6713 79.8499C51.7805 79.8767 51.8831 79.9252 51.973 79.9926C52.0629 80.0601 52.1383 80.145 52.1945 80.2423C52.2508 80.3396 52.2867 80.4473 52.3003 80.5588C52.3138 80.6704 52.3047 80.7836 52.2734 80.8915C52.2421 80.9994 52.1892 81.0999 52.1181 81.1869C52.0469 81.2739 51.9589 81.3456 51.8593 81.3977L48.6626 83.2494C48.5012 83.3448 48.312 83.382 48.1265 83.3551C47.9409 83.3281 47.7702 83.2385 47.6426 83.1011C47.5139 82.9654 47.4345 82.7904 47.4173 82.6042C47.4001 82.418 47.446 82.2314 47.5476 82.0744L48.846 80.0744L43.346 83.2511C43.1654 83.3563 42.9519 83.3899 42.7478 83.3452C42.5437 83.3004 42.3638 83.1806 42.2439 83.0095C42.1239 82.8384 42.0726 82.6284 42.1002 82.4213C42.1277 82.2141 42.2321 82.0249 42.3926 81.8911L43.536 80.9377L39.521 83.2494C39.3377 83.3531 39.1221 83.3836 38.9173 83.3347C38.7125 83.2859 38.5338 83.1614 38.4171 82.9862C38.3004 82.811 38.2543 82.5981 38.2881 82.3903C38.3219 82.1825 38.4331 81.9952 38.5993 81.8661L40.521 80.4011L35.586 83.2494C35.46 83.3248 35.3161 83.3651 35.1693 83.3661Z" fill="#6671FF"/>
<path id="Vector_18" d="M69.7927 95.0327C69.6452 95.0328 69.5004 94.9937 69.373 94.9195C69.2456 94.8452 69.1402 94.7385 69.0675 94.6103C68.9948 94.482 68.9574 94.3367 68.9592 94.1893C68.961 94.0419 69.0019 93.8975 69.0777 93.7711L70.7443 91.0027L67.0993 93.1061C66.9257 93.2064 66.7218 93.2408 66.5249 93.2029C66.328 93.165 66.1513 93.0574 66.0274 92.8998C65.9034 92.7422 65.8404 92.5452 65.85 92.3449C65.8595 92.1446 65.9409 91.9545 66.0793 91.8094L68.4693 89.3094L64.5027 91.5994C64.3238 91.7001 64.114 91.7311 63.9136 91.6867C63.7132 91.6422 63.5362 91.5254 63.4167 91.3585C63.2971 91.1917 63.2433 90.9865 63.2656 90.7825C63.288 90.5784 63.3848 90.3898 63.5377 90.2527L66.1293 87.9861L62.1943 90.2494C62.0106 90.3546 61.7938 90.386 61.5878 90.3372C61.3818 90.2884 61.2022 90.163 61.0853 89.9865C60.9684 89.81 60.923 89.5956 60.9585 89.3869C60.9939 89.1782 61.1074 88.9908 61.276 88.8627L61.681 88.5594L60.4793 89.2527C60.2999 89.3572 60.088 89.391 59.8851 89.3474C59.6821 89.3039 59.5027 89.1861 59.382 89.0172C59.2612 88.8484 59.2079 88.6405 59.2324 88.4344C59.2569 88.2282 59.3574 88.0386 59.5143 87.9027L66.0893 82.1661L57.161 87.3211C56.9762 87.4289 56.757 87.4615 56.5489 87.4121C56.3407 87.3628 56.1595 87.2353 56.0427 87.056C55.926 86.8767 55.8827 86.6594 55.9218 86.4491C55.9608 86.2387 56.0793 86.0515 56.2527 85.9261L60.0043 83.1894L55.0127 86.0827C54.8292 86.1872 54.613 86.2181 54.4076 86.1692C54.2022 86.1204 54.0231 85.9954 53.9063 85.8196C53.7895 85.6438 53.7438 85.4302 53.7784 85.2219C53.8129 85.0137 53.9253 84.8264 54.0927 84.6977L61.8677 78.8161L52.1593 84.4161C51.9745 84.5239 51.7554 84.5565 51.5472 84.5071C51.339 84.4578 51.1578 84.3303 51.0411 84.151C50.9243 83.9717 50.881 83.7544 50.9201 83.544C50.9592 83.3337 51.0776 83.1465 51.251 83.0211L59.986 76.6477L50.2443 82.2711C50.0587 82.3739 49.8408 82.402 49.6352 82.3496C49.4296 82.2973 49.2516 82.1685 49.1377 81.9895C49.0237 81.8105 48.9823 81.5948 49.022 81.3864C49.0616 81.1779 49.1793 80.9924 49.351 80.8677L56.6127 75.8127L50.2493 79.4794C50.0625 79.5859 49.8417 79.616 49.6331 79.5635C49.4245 79.5109 49.2444 79.3798 49.1303 79.1974C49.0162 79.0151 48.977 78.7957 49.0209 78.5852C49.0649 78.3746 49.1885 78.1892 49.366 78.0677L53.366 75.3561L50.2443 77.1577C50.0601 77.261 49.8436 77.2904 49.6385 77.2401C49.4334 77.1898 49.255 77.0636 49.1395 76.8868C49.0239 76.7101 48.9797 76.4961 49.0159 76.288C49.0521 76.08 49.1659 75.8934 49.3343 75.7661L60.501 67.5511L50.246 73.4711C50.0593 73.5745 49.84 73.6023 49.6333 73.5488C49.4267 73.4953 49.2485 73.3646 49.1354 73.1835C49.0223 73.0025 48.9831 72.785 49.0256 72.5758C49.0682 72.3666 49.1895 72.1818 49.3643 72.0594L52.8543 69.7044L50.2443 71.2044C50.058 71.3128 49.837 71.3448 49.6276 71.2937C49.4182 71.2426 49.2367 71.1123 49.1213 70.9303C49.006 70.7482 48.9656 70.5286 49.0087 70.3174C49.0518 70.1062 49.1751 69.9199 49.3527 69.7977L56.1127 65.1127L50.231 68.5077C50.0446 68.6143 49.8242 68.6448 49.6158 68.5928C49.4074 68.5409 49.2272 68.4105 49.1126 68.2288C48.998 68.0472 48.958 67.8284 49.0009 67.6179C49.0437 67.4075 49.1662 67.2217 49.3427 67.0994L54.7577 63.3877L50.2277 66.0044C50.0423 66.1101 49.8235 66.1407 49.6162 66.0899C49.409 66.0391 49.2292 65.9107 49.1138 65.7312C48.9984 65.5517 48.9562 65.3348 48.996 65.1251C49.0358 64.9155 49.1545 64.7291 49.3277 64.6044L58.136 58.3477L50.2243 62.9161C50.0382 63.0266 49.8163 63.0604 49.6057 63.0102C49.3951 62.96 49.2123 62.8298 49.096 62.6473C48.9797 62.4647 48.939 62.244 48.9825 62.0319C49.0261 61.8198 49.1505 61.633 49.3293 61.5111L54.4093 57.9611L50.2227 60.3777C50.1278 60.438 50.0217 60.4785 49.9108 60.4968C49.7999 60.515 49.6865 60.5106 49.5773 60.4839C49.4682 60.4571 49.3655 60.4086 49.2756 60.3412C49.1857 60.2737 49.1104 60.1888 49.0541 60.0915C48.9979 59.9942 48.9619 59.8865 48.9483 59.775C48.9348 59.6634 48.9439 59.5502 48.9753 59.4423C49.0066 59.3343 49.0594 59.2339 49.1306 59.1469C49.2017 59.0599 49.2897 58.9882 49.3893 58.9361L70.231 46.8994C70.4171 46.7889 70.639 46.7551 70.8496 46.8053C71.0602 46.8555 71.243 46.9856 71.3593 47.1682C71.4756 47.3508 71.5163 47.5715 71.4728 47.7836C71.4292 47.9956 71.3048 48.1824 71.126 48.3044L66.0343 51.8627L72.6477 48.0461C72.8329 47.9429 73.0505 47.9142 73.2561 47.9659C73.4618 48.0175 73.64 48.1456 73.7545 48.3241C73.869 48.5025 73.9112 48.7179 73.8724 48.9264C73.8337 49.1348 73.717 49.3207 73.546 49.4461L64.746 55.6961L72.651 51.1344C72.8373 51.0308 73.0562 51.0025 73.2627 51.0554C73.4692 51.1083 73.6476 51.2383 73.7612 51.4187C73.8748 51.5991 73.9149 51.8162 73.8733 52.0252C73.8318 52.2343 73.7116 52.4195 73.5377 52.5427L68.1127 56.2611L72.6577 53.6394C72.844 53.531 73.065 53.499 73.2744 53.5501C73.4838 53.6012 73.6652 53.7315 73.7806 53.9135C73.896 54.0955 73.9364 54.3152 73.8933 54.5264C73.8501 54.7376 73.7269 54.9238 73.5493 55.0461L66.7793 59.7344L72.651 56.3461C72.8373 56.2462 73.0546 56.2208 73.2589 56.2752C73.4632 56.3295 73.6392 56.4595 73.7513 56.6387C73.8634 56.8179 73.9031 57.0331 73.8625 57.2405C73.822 57.448 73.704 57.6323 73.5327 57.7561L70.041 60.1127L72.6527 58.6127C72.8369 58.5095 73.0534 58.48 73.2585 58.5303C73.4636 58.5806 73.6419 58.7069 73.7575 58.8836C73.8731 59.0604 73.9172 59.2744 73.8811 59.4824C73.8449 59.6905 73.7311 59.877 73.5627 60.0044L62.4127 68.2111L72.661 62.2927C72.848 62.1819 73.0709 62.1486 73.2822 62.1998C73.4935 62.2511 73.6764 62.3828 73.7918 62.567C73.9073 62.7512 73.9462 62.9732 73.9003 63.1857C73.8544 63.3982 73.7272 63.5843 73.546 63.7044L69.5193 66.4311L72.6643 64.6161C72.8505 64.5055 73.0723 64.4718 73.2829 64.522C73.4935 64.5721 73.6763 64.7023 73.7926 64.8849C73.909 65.0675 73.9496 65.2882 73.9061 65.5002C73.8625 65.7123 73.7382 65.8991 73.5593 66.0211L66.306 71.0827L72.6677 67.4161C72.8521 67.312 73.0693 67.282 73.275 67.3323C73.4808 67.3825 73.6597 67.5093 73.7753 67.6867C73.891 67.8641 73.9348 68.0789 73.8977 68.2875C73.8607 68.496 73.7457 68.6826 73.576 68.8094L64.8527 75.1727L72.671 70.6594C72.8544 70.555 73.0707 70.5241 73.276 70.5729C73.4814 70.6217 73.6606 70.7467 73.7774 70.9225C73.8942 71.0984 73.9399 71.312 73.9053 71.5202C73.8707 71.7284 73.7584 71.9158 73.591 72.0444L65.811 77.9161L72.6743 73.9544C72.8591 73.8466 73.0783 73.814 73.2865 73.8633C73.4946 73.9127 73.6758 74.0402 73.7926 74.2195C73.9093 74.3988 73.9526 74.6161 73.9136 74.8264C73.8745 75.0368 73.756 75.224 73.5827 75.3494L69.831 78.0827L72.6777 76.4394C72.857 76.3349 73.069 76.3012 73.2719 76.3447C73.4749 76.3883 73.6543 76.506 73.775 76.6749C73.8957 76.8438 73.9491 77.0516 73.9246 77.2578C73.9001 77.4639 73.7996 77.6535 73.6427 77.7894L67.071 83.5227L72.681 80.2844C72.8647 80.1792 73.0815 80.1478 73.2875 80.1966C73.4935 80.2454 73.6732 80.3708 73.7901 80.5473C73.9069 80.7238 73.9523 80.9382 73.9168 81.1469C73.8814 81.3556 73.7679 81.543 73.5993 81.6711L72.9327 82.1711C73.0914 82.1392 73.2559 82.1537 73.4067 82.2128C73.5574 82.2719 73.6879 82.3731 73.7827 82.5044C73.903 82.6726 73.9566 82.8795 73.9328 83.085C73.9091 83.2904 73.8099 83.4797 73.6543 83.6161L71.0643 85.8811L72.691 84.9427C72.8646 84.8436 73.068 84.8101 73.2642 84.8485C73.4604 84.8868 73.6362 84.9944 73.7597 85.1517C73.8831 85.3089 73.946 85.5052 73.9367 85.7049C73.9275 85.9046 73.8468 86.0943 73.7093 86.2394L71.3193 88.7394L72.6943 87.9461C72.854 87.8542 73.0397 87.8179 73.2222 87.8428C73.4048 87.8677 73.5739 87.9523 73.7033 88.0836C73.8326 88.2148 73.9148 88.3852 73.937 88.5681C73.9592 88.7509 73.9202 88.936 73.826 89.0944L72.1593 91.8627L72.6927 91.5561C72.7875 91.4958 72.8936 91.4553 73.0045 91.437C73.1154 91.4188 73.2288 91.4232 73.338 91.4499C73.4471 91.4767 73.5498 91.5252 73.6397 91.5926C73.7296 91.6601 73.8049 91.745 73.8612 91.8423C73.9174 91.9396 73.9534 92.0473 73.967 92.1588C73.9805 92.2704 73.9714 92.3836 73.9401 92.4915C73.9087 92.5995 73.8559 92.6999 73.7848 92.7869C73.7136 92.8739 73.6256 92.9456 73.526 92.9977L70.2093 94.9161C70.0834 94.9917 69.9395 95.032 69.7927 95.0327Z" fill="#E4F1FF"/>
<path id="Vector_19" d="M73.1593 98.3627C73.0046 98.3627 72.8529 98.3196 72.7212 98.2383C72.5896 98.1569 72.4832 98.0405 72.414 97.9021C72.3448 97.7636 72.3155 97.6087 72.3294 97.4545C72.3433 97.3004 72.3998 97.1532 72.4927 97.0294L73.2177 96.076L71.1693 97.2577C71.0012 97.3541 70.8047 97.3889 70.6137 97.356C70.4227 97.3232 70.2491 97.2248 70.1228 97.0778C69.9965 96.9307 69.9254 96.7443 69.9217 96.5505C69.918 96.3567 69.982 96.1677 70.1027 96.016L72.9593 92.4544L70.241 94.0227C70.0671 94.1219 69.8633 94.1552 69.6668 94.1165C69.4704 94.0777 69.2944 93.9696 69.1712 93.8117C69.048 93.6539 68.9857 93.457 68.9958 93.257C69.0058 93.057 69.0876 92.8674 69.226 92.7227L71.6377 90.2344L70.241 91.0394C70.0686 91.1373 69.867 91.1705 69.6723 91.1332C69.4776 91.0958 69.3027 90.9902 69.1788 90.8354C69.0549 90.6807 68.9903 90.4868 68.9965 90.2887C69.0027 90.0905 69.0794 89.9011 69.2127 89.7544L72.061 86.6677L70.241 87.7177C70.0666 87.8171 69.8621 87.8502 69.6652 87.8109C69.4684 87.7715 69.2923 87.6625 69.1694 87.5037C69.0465 87.3449 68.9851 87.1472 68.9964 86.9467C69.0077 86.7463 69.091 86.5566 69.231 86.4127L71.4893 84.1177L70.241 84.8377C70.0694 84.9368 69.8682 84.9715 69.6733 84.9356C69.4785 84.8997 69.3028 84.7956 69.1778 84.6419C69.0528 84.4882 68.9866 84.2949 68.9912 84.0969C68.9957 83.8988 69.0707 83.7088 69.2027 83.561L72.3143 80.0744L70.241 81.271C70.0693 81.3701 69.8678 81.4047 69.6729 81.3686C69.478 81.3325 69.3023 81.228 69.1774 81.0741C69.0525 80.9201 68.9866 80.7266 68.9916 80.5284C68.9965 80.3302 69.0719 80.1403 69.2043 79.9927L72.2927 76.5444L70.241 77.7277C70.0674 77.8269 69.864 77.8603 69.6678 77.8219C69.4716 77.7836 69.2958 77.676 69.1723 77.5188C69.0489 77.3616 68.986 77.1652 68.9953 76.9656C69.0045 76.7659 69.0852 76.5762 69.2227 76.431L71.7327 73.8127L70.241 74.6744C70.0684 74.7734 69.8661 74.8074 69.6707 74.7703C69.4752 74.7331 69.2995 74.6273 69.1753 74.4718C69.0511 74.3164 68.9866 74.1217 68.9934 73.9229C69.0003 73.724 69.078 73.5342 69.2127 73.3877L72.0627 70.2977L70.241 71.3494C70.0674 71.4485 69.864 71.482 69.6678 71.4436C69.4716 71.4053 69.2958 71.2977 69.1723 71.1405C69.0489 70.9833 68.986 70.7869 68.9953 70.5872C69.0045 70.3875 69.0852 70.1978 69.2227 70.0527L71.7793 67.3677L70.241 68.2544C70.0686 68.3534 69.8665 68.3875 69.6711 68.3506C69.4758 68.3136 69.3001 68.2081 69.1757 68.0529C69.0514 67.8978 68.9866 67.7033 68.9931 67.5046C68.9995 67.3059 69.0768 67.1161 69.211 66.9694L72.0877 63.8427L70.241 64.9094C70.0688 65.0084 69.8668 65.0426 69.6716 65.0059C69.4763 64.9692 69.3006 64.8639 69.1762 64.709C69.0517 64.5542 68.9866 64.36 68.9927 64.1614C68.9988 63.9628 69.0756 63.773 69.2093 63.626L72.146 60.4094L70.241 61.5077C70.0699 61.6058 69.8696 61.64 69.6757 61.6044C69.4818 61.5687 69.3068 61.4654 69.1818 61.3128C69.0569 61.1603 68.9901 60.9684 68.9933 60.7712C68.9965 60.5741 69.0695 60.3844 69.1993 60.236L72.3777 56.6444L70.241 57.876C70.0693 57.9751 69.8678 58.0097 69.6729 57.9736C69.478 57.9375 69.3023 57.833 69.1774 57.6791C69.0525 57.5251 68.9866 57.3316 68.9916 57.1334C68.9965 56.9352 69.0719 56.7453 69.2043 56.5977L72.2843 53.1627L70.241 54.341C70.0619 54.4435 69.8511 54.4759 69.6494 54.4318C69.4478 54.3878 69.2697 54.2705 69.1495 54.1027C69.0294 53.9349 68.9759 53.7284 68.9992 53.5234C69.0226 53.3183 69.1212 53.1292 69.276 52.9927L69.8343 52.5044C69.709 52.5177 69.5824 52.4968 69.468 52.444C69.3535 52.3912 69.2555 52.3084 69.1843 52.2044C69.0583 52.0543 68.9892 51.8645 68.9892 51.6685C68.9892 51.4725 69.0583 51.2828 69.1843 51.1327L71.5927 48.2994L70.2377 49.081C70.0693 49.1783 69.8723 49.2136 69.6807 49.181C69.489 49.1483 69.3149 49.0496 69.1883 48.9021C69.0617 48.7546 68.9907 48.5674 68.9875 48.373C68.9844 48.1786 69.0493 47.9893 69.171 47.8377L70.076 46.7077C69.9175 46.6642 69.7754 46.5748 69.6676 46.4508C69.5598 46.3268 69.4911 46.1737 69.47 46.0107C69.449 45.8477 69.4767 45.6821 69.5495 45.5348C69.6223 45.3875 69.7371 45.265 69.8793 45.1827L72.6427 43.5894C72.8108 43.493 73.0073 43.4582 73.1983 43.4911C73.3893 43.5239 73.5629 43.6223 73.6892 43.7693C73.8155 43.9163 73.8866 44.1028 73.8903 44.2966C73.894 44.4903 73.83 44.6793 73.7093 44.831L73.2327 45.4277L74.9093 44.4594C75.0793 44.3609 75.2785 44.3257 75.4719 44.3598C75.6653 44.3939 75.8404 44.4953 75.9664 44.646C76.0924 44.7966 76.1611 44.987 76.1604 45.1834C76.1597 45.3797 76.0897 45.5696 75.9627 45.7194L73.556 48.5527L75.971 47.1594C76.1501 47.0569 76.3609 47.0245 76.5626 47.0686C76.7642 47.1126 76.9423 47.2299 77.0625 47.3977C77.1826 47.5655 77.2361 47.772 77.2128 47.977C77.1894 48.1821 77.0908 48.3712 76.936 48.5077L76.3777 48.996C76.6263 49.0161 76.8594 49.1249 77.0343 49.3027C77.1598 49.4568 77.226 49.6507 77.2211 49.8493C77.2162 50.0479 77.1405 50.2383 77.0077 50.386L73.9277 53.821L75.971 52.6427C76.1422 52.5436 76.3432 52.5086 76.5378 52.5441C76.7325 52.5796 76.9082 52.6831 77.0335 52.8363C77.1588 52.9894 77.2255 53.1822 77.2217 53.38C77.2178 53.5778 77.1438 53.7678 77.0127 53.916L73.8327 57.5077L75.971 56.276C76.143 56.1781 76.3443 56.1446 76.5388 56.1816C76.7333 56.2186 76.9082 56.3235 77.0324 56.4777C77.1565 56.632 77.2217 56.8253 77.2162 57.0232C77.2108 57.2211 77.1351 57.4106 77.0027 57.5577L74.0677 60.7727L75.971 59.6744C76.1434 59.5754 76.3455 59.5412 76.5409 59.5782C76.7362 59.6151 76.9119 59.7207 77.0363 59.8758C77.1606 60.0309 77.2254 60.2254 77.2189 60.4241C77.2125 60.6228 77.1352 60.8127 77.001 60.9594L74.131 64.0827L75.9793 63.0177C76.1527 62.9198 76.3554 62.8871 76.5508 62.9257C76.7461 62.9643 76.9212 63.0716 77.0443 63.2281C77.1674 63.3847 77.2304 63.5801 77.2218 63.7791C77.2133 63.978 77.1338 64.1673 76.9977 64.3127L74.446 66.996L75.9827 66.1094C76.1552 66.0104 76.3575 65.9763 76.553 66.0135C76.7484 66.0506 76.9242 66.1565 77.0484 66.3119C77.1726 66.4673 77.2371 66.662 77.2303 66.8609C77.2234 67.0597 77.1456 67.2495 77.011 67.396L74.1593 70.486L75.9827 69.4344C76.1564 69.334 76.3606 69.2997 76.5576 69.3378C76.7547 69.3759 76.9313 69.4838 77.0552 69.6417C77.179 69.7996 77.2417 69.9969 77.2318 70.1973C77.2218 70.3977 77.1399 70.5879 77.001 70.7327L74.4877 73.351L75.9877 72.4894C76.1594 72.3903 76.3608 72.3557 76.5558 72.3918C76.7507 72.4279 76.9264 72.5324 77.0513 72.6864C77.1761 72.8403 77.242 73.0338 77.2371 73.232C77.2322 73.4302 77.1567 73.6201 77.0243 73.7677L73.9277 77.216L75.9793 76.0327C76.1509 75.9336 76.3522 75.8989 76.547 75.9348C76.7419 75.9707 76.9175 76.0749 77.0425 76.2286C77.1676 76.3823 77.2337 76.5755 77.2292 76.7735C77.2246 76.9716 77.1496 77.1616 77.0177 77.3094L73.9093 80.7944L75.9793 79.5977C76.1538 79.4983 76.3582 79.4652 76.5551 79.5046C76.752 79.5439 76.928 79.6529 77.0509 79.8117C77.1738 79.9705 77.2352 80.1683 77.2239 80.3687C77.2126 80.5692 77.1293 80.7588 76.9893 80.9027L74.7293 83.201L75.9793 82.4794C76.1519 82.3804 76.3542 82.3463 76.5497 82.3835C76.7451 82.4206 76.9208 82.5265 77.045 82.6819C77.1693 82.8373 77.2338 83.032 77.2269 83.2309C77.2201 83.4297 77.1423 83.6195 77.0077 83.766L74.1627 86.8494L75.9793 85.801C76.1533 85.7018 76.3571 85.6685 76.5535 85.7073C76.75 85.746 76.9259 85.8542 77.0491 86.012C77.1724 86.1698 77.2346 86.3668 77.2246 86.5667C77.2145 86.7667 77.1328 86.9564 76.9943 87.101L74.581 89.601L75.9793 88.7944C76.1475 88.6989 76.3435 88.6649 76.534 88.6982C76.7244 88.7314 76.8974 88.8298 77.0233 88.9765C77.1491 89.1233 77.2201 89.3092 77.2239 89.5025C77.2277 89.6958 77.1643 89.8844 77.0443 90.036L74.1893 93.5827L75.9793 92.5477C76.1461 92.4521 76.3407 92.4171 76.5303 92.4486C76.7199 92.4801 76.8928 92.5761 77.0197 92.7205C77.1466 92.8648 77.2197 93.0486 77.2266 93.2407C77.2335 93.4327 77.1738 93.6213 77.0577 93.7744L76.046 95.1077C76.216 95.1344 76.3735 95.2131 76.497 95.333C76.6205 95.4528 76.7038 95.6079 76.7356 95.777C76.7674 95.9462 76.746 96.121 76.6745 96.2775C76.6029 96.4339 76.4847 96.5644 76.336 96.651L73.576 98.2444C73.4503 98.3206 73.3063 98.3615 73.1593 98.3627Z" fill="#6671FF"/>
<path id="Vector_20" d="M74.8826 43.676C72.2159 42.7793 68.6709 44.616 68.5776 47.606C62.3759 51.1727 56.2742 54.8893 50.0209 58.3677C43.0209 59.756 29.4376 54.8677 25.4826 61.6177C22.2609 61.131 18.4659 62.6177 18.5526 66.336C18.7459 71.9593 16.5242 81.7227 25.3859 80.1877C25.6356 81.2444 26.2729 82.1689 27.1716 82.7782C28.0704 83.3874 29.1652 83.6371 30.2392 83.4777C30.4059 87.5427 29.9059 91.7343 30.4476 95.736C31.9076 99.236 37.4742 98.966 39.9059 96.6793C41.5509 94.8893 40.8392 92.356 40.9892 90.1543C45.6176 90.896 50.4009 88.916 49.3392 83.4777C55.8392 87.0977 62.2342 91.026 68.7126 94.7127C68.7225 95.2435 68.8447 95.7662 69.0712 96.2463C69.2976 96.7265 69.6231 97.1534 70.0263 97.4987C70.4294 97.8441 70.9011 98.1003 71.4104 98.2503C71.9196 98.4004 72.4549 98.4409 72.9809 98.3693C81.1476 97.0993 76.5192 85.8093 77.6642 80.071C88.3709 79.0093 88.5992 62.526 77.6642 61.7377C76.5842 56.2793 80.4209 46.861 74.8826 43.676ZM68.5609 48.971C68.5609 63.4632 68.5609 77.9521 68.5609 92.4377L51.0026 82.196V59.2127L68.5609 48.971ZM31.0926 60.1377H48.5559V81.6877C43.4326 80.4643 29.1142 84.6877 27.6726 78.9393C28.8976 74.4727 24.4259 59.416 31.0926 60.1443V60.1377ZM21.0059 75.3043C21.7476 71.2943 18.4009 62.2543 25.2192 63.5127V78.3027C23.0359 78.6543 20.8126 77.861 21.0059 75.3127V75.3043ZM37.8309 96.3927C30.0926 99.5177 33.2442 87.7043 32.6542 83.4777H38.5742C38.1476 87.6827 39.6126 92.5377 37.8309 96.3927ZM46.5126 87.4327C45.2992 89.1093 42.7759 88.0727 40.9909 88.3443V83.4777H46.8909C47.049 84.8081 46.9189 86.157 46.5092 87.4327H46.5126ZM73.3459 96.7743C68.4609 94.9793 72.0226 83.676 70.9926 79.1227C71.8592 75.981 68.0409 34.2727 75.2276 47.9693C75.2353 61.6627 75.2353 75.3577 75.2276 89.0543C75.2292 90.916 76.0559 96.416 73.3459 96.7743ZM83.5509 70.9927C83.577 72.6936 82.9999 74.3488 81.9221 75.6649C80.8443 76.981 79.3353 77.873 77.6626 78.1827V63.6827C79.3213 64.0653 80.8035 64.9938 81.8715 66.3193C82.9395 67.6448 83.5299 69.2906 83.5509 70.9927Z" fill="#262626"/>
</g>
</g>
</g>
</svg>
