<svg width="31" height="30" viewBox="0 0 31 30" fill="none" xmlns="http://www.w3.org/2000/svg">
<g id="Frame">
<g id="Group">
<g id="Group_2">
<path id="Vector" d="M15.5 4.45312C15.2414 4.45319 14.9935 4.55593 14.8106 4.73876C14.6278 4.9216 14.525 5.16956 14.525 5.42812V16.5511L10.7963 12.8224C10.7058 12.7319 10.5983 12.6601 10.48 12.6111C10.3617 12.5621 10.2349 12.5369 10.1068 12.5369C9.84821 12.5369 9.60021 12.6397 9.41737 12.8225C9.23452 13.0054 9.13181 13.2534 9.13184 13.512C9.13186 13.7706 9.23461 14.0186 9.41748 14.2015L14.8105 19.5938C14.9934 19.7765 15.2414 19.8792 15.5 19.8792C15.7586 19.8792 16.0066 19.7765 16.1895 19.5938L21.5825 14.2005C21.7654 14.0177 21.8681 13.7697 21.8681 13.5111C21.8682 13.2525 21.7654 13.0045 21.5826 12.8216C21.3998 12.6387 21.1518 12.536 20.8932 12.536C20.6346 12.5359 20.3865 12.6386 20.2037 12.8215L16.475 16.5511V5.42812C16.4749 5.16956 16.3722 4.9216 16.1893 4.73876C16.0065 4.55593 15.7586 4.45319 15.5 4.45312Z" fill="#ABB2BF"/>
<path id="Vector_2" d="M5.92812 17.345C5.66954 17.345 5.42154 17.4477 5.2387 17.6305C5.05585 17.8134 4.95313 18.0614 4.95312 18.32V21.5328C4.9543 22.597 5.3776 23.6174 6.13014 24.3699C6.88268 25.1225 7.90301 25.5457 8.96727 25.5469H22.0327C23.097 25.5457 24.1173 25.1225 24.8699 24.3699C25.6224 23.6174 26.0457 22.597 26.0469 21.5328V18.32C26.0469 18.1919 26.0217 18.0651 25.9727 17.9469C25.9237 17.8286 25.8518 17.7211 25.7613 17.6305C25.6708 17.54 25.5633 17.4682 25.445 17.4192C25.3267 17.3702 25.1999 17.345 25.0719 17.345C24.9438 17.345 24.8171 17.3702 24.6988 17.4192C24.5805 17.4682 24.473 17.54 24.3824 17.6305C24.2919 17.7211 24.2201 17.8286 24.1711 17.9469C24.1221 18.0651 24.0969 18.1919 24.0969 18.32V21.5328C24.0963 22.08 23.8786 22.6047 23.4916 22.9917C23.1047 23.3786 22.58 23.5963 22.0327 23.5969H8.96727C8.42001 23.5963 7.89535 23.3786 7.50838 22.9917C7.12142 22.6047 6.90375 22.08 6.90312 21.5328V18.32C6.90316 18.1919 6.87796 18.0651 6.82897 17.9468C6.77998 17.8285 6.70817 17.721 6.61762 17.6305C6.52708 17.5399 6.41958 17.4681 6.30128 17.4191C6.18297 17.3701 6.05617 17.3449 5.92812 17.345Z" fill="#ABB2BF"/>
</g>
</g>
</g>
</svg>
