<svg width="41" height="41" viewBox="0 0 41 41" fill="none" xmlns="http://www.w3.org/2000/svg">
<g id="Frame" opacity="0.5" clip-path="url(#clip0_38_9297)">
<g id="Group">
<path id="Vector" d="M24.2562 20.5336L40.221 4.56851C41.2599 3.53003 41.2599 1.8509 40.221 0.812542C39.1825 -0.225941 37.5034 -0.225941 36.465 0.812542L20.4998 16.7775L4.5352 0.812542C3.49622 -0.225941 1.81772 -0.225941 0.779235 0.812542C-0.259745 1.85102 -0.259745 3.53003 0.779235 4.56851L16.7437 20.5336L0.77936 36.4986C-0.259621 37.5371 -0.259621 39.2162 0.77936 40.2546C1.02569 40.5016 1.31841 40.6975 1.6407 40.8311C1.96298 40.9646 2.30848 41.0332 2.65734 41.0328C3.33721 41.0328 4.01733 40.7726 4.53533 40.2546L20.4998 24.2896L36.465 40.2546C36.7114 40.5016 37.0041 40.6975 37.3264 40.831C37.6487 40.9646 37.9942 41.0331 38.343 41.0328C39.0229 41.0328 39.703 40.7726 40.221 40.2546C41.2599 39.2161 41.2599 37.5371 40.221 36.4986L24.2562 20.5336Z" fill="white"/>
</g>
</g>
<defs>
<clipPath id="clip0_38_9297">
<rect width="41" height="41" fill="white"/>
</clipPath>
</defs>
</svg>
