<svg width="100" height="100" viewBox="0 0 100 100" fill="none" xmlns="http://www.w3.org/2000/svg">
<g id="app-development 3" clip-path="url(#clip0_98_3207)">
<path id="Vector" d="M45.0816 98.7218C44.9018 98.7217 44.7268 98.6636 44.5828 98.5563C44.4388 98.449 44.3335 98.2981 44.2827 98.1263C44.2319 97.9545 44.2383 97.7709 44.3008 97.6029C44.3634 97.435 44.4789 97.2917 44.6299 97.1945L48.8533 94.4854L41.6866 98.6089C41.4999 98.7119 41.2806 98.7396 41.074 98.6863C40.8673 98.633 40.6891 98.5028 40.576 98.3225C40.463 98.1422 40.4237 97.9255 40.4663 97.7172C40.5089 97.5089 40.6301 97.3248 40.8049 97.2028L57.1199 86.3048L35.7166 98.6056C35.5295 98.7085 35.3098 98.7358 35.103 98.6819C34.8962 98.628 34.718 98.4971 34.6055 98.3161C34.4929 98.1351 34.4544 97.9179 34.4981 97.7095C34.5417 97.501 34.6641 97.3173 34.8399 97.1962L54.3399 84.3874L29.6116 98.6056C29.4239 98.707 29.2042 98.7329 28.998 98.6777C28.7917 98.6225 28.6145 98.4906 28.5031 98.3091C28.3917 98.1276 28.3545 97.9104 28.3992 97.7024C28.4439 97.4944 28.567 97.3114 28.7433 97.1912L49.0766 84.1368L25.4099 97.749C25.221 97.8632 24.9942 97.898 24.7794 97.8457C24.5647 97.7934 24.3796 97.6583 24.2649 97.4701C24.1502 97.2819 24.1153 97.056 24.1678 96.8421C24.2203 96.6283 24.356 96.4439 24.5449 96.3297L45.2733 83.1872L23.2849 95.8333C23.096 95.937 22.8741 95.9636 22.6658 95.9076C22.4576 95.8517 22.2792 95.7174 22.1683 95.5332C22.0573 95.3489 22.0224 95.129 22.0709 94.9197C22.1194 94.7103 22.2475 94.5279 22.4283 94.4107L34.2916 87.0651L22.3433 93.9359C22.1536 94.0491 21.9266 94.0825 21.7122 94.029C21.4978 93.9754 21.3135 93.8393 21.1999 93.6504C21.0863 93.4615 21.0527 93.2354 21.1065 93.0219C21.1602 92.8083 21.297 92.6247 21.4866 92.5116L35.6833 83.7018L22.0499 91.5421C21.8615 91.6454 21.6402 91.672 21.4325 91.6165C21.2247 91.561 21.0466 91.4277 20.9353 91.2443C20.824 91.061 20.7882 90.8419 20.8353 90.6329C20.8825 90.4239 21.0089 90.2411 21.1883 90.1228L44.1666 75.6026L22.0499 88.3134C21.862 88.4123 21.6431 88.4359 21.4382 88.3794C21.2333 88.3229 21.0579 88.1905 20.9478 88.0094C20.8377 87.8282 20.8012 87.612 20.8459 87.405C20.8907 87.1979 21.0131 87.0158 21.1883 86.8957L44.3333 72.2643L22.0499 85.073C21.8618 85.1746 21.6416 85.2002 21.4351 85.1444C21.2285 85.0887 21.0514 84.956 20.9404 84.7737C20.8294 84.5915 20.7931 84.3737 20.8389 84.1655C20.8847 83.9573 21.0092 83.7746 21.1866 83.6554L45.2199 68.418L22.0533 81.7413C21.8653 81.8403 21.6465 81.8639 21.4416 81.8074C21.2367 81.7509 21.0612 81.6185 20.9511 81.4373C20.841 81.2562 20.8046 81.0399 20.8493 80.8329C20.894 80.6259 21.0165 80.4437 21.1916 80.3237L44.0766 65.8599L22.0499 78.5192C21.8609 78.6214 21.6395 78.6467 21.4321 78.59C21.2247 78.5333 21.0473 78.3989 20.9371 78.2149C20.8269 78.031 20.7923 77.8117 20.8407 77.603C20.8891 77.3942 21.0166 77.2122 21.1966 77.0949L30.9666 71.074L22.0499 76.2018C21.8612 76.3022 21.6409 76.3265 21.4347 76.2696C21.2285 76.2126 21.0522 76.0789 20.9423 75.896C20.8324 75.7132 20.7973 75.4952 20.8444 75.2873C20.8914 75.0794 21.0169 74.8975 21.1949 74.7792L34.7583 66.3728L22.0499 73.6769C21.8611 73.7823 21.6386 73.8104 21.4293 73.7552C21.2201 73.7 21.0406 73.566 20.9289 73.3813C20.8172 73.1967 20.7819 72.976 20.8306 72.766C20.8794 72.556 21.0082 72.3731 21.1899 72.256L41.0233 59.819L22.0499 70.7354C21.8621 70.8355 21.6429 70.8602 21.4373 70.8044C21.2317 70.7485 21.0555 70.6164 20.9447 70.4351C20.834 70.2538 20.7971 70.0371 20.8418 69.8296C20.8865 69.6221 21.0093 69.4395 21.1849 69.3194L47.7999 52.3107L22.0499 67.1182C21.8607 67.2268 21.6363 67.2572 21.4248 67.2027C21.2134 67.1481 21.0319 67.0131 20.9194 66.8267C20.8069 66.6402 20.7724 66.4172 20.8233 66.2057C20.8742 65.9941 21.0065 65.8109 21.1916 65.6955L38.0533 55.1859L22.0533 64.3874C21.865 64.4877 21.6453 64.5121 21.4394 64.4557C21.2336 64.3993 21.0573 64.2663 20.947 64.0843C20.8367 63.9022 20.8007 63.6849 20.8466 63.4773C20.8924 63.2696 21.0165 63.0873 21.1933 62.9681L41.6666 50.0996L22.0433 61.3878C21.8546 61.4952 21.6312 61.5249 21.4208 61.4706C21.2104 61.4163 21.0297 61.2824 20.9171 61.0972C20.8044 60.9121 20.7689 60.6904 20.818 60.4796C20.8671 60.2687 20.997 60.0853 21.1799 59.9684L45.2766 44.6962L22.0499 58.0461C21.8607 58.1548 21.6363 58.1851 21.4248 58.1306C21.2134 58.0761 21.0319 57.9411 20.9194 57.7546C20.8069 57.5682 20.7724 57.3452 20.8233 57.1336C20.8742 56.9221 21.0065 56.7389 21.1916 56.6235L38.0533 46.1139L22.0533 55.3154C21.8641 55.4161 21.6432 55.4403 21.4365 55.3828C21.2299 55.3254 21.0534 55.1908 20.9439 55.0071C20.8344 54.8234 20.8002 54.6046 20.8485 54.3965C20.8968 54.1883 21.0239 54.0067 21.2033 53.8894L22.7733 52.9316L22.0533 53.3449C21.8636 53.4581 21.6366 53.4916 21.4222 53.438C21.2078 53.3845 21.0235 53.2483 20.9099 53.0594C20.7963 52.8705 20.7627 52.6444 20.8165 52.4309C20.8702 52.2173 21.007 52.0338 21.1966 51.9206L35.3333 43.1607L22.0499 50.7968C21.8605 50.9011 21.6378 50.9279 21.4288 50.8715C21.2199 50.8152 21.0412 50.68 20.9305 50.4948C20.8199 50.3095 20.7859 50.0886 20.8359 49.8788C20.8859 49.669 21.0158 49.4868 21.1983 49.3708L26.2849 46.2566L22.0499 48.6836C21.8615 48.7826 21.6422 48.8059 21.437 48.7488C21.2318 48.6918 21.0564 48.5586 20.9467 48.3767C20.8371 48.1948 20.8015 47.978 20.8474 47.7708C20.8932 47.5636 21.017 47.3817 21.1933 47.2626L37.5999 37.0435L22.0499 45.9827C21.8612 46.0831 21.6409 46.1074 21.4347 46.0504C21.2285 45.9935 21.0522 45.8597 20.9423 45.6769C20.8324 45.494 20.7973 45.2761 20.8444 45.0682C20.8914 44.8602 21.0169 44.6783 21.1949 44.5601L34.1949 36.5089L22.0499 43.4927C21.8619 43.5957 21.6413 43.6225 21.4339 43.5675C21.2266 43.5125 21.0485 43.3799 20.9368 43.1974C20.8251 43.0149 20.7884 42.7966 20.8343 42.5878C20.8802 42.379 21.0052 42.1959 21.1833 42.0767L48.2283 24.7609L22.0499 39.8124C21.861 39.916 21.6391 39.9427 21.4308 39.8867C21.2226 39.8307 21.0442 39.6965 20.9333 39.5123C20.8223 39.328 20.7874 39.1081 20.8359 38.8988C20.8844 38.6894 21.0125 38.507 21.1933 38.3897L33.8099 30.571L22.0499 37.3323C21.8613 37.4341 21.6406 37.4595 21.4337 37.4032C21.2267 37.347 21.0495 37.2135 20.939 37.0304C20.8284 36.8473 20.7929 36.6288 20.84 36.4204C20.887 36.212 21.013 36.0296 21.1916 35.9113L36.9149 26.0773L22.0499 34.6248C21.8624 34.7277 21.6422 34.7547 21.4352 34.7003C21.2281 34.6458 21.0501 34.5141 20.938 34.3324C20.8258 34.1506 20.7882 33.9329 20.833 33.7243C20.8777 33.5158 21.0014 33.3323 21.1783 33.2121L44.9083 17.8104L22.0499 30.9528C21.862 31.0518 21.6431 31.0754 21.4382 31.0189C21.2333 30.9623 21.0579 30.83 20.9478 30.6488C20.8377 30.4676 20.8012 30.2514 20.8459 30.0444C20.8907 29.8374 21.0131 29.6552 21.1883 29.5352L32.3149 22.5116L22.0499 28.4113C21.8624 28.5103 21.644 28.5342 21.4393 28.4783C21.2346 28.4223 21.0591 28.2907 20.9485 28.1103C20.838 27.9298 20.8007 27.7142 20.8443 27.5073C20.8879 27.3004 21.0092 27.1179 21.1833 26.997L32.8849 19.487L22.0516 25.7171C21.864 25.82 21.6439 25.847 21.4368 25.7926C21.2298 25.7381 21.0517 25.6064 20.9396 25.4247C20.8275 25.2429 20.7899 25.0252 20.8347 24.8166C20.8794 24.608 21.003 24.4246 21.1799 24.3044L31.4999 17.5963L22.0499 23.0262C21.8625 23.1306 21.6418 23.1589 21.4339 23.1052C21.226 23.0515 21.047 22.92 20.9341 22.738C20.8213 22.556 20.7833 22.3376 20.8282 22.1284C20.8731 21.9192 20.9973 21.7354 21.1749 21.6152L28.8166 16.6002L22.0499 20.4897C21.8646 20.5832 21.6509 20.6045 21.4507 20.5493C21.2505 20.494 21.0782 20.3663 20.9676 20.1911C20.8571 20.016 20.8162 19.806 20.853 19.6023C20.8898 19.3987 21.0016 19.2161 21.1666 19.0903L29.8833 13.1391L22.0499 17.6411C21.8624 17.752 21.6388 17.7853 21.4269 17.7338C21.215 17.6824 21.0319 17.5502 20.9167 17.3658C20.8015 17.1814 20.7636 16.9593 20.8109 16.7473C20.8582 16.5352 20.9871 16.3502 21.1699 16.2317L22.9199 15.0697L22.0499 15.5677C21.8681 15.6705 21.6541 15.7015 21.4504 15.6545C21.2467 15.6075 21.0682 15.486 20.9503 15.314C20.8324 15.142 20.7837 14.9322 20.8139 14.7261C20.8441 14.52 20.9509 14.3328 21.1133 14.2015L29.0316 7.88178L22.0499 11.8957C21.8725 11.9942 21.6652 12.0248 21.4667 11.9817C21.2683 11.9386 21.0925 11.8248 20.9724 11.6617C20.8522 11.4987 20.796 11.2975 20.8143 11.096C20.8326 10.8946 20.9241 10.7067 21.0716 10.5677L25.8333 6.23337L22.0933 8.39141C21.9205 8.49004 21.7181 8.52381 21.5225 8.48661C21.3269 8.44941 21.1512 8.3437 21.0271 8.18861C20.903 8.03352 20.8388 7.8393 20.846 7.64112C20.8533 7.44294 20.9315 7.2539 21.0666 7.10821L23.0983 4.92859C22.9217 4.91333 22.7546 4.84239 22.6213 4.72608C22.488 4.60977 22.3953 4.45416 22.3569 4.28184C22.3184 4.10952 22.3361 3.92947 22.4074 3.76785C22.4787 3.60623 22.5998 3.47146 22.7533 3.38311L26.7066 1.09725C26.8794 0.997469 27.0823 0.962797 27.2786 0.999547C27.4749 1.0363 27.6514 1.14202 27.7759 1.29748C27.9005 1.45294 27.9649 1.64779 27.9574 1.84655C27.9499 2.04532 27.8709 2.23478 27.7349 2.38045L26.0483 4.18822L31.6099 0.995989C31.7874 0.896169 31.9954 0.864567 32.1946 0.907158C32.3939 0.949749 32.5705 1.06358 32.6912 1.22713C32.8119 1.39067 32.8683 1.5926 32.8496 1.79472C32.8309 1.99684 32.7386 2.18514 32.5899 2.32401L27.8333 6.65336L37.6799 0.995989C37.8618 0.891206 38.0767 0.858728 38.2816 0.905058C38.4866 0.951389 38.6663 1.07311 38.785 1.24584C38.9036 1.41858 38.9523 1.62957 38.9214 1.83658C38.8905 2.04359 38.7822 2.23132 38.6183 2.36219L30.6983 8.68025L44.0666 0.995989C44.2538 0.887946 44.4758 0.856629 44.6857 0.90866C44.8956 0.96069 45.077 1.09199 45.1915 1.2748C45.306 1.45761 45.3446 1.67761 45.2993 1.88827C45.2539 2.09894 45.128 2.28377 44.9483 2.40369L43.1933 3.56571L47.6666 0.995989C47.8528 0.891293 48.0722 0.861863 48.2795 0.913787C48.4869 0.965711 48.6662 1.09502 48.7806 1.27496C48.8949 1.45491 48.9354 1.67172 48.8937 1.88057C48.852 2.08943 48.7313 2.27433 48.5566 2.39705L39.8499 8.34327L52.6366 0.995989C52.8239 0.894486 53.0431 0.868342 53.2492 0.922938C53.4552 0.977534 53.6324 1.10872 53.7443 1.28949C53.8562 1.47026 53.8942 1.68688 53.8506 1.89475C53.8071 2.10263 53.6851 2.28596 53.5099 2.40701L45.8616 7.42029L57.0399 0.995989C57.2275 0.893098 57.4477 0.866076 57.6547 0.92053C57.8617 0.974983 58.0398 1.10673 58.1519 1.28845C58.264 1.47016 58.3016 1.68789 58.2569 1.89647C58.2121 2.10505 58.0885 2.28847 57.9116 2.40867L47.6049 9.10522L61.7149 0.995989C61.9027 0.894509 62.1223 0.868688 62.3286 0.923857C62.5349 0.979026 62.712 1.11097 62.8234 1.29246C62.9348 1.47395 62.9721 1.69112 62.9274 1.89914C62.8827 2.10716 62.7595 2.29015 62.5833 2.41033L50.8683 9.92527L66.4033 0.995989C66.5913 0.897064 66.8101 0.873443 67.015 0.929963C67.2199 0.986483 67.3953 1.11887 67.5054 1.30002C67.6156 1.48117 67.652 1.69739 67.6073 1.90441C67.5626 2.11144 67.4401 2.29362 67.2649 2.41365L56.1383 9.43723L70.8233 0.995989C71.011 0.889679 71.2329 0.860119 71.4421 0.913539C71.6513 0.96696 71.8315 1.09919 71.9447 1.28236C72.058 1.46553 72.0954 1.68533 72.0491 1.89544C72.0028 2.10554 71.8764 2.28955 71.6966 2.40867L47.9716 17.8038L75.0316 2.24433C75.2202 2.14257 75.441 2.11716 75.6479 2.1734C75.8548 2.22964 76.032 2.36318 76.1426 2.54625C76.2532 2.72932 76.2886 2.9478 76.2416 3.15624C76.1945 3.36468 76.0686 3.54702 75.8899 3.66531L60.1799 13.4894L76.7016 3.98404C76.8909 3.87781 77.1144 3.84943 77.3244 3.90495C77.5344 3.96047 77.7144 4.0955 77.8259 4.28125C77.9374 4.467 77.9716 4.68879 77.9213 4.89933C77.871 5.10987 77.7402 5.29252 77.5566 5.40834L64.9233 13.2387L77.5766 5.97607C77.7646 5.87308 77.9853 5.84629 78.1926 5.90129C78.4 5.95628 78.578 6.08883 78.6897 6.27131C78.8014 6.4538 78.8381 6.67216 78.7922 6.88093C78.7463 7.08971 78.6213 7.27279 78.4433 7.39207L51.4083 24.6978L77.7833 9.53019C77.9729 9.41704 78.1999 9.38355 78.4143 9.4371C78.6287 9.49065 78.813 9.62684 78.9266 9.81571C79.0402 10.0046 79.0738 10.2307 79.0201 10.4442C78.9663 10.6578 78.8296 10.8413 78.6399 10.9545L65.6066 19.0222L77.7833 12.0202C77.9725 11.9116 78.197 11.8812 78.4084 11.9357C78.6198 11.9903 78.8013 12.1253 78.9138 12.3117C79.0263 12.4982 79.0608 12.7212 79.0099 12.9327C78.959 13.1443 78.8268 13.3275 78.6416 13.4429L62.2583 23.6454L77.7833 14.7178C77.9731 14.6051 78.2002 14.5721 78.4144 14.6261C78.6287 14.6801 78.8126 14.8167 78.9258 15.0058C79.0389 15.1949 79.072 15.421 79.0178 15.6344C78.9636 15.8478 78.8265 16.031 78.6366 16.1437L73.5083 19.2812L77.7833 16.826C77.9725 16.7173 78.197 16.687 78.4084 16.7415C78.6198 16.796 78.8013 16.9311 78.9138 17.1175C79.0263 17.304 79.0608 17.527 79.0099 17.7385C78.959 17.9501 78.8268 18.1332 78.6416 18.2486L64.4999 27.0169L77.7816 19.3808C77.971 19.2765 78.1938 19.2497 78.4027 19.306C78.6116 19.3624 78.7903 19.4975 78.901 19.6828C79.0117 19.8681 79.0456 20.089 78.9956 20.2988C78.9457 20.5086 78.8157 20.6907 78.6333 20.8067L77.0616 21.7646L77.7816 21.3512C77.971 21.2376 78.198 21.2037 78.4125 21.2567C78.6271 21.3098 78.8117 21.4456 78.9258 21.6343C79.0398 21.8229 79.074 22.049 79.0207 22.2627C78.9674 22.4764 78.831 22.6603 78.6416 22.7739L61.7799 33.2835L77.7799 24.082C77.9681 23.9804 78.1883 23.9549 78.3948 24.0106C78.6014 24.0663 78.7785 24.199 78.8895 24.3813C79.0005 24.5635 79.0368 24.7813 78.991 24.9895C78.9451 25.1977 78.8206 25.3804 78.6433 25.4996L54.5666 40.7702L77.7833 27.4186C77.9717 27.3154 78.193 27.2888 78.4007 27.3443C78.6085 27.3998 78.7866 27.5331 78.8979 27.7165C79.0092 27.8998 79.045 28.1189 78.9979 28.3279C78.9507 28.5369 78.8243 28.7197 78.6449 28.838L58.1666 41.7065L77.7899 30.4183C77.8837 30.3621 77.9877 30.3248 78.096 30.3085C78.2042 30.2923 78.3146 30.2975 78.4209 30.3238C78.5271 30.3501 78.6271 30.3969 78.7152 30.4617C78.8033 30.5265 78.8776 30.6079 78.9341 30.7013C78.9906 30.7947 79.028 30.8983 79.0443 31.0061C79.0606 31.114 79.0554 31.2239 79.029 31.3298C79.0026 31.4356 78.9555 31.5352 78.8905 31.6229C78.8255 31.7106 78.7437 31.7847 78.6499 31.8409L61.7799 42.3539L77.7799 33.1524C77.9678 33.0522 78.187 33.0275 78.3926 33.0834C78.5981 33.1392 78.7744 33.2714 78.8852 33.4527C78.9959 33.634 79.0327 33.8507 78.9881 34.0582C78.9434 34.2657 78.8206 34.4482 78.6449 34.5684L52.0199 51.5853L77.7833 36.7712C77.8769 36.7149 77.9809 36.6774 78.0891 36.6611C78.1973 36.6447 78.3076 36.6498 78.4139 36.6759C78.5201 36.702 78.6202 36.7487 78.7083 36.8134C78.7964 36.878 78.8709 36.9593 78.9274 37.0526C78.984 37.1459 79.0216 37.2494 79.038 37.3572C79.0544 37.4649 79.0494 37.5749 79.0232 37.6807C78.9969 37.7865 78.95 37.8861 78.8851 37.9739C78.8202 38.0617 78.7386 38.1359 78.6449 38.1922L58.8133 50.6308L77.7833 39.7244C77.9722 39.6208 78.1942 39.5941 78.4024 39.6501C78.6107 39.7061 78.789 39.8403 78.9 40.0245C79.0109 40.2088 79.0458 40.4287 78.9973 40.638C78.9488 40.8474 78.8207 41.0298 78.6399 41.1471L65.1033 49.5352L77.7833 42.2427C77.9726 42.1364 78.1961 42.1081 78.4061 42.1636C78.6161 42.2191 78.796 42.3541 78.9075 42.5399C79.019 42.7256 79.0533 42.9474 79.003 43.158C78.9527 43.3685 78.8218 43.5512 78.6383 43.667L68.8333 49.7045L77.7833 44.5584C77.9713 44.4595 78.1901 44.4359 78.395 44.4924C78.5999 44.5489 78.7753 44.6813 78.8854 44.8624C78.9956 45.0436 79.032 45.2598 78.9873 45.4668C78.9426 45.6739 78.8201 45.856 78.6449 45.9761L55.7783 60.4249L77.7783 47.7706C77.967 47.6632 78.1903 47.6334 78.4007 47.6877C78.6111 47.742 78.7919 47.876 78.9045 48.0611C79.0171 48.2462 79.0526 48.4679 79.0035 48.6787C78.9544 48.8896 78.8246 49.073 78.6416 49.1899L54.5983 64.4406L77.7833 51.1089C77.9717 51.0056 78.193 50.979 78.4007 51.0345C78.6085 51.09 78.7866 51.2234 78.8979 51.4067C79.0092 51.59 79.045 51.8091 78.9979 52.0181C78.9507 52.2271 78.8243 52.4099 78.6449 52.5282L55.5249 67.1481L77.7833 54.3493C77.9717 54.246 78.193 54.2194 78.4007 54.2749C78.6085 54.3304 78.7866 54.4637 78.8979 54.6471C79.0092 54.8304 79.045 55.0495 78.9979 55.2585C78.9507 55.4675 78.8243 55.6503 78.6449 55.7686L55.6749 70.2888L77.7833 57.5763C77.9725 57.4677 78.197 57.4373 78.4084 57.4919C78.6198 57.5464 78.8013 57.6814 78.9138 57.8679C79.0263 58.0543 79.0608 58.2773 79.0099 58.4889C78.959 58.7004 78.8268 58.8836 78.6416 58.999L64.4149 67.827L77.7833 60.1411C77.9722 60.0374 78.1942 60.0108 78.4024 60.0668C78.6107 60.1227 78.789 60.257 78.9 60.4412C79.0109 60.6255 79.0458 60.8454 78.9973 61.0547C78.9488 61.2641 78.8207 61.4465 78.6399 61.5637L66.7966 68.8911L77.7833 62.583C77.972 62.4756 78.1953 62.4458 78.4057 62.5001C78.6161 62.5544 78.7969 62.6884 78.9095 62.8735C79.0221 63.0587 79.0576 63.2803 79.0085 63.4912C78.9594 63.702 78.8296 63.8855 78.6466 64.0023L57.9233 77.1381L77.7833 65.7171C77.9708 65.6182 78.1892 65.5942 78.3939 65.6502C78.5986 65.7061 78.7741 65.8377 78.8847 66.0182C78.9953 66.1986 79.0325 66.4143 78.9889 66.6212C78.9453 66.828 78.8241 67.0106 78.6499 67.1315L58.2983 80.1975L77.7833 68.994C77.9703 68.8937 78.1887 68.8683 78.3938 68.923C78.599 68.9777 78.7755 69.1083 78.8872 69.2882C78.9989 69.4682 79.0374 69.6838 78.9948 69.891C78.9523 70.0983 78.8319 70.2815 78.6583 70.4034L59.1666 83.2072L77.7833 72.5033C77.9699 72.4028 78.1879 72.377 78.3929 72.4311C78.598 72.4851 78.7746 72.615 78.8868 72.7943C78.999 72.9736 79.0384 73.1888 78.9968 73.396C78.9553 73.6031 78.836 73.7867 78.6633 73.9093L62.3433 84.8107L77.7833 75.9329C77.9713 75.8299 78.192 75.8031 78.3993 75.8581C78.6067 75.9131 78.7847 76.0457 78.8964 76.2282C79.0081 76.4106 79.0448 76.629 78.9989 76.8378C78.953 77.0466 78.828 77.2296 78.6499 77.3489L74.4366 80.0531L77.7833 78.1275C77.9709 78.0191 78.1935 77.9879 78.4039 78.0404C78.6143 78.0929 78.7958 78.2251 78.9099 78.4088C79.024 78.5924 79.0617 78.8132 79.0151 79.0241C78.9684 79.2351 78.841 79.4196 78.6599 79.5385L72.2633 83.7633L77.7833 80.5893C77.968 80.4846 78.1858 80.4542 78.3923 80.5043C78.5988 80.5543 78.7782 80.681 78.894 80.8584C79.0098 81.0359 79.0532 81.2507 79.0152 81.4589C78.9773 81.6672 78.861 81.8531 78.6899 81.9787L68.6799 89.2148L77.7833 83.9807C77.9678 83.8745 78.1862 83.8428 78.3935 83.8921C78.6008 83.9413 78.7813 84.0678 78.8978 84.2456C79.0144 84.4233 79.0581 84.6387 79.0201 84.8476C78.982 85.0565 78.8651 85.2429 78.6933 85.3685L72.8816 89.6165L77.7833 86.7945C77.9606 86.6985 78.1668 86.6699 78.3637 86.714C78.5605 86.758 78.7347 86.8717 78.8538 87.0339C78.9729 87.1961 79.0288 87.3958 79.0113 87.596C78.9937 87.7962 78.9038 87.9833 78.7583 88.1225L73.0716 93.2354L77.7833 90.5378C77.9529 90.4396 78.1519 90.4042 78.3451 90.4378C78.5384 90.4713 78.7136 90.5717 78.8398 90.7213C78.9661 90.8708 79.0353 91.06 79.0353 91.2554C79.0354 91.4508 78.9662 91.6399 78.8399 91.7895L76.3599 94.7377C76.5589 94.6417 76.7879 94.6284 76.9967 94.7006C77.2055 94.7728 77.3769 94.9247 77.4733 95.1228C77.5696 95.3209 77.583 95.5491 77.5105 95.757C77.438 95.965 77.2855 96.1357 77.0866 96.2317L73.1283 98.5093C72.9587 98.6075 72.7597 98.6429 72.5664 98.6093C72.3732 98.5758 72.198 98.4754 72.0717 98.3258C71.9455 98.1763 71.8762 97.9872 71.8762 97.7917C71.8762 97.5963 71.9454 97.4072 72.0716 97.2576L74.5383 94.3243L67.0783 98.6056C66.901 98.7015 66.6948 98.7301 66.4979 98.6861C66.301 98.6421 66.1269 98.5284 66.0078 98.3662C65.8887 98.2039 65.8327 98.0042 65.8503 97.804C65.8679 97.6038 65.9577 97.4167 66.1033 97.2775L71.7916 92.163L60.5766 98.6056C60.3921 98.7118 60.1737 98.7435 59.9664 98.6942C59.7591 98.645 59.5786 98.5185 59.462 98.3407C59.3455 98.163 59.3018 97.9475 59.3398 97.7387C59.3779 97.5298 59.4948 97.3434 59.6666 97.2178L65.4733 92.9731L55.6749 98.6056C55.4902 98.7102 55.2724 98.7406 55.0659 98.6906C54.8595 98.6406 54.68 98.5139 54.5642 98.3364C54.4484 98.159 54.405 97.9442 54.443 97.7359C54.4809 97.5277 54.5973 97.3417 54.7683 97.2161L64.7799 89.9784L49.7799 98.6105C49.5928 98.7134 49.3731 98.7408 49.1663 98.6869C48.9595 98.633 48.7814 98.502 48.6688 98.321C48.5562 98.1401 48.5178 97.9229 48.5614 97.7145C48.605 97.506 48.7274 97.3223 48.9033 97.2012L55.2983 92.9781L45.4999 98.6056C45.3733 98.6804 45.2289 98.7205 45.0816 98.7218Z" fill="#444477"/>
<path id="Vector_2" d="M56.09 9.08031C55.9274 9.0804 55.7684 9.03312 55.6324 8.94429C55.4965 8.85547 55.3896 8.72899 55.325 8.58042C55.2603 8.43186 55.2407 8.2677 55.2685 8.10816C55.2964 7.94863 55.3705 7.80069 55.4817 7.68257L57.0917 5.97606L51.8766 8.96411C51.7063 9.06095 51.507 9.09481 51.314 9.05972C51.121 9.02464 50.9467 8.92287 50.8216 8.77232C50.6965 8.62177 50.6288 8.43211 50.6303 8.23671C50.6319 8.04132 50.7026 7.85273 50.83 7.70415L53.31 4.84725L46.1433 8.96411C45.9734 9.06114 45.7746 9.09545 45.5818 9.06103C45.389 9.02661 45.2146 8.92566 45.0891 8.7759C44.9636 8.62613 44.8951 8.43712 44.8955 8.24205C44.896 8.04697 44.9654 7.8583 45.0916 7.70913L47.5816 4.78251L40.7483 8.70847C40.5709 8.80695 40.3635 8.83751 40.1651 8.79443C39.9667 8.75134 39.7909 8.63757 39.6707 8.47448C39.5506 8.3114 39.4944 8.11023 39.5127 7.90877C39.5309 7.70732 39.6224 7.51944 39.77 7.38045L41.0033 6.26325L39.1566 7.32567C38.9887 7.42178 38.7923 7.45659 38.6013 7.42411C38.4103 7.39163 38.2367 7.2939 38.1102 7.14771C37.9838 7.00152 37.9124 6.81601 37.9084 6.62308C37.9044 6.43016 37.968 6.24187 38.0883 6.09061L39.2683 4.61484L38.71 4.93689C38.5637 5.0206 38.3954 5.05813 38.2273 5.04452C38.0591 5.0309 37.8991 4.96679 37.7684 4.86065C37.6376 4.75452 37.5422 4.61135 37.4949 4.45009C37.4476 4.28882 37.4505 4.11705 37.5033 3.95747L37.8566 2.89672C37.7383 2.82498 37.6402 2.72444 37.5716 2.60455C37.5169 2.50969 37.4816 2.405 37.4677 2.29649C37.4537 2.18798 37.4615 2.07779 37.4904 1.97227C37.5194 1.86675 37.569 1.76797 37.6364 1.68162C37.7039 1.59527 37.7878 1.52304 37.8833 1.46909L38.7166 0.989345C38.8631 0.904801 39.0319 0.866667 39.2006 0.880018C39.3693 0.893368 39.5299 0.95757 39.6611 1.06408C39.7923 1.17059 39.8878 1.31436 39.935 1.47627C39.9821 1.63817 39.9786 1.81053 39.925 1.97042L39.78 2.40535L42.2583 0.982705C42.4264 0.882626 42.6244 0.844681 42.8178 0.875527C43.0111 0.906373 43.1874 1.00404 43.3156 1.15139C43.4439 1.29875 43.5159 1.48638 43.5192 1.68137C43.5224 1.87637 43.4566 2.06627 43.3333 2.21776L42.1533 3.69353L46.8766 0.972744C47.054 0.874267 47.2614 0.843699 47.4599 0.886785C47.6583 0.929871 47.8341 1.04364 47.9542 1.20673C48.0744 1.36981 48.1306 1.57098 48.1123 1.77244C48.094 1.9739 48.0025 2.16177 47.855 2.30077L46.62 3.41962L50.9 0.962784C51.0699 0.864735 51.2692 0.829614 51.4626 0.863618C51.656 0.897621 51.8311 0.998564 51.9571 1.14864C52.083 1.29871 52.1517 1.48827 52.151 1.68388C52.1503 1.87949 52.0803 2.06857 51.9533 2.21776L49.4633 5.14605L56.7583 0.951164C56.9289 0.853343 57.1287 0.818817 57.3224 0.853703C57.5161 0.888589 57.6911 0.990635 57.8165 1.14176C57.9419 1.29289 58.0095 1.48334 58.0074 1.67938C58.0053 1.87541 57.9336 2.06437 57.805 2.21278L55.3233 5.06969L61.1166 1.73968C61.2895 1.64103 61.4922 1.60736 61.6879 1.64476C61.8836 1.68216 62.0593 1.78817 62.1833 1.94355C62.3073 2.09893 62.3712 2.29341 62.3636 2.49173C62.3559 2.69005 62.2772 2.87907 62.1416 3.02454L60.5333 4.73602L61.105 4.40402C61.1998 4.34866 61.3047 4.31253 61.4135 4.2977C61.5224 4.28287 61.6332 4.28964 61.7394 4.31762C61.8457 4.34559 61.9453 4.39423 62.0326 4.46072C62.1199 4.52721 62.1932 4.61025 62.2481 4.70504C62.3031 4.79984 62.3387 4.90452 62.3528 5.01307C62.367 5.12162 62.3595 5.23189 62.3307 5.33753C62.3019 5.44317 62.2524 5.54209 62.185 5.6286C62.1177 5.71511 62.0339 5.7875 61.9383 5.8416L56.5 8.96411C56.3761 9.03832 56.2346 9.07841 56.09 9.08031Z" fill="#C7DFE5"/>
<g id="Group">
<path id="Vector_3" d="M71.1131 72.1099C70.9391 72.1078 70.77 72.0515 70.6298 71.9489C70.4895 71.8463 70.385 71.7025 70.3309 71.5377C70.2769 71.3729 70.276 71.1953 70.3284 71.03C70.3808 70.8647 70.4839 70.7199 70.6231 70.6159L81.8231 62.4933L68.9898 69.8738C68.8013 69.9887 68.5746 70.0243 68.3597 69.9728C68.1449 69.9213 67.9593 69.7869 67.844 69.5991C67.7286 69.4113 67.6928 69.1856 67.7446 68.9715C67.7963 68.7575 67.9313 68.5727 68.1198 68.4578L70.6815 66.7978L68.9631 67.7938C68.7758 67.8999 68.5545 67.9296 68.3457 67.8767C68.1369 67.8238 67.9567 67.6924 67.8431 67.5101C67.7294 67.3277 67.6911 67.1086 67.7362 66.8987C67.7813 66.6889 67.9062 66.5045 68.0848 66.3844L77.1081 60.4083C76.9381 60.397 76.7757 60.334 76.6427 60.2278C76.5098 60.1217 76.4127 59.9775 76.3646 59.8146C76.3164 59.6518 76.3196 59.4782 76.3735 59.3173C76.4275 59.1563 76.5298 59.0156 76.6665 58.9143L88.6365 50.005C88.5179 49.8465 88.46 49.6511 88.4731 49.4539C88.4862 49.2568 88.5696 49.0707 88.7081 48.9293L89.0698 48.5591L88.2165 49.0571C88.0455 49.1559 87.8449 49.191 87.6504 49.1561C87.456 49.1212 87.2802 49.0186 87.1547 48.8666C87.0291 48.7146 86.9619 48.5231 86.9649 48.3263C86.968 48.1295 87.0412 47.9402 87.1715 47.7921L88.1981 46.6301L86.4165 47.6544C86.2494 47.7502 86.0541 47.7854 85.8639 47.754C85.6737 47.7225 85.5004 47.6264 85.3734 47.4819C85.2464 47.3374 85.1736 47.1535 85.1675 46.9615C85.1614 46.7696 85.2223 46.5815 85.3398 46.4293L86.7715 44.585L84.3031 46.0026C84.1356 46.0991 83.9396 46.1345 83.7487 46.1027C83.5579 46.0709 83.3841 45.974 83.2571 45.8285C83.1302 45.683 83.058 45.4981 83.053 45.3054C83.0481 45.1127 83.1106 44.9243 83.2298 44.7726L84.6281 42.9947L82.2248 44.3758C82.0593 44.4704 81.8662 44.5055 81.6779 44.4753C81.4895 44.4451 81.3172 44.3515 81.1898 44.21C81.0624 44.0686 80.9876 43.8879 80.9779 43.6981C80.9682 43.5083 81.0242 43.3209 81.1365 43.1673L82.6815 41.0624L79.9748 42.6162C79.8002 42.7107 79.5974 42.7399 79.403 42.6986C79.2086 42.6573 79.0355 42.5482 78.9148 42.3909C78.7941 42.2337 78.7338 42.0386 78.7448 41.841C78.7558 41.6433 78.8374 41.4561 78.9748 41.3131L79.2065 41.0823L78.5231 41.4741C78.3504 41.5739 78.1474 41.6085 77.9511 41.5718C77.7549 41.535 77.5784 41.4293 77.4538 41.2738C77.3292 41.1184 77.2648 40.9235 77.2723 40.7248C77.2799 40.526 77.3588 40.3365 77.4948 40.1909L78.2348 39.3974L76.8698 40.1793C76.6974 40.2779 76.4953 40.3119 76.2999 40.2751C76.1046 40.2383 75.9289 40.1331 75.8045 39.9786C75.6802 39.8241 75.6154 39.6304 75.6219 39.4325C75.6283 39.2346 75.7056 39.0455 75.8398 38.8994L76.6098 38.0694L75.2031 38.8761C75.0373 38.9704 74.8441 39.0051 74.6557 38.9744C74.4673 38.9438 74.2952 38.8496 74.1681 38.7077C74.041 38.5658 73.9668 38.3847 73.9577 38.1948C73.9486 38.0049 74.0052 37.8176 74.1181 37.6643L75.6381 35.6192L72.9865 37.1431C72.8168 37.2413 72.6179 37.2767 72.4246 37.2431C72.2314 37.2096 72.0562 37.1092 71.9299 36.9596C71.8037 36.8101 71.7344 36.6209 71.7344 36.4255C71.7344 36.2301 71.8036 36.041 71.9298 35.8914L73.1231 34.4737L71.0798 35.649C70.9185 35.7404 70.7312 35.7756 70.5476 35.749C70.364 35.7223 70.1945 35.6354 70.0661 35.502C69.9377 35.3686 69.8577 35.1963 69.8387 35.0124C69.8198 34.8286 69.863 34.6437 69.9615 34.487L71.6665 31.7945L68.9998 33.3317C68.8356 33.4268 68.6438 33.4632 68.456 33.4349C68.2682 33.4066 68.0958 33.3152 67.9672 33.176C67.8387 33.0367 67.7618 32.8579 67.7492 32.6692C67.7366 32.4804 67.7892 32.293 67.8981 32.1381L68.9115 30.6955C68.7566 30.7094 68.601 30.6776 68.4641 30.6041C68.3272 30.5306 68.215 30.4187 68.1415 30.2822C68.0313 30.0919 68.0014 29.8659 68.0583 29.6537C68.1152 29.4415 68.2541 29.2604 68.4448 29.15L71.1998 27.5564C71.3638 27.4628 71.5548 27.4275 71.7416 27.4563C71.9284 27.4851 72.0998 27.5763 72.2277 27.7148C72.3556 27.8534 72.4324 28.0312 72.4455 28.219C72.4586 28.4068 72.4072 28.5934 72.2998 28.7483L71.4065 30.0232L73.7931 28.6504C73.9544 28.559 74.1417 28.5238 74.3253 28.5504C74.509 28.5771 74.6784 28.664 74.8068 28.7974C74.9352 28.9309 75.0153 29.1031 75.0342 29.287C75.0532 29.4709 75.01 29.6558 74.9115 29.8124L73.2015 32.4684L76.3681 30.6524C76.5377 30.5542 76.7367 30.5187 76.93 30.5523C77.1232 30.5859 77.2984 30.6863 77.4247 30.8358C77.5509 30.9854 77.6202 31.1745 77.6202 31.3699C77.6202 31.5653 77.551 31.7544 77.4248 31.904L76.2298 33.3233L78.2781 32.1464C78.4441 32.0514 78.6378 32.0162 78.8268 32.0467C79.0157 32.0773 79.1884 32.1717 79.3157 32.314C79.443 32.4564 79.5172 32.6381 79.5258 32.8286C79.5345 33.019 79.477 33.2066 79.3631 33.3599L77.8331 35.4166L80.4831 33.8927C80.6555 33.7941 80.8576 33.7601 81.053 33.7969C81.2483 33.8337 81.4241 33.9389 81.5484 34.0934C81.6727 34.2479 81.7375 34.4416 81.7311 34.6395C81.7246 34.8374 81.6473 35.0265 81.5131 35.1726L80.7431 36.0026L82.1498 35.1959C82.3226 35.0961 82.5255 35.0614 82.7218 35.0982C82.9181 35.1349 83.0946 35.2406 83.2191 35.3961C83.3437 35.5515 83.4081 35.7464 83.4006 35.9452C83.3931 36.1439 83.3141 36.3334 83.1781 36.4791L82.4398 37.2726L83.8031 36.489C83.9781 36.3872 84.1844 36.3525 84.3833 36.3912C84.5822 36.43 84.7601 36.5396 84.8837 36.6995C85.0073 36.8595 85.0681 37.0588 85.0548 37.2602C85.0416 37.4617 84.955 37.6513 84.8115 37.7938L84.5781 38.0262L85.2631 37.6328C85.4285 37.5389 85.621 37.5043 85.8089 37.5346C85.9967 37.5649 86.1685 37.6583 86.2957 37.7993C86.4228 37.9403 86.4977 38.1204 86.5078 38.3096C86.518 38.4989 86.4628 38.6859 86.3515 38.8396L84.8065 40.9462L87.5131 39.3907C87.6808 39.2944 87.8769 39.2592 88.0678 39.2912C88.2587 39.3232 88.4325 39.4205 88.5593 39.5662C88.686 39.7119 88.7579 39.897 88.7626 40.0898C88.7672 40.2825 88.7044 40.4709 88.5848 40.6225L87.1865 42.4004L89.5915 41.0192C89.7585 40.9243 89.9534 40.8898 90.143 40.9216C90.3327 40.9535 90.5054 41.0497 90.632 41.1939C90.7586 41.3381 90.8311 41.5215 90.8374 41.713C90.8437 41.9044 90.7833 42.0922 90.6665 42.2443L89.2365 44.0903L91.7031 42.671C91.8741 42.5722 92.0747 42.5371 92.2691 42.572C92.4636 42.6069 92.6393 42.7095 92.7649 42.8615C92.8905 43.0134 92.9577 43.2049 92.9546 43.4017C92.9516 43.5986 92.8784 43.7879 92.7481 43.9359L91.7231 45.0979L93.5031 44.0753C93.6774 43.9752 93.8822 43.9412 94.0797 43.9797C94.2771 44.0182 94.4539 44.1266 94.5774 44.2848C94.701 44.443 94.7628 44.6404 94.7516 44.8405C94.7404 45.0406 94.6569 45.2299 94.5165 45.3735L94.1531 45.7437L95.0081 45.2457C95.192 45.1423 95.4083 45.1122 95.6136 45.1616C95.8188 45.211 95.9975 45.3361 96.1137 45.5117C96.2299 45.6872 96.2748 45.9002 96.2394 46.1075C96.2041 46.3148 96.091 46.501 95.9231 46.6285L88.9398 51.826L97.1781 47.09C97.3654 46.9838 97.5867 46.9541 97.7956 47.007C98.0044 47.0599 98.1845 47.1913 98.2982 47.3737C98.4118 47.556 98.4501 47.7751 98.4051 47.985C98.36 48.1949 98.2351 48.3792 98.0565 48.4993L90.9115 53.232L97.8498 49.248C98.0375 49.1465 98.2572 49.1207 98.4634 49.1758C98.6697 49.231 98.8469 49.363 98.9583 49.5445C99.0697 49.7259 99.1069 49.9431 99.0622 50.1511C99.0175 50.3592 98.8944 50.5421 98.7181 50.6623L94.9581 53.0909C95.1091 53.0814 95.2599 53.111 95.396 53.1767C95.5321 53.2425 95.6488 53.3422 95.7348 53.4661C95.8512 53.6444 95.8945 53.8603 95.8558 54.0694C95.817 54.2785 95.6991 54.4649 95.5265 54.5899L78.4165 67.0103L78.4465 67.0617C78.5571 67.2522 78.5873 67.4786 78.5304 67.6912C78.4735 67.9038 78.3342 68.0852 78.1431 68.1955L71.5298 71.9987C71.4034 72.0722 71.2595 72.1106 71.1131 72.1099Z" fill="#D7A609"/>
<path id="Vector_4" d="M28.3866 72.1581C28.2335 72.1567 28.0837 72.1134 27.9538 72.0329C27.8238 71.9523 27.7186 71.8377 27.6497 71.7015C27.5808 71.5654 27.5509 71.4129 27.5633 71.261C27.5757 71.109 27.6299 70.9633 27.7199 70.84L28.4966 69.7743L26.3166 71.0276C26.157 71.1267 25.9686 71.1692 25.7818 71.1481C25.595 71.127 25.4208 71.0437 25.2876 70.9115C25.1544 70.7794 25.0699 70.6063 25.0479 70.4203C25.026 70.2344 25.0678 70.0465 25.1666 69.8872L26.9249 66.856L23.4999 68.833C23.3308 68.9305 23.1327 68.9656 22.9402 68.9323C22.7477 68.899 22.5731 68.7994 22.4468 68.6509C22.3206 68.5024 22.2507 68.3145 22.2495 68.1199C22.2482 67.9253 22.3156 67.7365 22.4399 67.5864L23.6816 66.0923L21.5549 67.3141C21.3936 67.4048 21.2067 67.4393 21.0235 67.4123C20.8403 67.3854 20.6714 67.2984 20.5434 67.1652C20.4153 67.0319 20.3355 66.86 20.3165 66.6766C20.2974 66.4931 20.3403 66.3086 20.4382 66.1521L22.1399 63.5276L19.0082 65.3287C18.8332 65.4256 18.6289 65.4565 18.4329 65.4157C18.2369 65.3749 18.0621 65.2651 17.9407 65.1065C17.8193 64.9478 17.7593 64.7509 17.7717 64.5518C17.7841 64.3528 17.8681 64.1648 18.0082 64.0223L18.1449 63.8862L17.5816 64.2182C17.4173 64.3123 17.2257 64.3478 17.0384 64.3189C16.8511 64.2899 16.6794 64.1983 16.5514 64.0591C16.4234 63.9198 16.347 63.7413 16.3346 63.5529C16.3222 63.3646 16.3746 63.1776 16.4832 63.023L18.0982 60.7238L15.2266 62.3739C15.0652 62.4685 14.8766 62.5062 14.6911 62.4809C14.5056 62.4556 14.334 62.3689 14.2041 62.2347C14.0741 62.1004 13.9933 61.9265 13.9747 61.741C13.9561 61.5554 14.0008 61.369 14.1016 61.2119L15.8332 58.4114L12.5816 60.2823C12.4089 60.3798 12.2069 60.4127 12.012 60.375C11.8171 60.3374 11.6421 60.2317 11.5185 60.0769C11.3949 59.9222 11.3308 59.7286 11.3378 59.531C11.3448 59.3334 11.4223 59.1448 11.5566 58.9991L12.2432 58.2653L10.9499 59.0074C10.7871 59.1008 10.5974 59.1366 10.4116 59.1091C10.2257 59.0817 10.0547 58.9925 9.92616 58.856C9.79764 58.7195 9.71918 58.5438 9.70352 58.3573C9.68786 58.1708 9.73592 57.9846 9.8399 57.8287L11.5066 55.3387L8.47323 57.0834C8.29997 57.1832 8.09641 57.2176 7.89977 57.1803C7.70314 57.1429 7.52658 57.0363 7.40237 56.88C7.27816 56.7236 7.21461 56.528 7.22334 56.3288C7.23206 56.1296 7.31248 55.9402 7.4499 55.7952L8.07656 55.1312L6.86823 55.8251C6.69431 55.9239 6.49048 55.9571 6.29404 55.9185C6.09759 55.8799 5.92166 55.7721 5.79844 55.6149C5.67521 55.4578 5.61293 55.2616 5.62299 55.0624C5.63306 54.8633 5.71479 54.6743 5.85323 54.5303L6.31156 54.0572L5.33323 54.6149C5.15038 54.7189 4.93481 54.75 4.72984 54.7021C4.52488 54.6542 4.3457 54.5308 4.22834 54.3568C4.11097 54.1827 4.06411 53.9708 4.09717 53.7637C4.13024 53.5566 4.24077 53.3697 4.40656 53.2404L9.20823 49.5369L3.2549 52.9632C3.06761 53.0647 2.8484 53.0908 2.64235 53.0362C2.4363 52.9816 2.2591 52.8505 2.14722 52.6697C2.03533 52.4889 1.99727 52.2723 2.04086 52.0644C2.08445 51.8566 2.20638 51.6732 2.38156 51.5522L4.68823 50.0432L2.27656 51.4277C2.09093 51.53 1.87308 51.558 1.66743 51.5059C1.46179 51.4538 1.28385 51.3256 1.1699 51.1473C1.05596 50.969 1.01458 50.7541 1.05422 50.5465C1.09386 50.3389 1.21153 50.1541 1.38323 50.0299L15.0499 40.5163L6.8999 45.2009C6.71606 45.3043 6.49969 45.3343 6.29448 45.285C6.08927 45.2356 5.91052 45.1105 5.79434 44.9349C5.67817 44.7593 5.63322 44.5464 5.66859 44.3391C5.70397 44.1318 5.81701 43.9456 5.9849 43.8181L23.3832 30.8765C23.3274 30.6967 23.3345 30.5033 23.4036 30.328C23.4726 30.1527 23.5995 30.0061 23.7632 29.9121L27.8649 27.5565C28.0487 27.4531 28.2651 27.4231 28.4703 27.4724C28.6755 27.5218 28.8543 27.6469 28.9705 27.8225C29.0866 27.9981 29.1316 28.211 29.0962 28.4183C29.0608 28.6256 28.9478 28.8118 28.7799 28.9393L18.3149 36.7215L30.9016 29.4838C31.0876 29.3774 31.3076 29.3466 31.5158 29.3978C31.7241 29.4489 31.9045 29.5781 32.0196 29.7583C32.1347 29.9386 32.1755 30.1561 32.1337 30.3656C32.0918 30.5751 31.9705 30.7605 31.7949 30.8832L18.1282 40.3968L28.9616 34.1717C29.1493 34.0654 29.3712 34.0358 29.5804 34.0892C29.7896 34.1427 29.9698 34.2749 30.083 34.4581C30.1963 34.6412 30.2337 34.861 30.1874 35.0711C30.1411 35.2812 30.0147 35.4653 29.8349 35.5844L19.9716 42.0352C20.0419 42.089 20.1027 42.1541 20.1516 42.2278C20.2693 42.4025 20.316 42.6152 20.2823 42.8229C20.2486 43.0306 20.1369 43.2178 19.9699 43.3467L11.6366 49.7759C11.6632 49.8042 11.6899 49.834 11.7149 49.8639C11.8384 50.0217 11.9005 50.2187 11.8898 50.4184C11.879 50.6182 11.7962 50.8074 11.6566 50.9512L11.1982 51.426L12.1799 50.8616C12.353 50.7629 12.5558 50.7294 12.7516 50.767C12.9474 50.8046 13.1232 50.9109 13.247 51.0665C13.3709 51.2222 13.4345 51.417 13.4265 51.6154C13.4185 51.8139 13.3392 52.0029 13.2032 52.1481L12.5766 52.8121L13.7849 52.1182C13.9475 52.0255 14.1368 51.99 14.3222 52.0176C14.5075 52.0452 14.6781 52.1342 14.8064 52.2702C14.9348 52.4063 15.0133 52.5814 15.0293 52.7674C15.0454 52.9534 14.998 53.1393 14.8949 53.2952L13.2282 55.7935L16.2616 54.0505C16.4343 53.953 16.6362 53.9201 16.8311 53.9577C17.026 53.9954 17.201 54.1011 17.3246 54.2558C17.4482 54.4106 17.5123 54.6042 17.5053 54.8018C17.4984 54.9994 17.4208 55.188 17.2866 55.3337L16.6016 56.0658L17.8916 55.3254C18.0529 55.2316 18.2412 55.1946 18.4262 55.2202C18.6112 55.2458 18.7823 55.3326 18.9118 55.4666C19.0414 55.6006 19.122 55.7741 19.1407 55.9593C19.1594 56.1444 19.1151 56.3304 19.0149 56.4874L17.2632 59.263L20.5216 57.3905C20.6859 57.2955 20.8778 57.2593 21.0656 57.2879C21.2534 57.3164 21.4257 57.408 21.5541 57.5475C21.6825 57.687 21.7591 57.866 21.7714 58.0548C21.7837 58.2436 21.7308 58.4309 21.6216 58.5857L19.9999 60.8915L22.8732 59.2414C23.0483 59.1445 23.2525 59.1136 23.4486 59.1545C23.6446 59.1953 23.8193 59.3051 23.9407 59.4637C24.0622 59.6223 24.1222 59.8192 24.1098 60.0183C24.0974 60.2174 24.0134 60.4054 23.8732 60.5479L23.7382 60.6807L24.2982 60.3586C24.4595 60.268 24.6465 60.2334 24.8296 60.2604C25.0128 60.2874 25.1817 60.3743 25.3098 60.5076C25.4378 60.6408 25.5176 60.8127 25.5367 60.9962C25.5557 61.1796 25.5129 61.3641 25.4149 61.5206L23.7116 64.1468L26.8432 62.3457C27.0124 62.2483 27.2105 62.2132 27.4029 62.2464C27.5954 62.2797 27.77 62.3793 27.8963 62.5278C28.0225 62.6763 28.0924 62.8642 28.0937 63.0588C28.0949 63.2534 28.0275 63.4422 27.9032 63.5923L26.6616 65.0864L28.7882 63.8646C28.9459 63.7729 29.1297 63.736 29.3108 63.7598C29.4918 63.7835 29.6597 63.8665 29.7882 63.9957C29.9165 64.1246 29.9988 64.2918 30.0225 64.4716C30.0463 64.6515 30.0103 64.8342 29.9199 64.9917L28.1599 68.023L31.0366 66.3629C31.2019 66.2682 31.3949 66.2329 31.5832 66.2628C31.7716 66.2927 31.9439 66.3861 32.0715 66.5274C32.1991 66.6686 32.2741 66.8491 32.2842 67.0389C32.2942 67.2286 32.2385 67.416 32.1266 67.5698L31.1599 68.8978C31.3398 68.906 31.5121 68.972 31.6512 69.0859C31.7902 69.1998 31.8885 69.3555 31.9313 69.5297C31.9741 69.7039 31.9591 69.8872 31.8885 70.0522C31.8179 70.2172 31.6956 70.355 31.5399 70.4449L28.7882 72.0269C28.6682 72.105 28.5297 72.1502 28.3866 72.1581Z" fill="#D7A609"/>
<path id="Vector_5" d="M42.3881 76.9987C42.227 76.9986 42.0693 76.952 41.9342 76.8645C41.7991 76.777 41.6923 76.6524 41.6269 76.5057C41.5615 76.359 41.5401 76.1966 41.5655 76.038C41.5909 75.8795 41.6618 75.7317 41.7698 75.6126L43.2698 73.9525L40.8748 75.3287C40.7007 75.4276 40.4967 75.4607 40.3001 75.4219C40.1035 75.3831 39.9275 75.2751 39.8044 75.1175C39.6813 74.96 39.6193 74.7636 39.6298 74.5643C39.6403 74.365 39.7225 74.1761 39.8615 74.0322L43.9465 69.844L40.9581 71.5604C40.7795 71.6553 40.5722 71.6821 40.3751 71.6359C40.1781 71.5896 40.0046 71.4735 39.8872 71.3092C39.7699 71.1449 39.7165 70.9436 39.7373 70.743C39.758 70.5424 39.8513 70.3562 39.9998 70.2191L43.1931 67.3705L41.9748 68.0711C41.7991 68.172 41.5925 68.2056 41.3937 68.1657C41.1949 68.1257 41.0175 68.0149 40.8949 67.8541C40.7722 67.6932 40.7126 67.4933 40.7273 67.2918C40.7421 67.0903 40.83 66.9011 40.9748 66.7596L45.7381 62.1116L43.2765 63.5259C43.0991 63.6231 42.8923 63.6527 42.6947 63.6091C42.4971 63.5655 42.3221 63.4518 42.2025 63.2892C42.0829 63.1265 42.0268 62.9261 42.0447 62.7253C42.0626 62.5245 42.1533 62.337 42.2998 62.1979L45.7298 59.097L44.3065 59.9153C44.1289 60.0247 43.9165 60.0638 43.7115 60.0247C43.5064 59.9856 43.3235 59.8712 43.199 59.7043C43.0746 59.5373 43.0176 59.3299 43.0393 59.123C43.061 58.9162 43.16 58.725 43.3165 58.5873L47.5298 54.6165L45.4881 55.7902C45.3118 55.8959 45.1025 55.9329 44.9005 55.8941C44.6984 55.8553 44.5179 55.7434 44.3938 55.5799C44.2696 55.4165 44.2105 55.213 44.228 55.0088C44.2454 54.8046 44.3381 54.614 44.4881 54.4738L49.0248 50.1328L46.7365 51.4476C46.5589 51.557 46.3465 51.596 46.1415 51.5569C45.9364 51.5178 45.7535 51.4034 45.629 51.2365C45.5046 51.0695 45.4476 50.8621 45.4693 50.6552C45.491 50.4484 45.59 50.2572 45.7465 50.1195L49.9565 46.1554L47.9165 47.3274C47.7389 47.4316 47.5289 47.4666 47.327 47.4256C47.1251 47.3846 46.9455 47.2706 46.8231 47.1055C46.7006 46.9404 46.644 46.736 46.664 46.5317C46.684 46.3274 46.7793 46.1377 46.9315 45.9993L50.8431 42.3772L49.0381 43.4147C48.8622 43.5171 48.6548 43.5518 48.4549 43.5122C48.2551 43.4726 48.0768 43.3614 47.9536 43.1997C47.8305 43.0381 47.7711 42.837 47.7867 42.6347C47.8023 42.4324 47.8917 42.2427 48.0381 42.1016L52.7198 37.5614L50.3198 38.9409C50.1395 39.0453 49.9264 39.0785 49.7227 39.034C49.5189 38.9895 49.3394 38.8706 49.2194 38.7006C49.0995 38.5307 49.0478 38.3221 49.0748 38.1161C49.1017 37.9101 49.2052 37.7217 49.3648 37.588L51.2565 35.9977L51.1465 36.0591C50.9671 36.1615 50.756 36.1939 50.554 36.1499C50.3521 36.1059 50.1737 35.9888 50.0537 35.8212C49.9336 35.6536 49.8804 35.4475 49.9043 35.243C49.9282 35.0385 50.0276 34.8501 50.1831 34.7145L52.7381 32.5033L52.0531 32.8951C51.8787 32.9941 51.6742 33.027 51.4774 32.9879C51.2805 32.9487 51.1044 32.8401 50.9816 32.682C50.8587 32.5238 50.7973 32.3268 50.8086 32.1272C50.8199 31.9275 50.9032 31.7387 51.0431 31.5953L54.3331 28.2719L53.2048 28.921C53.0374 29.0176 52.8415 29.0531 52.6507 29.0216C52.4599 28.9901 52.286 28.8934 52.1589 28.7481C52.0318 28.6029 51.9594 28.4182 51.9541 28.2256C51.9488 28.033 52.0109 27.8445 52.1298 27.6926L53.6915 25.7005C53.5271 25.6653 53.3774 25.5813 53.2618 25.4597C53.1463 25.3381 53.0703 25.1845 53.044 25.0191C53.0177 24.8537 53.0422 24.6843 53.1143 24.5331C53.1864 24.3818 53.3028 24.2558 53.4481 24.1717L56.2081 22.5847C56.3757 22.4882 56.5717 22.4529 56.7625 22.4846C56.9534 22.5164 57.1272 22.6133 57.2541 22.7588C57.3811 22.9043 57.4532 23.0892 57.4582 23.2819C57.4632 23.4746 57.4007 23.663 57.2815 23.8148L56.0765 25.3536L58.7965 23.7899C58.9709 23.6896 59.1759 23.6557 59.3735 23.6944C59.5712 23.7331 59.748 23.8418 59.8714 24.0003C59.9948 24.1589 60.0564 24.3565 60.0448 24.5568C60.0331 24.7571 59.9491 24.9464 59.8081 25.0897L56.5248 28.4197L59.4081 26.7596C59.5875 26.6572 59.7986 26.6249 60.0006 26.6689C60.2025 26.7128 60.3809 26.83 60.5009 26.9976C60.621 27.1652 60.6743 27.3713 60.6503 27.5758C60.6264 27.7803 60.527 27.9686 60.3715 28.1043L57.8181 30.3154L58.5015 29.922C58.6818 29.8176 58.8949 29.7844 59.0986 29.8289C59.3023 29.8734 59.4819 29.9923 59.6019 30.1623C59.7218 30.3322 59.7734 30.5408 59.7465 30.7468C59.7196 30.9528 59.6161 31.1412 59.4565 31.2749L57.5681 32.8652L57.6731 32.8055C57.8489 32.7046 58.0555 32.671 58.2544 32.711C58.4532 32.7511 58.6305 32.862 58.7531 33.0229C58.8757 33.1843 58.9349 33.3847 58.9195 33.5864C58.9042 33.7882 58.8154 33.9774 58.6698 34.1185L53.9815 38.662L56.3831 37.2809C56.5607 37.1767 56.7707 37.1417 56.9726 37.1827C57.1745 37.2236 57.3541 37.3377 57.4765 37.5028C57.599 37.6679 57.6557 37.8723 57.6356 38.0766C57.6156 38.2809 57.5203 38.4705 57.3681 38.6089L53.4565 42.2294L55.2615 41.1919C55.439 41.0825 55.6514 41.0435 55.8565 41.0826C56.0616 41.1217 56.2444 41.236 56.3689 41.403C56.4934 41.57 56.5504 41.7774 56.5286 41.9843C56.5069 42.1911 56.408 42.3823 56.2515 42.5199L52.0431 46.4808L54.0815 45.3088C54.2578 45.2031 54.4671 45.1661 54.6691 45.2049C54.8712 45.2437 55.0517 45.3556 55.1758 45.5191C55.3 45.6825 55.3591 45.8859 55.3416 46.0901C55.3242 46.2944 55.2315 46.4849 55.0815 46.6252L50.5515 50.9761L52.8365 49.663C53.014 49.5536 53.2264 49.5146 53.4315 49.5537C53.6366 49.5928 53.8194 49.7071 53.9439 49.8741C54.0684 50.0411 54.1254 50.2485 54.1036 50.4554C54.0819 50.6622 53.983 50.8534 53.8265 50.991L49.6081 54.9469L51.6515 53.7716C51.8288 53.6744 52.0356 53.6448 52.2332 53.6884C52.4309 53.732 52.6058 53.8457 52.7254 54.0083C52.8451 54.171 52.9011 54.3714 52.8832 54.5722C52.8653 54.7731 52.7747 54.9605 52.6281 55.0996L49.1898 58.2055L50.6131 57.3871C50.7888 57.2862 50.9954 57.2526 51.1942 57.2925C51.3931 57.3325 51.5704 57.4433 51.6931 57.6041C51.8158 57.765 51.8753 57.9649 51.8606 58.1664C51.8459 58.3679 51.7579 58.5571 51.6131 58.6986L46.8498 63.3466L49.3098 61.9339C49.487 61.8392 49.6927 61.8115 49.8888 61.856C50.0849 61.9005 50.2583 62.0141 50.3769 62.1759C50.4955 62.3377 50.5513 62.5368 50.5341 62.7364C50.5169 62.936 50.4277 63.1227 50.2831 63.262L47.0865 66.1122L48.3098 65.41C48.4839 65.31 48.6885 65.2759 48.8858 65.3142C49.0831 65.3526 49.2599 65.4606 49.3835 65.6185C49.5071 65.7764 49.5693 65.9735 49.5585 66.1735C49.5477 66.3734 49.4647 66.5627 49.3248 66.7065L45.2431 70.8931L47.0331 69.8639C47.2048 69.7663 47.4058 69.7327 47.6001 69.7691C47.7944 69.8055 47.9693 69.9095 48.0937 70.0626C48.2181 70.2156 48.2838 70.4077 48.2792 70.6045C48.2745 70.8014 48.1997 70.9901 48.0681 71.1371L46.4231 72.9482C46.5869 72.9278 46.7531 72.9556 46.9012 73.0281C47.0493 73.1007 47.1728 73.2149 47.2565 73.3566C47.367 73.5472 47.3969 73.7738 47.3397 73.9864C47.2825 74.199 47.1429 74.3803 46.9515 74.4904L42.8048 76.8742C42.6797 76.9522 42.5357 76.9952 42.3881 76.9987Z" fill="#D7A609"/>
</g>
<path id="Vector_6" d="M7.38501 57.2195C11.7367 60.6541 16.1367 64.0106 20.46 67.4851C17.9417 112.103 25.545 95.4017 63.1 98.4927C86.7667 101.879 78.1183 82.1365 79.5417 66.9223C105.228 46.5422 105.483 52.4652 79.5417 32.1498C82.0717 -12.5149 74.4483 4.31609 36.8533 1.19192C13.3183 -2.14474 21.7983 17.4452 20.4583 32.598C16.8017 37.2361 -3.71999 46.7281 1.59167 52.6511C3.43239 54.2843 5.36676 55.8096 7.38501 57.2195ZM93.6767 45.8334C95.8067 47.4934 98.9634 49.7992 95.8767 52.598C88.805 58.2919 81.4817 63.755 74.3967 69.4074C71.7934 73.0711 67.5417 68.0279 70.73 65.3171C73.175 63.3765 75.6617 61.4741 78.115 59.5369C78.8567 59.5651 79.655 59.1335 79.5667 58.3998C83.1484 55.3619 87.595 52.5764 90.7517 49.4024C84.095 43.3732 75.3217 38.9243 69.67 32.1149C68.3917 21.5555 89.9017 44.4887 93.6767 45.8334ZM80.73 44.1468C83.23 46.1537 85.8484 48.0777 88.3233 50.0946C85.2133 52.0618 82.5467 54.766 79.56 56.9223V43.2421C79.95 43.5442 80.3417 43.843 80.73 44.1468ZM59.0883 7.84862C53.1283 6.46084 38.1067 12.1647 39.5283 2.12651H60.4633C60.5 3.70022 60.9617 7.24603 59.0883 7.84862ZM22.8733 10.6059C21.565 0.839991 30.0517 1.80779 37.1233 2.12651C36.165 7.90838 39.7783 9.56343 44.99 8.75168C51.0183 7.93328 64.1667 12.1182 62.8817 2.12485C82.7617 -1.83763 76.135 17.9399 77.13 30.2855C73.6583 25.2374 63.2233 29.3626 68.7967 34.8075C71.52 37.0385 74.3133 39.1899 77.1067 41.343C77.1367 47.163 77.045 53.0113 77.1384 58.8197C74.3917 60.9994 71.575 63.0993 68.85 65.3055C63.3267 71.9223 73.105 73.6222 77.1267 68.9359C75.41 80.2059 83.735 101.2 64.7667 97.3905C29.1 94.3393 20.21 110.339 22.87 69.5551C26.5867 74.6132 36.6233 70.2756 31.2767 64.8108C28.5283 62.5681 25.6683 60.4582 22.8917 58.2504V40.9047C25.8717 37.432 34.5083 35.0697 32.3817 29.4921C29.9483 25.5279 25.4 28.6122 22.8817 30.7072L22.8733 10.6059ZM11.81 49.5767L20.4417 42.8287V56.3397L11.81 49.5767ZM4.58334 46.7895C12.13 40.9081 19.6817 34.9386 27.2117 29.0804C36.2533 30.3071 24.4833 37.9067 21.6817 40.083C21.0717 40.1411 20.4617 40.4964 20.4467 41.0508C16.9733 44.1883 12 46.8377 9.26834 50.249C12.09 54.004 36.2933 67.0153 28.8567 70.7387C23.0767 68.0644 18.6083 62.7374 13.2967 59.1866C10.45 55.7421 -0.969993 51.9007 4.58334 46.7895Z" fill="#262626"/>
<path id="Vector_7" d="M42.6801 77.1912C50.8468 78.4014 56.1201 38.5939 60.1801 30.5743C63.9701 23.7865 55.8034 18.589 52.2384 25.7603C51.8801 33.5757 32.1951 78.1673 42.6801 77.1912ZM42.3334 68.6255C45.0001 64.8356 53.7251 14.3658 58.7251 26.2284C55.5501 40.3386 50.7084 54.253 46.9684 68.2935C46.4684 70.0315 45.9001 75.1245 43.5601 75.4781C39.8918 75.0581 41.7051 70.7968 42.3334 68.6255Z" fill="#262626"/>
<path id="Vector_8" d="M37.8951 92.0999C46.0151 91.4924 55.1767 93.3134 62.8101 91.3961C64.3517 89.7776 31.7367 89.6697 37.8951 92.0999Z" fill="#262626"/>
</g>
<defs>
<clipPath id="clip0_98_3207">
<rect width="100" height="99.6016" fill="white"/>
</clipPath>
</defs>
</svg>
