<svg width="99" height="99" viewBox="0 0 99 99" fill="none" xmlns="http://www.w3.org/2000/svg">
<g id="Group 80">
<path id="Subtract" fill-rule="evenodd" clip-rule="evenodd" d="M11.8003 60.6632L11.8274 60.684L11.834 60.6892L11.8406 60.6943L11.8472 60.6994L11.8538 60.7045C14.4924 62.7595 17.1309 64.8142 19.741 66.9121C19.1007 78.2554 19.1148 85.6354 20.1088 90.385L20.1204 90.4403C20.2481 91.0432 20.3917 91.6033 20.552 92.1237C20.4745 92.2177 20.4179 92.3286 20.3876 92.4488C20.3337 92.6624 20.3674 92.8885 20.481 93.0773C20.5946 93.2663 20.7789 93.4024 20.9933 93.456C21.0086 93.4598 21.0241 93.4632 21.0394 93.4661C21.1516 93.729 21.2695 93.9788 21.3937 94.2166C21.389 94.228 21.3845 94.2394 21.3804 94.251C21.3744 94.2675 21.3689 94.2842 21.3639 94.3012L21.358 94.3223L21.3519 94.3466C21.3035 94.556 21.3384 94.7759 21.4494 94.9602C21.51 95.0609 21.5907 95.1466 21.6854 95.2127C21.7234 95.2393 21.7637 95.2628 21.8058 95.2827C21.8508 95.304 21.8981 95.3215 21.9469 95.3347C21.9993 95.3487 22.0526 95.3576 22.106 95.3613C22.5129 95.9094 22.9689 96.3696 23.4767 96.7541C23.495 96.8035 23.5182 96.8514 23.546 96.897C23.6608 97.0853 23.8458 97.2204 24.0606 97.2728C24.0779 97.277 24.0953 97.2807 24.1128 97.2838C24.1338 97.2875 24.1548 97.2904 24.1759 97.2924C24.2214 97.2969 24.2672 97.2977 24.3126 97.2947C27.3201 98.9454 31.8543 98.6107 38.3648 98.1301C38.9299 98.0883 39.51 98.0456 40.1054 98.0029C40.1249 98.0157 40.1449 98.0277 40.1654 98.0388C40.1895 98.0518 40.2142 98.0637 40.2396 98.0744C40.2769 98.09 40.3154 98.1031 40.355 98.1133C40.5617 98.1666 40.781 98.1389 40.9677 98.0358L41.1532 97.929C41.9628 97.8732 42.7992 97.819 43.6631 97.7689C43.6878 97.8068 43.7155 97.8428 43.746 97.8764C43.7816 97.9155 43.8211 97.9512 43.8639 97.9832C43.9279 98.031 43.9979 98.0689 44.0718 98.0964C44.1642 98.1307 44.2627 98.1486 44.3627 98.1488C44.4551 98.148 44.5463 98.1319 44.6327 98.1016L44.6578 98.0924L44.6797 98.0836L44.7092 98.0705L44.7387 98.056C44.7529 98.0485 44.7671 98.0407 44.781 98.0325L45.4015 97.6761C46.2017 97.6374 47.0239 97.6036 47.8687 97.5764L47.8729 97.5884C47.8825 97.6153 47.8933 97.6414 47.9055 97.6671C47.9187 97.6948 47.9335 97.7217 47.9498 97.748C48.0625 97.929 48.2406 98.06 48.4474 98.1138C48.6542 98.1678 48.8739 98.1404 49.061 98.0375L49.9524 97.5246C51.1694 97.5036 52.4302 97.4982 53.7358 97.5137C53.7517 97.5766 53.775 97.6378 53.8055 97.6957C53.8176 97.7188 53.8309 97.7414 53.8452 97.7634C53.8702 97.8017 53.8983 97.8377 53.9288 97.871C53.9581 97.903 53.9898 97.9324 54.0234 97.9593C54.069 97.9956 54.1182 98.027 54.1704 98.0532C54.2262 98.081 54.2854 98.1027 54.3471 98.1176C54.4824 98.1505 54.6228 98.1486 54.7554 98.114C54.825 98.0958 54.8925 98.0686 54.9561 98.0325L55.7868 97.555C56.2136 97.5671 56.6451 97.5816 57.0812 97.5986C57.4409 97.6126 57.8037 97.6284 58.1697 97.6458C58.342 97.654 58.5151 97.6627 58.689 97.6717C58.7048 97.7048 58.7229 97.7368 58.7432 97.7678C58.8596 97.9455 59.0402 98.072 59.2474 98.1212C59.4547 98.1705 59.6731 98.1387 59.8577 98.0325L60.3193 97.7674C60.9963 97.8117 61.6835 97.8623 62.381 97.9196C66.1917 98.4649 69.1646 98.4106 71.4766 97.872L71.4932 97.8846C71.5971 97.9615 71.7183 98.0139 71.8475 98.0363C72.0408 98.0699 72.2398 98.0345 72.4093 97.9362L76.3677 95.6588C76.5667 95.5627 76.7191 95.392 76.7916 95.184C76.798 95.1658 76.8037 95.1474 76.8087 95.1289L76.8169 95.0966C76.8215 95.0762 76.8254 95.0557 76.8285 95.0352C76.8467 94.9152 76.8381 94.7925 76.8035 94.676C79.7603 90.8654 79.3693 84.496 78.9544 77.7368C78.721 73.9357 78.48 70.0113 78.8226 66.3493C82.233 63.6435 85.1951 61.4013 87.7072 59.4998C90.2766 57.5549 92.3753 55.9663 94.001 54.6026L94.8077 54.0169C94.9345 53.9251 95.0316 53.8004 95.0897 53.6578C96.5769 52.3145 97.5289 51.1898 97.9436 50.1253L97.9994 50.0893C98.0614 50.0469 98.1168 49.9969 98.1647 49.9406C98.2526 49.8371 98.3145 49.7128 98.3434 49.5781C98.3882 49.3701 98.351 49.1529 98.2395 48.9715C98.2223 48.9436 98.2035 48.9167 98.1834 48.8912C98.1795 48.3301 98.0194 47.7685 97.7028 47.1817C97.6935 47.0477 97.6517 46.9167 97.5794 46.8007C97.5381 46.7347 97.4883 46.6752 97.4315 46.6238C97.3873 46.5839 97.339 46.5488 97.2872 46.5191C95.8136 44.4449 92.521 41.9715 87.3953 38.121L87.3916 38.1185L87.3751 38.106C84.9382 36.2755 82.0881 34.134 78.8226 31.5767C79.5466 18.7953 79.4392 11.0498 78.0359 6.43134C78.0515 6.39149 78.064 6.35023 78.0732 6.30793C78.1193 6.09913 78.0825 5.88081 77.9708 5.69831C77.9002 5.58277 77.8027 5.48725 77.6882 5.41877C77.5378 5.03022 77.3757 4.66779 77.2015 4.32996L77.2024 4.3263C77.216 4.26972 77.2234 4.21235 77.2249 4.15504C77.2253 4.13239 77.225 4.10975 77.2238 4.08717L77.2223 4.06715L77.2205 4.04725L77.2179 4.02601L77.2145 4.00227C77.207 3.95612 77.1957 3.91059 77.1804 3.86622C77.1685 3.83112 77.1541 3.7967 77.1372 3.76319C77.1278 3.74458 77.1178 3.72626 77.1069 3.70826C76.9955 3.52247 76.8156 3.38746 76.6055 3.33192L76.6027 3.33118C76.2609 2.84119 75.8827 2.41791 75.4663 2.05347C75.4536 2.02607 75.4395 1.99927 75.4237 1.97321C75.3131 1.79017 75.1359 1.65662 74.929 1.60041C74.9078 1.59467 74.8866 1.58973 74.8652 1.5857C71.8822 -0.471184 67.1968 -0.119744 60.2643 0.400215C59.3363 0.469795 58.368 0.542488 57.3582 0.612739C57.2485 0.484199 57.1014 0.39112 56.9358 0.347541C56.906 0.339729 56.876 0.333564 56.8458 0.329109C56.8225 0.32563 56.7991 0.323127 56.7755 0.321662L56.7481 0.320381C56.7238 0.311286 56.699 0.303291 56.6738 0.296516C56.6506 0.290229 56.6272 0.28498 56.6034 0.280708C56.4098 0.245796 56.21 0.280342 56.0393 0.378181L55.4086 0.740852C54.9432 0.769416 54.4699 0.796882 53.9883 0.822761C53.695 0.838569 53.3986 0.853767 53.0991 0.868293C53.0939 0.853767 53.0881 0.839424 53.082 0.825202L53.0685 0.795356C53.0557 0.76844 53.0413 0.742134 53.0254 0.716499C52.9135 0.535713 52.7363 0.404548 52.5303 0.349922C52.3242 0.295356 52.105 0.321479 51.9177 0.422981L51.3501 0.749153C51.3396 0.727424 51.3283 0.706123 51.3159 0.68531C51.3086 0.673103 51.301 0.661079 51.2932 0.649238C51.2861 0.638618 51.2788 0.628181 51.2712 0.617866C51.2607 0.603462 51.2496 0.589363 51.238 0.57563C51.1122 0.425544 50.937 0.324592 50.7437 0.290595C50.5502 0.256599 50.351 0.291755 50.181 0.389778L49.1018 1.00928C48.798 1.01575 48.4913 1.02119 48.182 1.02564C48.1754 0.980415 48.165 0.935798 48.151 0.892219C48.1295 0.825813 48.0996 0.761848 48.0617 0.701972C47.9473 0.52198 47.768 0.392707 47.5607 0.340766C47.4491 0.312812 47.3339 0.308479 47.2223 0.326728C47.1384 0.340461 47.0566 0.36695 46.9799 0.40583C46.9315 0.378059 46.8803 0.35511 46.8269 0.337348C46.7988 0.32801 46.77 0.320136 46.7409 0.313789C46.6221 0.287971 46.5 0.288581 46.3831 0.314399C46.3048 0.331672 46.2289 0.360237 46.1577 0.399726L45.0588 1.03272C44.9036 1.0312 44.7476 1.0293 44.591 1.02717C44.5869 0.998359 44.5814 0.969795 44.5745 0.941535C44.5689 0.919074 44.5623 0.896858 44.5548 0.874946C44.5343 0.814704 44.5068 0.756599 44.4725 0.701789C44.358 0.518989 44.1768 0.387702 43.9668 0.335639C43.7568 0.283637 43.5348 0.314948 43.3477 0.422981L42.7263 0.780158C42.6934 0.707527 42.6498 0.639472 42.5967 0.578376C42.4684 0.431037 42.2921 0.333381 42.0988 0.302497C41.9055 0.271675 41.7074 0.309638 41.5393 0.409675L40.6665 0.910713C40.1808 0.888496 39.6896 0.863166 39.1926 0.834419C39.1771 0.794441 39.1585 0.755866 39.137 0.71894C39.129 0.705146 39.1206 0.691596 39.1118 0.678352C39.0918 0.648017 39.0697 0.618904 39.0458 0.591377C39.0144 0.555183 38.9797 0.521614 38.9421 0.491096C38.8109 0.38459 38.6504 0.320381 38.4816 0.307014C38.4544 0.304878 38.4271 0.304084 38.4 0.304573L38.3766 0.305305C38.3622 0.305976 38.3478 0.307075 38.3335 0.308479C38.3038 0.311408 38.2745 0.315864 38.2455 0.321845C38.2228 0.326545 38.2003 0.332221 38.1781 0.338813C38.1155 0.357368 38.0549 0.383308 37.9977 0.416328L37.8839 0.481819C37.7897 0.410102 37.6803 0.35865 37.5628 0.332038C37.3578 0.285713 37.143 0.318183 36.9611 0.422981L36.5599 0.653449C36.4186 0.642219 36.2766 0.630683 36.1344 0.618843C32.3149 0.0773386 29.3388 0.139717 27.0269 0.688911C26.9048 0.552925 26.7406 0.460395 26.5597 0.426521C26.3634 0.389778 26.1604 0.424446 25.9877 0.524238L22.0343 2.81013C21.8809 2.89844 21.7598 3.03321 21.6885 3.19483C21.6172 3.35645 21.5995 3.53651 21.6379 3.70881C21.6543 3.78236 21.6806 3.85285 21.7157 3.91853C21.1099 4.70936 20.6461 5.60871 20.2953 6.59754C20.2257 6.68922 20.1762 6.79401 20.1494 6.90516C20.1367 6.95826 20.1292 7.01282 20.1271 7.06812L20.1266 7.09034V7.10773C18.9786 10.8384 19.2786 15.7259 19.5921 20.8317C19.8214 24.5684 20.058 28.4221 19.7394 32.0248C18.5646 33.5151 15.6491 35.5062 12.4086 37.7188L12.4067 37.7203C5.56141 42.3948 -2.73217 48.0584 0.87269 52.0781C2.71339 53.7113 4.64771 55.2366 6.66602 56.6464C8.37257 57.9934 10.0864 59.3283 11.8003 60.6632ZM22.718 90.7282C22.6747 90.5703 22.6327 90.4089 22.5923 90.2438L34.9644 83.1289L22.718 90.7282ZM23.4441 92.7635C23.3906 92.6472 23.3386 92.5281 23.2879 92.4063L33.5726 86.492L23.4441 92.7635ZM24.9583 95.0388C24.8655 94.9431 24.7748 94.8438 24.6863 94.741C24.5549 94.5886 24.4282 94.4282 24.3063 94.2595L44.5543 82.6142L24.9583 95.0388ZM27.8334 96.7987C27.3309 96.6312 26.8626 96.4261 26.4274 96.1773L48.3577 83.5638L37.867 90.299C36.6979 90.5248 36.1423 90.8122 36.517 91.1657L28.0243 96.6182C27.9508 96.6684 27.8866 96.7294 27.8334 96.7987ZM30.1691 97.2987L40.4295 91.3992C40.9728 91.3944 41.5191 91.3963 42.0676 91.4034L34.121 96.6232C33.9452 96.7442 33.8228 96.928 33.7792 97.1364C33.7581 97.2371 33.7561 97.3398 33.7725 97.4395C32.4504 97.4649 31.2516 97.4294 30.1691 97.2987ZM43.6712 89.7656L43.9696 89.7531L44.2774 89.741C44.3899 89.7368 44.5031 89.7327 44.6168 89.7288L53.621 83.8144L43.2361 89.7855C43.3799 89.7785 43.5249 89.7719 43.6712 89.7656ZM36.202 97.3404L46.3113 91.5305L47.0917 91.5622L47.6392 91.5845L40.0861 96.6298C39.9257 96.7416 39.8104 96.9056 39.7595 97.0927C38.4987 97.1888 37.3139 97.2763 36.202 97.3404ZM49.5861 89.6484C49.9021 89.6484 50.2178 89.6496 50.5326 89.6517L56.401 85.7318L49.5861 89.6484ZM62.0911 90.8231C61.817 90.8919 61.5411 90.9559 61.2633 91.0153L51.8743 96.4185C52.6926 96.4036 53.5305 96.3962 54.3883 96.398L64.061 89.4053L62.0431 90.5666C62.1569 90.6473 62.177 90.7329 62.0911 90.8231ZM43.7144 96.7979C43.4861 96.8138 43.2598 96.8299 43.0357 96.846L48.1344 93.9124L43.911 96.6215C43.8359 96.6699 43.7697 96.7294 43.7144 96.7979ZM47.5658 96.566L47.3124 96.5787L54.5794 92.4051L48.3326 96.5302C48.0748 96.5417 47.8192 96.5535 47.5658 96.566ZM59.1411 96.5034C58.6576 96.4827 58.1796 96.4655 57.707 96.4512L64.7544 92.4001L59.1411 96.5034ZM64.0477 96.8175C63.4303 96.7646 62.8211 96.7175 62.2196 96.6757L71.0726 91.59L65.3844 96.7045C65.2915 96.7933 65.2213 96.9017 65.1781 97.0205C64.8125 96.963 64.4358 96.8955 64.0477 96.8175ZM71.2316 96.876C70.2322 97.1688 69.062 97.3071 67.6945 97.2663L73.8193 93.7513L71.3527 96.6846C71.3189 96.7248 71.2891 96.7676 71.2637 96.8127C71.2521 96.8333 71.2413 96.8544 71.2316 96.876ZM76.645 88.8032C76.5896 89.3287 76.5169 89.8391 76.4238 90.3315L72.3527 92.6624L76.645 88.8032ZM76.7949 85.6575C76.7948 85.7574 76.7943 85.8569 76.7935 85.9561C76.7922 86.0983 76.7903 86.2399 76.7876 86.3808L72.1627 89.0435L76.7949 85.6575ZM76.6968 82.3269C76.7191 82.7491 76.7387 83.1691 76.7543 83.5859L67.9611 88.6418L76.6968 82.3269ZM76.5447 79.8878L76.5726 80.299L71.5443 83.1903L76.5447 79.8878ZM76.3964 77.7609L76.4081 77.9321L73.7177 79.48L76.3964 77.7609ZM76.2404 75.2189C76.2504 75.4171 76.2611 75.6158 76.2725 75.8153L61.6244 84.2377L76.2069 74.497C76.2169 74.7364 76.2282 74.9771 76.2404 75.2189ZM76.1773 70.9879C76.1603 71.4661 76.1539 71.9549 76.1563 72.4523L58.4476 82.6341L76.1773 70.9879ZM76.376 68.5811C76.3641 68.6657 76.3529 68.7507 76.3422 68.8363L75.0426 69.5834C75.5415 69.2401 76.0037 68.8337 76.4077 68.3629C76.3967 68.4352 76.3861 68.508 76.376 68.5811ZM71.7024 70.913C72.4564 70.7891 73.2232 70.5566 73.9502 70.2116L57.5794 79.6245L70.2116 71.5145C70.2711 71.5286 70.3324 71.5361 70.3943 71.5368C70.5408 71.5375 70.6846 71.4992 70.811 71.4256L71.7024 70.913ZM94.8737 52.2532L94.5121 52.5435C94.4235 52.5209 94.3314 52.512 94.2394 52.5179L95.4662 51.7255C95.4055 51.7889 95.3416 51.8525 95.2744 51.9165C95.2366 51.9525 95.1976 51.9886 95.1577 52.0248L94.8737 52.2532ZM96.2362 48.6558C96.2977 48.8033 96.3472 48.9528 96.3826 49.1047L90.1926 52.659L96.2362 48.6558ZM94.8982 46.8693C95.017 46.9831 95.1323 47.0988 95.2429 47.2163L88.221 51.253L94.546 46.5455C94.6659 46.6517 94.7837 46.7596 94.8982 46.8693ZM91.2734 44.2198L91.3881 44.3044L91.0044 44.5248L91.2734 44.2198ZM89.2339 42.5927C89.3574 42.6957 89.4793 42.7966 89.5989 42.8952L88.5177 43.5173L89.2339 42.5927ZM87.2157 40.8763L87.5791 41.189L86.4677 41.8273L87.2157 40.8763ZM85.4994 39.3904L85.6183 39.4936L84.0877 40.3732L85.0772 39.0241L85.4994 39.3904ZM82.0121 36.3868L82.1143 36.4736L81.7211 36.6995L82.0121 36.3868ZM80.3955 35.0294L80.5291 35.1402L80.0243 35.4296L80.3955 35.0294ZM78.2876 33.3218C78.4926 33.4835 78.6987 33.6475 78.9058 33.8135L77.1144 34.8436L77.5817 34.2154L77.926 33.9953C78.1017 33.8752 78.2245 33.6927 78.2692 33.4852C78.2759 33.454 78.2808 33.4228 78.2838 33.3915L78.2859 33.3659C78.2866 33.355 78.2871 33.3441 78.2874 33.3332L78.2876 33.3218ZM76.6497 32.0664L76.6722 32.0831L76.0393 32.4467L76.6497 32.0664ZM74.5359 30.5871L74.6426 30.6568L72.4827 31.8955L72.7096 31.5429L74.3853 30.4899C74.4353 30.5219 74.4855 30.5544 74.5359 30.5871ZM73.2843 38.3717C72.9526 38.114 72.6213 37.8559 72.2905 37.5972L54.1489 49.1921L54.0978 49.4041L73.2843 38.3717ZM56.7402 38.5336L66.8884 32.6976C66.7802 32.4916 66.6942 32.2891 66.6292 32.0905L56.7927 38.3293L56.7402 38.5336ZM70.6212 36.283L70.2969 36.0253L61.061 41.7808L70.6212 36.283ZM68.4451 34.5346L68.2291 34.3583L57.4476 41.1335L68.6414 34.6944L68.4451 34.5346ZM67.3206 29.1108L67.3361 29.0943L67.3395 29.0806C67.3964 28.8685 67.5354 28.6873 67.7261 28.577L70.481 26.9835C70.645 26.8898 70.8361 26.8546 71.0228 26.8832L71.0462 26.8872L71.056 26.889C71.0641 26.8904 71.072 26.8922 71.08 26.894L71.1018 26.8994L71.126 26.9058L71.1447 26.9114L76.3568 23.9139L76.3674 23.6356C76.3735 23.4768 76.38 23.3177 76.3867 23.1583L61.061 32.7105L67.3206 29.1108ZM73.5693 27.6888C73.9752 27.8092 74.3685 27.9727 74.7391 28.1828L76.3049 27.2823C76.3038 27.191 76.303 27.0993 76.3024 27.0075L76.3013 26.8022C76.3005 26.5214 76.302 26.2385 76.3053 25.9535L73.5693 27.6888ZM76.411 29.7125C76.3305 29.5953 76.2461 29.4832 76.1583 29.3758L76.3767 29.2385C76.387 29.3977 76.3983 29.5556 76.411 29.7125ZM76.4832 21.106L76.4828 21.1111L76.3427 21.1916L76.4832 21.106ZM76.6095 18.4899C76.6008 18.6878 76.5918 18.8857 76.5825 19.0839L63.781 26.4439L76.6095 18.4899ZM76.686 16.3242L76.6823 16.4724L72.7893 18.7082L76.686 16.3242ZM76.7055 14.1101L76.7074 14.35L61.5393 23.0724L76.6984 13.6323C76.7015 13.791 76.7039 13.9502 76.7055 14.1101ZM76.5746 11.2149C76.5889 11.3776 76.6019 11.5414 76.6137 11.7064L64.8877 18.4492L76.5746 11.2149ZM76.0377 7.89875C76.1592 8.37293 76.2607 8.86439 76.345 9.37086L50.6893 24.1248L76.0377 7.89875ZM75.3933 5.99323C75.4224 6.05982 75.4508 6.12696 75.4786 6.19459L64.2044 12.6657L75.301 5.78779C75.3324 5.85572 75.3632 5.9242 75.3933 5.99323ZM74.2701 4.07911C74.3269 4.1518 74.3825 4.22559 74.4368 4.30042L59.4611 12.9163L74.0405 3.7992C74.1193 3.89057 74.1958 3.98389 74.2701 4.07911ZM71.0971 1.73969C71.693 1.97211 72.2282 2.25867 72.7083 2.59394L47.2527 17.2308L70.9777 1.83564C71.0206 1.8072 71.0606 1.77503 71.0971 1.73969ZM66.8981 1.03608C67.5826 1.03815 68.221 1.08161 68.8158 1.1637L61.83 5.17927C61.8928 5.03004 61.9491 4.87415 61.9984 4.71131L66.546 1.84064C66.6795 1.74921 66.7822 1.62183 66.8434 1.4748C66.8626 1.42878 66.8777 1.38081 66.8883 1.33143C66.8949 1.30067 66.8998 1.26966 66.9028 1.23859C66.9058 1.20978 66.9071 1.18092 66.907 1.15211C66.9067 1.11323 66.9037 1.07447 66.8981 1.03608ZM58.2349 7.2458L59.1493 6.72016C59.1924 6.6645 59.2329 6.60584 59.271 6.54444C59.3054 6.48896 59.3378 6.43128 59.3682 6.37159L58.0429 7.20814C58.1078 7.21998 58.1718 7.23249 58.2349 7.2458ZM64.3342 1.19898L62.2395 2.40302C62.2363 2.33802 62.2324 2.27235 62.2278 2.206C62.2214 2.11341 62.2138 2.01948 62.2046 1.92414C62.1929 1.80225 62.179 1.67817 62.1627 1.55183C62.5139 1.48182 62.8569 1.4192 63.1918 1.36384C63.5835 1.29908 63.9642 1.24421 64.3342 1.19898ZM55.2988 3.69721L59.0289 1.55347H57.4513C57.4365 1.57996 57.4203 1.6056 57.4027 1.63032C57.386 1.65369 57.3682 1.67628 57.3491 1.69782C57.3351 1.71363 57.3204 1.72895 57.3053 1.74372L57.285 1.76289C57.2561 1.78913 57.2253 1.81342 57.1926 1.83564L56.5574 2.24836L55.2988 3.69721ZM53.0454 1.55347H53.9955L48.7444 4.57307L48.9108 4.37745L52.791 1.83399C52.8972 1.76057 52.9839 1.66425 53.0454 1.55347ZM48.0833 1.55347H48.1537L48.0436 1.61671C48.0523 1.60419 48.0606 1.59144 48.0685 1.5785L48.0833 1.55347ZM39.1541 1.55347H39.5469L39.061 1.83234L39.1541 1.55347ZM36.3389 4.45173C36.2712 4.03864 36.2416 3.58967 36.2522 3.10322L29.9794 8.10725L36.3389 4.45173ZM32.1016 1.37574C33.0962 1.3932 34.1065 1.44154 35.1027 1.49073L27.1144 6.08033L31.871 1.75098C31.9304 1.69556 31.9808 1.63221 32.0211 1.56324C32.0554 1.5044 32.0825 1.44141 32.1016 1.37574ZM27.0595 1.75697C27.7018 1.61115 28.3843 1.5149 29.0936 1.45466L25.3294 3.61524L27.016 1.80744C27.0252 1.79768 27.0339 1.78773 27.0426 1.7776L27.0595 1.75697ZM22.0212 7.95716C22.0243 7.7776 22.0316 7.60273 22.0432 7.4325L25.1144 5.66035L22.0242 8.47321C22.0194 8.297 22.0184 8.12501 22.0212 7.95716ZM22.1553 12.2231L22.1547 10.8492L28.3126 7.30878L22.1553 12.2231ZM22.1561 14.5265V14.5224L22.2011 14.4967L22.1561 14.5265ZM22.1574 17.35L22.1571 16.5933L29.1643 12.566L22.1574 17.35ZM22.1585 19.9249L22.1582 19.4412L28.0977 16.0272L22.1585 19.9249ZM22.1596 22.6273L22.1593 21.9773L30.781 17.0233L22.1596 22.6273ZM22.1608 25.3353L22.1604 24.668L32.166 18.914L22.1608 25.3353ZM22.1618 27.8937L22.1615 27.361L31.5961 21.9386L22.1618 27.8937ZM22.1627 30.1341L22.1626 29.9017L22.8253 29.5207C22.8147 29.5331 22.8045 29.546 22.7946 29.559C22.7868 29.5695 22.7791 29.5801 22.7716 29.591C22.761 29.6066 22.7509 29.6226 22.7413 29.639C22.7337 29.6519 22.7264 29.665 22.7195 29.6784L22.7157 29.6857C22.5225 29.8382 22.3378 29.9885 22.1627 30.1341ZM28.0341 27.0264C28.3878 26.9898 28.7366 26.9936 29.0761 27.0465L44.1893 17.2374L27.3992 26.8909C27.4207 26.8869 27.4423 26.8836 27.464 26.8812C27.4833 26.8791 27.5026 26.8776 27.522 26.8768C27.5524 26.8756 27.5829 26.876 27.6133 26.8781C27.6596 26.8813 27.7058 26.8884 27.7515 26.8994C27.8073 26.9128 27.8611 26.9318 27.9124 26.9559C27.955 26.9759 27.9956 26.9996 28.0341 27.0264ZM31.2566 28.3444C31.3007 28.3984 31.3442 28.4542 31.3873 28.5118L36.1961 25.5043L31.2566 28.3444ZM6.18104 44.6279C6.05262 44.7001 5.90833 44.7365 5.76307 44.7351L4.7234 45.5467L3.86439 46.2165C3.12782 46.8945 2.68983 47.5501 2.49085 48.1854L14.3311 39.9432L6.18104 44.6279ZM2.65699 50.2889L2.6338 50.2369L3.96937 49.4702L2.67115 50.3194L2.65699 50.2889ZM4.19239 52.278C4.00465 52.1009 3.82728 51.9223 3.66236 51.7419L8.48939 48.9638L4.19239 52.278ZM7.27833 54.642L7.24757 54.6213L7.35768 54.5581L7.27833 54.642ZM10.7877 54.7656L9.00636 55.7902L9.20777 55.9244L9.35963 56.0259C9.49537 56.1169 9.62965 56.2075 9.76209 56.2978L10.7877 54.7656ZM13.5994 59.3244C13.4407 59.2099 13.2814 59.0967 13.1213 58.9851L15.1144 57.8383L14.0098 59.6247C13.8734 59.5236 13.7366 59.4235 13.5994 59.3244ZM16.4157 61.5228C16.3084 61.4339 16.2008 61.3454 16.0931 61.2571L15.9463 61.1373L15.8289 61.0417L17.3794 60.1507L16.4157 61.5228ZM20.2438 64.7702C19.9764 64.5452 19.7097 64.3189 19.4435 64.092L20.2929 63.6035C20.3643 63.6916 20.4529 63.7641 20.5531 63.8167C20.606 63.8444 20.662 63.8666 20.7205 63.8826C20.735 63.8865 20.7495 63.8901 20.764 63.8933C20.7783 63.8964 20.7926 63.8991 20.807 63.9014L20.2438 64.7702ZM22.2334 66.3967C22.1428 66.3255 22.0525 66.254 21.9623 66.1821L22.8231 65.6871L22.2334 66.3967ZM22.5479 69.4623L22.1039 69.7177C22.0831 70.0478 22.0632 70.374 22.0441 70.6965L23.1399 70.0093C23.0441 69.9335 22.9502 69.8538 22.8587 69.7702C22.8027 69.7192 22.7476 69.6668 22.6932 69.6129C22.6441 69.5639 22.5956 69.5137 22.5479 69.4623ZM21.9019 73.3226C21.9109 73.1364 21.9202 72.9488 21.9298 72.7598L25.0338 70.9758C25.1884 71.0206 25.3444 71.0593 25.5015 71.0916L21.9019 73.3226ZM27.3536 69.783L27.2249 69.7165L27.53 69.5411L27.3536 69.783ZM32.0645 66.9349C32.0682 66.9625 32.0717 66.9901 32.0747 67.0175L34.0393 65.7999L32.0645 66.9349ZM30.9269 64.6414C30.9692 64.6912 31.0104 64.7409 31.0503 64.7906C31.0971 64.8487 31.1421 64.9066 31.1854 64.9643L40.3043 59.246L30.9269 64.6414ZM28.7029 66.0543C28.6814 66.0225 28.6596 65.9907 28.6373 65.9587L28.1411 66.2442L27.5668 67.2335L28.9166 66.387C28.8501 66.2773 28.7788 66.1663 28.7029 66.0543ZM42.5404 54.6396L29.2131 63.1564C29.0396 63.0186 28.8656 62.8813 28.6913 62.7442L28.374 62.4951L42.6471 54.2875L42.5404 54.6396ZM39.3008 67.6185L21.7423 77.7099C21.7383 77.8883 21.7348 78.0651 21.7316 78.2404L21.7282 78.4399C21.7252 78.6154 21.7227 78.7895 21.7206 78.962L39.2597 67.8769C39.2731 67.7912 39.2868 67.705 39.3008 67.6185ZM26.9141 63.9551C26.8229 63.8638 26.7299 63.772 26.6351 63.6799L25.9426 64.5133L26.9141 63.9551ZM37.3344 54.6129L26.7334 61.2203L26.354 60.9276L37.3344 54.6129ZM25.0715 62.2561C24.9354 62.1389 24.7973 62.0213 24.6572 61.9034L23.7302 62.4365L23.0165 63.5369L25.0715 62.2561ZM24.4596 59.4667L24.7617 59.7003L40.9476 49.5266L24.122 59.2054L24.4596 59.4667ZM22.1727 57.6773C22.3206 57.7949 22.4685 57.9121 22.6168 58.0291L44.5577 44.1232L22.1727 56.9893V57.6773ZM21.0131 59.0456C20.8303 58.9099 20.6466 58.7741 20.4623 58.6387L19.281 60.3184L20.1184 59.8375C20.1776 59.6558 20.2983 59.4993 20.4611 59.3955L21.0131 59.0456ZM37.3344 45.5408L22.1727 54.9909V54.2602L37.3344 45.5408ZM34.6144 42.5877L22.1727 50.2972V49.7399L34.6144 42.5877ZM25.566 45.6837L22.1727 47.7611V47.6282L25.566 45.6837ZM36.881 36.4704L22.1727 45.6318V44.9258L36.881 36.4704ZM33.4761 35.936L22.1727 42.9362V42.4356L33.4761 35.936ZM47.5094 24.1879L22.1727 40.4099V40.3317C23.124 39.2231 24.6517 38.2276 26.2218 37.2047C27.7535 36.2066 29.3256 35.1823 30.4418 34.001L47.5094 24.1879ZM19.251 42.7736L11.1332 49.0366L19.7227 55.7665V42.2557L19.5187 42.4152C19.4644 42.5559 19.3723 42.68 19.251 42.7736ZM31.9957 30.6278L31.9954 30.6771L33.0911 29.998L31.9957 30.6278ZM20.4744 37.8167L29.1591 32.4348C29.2228 32.3409 29.2828 32.2477 29.3388 32.1553L24.0906 35.1728L17.4093 39.8237L20.1361 38.2568C20.1947 38.0765 20.3137 37.9208 20.4744 37.8167ZM12.5094 55.2204L13.5195 53.7062C13.7576 53.8754 14.0005 54.0473 14.2476 54.2217L12.5094 55.2204ZM15.8827 55.4927L15.9512 55.4196L15.9777 55.4382L15.8827 55.4927ZM18.0171 56.8763L17.7904 56.7155L16.5443 58.6899L18.7684 57.4118C18.5177 57.2324 18.2671 57.0538 18.0171 56.8763ZM21.8009 75.7065L21.814 75.3511L30.2477 70.501L21.8009 75.7065ZM21.7194 81.4019C21.7175 81.2524 21.7161 81.1016 21.715 80.9495L38.9122 71.0592C38.9066 71.1733 38.902 71.2858 38.8983 71.397L21.735 82.2789C21.7283 81.9918 21.723 81.6995 21.7194 81.4019ZM40.8486 76.5231L22.0714 87.3149C22.1195 87.7029 22.1725 88.0769 22.2306 88.437L41.0137 76.5676C40.9574 76.5546 40.9025 76.5397 40.8486 76.5231ZM21.8851 85.4277C21.8555 85.0393 21.8298 84.6387 21.808 84.2259L38.9756 74.3577C38.9827 74.3745 38.9904 74.3911 38.9985 74.4073C39.0067 74.4234 39.0154 74.4393 39.0247 74.4549L39.0377 74.4761L39.0542 74.5012C39.0642 74.5159 39.0747 74.5303 39.0857 74.5445L39.0907 74.5508L21.8851 85.4277ZM24.7155 68.2152C24.8042 68.2747 24.8931 68.3337 24.9823 68.3923L25.2703 67.8959L24.7155 68.2152ZM47.651 8.09254L47.5675 8.08942L46.886 8.53223L47.651 8.09254ZM48.3809 7.56098L48.6025 7.54566L50.8947 6.22834L51.4935 5.53858L48.3809 7.56098ZM50.1493 9.35224L51.7699 8.31269L51.9439 8.32075L50.1493 9.35224ZM53.6126 7.13068C53.7644 7.12031 53.915 7.11066 54.0646 7.10181L55.6058 6.21595L56.3727 5.40308L55.7454 5.76252L53.6126 7.13068ZM55.4193 8.8642L56.3612 8.26966L56.4744 8.25776L55.4193 8.8642ZM75.4743 40.0656L74.8247 39.5644L58.0944 50.0578L75.4743 40.0656ZM77.1572 39.0299L77.2278 39.0831C77.2482 39.0771 77.2687 39.0718 77.2894 39.0673L77.516 38.8244L77.1572 39.0299ZM64.3844 48.9621L76.3909 41.5202L76.3925 42.056L64.3844 48.9621ZM68.1144 49.1315L76.3938 44.0333L76.3934 44.3712L68.1144 49.1315ZM55.0593 59.852L76.389 46.3742L76.3854 47.5853L55.0593 59.852ZM53.8794 63.8675L76.3795 49.5958C76.3784 50.041 76.3774 50.486 76.3768 50.9311L53.8794 63.8675ZM54.806 66.575L76.3768 52.9348C76.3774 53.3465 76.3785 53.758 76.3803 54.1695L54.806 66.575ZM54.9561 69.7158L76.3933 56.1645C76.3958 56.431 76.3986 56.6975 76.4016 56.9638L76.4067 57.3815L54.9561 69.7158ZM78.8411 56.1877L82.1355 53.7355L82.5254 53.4091C84.1685 52.0324 85.8129 50.6547 87.6044 49.5216C86.272 48.436 84.898 47.3773 83.5233 46.3181L83.5222 46.317L83.5211 46.3159L83.52 46.3151L83.5189 46.3144L83.5178 46.3137L83.5167 46.3129C82.3401 45.406 81.163 44.4986 80.011 43.5737C79.7697 43.385 79.527 43.1979 79.2843 43.0109L79.0955 42.8655L78.8411 42.669V56.1877ZM63.6961 67.254L69.413 63.7064C69.203 63.8726 68.9935 64.0394 68.7844 64.2066C68.6066 64.3489 68.4291 64.4916 68.2518 64.6347L63.6961 67.254ZM75.9647 60.088L75.7251 60.2753L76.3894 59.8354C76.3597 59.8334 76.3303 59.8298 76.3012 59.8247L75.9647 60.088ZM72.5167 66.8591L69.4081 68.8295C69.5244 69.0071 69.6569 69.1719 69.8021 69.3204L75.1069 66.2697L81.1044 61.9204L72.5167 66.8591ZM67.5693 70.2676C67.5011 70.2205 67.4354 70.1712 67.3726 70.1198L57.2044 76.5651L67.8518 70.442C67.7533 70.3876 67.6591 70.3295 67.5693 70.2676ZM66.4857 68.0838L66.4868 68.0649L66.0776 68.3181L66.4857 68.0838ZM87.0394 46.31L87.1668 46.4108L87.4794 46.0571L87.0394 46.31ZM86.0527 44.0119L85.3049 44.9753L85.1065 44.8264L84.9014 44.6732L86.0527 44.0119ZM83.9093 42.4217L83.1497 43.3875L82.7421 43.0925L83.9093 42.4217ZM80.3834 41.3959L80.9816 41.826L81.9627 40.4893L80.3834 41.3959ZM17.5961 36.1484L20.4655 34.0146C20.5415 34.0653 20.6262 34.1036 20.7163 34.1273C20.8396 34.1597 20.9674 34.1633 21.0903 34.1391L17.5961 36.1484Z" fill="#1E1E1E"/>
<g id="Vector" style="mix-blend-mode:luminosity">
<path d="M44.3627 98.1488C44.1828 98.1486 44.0079 98.0906 43.8639 97.9833C43.7199 97.8759 43.6146 97.7251 43.5638 97.5533C43.513 97.3814 43.5193 97.1978 43.5819 97.0299C43.6445 96.862 43.7599 96.7187 43.911 96.6215L48.1343 93.9124L40.9677 98.0359C40.781 98.1389 40.5617 98.1666 40.355 98.1133C40.1484 98.06 39.9702 97.9298 39.8571 97.7495C39.744 97.5691 39.7047 97.3525 39.7473 97.1442C39.7899 96.9358 39.9112 96.7517 40.086 96.6298L56.401 85.7318L34.9977 98.0325C34.8105 98.1355 34.5909 98.1628 34.384 98.1089C34.1772 98.055 33.9991 97.924 33.8865 97.743C33.774 97.562 33.7355 97.3449 33.7791 97.1365C33.8228 96.928 33.9452 96.7443 34.121 96.6232L53.621 83.8144L28.8927 98.0325C28.705 98.134 28.4853 98.1598 28.279 98.1047C28.0728 98.0495 27.8956 97.9176 27.7842 97.7361C27.6728 97.5546 27.6356 97.3374 27.6803 97.1294C27.7249 96.9214 27.8481 96.7384 28.0243 96.6182L48.3577 83.5638L24.691 97.176C24.502 97.2902 24.2753 97.325 24.0605 97.2727C23.8458 97.2204 23.6607 97.0853 23.546 96.8971C23.4313 96.7089 23.3964 96.483 23.4489 96.2691C23.5014 96.0552 23.637 95.8709 23.826 95.7566L44.5543 82.6142L22.566 95.2603C22.3771 95.3639 22.1551 95.3906 21.9469 95.3346C21.7386 95.2786 21.5603 95.1444 21.4493 94.9602C21.3384 94.7759 21.3035 94.556 21.352 94.3467C21.4005 94.1373 21.5286 93.9549 21.7093 93.8377L33.5727 86.492L21.6243 93.3629C21.4347 93.476 21.2077 93.5095 20.9933 93.456C20.7789 93.4024 20.5946 93.2662 20.481 93.0774C20.3674 92.8885 20.3338 92.6624 20.3876 92.4488C20.4413 92.2353 20.578 92.0517 20.7677 91.9386L34.9643 83.1288L21.331 90.9691C21.1425 91.0724 20.9213 91.099 20.7135 91.0435C20.5058 90.988 20.3277 90.8546 20.2164 90.6713C20.1051 90.488 20.0692 90.2689 20.1164 90.0599C20.1635 89.8509 20.29 89.6681 20.4693 89.5498L43.4477 75.0296L21.331 87.7404C21.143 87.8393 20.9242 87.8629 20.7193 87.8064C20.5144 87.7499 20.3389 87.6175 20.2288 87.4363C20.1187 87.2552 20.0823 87.039 20.127 86.832C20.1717 86.6249 20.2942 86.4427 20.4693 86.3227L43.6143 71.6912L21.331 84.5C21.1429 84.6016 20.9227 84.6271 20.7161 84.5714C20.5096 84.5157 20.3324 84.383 20.2215 84.2007C20.1105 84.0185 20.0741 83.8007 20.12 83.5925C20.1658 83.3843 20.2903 83.2016 20.4677 83.0823L44.501 67.845L21.3343 81.1683C21.1464 81.2673 20.9275 81.2909 20.7226 81.2344C20.5177 81.1778 20.3423 81.0455 20.2322 80.8643C20.1221 80.6832 20.0856 80.4669 20.1304 80.2599C20.1751 80.0529 20.2975 79.8707 20.4727 79.7507L43.3577 65.2869L21.331 77.9462C21.1419 78.0483 20.9206 78.0737 20.7131 78.017C20.5057 77.9603 20.3284 77.8259 20.2182 77.6419C20.108 77.4579 20.0734 77.2387 20.1218 77.0299C20.1702 76.8212 20.2977 76.6392 20.4777 76.5219L30.2477 70.501L21.331 75.6288C21.1423 75.7292 20.922 75.7535 20.7158 75.6965C20.5096 75.6396 20.3333 75.5059 20.2234 75.323C20.1135 75.1401 20.0784 74.9222 20.1255 74.7143C20.1725 74.5064 20.298 74.3244 20.476 74.2062L34.0393 65.7998L21.331 73.1039C21.1422 73.2093 20.9196 73.2374 20.7104 73.1822C20.5012 73.127 20.3217 72.993 20.21 72.8083C20.0982 72.6237 20.063 72.403 20.1117 72.193C20.1604 71.983 20.2893 71.8 20.471 71.6829L40.3043 59.246L21.331 70.1624C21.1432 70.2625 20.9239 70.2872 20.7184 70.2314C20.5128 70.1755 20.3365 70.0433 20.2258 69.862C20.115 69.6807 20.0782 69.4641 20.1229 69.2566C20.1676 69.0491 20.2904 68.8665 20.466 68.7464L47.081 51.7377L21.331 66.5452C21.1418 66.6538 20.9173 66.6842 20.7059 66.6296C20.4945 66.5751 20.313 66.4401 20.2005 66.2536C20.088 66.0672 20.0535 65.8442 20.1044 65.6326C20.1553 65.4211 20.2875 65.2379 20.4727 65.1225L37.3344 54.6129L21.3343 63.8144C21.1461 63.9146 20.9263 63.9391 20.7205 63.8827C20.5146 63.8263 20.3384 63.6933 20.2281 63.5113C20.1178 63.3292 20.0818 63.1119 20.1276 62.9042C20.1735 62.6966 20.2976 62.5143 20.4743 62.3951L40.9477 49.5266L21.3243 60.8147C21.1357 60.9222 20.9123 60.9519 20.7019 60.8976C20.4915 60.8433 20.3107 60.7093 20.1981 60.5242C20.0855 60.3391 20.05 60.1174 20.0991 59.9066C20.1482 59.6957 20.2781 59.5123 20.461 59.3954L44.5577 44.1232L21.331 57.4731C21.1418 57.5818 20.9173 57.6121 20.7059 57.5576C20.4945 57.5031 20.313 57.3681 20.2005 57.1816C20.088 56.9951 20.0535 56.7721 20.1044 56.5606C20.1553 56.3491 20.2875 56.1659 20.4727 56.0505L37.3344 45.5408L21.3343 54.7424C21.1451 54.8431 20.9242 54.8672 20.7176 54.8098C20.511 54.7524 20.3345 54.6178 20.225 54.4341C20.1155 54.2503 20.0813 54.0316 20.1296 53.8234C20.1779 53.6153 20.305 53.4336 20.4843 53.3164L22.0543 52.3586L21.3343 52.7719C21.1447 52.8851 20.9177 52.9185 20.7033 52.865C20.4889 52.8115 20.3046 52.6753 20.191 52.4864C20.0774 52.2975 20.0438 52.0714 20.0976 51.8579C20.1513 51.6443 20.288 51.4608 20.4777 51.3476L34.6143 42.5877L21.331 50.2238C21.1416 50.3281 20.9188 50.3549 20.7099 50.2985C20.501 50.2421 20.3223 50.107 20.2116 49.9217C20.101 49.7365 20.067 49.5155 20.117 49.3058C20.167 49.096 20.2969 48.9138 20.4793 48.7978L25.566 45.6836L21.331 48.1106C21.1426 48.2095 20.9233 48.2329 20.7181 48.1758C20.5129 48.1188 20.3375 47.9856 20.2278 47.8037C20.1182 47.6218 20.0826 47.405 20.1284 47.1978C20.1743 46.9906 20.2981 46.8087 20.4743 46.6896L36.881 36.4705L21.331 45.4097C21.1423 45.5101 20.922 45.5343 20.7158 45.4774C20.5096 45.4205 20.3333 45.2867 20.2234 45.1039C20.1135 44.921 20.0784 44.7031 20.1255 44.4951C20.1725 44.2872 20.298 44.1053 20.476 43.9871L33.476 35.9359L21.331 42.9197C21.143 43.0227 20.9223 43.0494 20.715 42.9944C20.5076 42.9394 20.3296 42.8069 20.2179 42.6244C20.1062 42.4419 20.0695 42.2236 20.1154 42.0148C20.1613 41.806 20.2863 41.6229 20.4643 41.5037L47.5093 24.1879L21.331 39.2394C21.1421 39.343 20.9201 39.3697 20.7119 39.3137C20.5036 39.2577 20.3253 39.1235 20.2143 38.9393C20.1034 38.755 20.0685 38.5351 20.117 38.3258C20.1655 38.1164 20.2936 37.9339 20.4743 37.8167L33.091 29.998L21.331 36.7593C21.1424 36.8611 20.9217 36.8865 20.7147 36.8302C20.5078 36.774 20.3306 36.6404 20.22 36.4574C20.1094 36.2743 20.074 36.0558 20.1211 35.8474C20.1681 35.6389 20.2941 35.4566 20.4727 35.3383L36.196 25.5043L21.331 34.0518C21.1434 34.1547 20.9233 34.1817 20.7162 34.1273C20.5092 34.0728 20.3312 33.9411 20.219 33.7593C20.1069 33.5776 20.0693 33.3599 20.1141 33.1513C20.1588 32.9427 20.2825 32.7593 20.4593 32.6391L44.1893 17.2374L21.331 30.3798C21.143 30.4787 20.9242 30.5024 20.7193 30.4458C20.5144 30.3893 20.3389 30.2569 20.2288 30.0758C20.1187 29.8946 20.0823 29.6784 20.127 29.4714C20.1717 29.2644 20.2942 29.0822 20.4693 28.9622L31.596 21.9386L21.331 27.8383C21.1435 27.9373 20.9251 27.9612 20.7204 27.9053C20.5157 27.8493 20.3402 27.7177 20.2296 27.5373C20.119 27.3568 20.0818 27.1411 20.1254 26.9343C20.169 26.7274 20.2902 26.5449 20.4643 26.424L32.166 18.914L21.3327 25.1441C21.1451 25.247 20.925 25.274 20.7179 25.2195C20.5109 25.1651 20.3328 25.0333 20.2207 24.8516C20.1086 24.6699 20.071 24.4522 20.1157 24.2436C20.1605 24.035 20.2841 23.8516 20.461 23.7314L30.781 17.0232L21.331 22.4532C21.1436 22.5576 20.9229 22.5859 20.715 22.5322C20.5071 22.4785 20.3281 22.347 20.2152 22.165C20.1024 21.983 20.0644 21.7646 20.1093 21.5554C20.1541 21.3462 20.2783 21.1623 20.456 21.0422L28.0977 16.0272L21.331 19.9167C21.1457 20.0102 20.932 20.0315 20.7318 19.9763C20.5316 19.921 20.3593 19.7933 20.2487 19.6181C20.1381 19.443 20.0972 19.233 20.1341 19.0293C20.1709 18.8257 20.2827 18.643 20.4477 18.5173L29.1643 12.5661L21.331 17.0681C21.1435 17.179 20.9198 17.2123 20.708 17.1608C20.4961 17.1094 20.3129 16.9772 20.1978 16.7928C20.0826 16.6083 20.0446 16.3863 20.092 16.1743C20.1393 15.9622 20.2682 15.7771 20.451 15.6587L22.201 14.4967L21.331 14.9947C21.1492 15.0975 20.9352 15.1285 20.7315 15.0815C20.5278 15.0345 20.3493 14.913 20.2314 14.741C20.1134 14.569 20.0647 14.3591 20.0949 14.1531C20.1251 13.947 20.232 13.7597 20.3943 13.6285L28.3127 7.30877L21.331 11.3227C21.1536 11.4212 20.9462 11.4518 20.7478 11.4087C20.5494 11.3656 20.3736 11.2518 20.2534 11.0887C20.1333 10.9256 20.0771 10.7245 20.0954 10.523C20.1136 10.3216 20.2051 10.1337 20.3527 9.99469L25.1143 5.66036L21.3743 7.81839C21.2016 7.91702 20.9991 7.9508 20.8036 7.9136C20.608 7.8764 20.4323 7.77068 20.3082 7.61559C20.1841 7.4605 20.1199 7.26629 20.1271 7.06811C20.1343 6.86993 20.2126 6.68088 20.3477 6.53519L22.3793 4.35558C22.2028 4.34031 22.0357 4.26937 21.9024 4.15306C21.769 4.03676 21.6764 3.88114 21.6379 3.70882C21.5995 3.5365 21.6172 3.35645 21.6885 3.19483C21.7597 3.03322 21.8809 2.89844 22.0343 2.81009L25.9877 0.524236C26.1604 0.424454 26.3634 0.389781 26.5597 0.426531C26.756 0.463281 26.9324 0.569009 27.057 0.724467C27.1816 0.879924 27.246 1.07477 27.2385 1.27354C27.2309 1.4723 27.152 1.66177 27.016 1.80744L25.3293 3.61521L30.891 0.422974C31.0684 0.323154 31.2765 0.291552 31.4757 0.334143C31.6749 0.376734 31.8516 0.490565 31.9723 0.654113C32.093 0.81766 32.1493 1.01958 32.1307 1.2217C32.112 1.42382 32.0196 1.61212 31.871 1.751L27.1143 6.08034L36.961 0.422974C37.1429 0.318191 37.3578 0.285713 37.5627 0.332043C37.7676 0.378374 37.9474 0.500093 38.066 0.672827C38.1847 0.845561 38.2334 1.05656 38.2025 1.26356C38.1716 1.47057 38.0633 1.65831 37.8993 1.78918L29.9793 8.10724L43.3477 0.422974C43.5348 0.314931 43.7569 0.283614 43.9668 0.335645C44.1767 0.387675 44.3581 0.518975 44.4726 0.701786C44.5871 0.884596 44.6257 1.10459 44.5803 1.31526C44.5349 1.52593 44.4091 1.71076 44.2293 1.83068L42.4743 2.9927L46.9477 0.422974C47.1338 0.318277 47.3533 0.288848 47.5606 0.340772C47.768 0.392696 47.9473 0.522001 48.0616 0.701946C48.1759 0.881891 48.2164 1.09871 48.1748 1.30756C48.1331 1.51641 48.0124 1.70132 47.8377 1.82404L39.131 7.77025L51.9177 0.422974C52.105 0.321471 52.3242 0.295327 52.5302 0.349923C52.7363 0.404519 52.9135 0.535701 53.0254 0.716474C53.1373 0.897247 53.1753 1.11386 53.1317 1.32174C53.0881 1.52961 52.9662 1.71294 52.791 1.834L45.1427 6.84728L56.321 0.422974C56.5086 0.320083 56.7287 0.293061 56.9358 0.347514C57.1428 0.401968 57.3209 0.533717 57.433 0.715431C57.5451 0.897144 57.5827 1.11487 57.538 1.32345C57.4932 1.53203 57.3696 1.71545 57.1927 1.83566L46.886 8.5322L60.996 0.422974C61.1837 0.321494 61.4034 0.295673 61.6097 0.350842C61.8159 0.406011 61.9931 0.537959 62.1045 0.719445C62.2159 0.900931 62.2531 1.1181 62.2084 1.32612C62.1638 1.53414 62.0406 1.71713 61.8643 1.83732L50.1493 9.35226L65.6843 0.422974C65.8723 0.324049 66.0912 0.300428 66.2961 0.356948C66.501 0.413467 66.6764 0.545852 66.7865 0.727004C66.8966 0.908156 66.9331 1.12437 66.8883 1.3314C66.8436 1.53843 66.7212 1.7206 66.546 1.84064L55.4193 8.86421L70.1043 0.422974C70.2921 0.316664 70.514 0.287103 70.7232 0.340524C70.9324 0.393945 71.1126 0.526173 71.2258 0.709342C71.339 0.89251 71.3765 1.11231 71.3302 1.32242C71.2839 1.53253 71.1575 1.71653 70.9777 1.83566L47.2527 17.2307L74.3127 1.67131C74.5013 1.56955 74.722 1.54415 74.929 1.60038C75.1359 1.65662 75.3131 1.79017 75.4237 1.97323C75.5343 2.1563 75.5697 2.37479 75.5226 2.58323C75.4756 2.79167 75.3496 2.974 75.171 3.0923L59.461 12.9163L75.9827 3.41102C76.172 3.3048 76.3955 3.27642 76.6055 3.33194C76.8155 3.38746 76.9955 3.52248 77.107 3.70823C77.2185 3.89399 77.2527 4.11577 77.2024 4.32631C77.1521 4.53686 77.0212 4.7195 76.8377 4.83532L64.2043 12.6657L76.8577 5.40305C77.0457 5.30006 77.2664 5.27327 77.4737 5.32827C77.6811 5.38327 77.8591 5.51581 77.9708 5.6983C78.0825 5.88078 78.1192 6.09915 78.0733 6.30792C78.0274 6.51669 77.9024 6.69978 77.7244 6.81906L50.6894 24.1248L77.0643 8.95717C77.254 8.84402 77.481 8.81054 77.6954 8.86409C77.9098 8.91763 78.0941 9.05382 78.2077 9.2427C78.3213 9.43157 78.3549 9.65766 78.3011 9.87122C78.2474 10.0848 78.1106 10.2683 77.921 10.3815L64.8877 18.4492L77.0643 11.4472C77.2536 11.3385 77.478 11.3082 77.6895 11.3627C77.9009 11.4172 78.0824 11.5523 78.1949 11.7387C78.3074 11.9252 78.3419 12.1482 78.291 12.3597C78.2401 12.5713 78.1078 12.7545 77.9227 12.8699L61.5393 23.0724L77.0643 14.1448C77.2542 14.032 77.4812 13.9991 77.6955 14.0531C77.9098 14.1071 78.0937 14.2437 78.2068 14.4328C78.32 14.6219 78.3531 14.848 78.2989 15.0614C78.2447 15.2748 78.1075 15.458 77.9177 15.5707L72.7894 18.7082L77.0643 16.253C77.2536 16.1443 77.478 16.114 77.6895 16.1685C77.9009 16.223 78.0824 16.358 78.1949 16.5445C78.3074 16.731 78.3419 16.954 78.291 17.1655C78.2401 17.3771 78.1078 17.5602 77.9227 17.6756L63.781 26.4439L77.0627 18.8078C77.2521 18.7035 77.4749 18.6766 77.6838 18.733C77.8927 18.7894 78.0714 18.9245 78.1821 19.1098C78.2928 19.2951 78.3267 19.516 78.2767 19.7258C78.2267 19.9355 78.0968 20.1177 77.9144 20.2337L76.3427 21.1916L77.0627 20.7782C77.2521 20.6646 77.479 20.6306 77.6936 20.6837C77.9082 20.7368 78.0928 20.8726 78.2068 21.0613C78.3209 21.2499 78.355 21.476 78.3017 21.6897C78.2484 21.9034 78.1121 22.0873 77.9227 22.2009L61.061 32.7105L77.061 23.509C77.2492 23.4074 77.4693 23.3818 77.6759 23.4376C77.8825 23.4933 78.0596 23.626 78.1706 23.8083C78.2816 23.9905 78.3179 24.2083 78.2721 24.4165C78.2262 24.6247 78.1017 24.8074 77.9244 24.9266L53.8477 40.1972L77.0643 26.8456C77.2528 26.7424 77.4741 26.7157 77.6818 26.7712C77.8896 26.8267 78.0677 26.9601 78.179 27.1434C78.2903 27.3268 78.3261 27.5458 78.279 27.7549C78.2318 27.9639 78.1053 28.1467 77.926 28.2649L57.4477 41.1335L77.071 29.8453C77.1648 29.789 77.2688 29.7517 77.3771 29.7355C77.4853 29.7193 77.5957 29.7245 77.702 29.7508C77.8082 29.7771 77.9082 29.8239 77.9963 29.8887C78.0843 29.9535 78.1587 30.0349 78.2152 30.1283C78.2717 30.2217 78.3091 30.3253 78.3254 30.4331C78.3417 30.541 78.3365 30.6509 78.3101 30.7567C78.2837 30.8626 78.2366 30.9622 78.1716 31.0499C78.1065 31.1376 78.0248 31.2117 77.931 31.2679L61.061 41.7809L77.061 32.5793C77.2489 32.4792 77.4681 32.4545 77.6737 32.5103C77.8792 32.5662 78.0555 32.6984 78.1662 32.8797C78.277 33.061 78.3138 33.2776 78.2691 33.4851C78.2245 33.6926 78.1017 33.8752 77.926 33.9954L51.301 51.0123L77.0643 36.1982C77.158 36.1419 77.2619 36.1044 77.3701 36.0881C77.4783 36.0717 77.5887 36.0767 77.6949 36.1029C77.8012 36.129 77.9012 36.1757 77.9893 36.2404C78.0775 36.305 78.1519 36.3863 78.2085 36.4796C78.2651 36.5729 78.3027 36.6764 78.3191 36.7841C78.3355 36.8919 78.3305 37.0018 78.3042 37.1077C78.278 37.2135 78.2311 37.3131 78.1662 37.4009C78.1013 37.4887 78.0197 37.5628 77.926 37.6192L58.0943 50.0578L77.0643 39.1514C77.2533 39.0477 77.4752 39.0211 77.6835 39.0771C77.8917 39.133 78.0701 39.2673 78.181 39.4515C78.292 39.6358 78.3269 39.8557 78.2784 40.065C78.2299 40.2744 78.1018 40.4568 77.921 40.574L64.3844 48.9622L77.0643 41.6697C77.2537 41.5634 77.4771 41.5351 77.6872 41.5906C77.8972 41.6461 78.0771 41.7811 78.1886 41.9669C78.3001 42.1526 78.3344 42.3744 78.2841 42.5849C78.2338 42.7955 78.1029 42.9781 77.9193 43.094L68.1143 49.1315L77.0643 43.9854C77.2523 43.8865 77.4712 43.8628 77.6761 43.9194C77.881 43.9759 78.0564 44.1083 78.1665 44.2894C78.2766 44.4706 78.313 44.6868 78.2683 44.8938C78.2236 45.1008 78.1012 45.283 77.926 45.4031L55.0593 59.8519L77.0593 47.1975C77.248 47.0901 77.4714 47.0604 77.6818 47.1147C77.8922 47.169 78.0729 47.303 78.1856 47.4881C78.2982 47.6732 78.3337 47.8949 78.2846 48.1057C78.2355 48.3166 78.1056 48.5 77.9227 48.6169L53.8793 63.8675L77.0643 50.5359C77.2528 50.4326 77.4741 50.406 77.6818 50.4615C77.8896 50.517 78.0677 50.6504 78.179 50.8337C78.2903 51.017 78.3261 51.2361 78.279 51.4451C78.2318 51.6541 78.1053 51.8369 77.926 51.9552L54.806 66.575L77.0643 53.7762C77.2528 53.673 77.4741 53.6464 77.6818 53.7019C77.8896 53.7574 78.0677 53.8907 78.179 54.0741C78.2903 54.2574 78.3261 54.4765 78.279 54.6855C78.2318 54.8945 78.1053 55.0773 77.926 55.1956L54.956 69.7158L77.0643 57.0033C77.2536 56.8947 77.478 56.8643 77.6895 56.9188C77.9009 56.9734 78.0824 57.1084 78.1949 57.2948C78.3074 57.4813 78.3419 57.7043 78.291 57.9158C78.2401 58.1274 78.1078 58.3106 77.9227 58.426L63.696 67.254L77.0643 59.5681C77.2533 59.4644 77.4752 59.4378 77.6835 59.4937C77.8917 59.5497 78.0701 59.6839 78.181 59.8682C78.292 60.0524 78.3269 60.2724 78.2784 60.4817C78.2299 60.691 78.1018 60.8735 77.921 60.9907L66.0777 68.3181L77.0643 62.01C77.253 61.9026 77.4764 61.8728 77.6868 61.9271C77.8972 61.9814 78.0779 62.1154 78.1906 62.3005C78.3032 62.4857 78.3387 62.7073 78.2896 62.9182C78.2405 63.129 78.1106 63.3124 77.9277 63.4293L57.2044 76.5651L77.0643 65.1441C77.2519 65.0451 77.4703 65.0212 77.675 65.0771C77.8797 65.1331 78.0552 65.2647 78.1658 65.4452C78.2763 65.6256 78.3136 65.8413 78.27 66.0481C78.2264 66.255 78.1051 66.4375 77.931 66.5584L57.5793 79.6245L77.0643 68.421C77.2513 68.3207 77.4697 68.2953 77.6749 68.35C77.8801 68.4047 78.0565 68.5353 78.1682 68.7152C78.2799 68.8952 78.3185 69.1108 78.2759 69.318C78.2334 69.5253 78.113 69.7085 77.9394 69.8304L58.4477 82.6341L77.0643 71.9303C77.2509 71.8298 77.469 71.804 77.674 71.858C77.8791 71.9121 78.0557 72.042 78.1679 72.2213C78.2801 72.4006 78.3195 72.6158 78.2779 72.8229C78.2364 73.0301 78.1171 73.2137 77.9444 73.3363L61.6243 84.2377L77.0643 75.3599C77.2524 75.2569 77.473 75.2301 77.6804 75.2851C77.8877 75.3401 78.0658 75.4727 78.1775 75.6551C78.2892 75.8376 78.3259 76.056 78.28 76.2648C78.2341 76.4735 78.1091 76.6566 77.931 76.7759L73.7177 79.4801L77.0643 77.5545C77.252 77.4461 77.4746 77.4149 77.685 77.4674C77.8953 77.5199 78.0769 77.6521 78.191 77.8357C78.3051 78.0194 78.3428 78.2402 78.2962 78.4511C78.2495 78.6621 78.1221 78.8466 77.941 78.9655L71.5444 83.1902L77.0643 80.0163C77.249 79.9116 77.4669 79.8812 77.6734 79.9312C77.8798 79.9813 78.0593 80.108 78.1751 80.2854C78.2909 80.4629 78.3343 80.6777 78.2963 80.8859C78.2584 81.0942 78.142 81.2801 77.971 81.4057L67.961 88.6418L77.0643 83.4077C77.2489 83.3015 77.4673 83.2698 77.6746 83.3191C77.8819 83.3683 78.0624 83.4948 78.1789 83.6725C78.2955 83.8503 78.3392 84.0657 78.3012 84.2746C78.2631 84.4835 78.1462 84.6699 77.9743 84.7955L72.1627 89.0435L77.0643 86.2215C77.2416 86.1255 77.4479 86.0969 77.6447 86.1409C77.8416 86.185 78.0157 86.2986 78.1348 86.4609C78.2539 86.6231 78.3099 86.8228 78.2923 87.023C78.2748 87.2232 78.1849 87.4103 78.0394 87.5495L72.3527 92.6624L77.0643 89.9648C77.234 89.8666 77.4329 89.8312 77.6262 89.8648C77.8195 89.8983 77.9946 89.9987 78.1209 90.1483C78.2472 90.2978 78.3164 90.4869 78.3164 90.6823C78.3164 90.8777 78.2472 91.0669 78.121 91.2165L75.641 94.1647C75.8399 94.0687 76.069 94.0554 76.2778 94.1276C76.4866 94.1998 76.658 94.3517 76.7544 94.5498C76.8507 94.7479 76.8641 94.9761 76.7916 95.184C76.7191 95.392 76.5666 95.5627 76.3677 95.6587L72.4093 97.9363C72.2397 98.0344 72.0408 98.0699 71.8475 98.0363C71.6542 98.0028 71.4791 97.9024 71.3528 97.7528C71.2265 97.6033 71.1573 97.4141 71.1573 97.2187C71.1573 97.0233 71.2265 96.8342 71.3527 96.6846L73.8194 93.7513L66.3594 98.0325C66.1821 98.1285 65.9758 98.1571 65.779 98.1131C65.5821 98.069 65.408 97.9554 65.2889 97.7931C65.1698 97.6309 65.1138 97.4312 65.1314 97.231C65.1489 97.0308 65.2388 96.8437 65.3843 96.7045L71.0727 91.59L59.8577 98.0325C59.6731 98.1387 59.4548 98.1705 59.2474 98.1212C59.0401 98.0719 58.8597 97.9454 58.7431 97.7677C58.6266 97.59 58.5828 97.3745 58.6209 97.1657C58.6589 96.9568 58.7759 96.7704 58.9477 96.6448L64.7543 92.4001L54.956 98.0325C54.7713 98.1372 54.5535 98.1676 54.347 98.1176C54.1405 98.0676 53.9611 97.9409 53.8453 97.7634C53.7295 97.586 53.6861 97.3711 53.724 97.1629C53.762 96.9547 53.8783 96.7687 54.0494 96.6431L64.061 89.4054L49.061 98.0375C48.8739 98.1404 48.6542 98.1678 48.4474 98.1139C48.2406 98.06 48.0625 97.929 47.9499 97.748C47.8373 97.567 47.7988 97.3499 47.8425 97.1414C47.8861 96.933 48.0085 96.7493 48.1843 96.6282L54.5793 92.4051L44.781 98.0325C44.6543 98.1074 44.51 98.1475 44.3627 98.1488Z" fill="#444477"/>
<path d="M55.371 8.5073C55.2084 8.50739 55.0494 8.46011 54.9135 8.37128C54.7775 8.28246 54.6707 8.15598 54.606 8.00741C54.5413 7.85884 54.5217 7.69469 54.5496 7.53515C54.5774 7.37562 54.6515 7.22768 54.7627 7.10956L56.3727 5.40305L51.1577 8.3911C50.9873 8.48794 50.7881 8.5218 50.5951 8.48671C50.4021 8.45163 50.2277 8.34986 50.1026 8.19931C49.9776 8.04876 49.9098 7.8591 49.9114 7.6637C49.9129 7.46831 49.9836 7.27972 50.111 7.13114L52.591 4.27424L45.4244 8.3911C45.2544 8.48812 45.0556 8.52244 44.8629 8.48802C44.6701 8.4536 44.4956 8.35265 44.3701 8.20289C44.2446 8.05312 44.1761 7.86411 44.1766 7.66904C44.177 7.47396 44.2465 7.28529 44.3727 7.13612L46.8627 4.2095L40.0294 8.13546C39.852 8.23393 39.6446 8.2645 39.4461 8.22142C39.2477 8.17833 39.0719 8.06456 38.9518 7.90147C38.8316 7.73839 38.7754 7.53722 38.7937 7.33576C38.812 7.13431 38.9035 6.94643 39.051 6.80744L40.2843 5.69024L38.4377 6.75266C38.2697 6.84877 38.0733 6.88358 37.8823 6.8511C37.6914 6.81862 37.5177 6.72089 37.3913 6.5747C37.2648 6.4285 37.1935 6.243 37.1895 6.05007C37.1855 5.85715 37.2491 5.66886 37.3694 5.5176L38.5494 4.04183L37.991 4.36388C37.8448 4.44759 37.6764 4.48512 37.5083 4.4715C37.3402 4.45789 37.1802 4.39378 37.0494 4.28764C36.9186 4.18151 36.8233 4.03834 36.776 3.87707C36.7286 3.71581 36.7316 3.54404 36.7844 3.38446L37.1377 2.3237C37.0193 2.25197 36.9213 2.15143 36.8527 2.03154C36.798 1.93668 36.7626 1.83199 36.7487 1.72348C36.7348 1.61497 36.7425 1.50478 36.7715 1.39926C36.8004 1.29374 36.8501 1.19496 36.9175 1.10861C36.9849 1.02226 37.0688 0.950029 37.1643 0.896082L37.9977 0.416334C38.1441 0.33179 38.3129 0.293657 38.4816 0.307007C38.6503 0.320358 38.811 0.384559 38.9422 0.491071C39.0733 0.597582 39.1688 0.741353 39.216 0.903257C39.2631 1.06516 39.2596 1.23752 39.206 1.39741L39.061 1.83234L41.5393 0.409694C41.7074 0.309615 41.9055 0.27167 42.0988 0.302516C42.2921 0.333363 42.4684 0.43103 42.5967 0.578384C42.7249 0.725739 42.797 0.91337 42.8002 1.10836C42.8034 1.30336 42.7376 1.49326 42.6143 1.64475L41.4343 3.12052L46.1577 0.399734C46.3351 0.301256 46.5425 0.270688 46.7409 0.313775C46.9393 0.356861 47.1151 0.470634 47.2353 0.633719C47.3554 0.796803 47.4116 0.997972 47.3933 1.19943C47.3751 1.40088 47.2836 1.58876 47.136 1.72776L45.901 2.84661L50.181 0.389774C50.351 0.291724 50.5502 0.256603 50.7436 0.290607C50.937 0.324611 51.1121 0.425554 51.2381 0.575628C51.364 0.725702 51.4327 0.915263 51.4321 1.11087C51.4314 1.30647 51.3614 1.49556 51.2344 1.64475L48.7444 4.57304L56.0394 0.378153C56.2099 0.280332 56.4098 0.245806 56.6035 0.280692C56.7971 0.315578 56.9722 0.417625 57.0976 0.568751C57.2229 0.719878 57.2906 0.91033 57.2884 1.10636C57.2863 1.3024 57.2146 1.49136 57.086 1.63977L54.6044 4.49668L60.3977 1.16667C60.5706 1.06802 60.7732 1.03435 60.9689 1.07175C61.1646 1.10915 61.3404 1.21516 61.4643 1.37054C61.5883 1.52592 61.6522 1.7204 61.6446 1.91872C61.637 2.11704 61.5582 2.30606 61.4227 2.45153L59.8144 4.16301L60.386 3.83101C60.4808 3.77565 60.5857 3.73951 60.6946 3.72469C60.8035 3.70986 60.9142 3.71663 61.0205 3.74461C61.1267 3.77258 61.2264 3.82122 61.3137 3.88771C61.401 3.9542 61.4742 4.03724 61.5292 4.13203C61.5841 4.22683 61.6197 4.33151 61.6339 4.44006C61.648 4.54861 61.6405 4.65888 61.6117 4.76452C61.5829 4.87016 61.5334 4.96908 61.4661 5.05559C61.3987 5.1421 61.3149 5.21449 61.2193 5.26859L55.781 8.3911C55.6571 8.46531 55.5156 8.5054 55.371 8.5073Z" fill="#C7DFE5"/>
<path d="M70.3943 71.5369C70.2203 71.5348 70.0513 71.4785 69.911 71.3759C69.7707 71.2732 69.6662 71.1294 69.6121 70.9646C69.5581 70.7998 69.5572 70.6223 69.6096 70.457C69.662 70.2917 69.7651 70.1468 69.9044 70.0428L81.1043 61.9203L68.271 69.3008C68.0825 69.4157 67.8559 69.4513 67.641 69.3998C67.4261 69.3483 67.2406 69.2138 67.1252 69.0261C67.0098 68.8383 66.9741 68.6126 67.0258 68.3985C67.0775 68.1845 67.2125 67.9997 67.401 67.8848L69.9627 66.2248L68.2443 67.2208C68.057 67.3269 67.8358 67.3566 67.6269 67.3037C67.4181 67.2508 67.2379 67.1194 67.1243 66.9371C67.0107 66.7547 66.9724 66.5356 67.0174 66.3257C67.0625 66.1159 67.1874 65.9315 67.366 65.8114L76.3893 59.8353C76.2193 59.824 76.0569 59.761 75.9239 59.6548C75.791 59.5486 75.6939 59.4044 75.6458 59.2416C75.5976 59.0788 75.6008 58.9052 75.6548 58.7442C75.7087 58.5833 75.811 58.4426 75.9477 58.3413L87.9177 49.4319C87.7991 49.2735 87.7412 49.0781 87.7543 48.8809C87.7674 48.6837 87.8508 48.4977 87.9893 48.3562L88.351 47.9861L87.4977 48.4841C87.3268 48.5829 87.1262 48.6179 86.9317 48.5831C86.7372 48.5482 86.5615 48.4456 86.4359 48.2936C86.3103 48.1416 86.2431 47.9501 86.2462 47.7533C86.2492 47.5565 86.3224 47.3672 86.4527 47.2191L87.4793 46.0571L85.6977 47.0813C85.5306 47.1772 85.3354 47.2124 85.1452 47.181C84.955 47.1495 84.7816 47.0534 84.6546 46.9089C84.5276 46.7644 84.4549 46.5805 84.4487 46.3885C84.4426 46.1966 84.5035 46.0085 84.621 45.8562L86.0527 44.012L83.5844 45.4296C83.4168 45.5261 83.2208 45.5614 83.0299 45.5297C82.8391 45.4979 82.6653 45.401 82.5383 45.2555C82.4114 45.11 82.3393 44.9251 82.3343 44.7324C82.3293 44.5397 82.3918 44.3513 82.511 44.1995L83.9093 42.4216L81.506 43.8028C81.3405 43.8973 81.1475 43.9325 80.9591 43.9023C80.7707 43.8721 80.5984 43.7785 80.471 43.637C80.3437 43.4956 80.2688 43.3148 80.2591 43.1251C80.2494 42.9353 80.3054 42.7479 80.4177 42.5943L81.9627 40.4894L79.256 42.0432C79.0814 42.1377 78.8786 42.1669 78.6842 42.1256C78.4899 42.0843 78.3167 41.9752 78.196 41.8179C78.0753 41.6606 78.015 41.4656 78.026 41.2679C78.037 41.0703 78.1186 40.8831 78.256 40.74L78.4877 40.5093L77.8043 40.9011C77.6316 41.0008 77.4286 41.0355 77.2323 40.9988C77.0361 40.962 76.8596 40.8563 76.735 40.7008C76.6104 40.5454 76.546 40.3505 76.5536 40.1518C76.5611 39.953 76.64 39.7635 76.776 39.6179L77.516 38.8244L76.151 39.6062C75.9786 39.7049 75.7765 39.7388 75.5811 39.7021C75.3858 39.6653 75.2101 39.5601 75.0857 39.4056C74.9614 39.2511 74.8966 39.0574 74.9031 38.8595C74.9096 38.6616 74.9868 38.4725 75.121 38.3264L75.891 37.4963L74.4844 38.3031C74.3186 38.3974 74.1253 38.4321 73.9369 38.4014C73.7485 38.3708 73.5764 38.2766 73.4493 38.1347C73.3223 37.9928 73.248 37.8117 73.2389 37.6218C73.2298 37.4319 73.2864 37.2446 73.3993 37.0913L74.9193 35.0462L72.2677 36.5701C72.0981 36.6682 71.8991 36.7037 71.7058 36.6701C71.5126 36.6366 71.3374 36.5362 71.2111 36.3866C71.0849 36.2371 71.0156 36.0479 71.0156 35.8525C71.0156 35.6571 71.0848 35.468 71.211 35.3184L72.4044 33.9007L70.361 35.076C70.1997 35.1674 70.0124 35.2026 69.8288 35.176C69.6452 35.1493 69.4757 35.0624 69.3473 34.929C69.2189 34.7956 69.1389 34.6233 69.1199 34.4394C69.101 34.2555 69.1442 34.0706 69.2427 33.914L70.9477 31.2214L68.281 32.7586C68.1169 32.8538 67.925 32.8902 67.7372 32.8619C67.5494 32.8336 67.377 32.7422 67.2484 32.603C67.1199 32.4637 67.043 32.2849 67.0304 32.0961C67.0179 31.9074 67.0704 31.72 67.1793 31.5651L68.1927 30.1225C68.0378 30.1364 67.8822 30.1046 67.7453 30.0311C67.6084 29.9576 67.4962 29.8456 67.4227 29.7092C67.3126 29.5189 67.2827 29.2929 67.3395 29.0807C67.3964 28.8685 67.5354 28.6874 67.726 28.577L70.481 26.9834C70.645 26.8898 70.836 26.8545 71.0228 26.8833C71.2096 26.9121 71.381 27.0032 71.5089 27.1418C71.6368 27.2804 71.7136 27.4582 71.7267 27.646C71.7398 27.8338 71.6884 28.0204 71.581 28.1753L70.6877 29.4502L73.0743 28.0774C73.2356 27.986 73.4229 27.9508 73.6066 27.9774C73.7902 28.0041 73.9596 28.091 74.088 28.2244C74.2164 28.3578 74.2965 28.5301 74.3154 28.714C74.3344 28.8978 74.2912 29.0827 74.1927 29.2394L72.4827 31.8954L75.6493 30.0793C75.819 29.9812 76.0179 29.9457 76.2112 29.9793C76.4045 30.0128 76.5796 30.1132 76.7059 30.2628C76.8322 30.4124 76.9014 30.6015 76.9014 30.7969C76.9014 30.9923 76.8322 31.1814 76.706 31.331L75.511 32.7503L77.5593 31.5734C77.7253 31.4784 77.919 31.4432 78.108 31.4737C78.2969 31.5043 78.4696 31.5986 78.5969 31.741C78.7242 31.8834 78.7984 32.0651 78.807 32.2555C78.8157 32.446 78.7582 32.6336 78.6443 32.7869L77.1143 34.8436L79.7644 33.3197C79.9368 33.2211 80.1389 33.1871 80.3342 33.2239C80.5296 33.2607 80.7053 33.3658 80.8296 33.5204C80.954 33.6749 81.0187 33.8686 81.0123 34.0665C81.0058 34.2644 80.9285 34.4535 80.7943 34.5996L80.0243 35.4296L81.431 34.6228C81.6038 34.5231 81.8068 34.4884 82.003 34.5251C82.1993 34.5619 82.3758 34.6676 82.5004 34.8231C82.6249 34.9785 82.6893 35.1734 82.6818 35.3721C82.6743 35.5709 82.5953 35.7604 82.4594 35.906L81.721 36.6995L83.0844 35.916C83.2594 35.8142 83.4656 35.7795 83.6645 35.8182C83.8634 35.857 84.0413 35.9666 84.1649 36.1265C84.2885 36.2865 84.3493 36.4858 84.3361 36.6872C84.3228 36.8886 84.2362 37.0783 84.0927 37.2208L83.8594 37.4532L84.5443 37.0598C84.7097 36.9659 84.9023 36.9313 85.0901 36.9616C85.2779 36.9919 85.4497 37.0853 85.5769 37.2263C85.704 37.3673 85.7789 37.5474 85.7891 37.7366C85.7992 37.9259 85.744 38.1129 85.6327 38.2666L84.0877 40.3732L86.7943 38.8177C86.962 38.7214 87.1582 38.6862 87.3491 38.7182C87.54 38.7502 87.7137 38.8474 87.8405 38.9931C87.9673 39.1389 88.0391 39.324 88.0438 39.5167C88.0485 39.7095 87.9856 39.8979 87.866 40.0495L86.4677 41.8274L88.8727 40.4462C89.0397 40.3513 89.2346 40.3168 89.4242 40.3486C89.6139 40.3805 89.7866 40.4766 89.9132 40.6209C90.0398 40.7651 90.1123 40.9485 90.1186 41.14C90.1249 41.3314 90.0645 41.5192 89.9477 41.6713L88.5177 43.5173L90.9843 42.0979C91.1553 41.9991 91.3559 41.9641 91.5504 41.999C91.7449 42.0338 91.9206 42.1364 92.0461 42.2884C92.1717 42.4404 92.2389 42.6319 92.2359 42.8287C92.2328 43.0255 92.1596 43.2149 92.0293 43.3629L91.0043 44.5249L92.7843 43.5023C92.9586 43.4022 93.1634 43.3682 93.3609 43.4067C93.5583 43.4452 93.7352 43.5536 93.8587 43.7118C93.9822 43.87 94.044 44.0674 94.0328 44.2675C94.0216 44.4676 93.9381 44.6569 93.7977 44.8005L93.4343 45.1707L94.2893 44.6726C94.4732 44.5693 94.6896 44.5392 94.8948 44.5886C95.1 44.638 95.2787 44.7631 95.3949 44.9386C95.5111 45.1142 95.556 45.3272 95.5207 45.5345C95.4853 45.7418 95.3722 45.928 95.2043 46.0554L88.221 51.253L96.4593 46.5169C96.6466 46.4108 96.8679 46.3811 97.0768 46.434C97.2856 46.4869 97.4657 46.6183 97.5794 46.8007C97.693 46.983 97.7313 47.2021 97.6863 47.412C97.6412 47.6219 97.5163 47.8062 97.3377 47.9263L90.1927 52.659L97.131 48.675C97.3187 48.5735 97.5384 48.5477 97.7447 48.6028C97.9509 48.658 98.1281 48.79 98.2395 48.9714C98.3509 49.1529 98.3881 49.3701 98.3434 49.5781C98.2988 49.7861 98.1756 49.9691 97.9993 50.0893L94.2393 52.5179C94.3903 52.5084 94.5412 52.538 94.6773 52.6037C94.8133 52.6694 94.93 52.7691 95.016 52.8931C95.1324 53.0713 95.1757 53.2873 95.137 53.4964C95.0982 53.7055 94.9803 53.8918 94.8077 54.0169L77.6977 66.4373L77.7277 66.4887C77.8383 66.6792 77.8685 66.9055 77.8116 67.1181C77.7548 67.3307 77.6155 67.5122 77.4243 67.6225L70.811 71.4256C70.6846 71.4992 70.5407 71.5376 70.3943 71.5369Z" fill="#25E572"/>
<path d="M27.6677 71.585C27.5146 71.5836 27.3649 71.5403 27.2349 71.4598C27.1049 71.3793 26.9997 71.2646 26.9308 71.1284C26.8619 70.9923 26.8321 70.8398 26.8444 70.6879C26.8568 70.5359 26.911 70.3903 27.001 70.2669L27.7777 69.2012L25.5977 70.4545C25.4382 70.5536 25.2497 70.5961 25.0629 70.575C24.8761 70.5539 24.7019 70.4706 24.5687 70.3384C24.4355 70.2063 24.351 70.0332 24.329 69.8473C24.3071 69.6613 24.3489 69.4734 24.4477 69.3141L26.206 66.2829L22.781 68.26C22.6119 68.3574 22.4138 68.3925 22.2213 68.3592C22.0288 68.3259 21.8542 68.2263 21.728 68.0778C21.6017 67.9293 21.5318 67.7414 21.5306 67.5468C21.5293 67.3522 21.5967 67.1634 21.721 67.0133L22.9627 65.5193L20.836 66.741C20.6748 66.8317 20.4878 66.8662 20.3046 66.8393C20.1214 66.8123 19.9525 66.7253 19.8245 66.5921C19.6964 66.4589 19.6166 66.2869 19.5976 66.1035C19.5785 65.9201 19.6214 65.7355 19.7193 65.579L21.421 62.9545L18.2893 64.7556C18.1143 64.8525 17.91 64.8834 17.714 64.8426C17.518 64.8018 17.3433 64.692 17.2218 64.5334C17.1004 64.3747 17.0404 64.1779 17.0528 63.9788C17.0652 63.7797 17.1492 63.5917 17.2893 63.4492L17.426 63.3131L16.8627 63.6451C16.6984 63.7392 16.5068 63.7747 16.3195 63.7458C16.1323 63.7169 15.9605 63.6252 15.8325 63.486C15.7046 63.3467 15.6281 63.1682 15.6157 62.9799C15.6033 62.7915 15.6557 62.6046 15.7643 62.4499L17.3793 60.1507L14.5077 61.8008C14.3463 61.8954 14.1577 61.9331 13.9722 61.9078C13.7867 61.8825 13.6151 61.7958 13.4852 61.6616C13.3552 61.5274 13.2744 61.3534 13.2558 61.1679C13.2373 60.9823 13.2819 60.796 13.3827 60.6388L15.1143 57.8383L11.8627 59.7092C11.69 59.8067 11.488 59.8396 11.2931 59.8019C11.0982 59.7643 10.9232 59.6586 10.7996 59.5039C10.676 59.3491 10.6119 59.1555 10.6189 58.9579C10.6259 58.7603 10.7035 58.5717 10.8377 58.426L11.5243 57.6922L10.231 58.4343C10.0682 58.5277 9.87852 58.5635 9.69269 58.5361C9.50686 58.5086 9.33581 58.4194 9.20728 58.2829C9.07875 58.1464 9.00029 57.9707 8.98463 57.7842C8.96898 57.5978 9.01703 57.4115 9.12101 57.2556L10.7877 54.7656L7.75435 56.5103C7.58108 56.6101 7.37752 56.6445 7.18089 56.6072C6.98426 56.5698 6.80769 56.4632 6.68349 56.3069C6.55928 56.1505 6.49572 55.9549 6.50445 55.7557C6.51318 55.5565 6.5936 55.3671 6.73101 55.2221L7.35768 54.5581L6.14935 55.252C5.97543 55.3508 5.7716 55.384 5.57515 55.3454C5.37871 55.3068 5.20278 55.1991 5.07955 55.0419C4.95633 54.8847 4.89405 54.6885 4.90411 54.4893C4.91417 54.2902 4.9959 54.1013 5.13435 53.9572L5.59268 53.4841L4.61435 54.0418C4.4315 54.1458 4.21593 54.1769 4.01096 54.129C3.80599 54.0811 3.62682 53.9578 3.50945 53.7837C3.39209 53.6096 3.34523 53.3977 3.37829 53.1906C3.41135 52.9835 3.52189 52.7966 3.68768 52.6673L8.48935 48.9638L2.53601 52.3901C2.34873 52.4916 2.12951 52.5178 1.92347 52.4632C1.71742 52.4086 1.54022 52.2774 1.42833 52.0966C1.31645 51.9158 1.27838 51.6992 1.32197 51.4913C1.36557 51.2835 1.4875 51.1001 1.66268 50.9791L3.96935 49.4701L1.55768 50.8546C1.37205 50.957 1.15419 50.985 0.948551 50.9328C0.742909 50.8807 0.564969 50.7525 0.451021 50.5742C0.337073 50.3959 0.295701 50.181 0.335341 49.9734C0.374981 49.7658 0.492649 49.581 0.664346 49.4568L14.331 39.9432L6.18101 44.6278C5.99718 44.7312 5.7808 44.7613 5.57559 44.7119C5.37038 44.6625 5.19163 44.5374 5.07546 44.3618C4.95928 44.1863 4.91434 43.9733 4.94971 43.766C4.98508 43.5587 5.09813 43.3725 5.26601 43.245L22.6643 30.3035C22.6085 30.1236 22.6157 29.9302 22.6847 29.7549C22.7538 29.5796 22.8806 29.433 23.0443 29.339L27.146 26.9834C27.3298 26.88 27.5462 26.85 27.7514 26.8993C27.9566 26.9487 28.1354 27.0738 28.2516 27.2494C28.3677 27.425 28.4127 27.6379 28.3773 27.8452C28.3419 28.0525 28.2289 28.2387 28.061 28.3662L17.596 36.1484L30.1827 28.9107C30.3687 28.8044 30.5887 28.7736 30.797 28.8247C31.0052 28.8758 31.1856 29.005 31.3007 29.1852C31.4158 29.3655 31.4566 29.583 31.4148 29.7925C31.3729 30.002 31.2516 30.1874 31.076 30.3101L17.4093 39.8237L28.2427 33.5986C28.4304 33.4923 28.6523 33.4627 28.8615 33.5162C29.0707 33.5696 29.2509 33.7018 29.3641 33.885C29.4774 34.0681 29.5148 34.2879 29.4685 34.4981C29.4222 34.7082 29.2958 34.8922 29.116 35.0113L19.2527 41.4622C19.323 41.5159 19.3839 41.581 19.4327 41.6547C19.5504 41.8294 19.5972 42.0421 19.5634 42.2498C19.5297 42.4575 19.418 42.6447 19.251 42.7736L10.9177 49.2029C10.9443 49.2311 10.971 49.261 10.996 49.2908C11.1195 49.4486 11.1816 49.6456 11.1709 49.8454C11.1602 50.0451 11.0773 50.2344 10.9377 50.3782L10.4793 50.8529L11.461 50.2885C11.6341 50.1898 11.8369 50.1563 12.0327 50.1939C12.2285 50.2315 12.4043 50.3378 12.5281 50.4935C12.652 50.6491 12.7157 50.8439 12.7076 51.0423C12.6996 51.2408 12.6204 51.4298 12.4843 51.575L11.8577 52.239L13.066 51.5452C13.2286 51.4524 13.4179 51.4169 13.6033 51.4445C13.7886 51.4721 13.9592 51.5611 14.0876 51.6971C14.2159 51.8332 14.2944 52.0083 14.3105 52.1943C14.3265 52.3803 14.2791 52.5662 14.176 52.7221L12.5093 55.2205L15.5427 53.4774C15.7154 53.3799 15.9174 53.347 16.1123 53.3847C16.3072 53.4223 16.4822 53.528 16.6058 53.6827C16.7294 53.8375 16.7934 54.0311 16.7865 54.2287C16.7795 54.4263 16.7019 54.6149 16.5677 54.7606L15.8827 55.4927L17.1727 54.7523C17.334 54.6586 17.5223 54.6215 17.7073 54.6471C17.8924 54.6727 18.0634 54.7595 18.1929 54.8935C18.3225 55.0276 18.4031 55.2011 18.4218 55.3862C18.4405 55.5713 18.3962 55.7573 18.296 55.9143L16.5443 58.6899L19.8027 56.8174C19.967 56.7224 20.1589 56.6862 20.3467 56.7148C20.5345 56.7434 20.7069 56.835 20.8352 56.9744C20.9636 57.1139 21.0403 57.2929 21.0525 57.4817C21.0648 57.6705 21.0119 57.8578 20.9027 58.0126L19.281 60.3184L22.1543 58.6683C22.3294 58.5714 22.5336 58.5406 22.7297 58.5814C22.9257 58.6222 23.1004 58.732 23.2219 58.8906C23.3433 59.0492 23.4033 59.2461 23.3909 59.4452C23.3785 59.6443 23.2945 59.8323 23.1543 59.9748L23.0193 60.1076L23.5793 59.7855C23.7406 59.6949 23.9276 59.6603 24.1108 59.6873C24.2939 59.7143 24.4629 59.8013 24.5909 59.9345C24.7189 60.0677 24.7988 60.2396 24.8178 60.4231C24.8368 60.6065 24.794 60.791 24.696 60.9475L22.9927 63.5737L26.1243 61.7726C26.2935 61.6752 26.4916 61.6401 26.6841 61.6734C26.8765 61.7066 27.0512 61.8062 27.1774 61.9547C27.3037 62.1032 27.3735 62.2912 27.3748 62.4857C27.3761 62.6803 27.3087 62.8691 27.1843 63.0193L25.9427 64.5133L28.0693 63.2915C28.227 63.1998 28.4108 63.163 28.5919 63.1867C28.7729 63.2104 28.9409 63.2934 29.0693 63.4226C29.1976 63.5515 29.2799 63.7187 29.3037 63.8986C29.3274 64.0784 29.2914 64.2611 29.201 64.4187L27.441 67.4499L30.3177 65.7898C30.483 65.6951 30.676 65.6598 30.8644 65.6897C31.0527 65.7197 31.2251 65.813 31.3526 65.9543C31.4802 66.0955 31.5553 66.2761 31.5653 66.4658C31.5753 66.6555 31.5197 66.8429 31.4077 66.9967L30.441 68.3247C30.6209 68.3329 30.7932 68.3989 30.9323 68.5128C31.0713 68.6267 31.1696 68.7824 31.2124 68.9566C31.2552 69.1308 31.2402 69.3141 31.1696 69.4791C31.0991 69.6441 30.9768 69.7819 30.821 69.8718L28.0693 71.4539C27.9493 71.5319 27.8108 71.5771 27.6677 71.585Z" fill="#25E572"/>
<path d="M41.6693 76.4256C41.5082 76.4256 41.3505 76.379 41.2154 76.2915C41.0803 76.204 40.9735 76.0793 40.9081 75.9326C40.8427 75.7859 40.8213 75.6235 40.8467 75.465C40.8721 75.3065 40.943 75.1587 41.051 75.0395L42.551 73.3795L40.156 74.7556C39.9819 74.8545 39.7779 74.8876 39.5813 74.8488C39.3847 74.81 39.2087 74.702 39.0856 74.5445C38.9625 74.387 38.9005 74.1906 38.911 73.9912C38.9215 73.7919 39.0037 73.603 39.1427 73.4592L43.2277 69.2709L40.2393 70.9874C40.0607 71.0822 39.8534 71.109 39.6564 71.0628C39.4593 71.0166 39.2859 70.9005 39.1685 70.7361C39.0511 70.5718 38.9977 70.3706 39.0185 70.17C39.0392 69.9694 39.1325 69.7831 39.281 69.6461L42.4743 66.7975L41.256 67.498C41.0803 67.5989 40.8737 67.6326 40.6749 67.5926C40.4761 67.5527 40.2987 67.4419 40.1761 67.281C40.0534 67.1201 39.9938 66.9202 40.0086 66.7188C40.0233 66.5173 40.1113 66.3281 40.256 66.1866L45.0193 61.5385L42.5577 62.9529C42.3803 63.05 42.1735 63.0796 41.9759 63.036C41.7783 62.9925 41.6033 62.8788 41.4837 62.7161C41.3641 62.5535 41.308 62.353 41.3259 62.1522C41.3438 61.9514 41.4345 61.7639 41.581 61.6248L45.011 58.5239L43.5877 59.3423C43.4101 59.4517 43.1978 59.4907 42.9927 59.4516C42.7876 59.4125 42.6047 59.2982 42.4802 59.1312C42.3558 58.9642 42.2988 58.7568 42.3205 58.55C42.3423 58.3431 42.4412 58.1519 42.5977 58.0143L46.811 54.0435L44.7693 55.2171C44.5931 55.3229 44.3837 55.3599 44.1817 55.321C43.9796 55.2822 43.7991 55.1703 43.675 55.0069C43.5508 54.8434 43.4918 54.64 43.5092 54.4358C43.5266 54.2315 43.6193 54.041 43.7693 53.9007L48.306 49.5598L46.0177 50.8745C45.8401 50.9839 45.6278 51.0229 45.4227 50.9838C45.2176 50.9447 45.0347 50.8304 44.9102 50.6634C44.7858 50.4964 44.7288 50.289 44.7505 50.0822C44.7723 49.8753 44.8712 49.6842 45.0277 49.5465L49.2377 45.5823L47.1977 46.7543C47.0201 46.8585 46.8101 46.8935 46.6082 46.8526C46.4063 46.8116 46.2267 46.6975 46.1043 46.5324C45.9819 46.3673 45.9252 46.1629 45.9452 45.9586C45.9652 45.7543 46.0605 45.5647 46.2127 45.4263L50.1243 41.8041L48.3193 42.8416C48.1434 42.944 47.936 42.9787 47.7361 42.9391C47.5363 42.8995 47.358 42.7884 47.2349 42.6267C47.1117 42.465 47.0523 42.264 47.0679 42.0617C47.0835 41.8593 47.1729 41.6697 47.3193 41.5286L52.001 36.9884L49.601 38.3679C49.4207 38.4722 49.2076 38.5055 49.0039 38.461C48.8002 38.4165 48.6206 38.2975 48.5006 38.1276C48.3807 37.9576 48.3291 37.7491 48.356 37.5431C48.3829 37.3371 48.4864 37.1486 48.646 37.0149L50.5377 35.4246L50.4277 35.4861C50.2483 35.5885 50.0372 35.6208 49.8352 35.5768C49.6333 35.5329 49.455 35.4157 49.3349 35.2481C49.2148 35.0805 49.1616 34.8744 49.1855 34.6699C49.2094 34.4654 49.3088 34.2771 49.4643 34.1414L52.0193 31.9303L51.3343 32.322C51.1599 32.421 50.9555 32.454 50.7586 32.4148C50.5617 32.3757 50.3856 32.267 50.2628 32.1089C50.1399 31.9508 50.0785 31.7538 50.0898 31.5541C50.1011 31.3545 50.1844 31.1656 50.3243 31.0222L53.6143 27.6989L52.486 28.3479C52.3186 28.4445 52.1227 28.4801 51.9319 28.4485C51.7411 28.417 51.5672 28.3203 51.4401 28.1751C51.313 28.0299 51.2406 27.8451 51.2353 27.6525C51.23 27.4599 51.2921 27.2715 51.411 27.1195L52.9727 25.1275C52.8083 25.0922 52.6586 25.0082 52.543 24.8866C52.4275 24.765 52.3515 24.6114 52.3252 24.4461C52.2989 24.2807 52.3234 24.1113 52.3955 23.96C52.4677 23.8088 52.584 23.6828 52.7293 23.5986L55.4893 22.0116C55.6569 21.9152 55.8529 21.8798 56.0438 21.9116C56.2346 21.9433 56.4084 22.0403 56.5354 22.1858C56.6623 22.3312 56.7344 22.5162 56.7394 22.7088C56.7444 22.9015 56.6819 23.0899 56.5627 23.2417L55.3577 24.7805L58.0777 23.2168C58.2521 23.1166 58.4571 23.0827 58.6548 23.1214C58.8524 23.1601 59.0292 23.2687 59.1526 23.4273C59.276 23.5858 59.3376 23.7835 59.326 23.9837C59.3143 24.184 59.2303 24.3733 59.0893 24.5166L55.806 27.8466L58.6893 26.1866C58.8687 26.0842 59.0798 26.0518 59.2818 26.0958C59.4837 26.1398 59.6621 26.2569 59.7821 26.4245C59.9022 26.5921 59.9555 26.7982 59.9315 27.0027C59.9076 27.2072 59.8082 27.3956 59.6527 27.5312L57.0993 29.7424L57.7827 29.3489C57.963 29.2446 58.1761 29.2113 58.3798 29.2558C58.5835 29.3003 58.7631 29.4193 58.8831 29.5892C59.003 29.7592 59.0546 29.9677 59.0277 30.1737C59.0008 30.3797 58.8973 30.5682 58.7377 30.7019L56.8493 32.2922L56.9543 32.2324C57.1301 32.1315 57.3368 32.0979 57.5356 32.138C57.7344 32.178 57.9117 32.2889 58.0343 32.4499C58.1569 32.6112 58.2161 32.8116 58.2007 33.0134C58.1854 33.2151 58.0966 33.4044 57.951 33.5455L53.2627 38.089L55.6643 36.7078C55.8419 36.6036 56.0519 36.5686 56.2538 36.6096C56.4557 36.6506 56.6353 36.7646 56.7577 36.9297C56.8802 37.0948 56.9369 37.2992 56.9168 37.5035C56.8968 37.7078 56.8015 37.8975 56.6493 38.0359L52.7377 41.6564L54.5427 40.6189C54.7203 40.5095 54.9326 40.4704 55.1377 40.5095C55.3428 40.5486 55.5256 40.663 55.6501 40.8299C55.7746 40.9969 55.8316 41.2044 55.8098 41.4112C55.7881 41.618 55.6892 41.8092 55.5327 41.9469L51.3243 45.9077L53.3627 44.7357C53.539 44.63 53.7483 44.593 53.9504 44.6318C54.1524 44.6706 54.3329 44.7826 54.4571 44.946C54.5812 45.1094 54.6403 45.3129 54.6228 45.5171C54.6054 45.7213 54.5127 45.9119 54.3627 46.0521L49.8327 50.4031L52.1177 49.09C52.2953 48.9806 52.5076 48.9416 52.7127 48.9806C52.9178 49.0197 53.1006 49.1341 53.2251 49.3011C53.3496 49.468 53.4066 49.6755 53.3848 49.8823C53.3631 50.0892 53.2642 50.2803 53.1077 50.418L48.8893 54.3738L50.9327 53.1985C51.11 53.1014 51.3168 53.0718 51.5145 53.1153C51.7121 53.1589 51.887 53.2726 52.0067 53.4353C52.1263 53.5979 52.1824 53.7984 52.1645 53.9992C52.1465 54.2 52.0559 54.3875 51.9093 54.5266L48.471 57.6325L49.8943 56.8141C50.07 56.7132 50.2766 56.6795 50.4755 56.7195C50.6743 56.7594 50.8516 56.8702 50.9743 57.0311C51.097 57.1919 51.1565 57.3918 51.1418 57.5933C51.1271 57.7948 51.0391 57.984 50.8943 58.1255L46.131 62.7736L48.591 61.3609C48.7682 61.2662 48.9739 61.2385 49.17 61.283C49.3662 61.3274 49.5395 61.4411 49.6581 61.6029C49.7767 61.7647 49.8325 61.9638 49.8153 62.1634C49.7981 62.363 49.7089 62.5496 49.5643 62.6889L46.3677 65.5392L47.591 64.837C47.7651 64.7369 47.9697 64.7029 48.167 64.7412C48.3643 64.7795 48.5411 64.8876 48.6647 65.0455C48.7883 65.2034 48.8505 65.4005 48.8397 65.6004C48.8289 65.8004 48.7459 65.9897 48.606 66.1335L44.5243 70.3201L46.3143 69.2908C46.4861 69.1933 46.687 69.1597 46.8813 69.1961C47.0756 69.2325 47.2505 69.3365 47.3749 69.4895C47.4993 69.6425 47.5651 69.8346 47.5604 70.0315C47.5557 70.2283 47.4809 70.4171 47.3493 70.5641L45.7043 72.3752C45.8681 72.3547 46.0343 72.3825 46.1824 72.4551C46.3305 72.5277 46.454 72.6418 46.5377 72.7835C46.6482 72.9742 46.6781 73.2007 46.6209 73.4134C46.5637 73.626 46.4241 73.8073 46.2327 73.9173L42.086 76.3011C41.9609 76.3792 41.8169 76.4222 41.6693 76.4256Z" fill="#25E572"/>
<path d="M6.66601 56.6464C11.0177 60.081 15.4177 63.4376 19.741 66.912C17.2227 111.53 24.826 94.8287 62.381 97.9197C86.0477 101.306 77.3994 81.5634 78.8227 66.3493C104.509 45.9691 104.764 51.8921 78.8227 31.5767C81.3527 -13.088 73.7294 3.74303 36.1343 0.618857C12.5993 -2.7178 21.0793 16.8722 19.7393 32.0249C16.0827 36.663 -4.43899 46.155 0.872679 52.078C2.71339 53.7112 4.64776 55.2366 6.66601 56.6464ZM92.9577 45.2603C95.0877 46.9203 98.2444 49.2261 95.1577 52.0249C88.086 57.7188 80.7627 63.1819 73.6777 68.8343C71.0744 72.498 66.8227 67.4548 70.011 64.744C72.456 62.8035 74.9427 60.9011 77.396 58.9638C78.1377 58.992 78.936 58.5604 78.8477 57.8267C82.4294 54.7888 86.876 52.0033 90.0327 48.8293C83.376 42.8001 74.6027 38.3513 68.951 31.5418C67.6727 20.9824 89.1827 43.9157 92.9577 45.2603ZM80.011 43.5737C82.511 45.5807 85.1294 47.5046 87.6044 49.5216C84.4944 51.4887 81.8277 54.1929 78.841 56.3493V42.669C79.231 42.9711 79.6227 43.2699 80.011 43.5737ZM58.3694 7.27556C52.4094 5.88778 37.3877 11.5916 38.8093 1.55345H59.7444C59.781 3.12716 60.2427 6.67297 58.3694 7.27556ZM22.1543 10.0329C20.846 0.266932 29.3327 1.23473 36.4044 1.55345C35.446 7.33533 39.0593 8.99037 44.271 8.17862C50.2994 7.36023 63.4477 11.5452 62.1627 1.55179C82.0427 -2.41069 75.416 17.3669 76.411 29.7125C72.9394 24.6643 62.5044 28.7895 68.0777 34.2344C70.801 36.4655 73.5944 38.6169 76.3877 40.7699C76.4177 46.59 76.326 52.4382 76.4194 58.2467C73.6727 60.4263 70.856 62.5262 68.131 64.7324C62.6077 71.3493 72.386 73.0491 76.4077 68.3629C74.691 79.6328 83.016 100.627 64.0477 96.8174C28.381 93.7663 19.491 109.766 22.151 68.9821C25.8677 74.0402 35.9044 69.7025 30.5577 64.2377C27.8094 61.995 24.9493 59.8851 22.1727 57.6773V40.3317C25.1527 36.8589 33.7894 34.4967 31.6627 28.919C29.2293 24.9548 24.681 28.0392 22.1627 30.1341L22.1543 10.0329ZM11.091 49.0037L19.7227 42.2556V55.7666L11.091 49.0037ZM3.86435 46.2165C11.411 40.335 18.9627 34.3655 26.4927 28.5073C35.5343 29.7341 23.7643 37.3337 20.9627 39.51C20.3527 39.5681 19.7427 39.9233 19.7277 40.4778C16.2543 43.6152 11.281 46.2646 8.54935 49.676C11.371 53.4309 35.5743 66.4422 28.1377 70.1657C22.3577 67.4914 17.8893 62.1643 12.5777 58.6135C9.73101 55.169 -1.68899 51.3277 3.86435 46.2165Z" fill="#262626"/>
<path d="M41.961 76.6182C50.1277 77.8284 55.401 38.0209 59.461 30.0013C63.251 23.2135 55.0843 18.0159 51.5193 25.1873C51.161 33.0027 31.476 77.5943 41.961 76.6182ZM41.6143 68.0525C44.281 64.2626 53.006 13.7928 58.006 25.6554C54.831 39.7656 49.9893 53.6799 46.2493 67.7205C45.7493 69.4585 45.181 74.5515 42.841 74.905C39.1727 74.4851 40.986 70.2238 41.6143 68.0525Z" fill="#262626"/>
<path d="M37.176 91.5269C45.296 90.9193 54.4577 92.7404 62.091 90.8231C63.6327 89.2045 31.0177 89.0966 37.176 91.5269Z" fill="#262626"/>
</g>
</g>
</svg>
