<svg width="100" height="100" viewBox="0 0 100 100" fill="none" xmlns="http://www.w3.org/2000/svg">
<g id="web-development 3">
<path id="Vector" d="M30.6384 87.5C30.4668 87.5003 30.2993 87.4477 30.1587 87.3492C30.0182 87.2508 29.9114 87.1114 29.8531 86.95C29.7947 86.7886 29.7876 86.6132 29.8327 86.4476C29.8778 86.2821 29.9729 86.1345 30.105 86.025L34.5534 82.3333L30.4667 84.6916C30.2925 84.791 30.0882 84.8241 29.8915 84.785C29.6948 84.7459 29.5187 84.6371 29.3957 84.4786C29.2728 84.3202 29.211 84.1227 29.2219 83.9224C29.2328 83.7221 29.3156 83.5325 29.455 83.3883L32.3067 80.48L30.4734 81.5416C30.3345 81.6218 30.1754 81.6601 30.0153 81.6521C29.8551 81.6441 29.7007 81.5901 29.5705 81.4965C29.4403 81.4029 29.3398 81.2737 29.2812 81.1244C29.2226 80.9752 29.2083 80.8122 29.24 80.655L29.7834 77.9883C29.5936 77.9233 29.4341 77.7911 29.335 77.6166C29.2245 77.4252 29.1946 77.1978 29.2518 76.9843C29.309 76.7708 29.4487 76.5888 29.64 76.4783L30.4734 75.9966C30.6124 75.9168 30.7714 75.8788 30.9315 75.8871C31.0916 75.8954 31.2458 75.9497 31.3758 76.0434C31.5058 76.1372 31.606 76.2664 31.6644 76.4157C31.7228 76.565 31.7369 76.7279 31.705 76.885L31.2384 79.1766L36.7584 75.99C36.9326 75.8906 37.1369 75.8575 37.3336 75.8966C37.5303 75.9357 37.7064 76.0445 37.8293 76.203C37.9523 76.3614 38.014 76.5589 38.0032 76.7592C37.9923 76.9595 37.9095 77.1491 37.77 77.2933L34.9167 80.205L42.23 75.9833C42.4107 75.8794 42.6238 75.847 42.8272 75.8925C43.0306 75.9379 43.2096 76.058 43.3289 76.2289C43.4481 76.3999 43.499 76.6093 43.4714 76.8159C43.4439 77.0225 43.3399 77.2113 43.18 77.345L38.7334 81.03L47.5 75.9733C47.6776 75.8702 47.8869 75.8363 48.0879 75.878C48.2889 75.9197 48.4674 76.0341 48.5892 76.1993C48.7111 76.3645 48.7676 76.5689 48.7481 76.7732C48.7286 76.9776 48.6343 77.1675 48.4834 77.3066L43.15 82.2716L54.0717 75.9666C54.2513 75.8618 54.4636 75.8278 54.6669 75.8715C54.8702 75.9152 55.0499 76.0333 55.1706 76.2026C55.2913 76.3719 55.3443 76.5803 55.3192 76.7867C55.2941 76.9932 55.1928 77.1828 55.035 77.3183L50.1517 81.5366L59.8184 75.96C60.0002 75.8567 60.2142 75.8256 60.4179 75.8728C60.6216 75.92 60.8001 76.042 60.918 76.2147C61.036 76.3874 61.0846 76.5981 61.0545 76.805C61.0243 77.0119 60.9174 77.1999 60.755 77.3316L56.91 80.4066L64.6234 75.9533C64.807 75.8503 65.0228 75.8205 65.2274 75.8701C65.432 75.9197 65.6103 76.0448 65.7264 76.2205C65.8425 76.3961 65.8878 76.6092 65.8532 76.8168C65.8187 77.0245 65.7068 77.2114 65.5401 77.34L63.1667 79.1216L68.6667 75.9466C68.8493 75.8393 69.0658 75.8055 69.2724 75.8521C69.4789 75.8986 69.66 76.0221 69.7788 76.1974C69.8977 76.3726 69.9453 76.5866 69.9121 76.7957C69.8789 77.0048 69.7673 77.1935 69.6 77.3233L66.0817 80.0883L69.5451 78.0883C69.7188 77.9879 69.923 77.9536 70.12 77.9917C70.317 78.0298 70.4937 78.1377 70.6176 78.2956C70.7414 78.4535 70.8041 78.6508 70.7942 78.8512C70.7842 79.0517 70.7023 79.2418 70.5634 79.3866L67.12 82.9783L69.5617 81.5683C69.7215 81.4757 69.9074 81.4388 70.0904 81.4633C70.2734 81.4879 70.4431 81.5725 70.5728 81.7039C70.7025 81.8353 70.7848 82.0061 70.807 82.1894C70.8291 82.3727 70.7897 82.5581 70.695 82.7166L69.735 84.3333C69.9296 84.2752 70.1386 84.2902 70.3229 84.3754C70.5072 84.4606 70.6541 84.6101 70.7359 84.7959C70.8178 84.9817 70.829 85.191 70.7675 85.3844C70.7059 85.5779 70.5759 85.7423 70.4017 85.8466L67.8167 87.3466C67.6572 87.4379 67.4719 87.4739 67.2897 87.449C67.1076 87.424 66.9388 87.3396 66.8097 87.2087C66.6806 87.0779 66.5983 86.908 66.5758 86.7255C66.5532 86.5431 66.5916 86.3583 66.6851 86.2L67.6267 84.615L62.88 87.3533C62.7065 87.4524 62.503 87.4859 62.3069 87.4475C62.1107 87.4092 61.9348 87.3016 61.8114 87.1444C61.6879 86.9872 61.6251 86.7908 61.6343 86.5912C61.6435 86.3915 61.7243 86.2018 61.8617 86.0566L65.305 82.4666L56.8334 87.355C56.6511 87.4594 56.4362 87.4911 56.2315 87.4438C56.0268 87.3966 55.8476 87.2737 55.7296 87.0999C55.6116 86.9261 55.5637 86.7142 55.5953 86.5065C55.6269 86.2989 55.7357 86.1108 55.9 85.98L59.4184 83.2133L52.2334 87.36C52.0497 87.4652 51.8329 87.4966 51.6269 87.4478C51.4209 87.3989 51.2412 87.2735 51.1243 87.097C51.0074 86.9205 50.9621 86.7062 50.9975 86.4975C51.0329 86.2888 51.1465 86.1013 51.315 85.9733L53.68 84.19L48.18 87.3566C47.9982 87.4599 47.7842 87.491 47.5805 87.4438C47.3768 87.3966 47.1983 87.2746 47.0804 87.1019C46.9625 86.9292 46.9138 86.7185 46.944 86.5116C46.9742 86.3047 47.081 86.1167 47.2434 85.985L51.09 82.91L43.3734 87.3633C43.1938 87.4665 42.9823 87.4991 42.7801 87.4548C42.5778 87.4106 42.3992 87.2926 42.2792 87.1239C42.1592 86.9551 42.1062 86.7478 42.1307 86.5422C42.1552 86.3365 42.2554 86.1474 42.4117 86.0116L47.2934 81.7933L37.635 87.37C37.4575 87.4746 37.2475 87.5097 37.0456 87.4686C36.8436 87.4275 36.6641 87.313 36.5417 87.1472C36.4192 86.9814 36.3625 86.7762 36.3825 86.5711C36.4026 86.366 36.4979 86.1756 36.65 86.0366L41.9834 81.0716L31.0617 87.3783C30.9343 87.4565 30.7879 87.4986 30.6384 87.5Z" fill="#AFB5BF"/>
<path id="Vector_2" d="M26.9351 99.1183C26.7581 99.1181 26.5857 99.0616 26.443 98.9568C26.3003 98.8521 26.1947 98.7047 26.1414 98.5359C26.0881 98.3671 26.0899 98.1858 26.1466 98.0181C26.2033 97.8504 26.3119 97.7051 26.4567 97.6033L29.7251 95.3133L23.3334 99C23.1501 99.1059 22.9334 99.138 22.7272 99.0899C22.5211 99.0419 22.341 98.9171 22.2234 98.741C22.1059 98.565 22.0598 98.3508 22.0945 98.142C22.1291 97.9331 22.242 97.7453 22.4101 97.6167L29.4317 92.26L19.0684 98.2433C18.8866 98.3466 18.6726 98.3777 18.4689 98.3305C18.2652 98.2833 18.0866 98.1613 17.9687 97.9886C17.8508 97.8159 17.8021 97.6052 17.8323 97.3983C17.8625 97.1914 17.9694 97.0034 18.1317 96.8717L25.0684 91.345L18.8034 94.96C18.6196 95.0638 18.4032 95.094 18.198 95.0444C17.9928 94.9948 17.814 94.8692 17.6978 94.6929C17.5817 94.5167 17.5367 94.3029 17.5721 94.0947C17.6075 93.8866 17.7205 93.6997 17.8884 93.5717L18.8667 92.8433C18.6714 92.9158 18.4559 92.9125 18.2629 92.834C18.0699 92.7555 17.9133 92.6075 17.8239 92.4193C17.7346 92.231 17.7191 92.0161 17.7804 91.8169C17.8417 91.6178 17.9753 91.4488 18.1551 91.3433L30.3067 84.3333C30.4909 84.2262 30.7091 84.1936 30.9165 84.2424C31.1239 84.2911 31.3047 84.4175 31.4219 84.5954C31.539 84.7734 31.5836 84.9894 31.5463 85.1992C31.5091 85.409 31.3929 85.5965 31.2217 85.7233L30.3217 86.39L33.8917 84.3333C34.0735 84.2301 34.2875 84.199 34.4912 84.2462C34.6949 84.2933 34.8735 84.4154 34.9914 84.5881C35.1093 84.7607 35.158 84.9714 35.1278 85.1783C35.0976 85.3852 34.9907 85.5732 34.8284 85.705L27.8884 91.2333L39.8451 84.3333C40.0283 84.2297 40.2439 84.1992 40.4487 84.248C40.6535 84.2968 40.8322 84.4214 40.9489 84.5966C41.0657 84.7717 41.1118 84.9846 41.078 85.1924C41.0442 85.4002 40.933 85.5875 40.7667 85.7167L33.7484 91.0667L45.4151 84.3267C45.6008 84.2213 45.8199 84.1912 46.0272 84.2427C46.2345 84.2942 46.414 84.4233 46.5289 84.6034C46.6437 84.7834 46.685 85.0007 46.6443 85.2104C46.6036 85.42 46.4839 85.606 46.3101 85.73L43.0351 88.0217L49.4467 84.3333C49.6309 84.2262 49.8491 84.1936 50.0565 84.2424C50.2639 84.2911 50.4447 84.4175 50.5619 84.5954C50.679 84.7734 50.7236 84.9894 50.6863 85.1992C50.6491 85.409 50.5329 85.5965 50.3617 85.7233L44.0501 90.415L54.6001 84.3333C54.7832 84.2316 54.9979 84.2027 55.2015 84.2522C55.405 84.3017 55.5824 84.426 55.6984 84.6004C55.8145 84.7749 55.8605 84.9866 55.8274 85.1934C55.7944 85.4003 55.6846 85.5871 55.5201 85.7167L48.5201 91.06L60.1667 84.3333C60.3505 84.2295 60.5669 84.1994 60.7721 84.2489C60.9774 84.2985 61.1561 84.4241 61.2723 84.6004C61.3885 84.7767 61.4334 84.9905 61.398 85.1986C61.3627 85.4067 61.2496 85.5937 61.0817 85.7217L54.6317 90.5433L65.3934 84.3317C65.5783 84.2255 65.7969 84.1943 66.0042 84.2445C66.2114 84.2946 66.3916 84.4223 66.5075 84.6013C66.6235 84.7802 66.6664 84.9968 66.6275 85.2065C66.5886 85.4161 66.4708 85.6029 66.2984 85.7283L61.2267 89.395L69.7751 84.46C69.9603 84.3568 70.1779 84.3282 70.3835 84.3798C70.5892 84.4314 70.7674 84.5595 70.8819 84.738C70.9964 84.9164 71.0386 85.1318 70.9998 85.3403C70.9611 85.5488 70.8444 85.7346 70.6734 85.86L66.6501 88.7067L71.9134 85.6667C72.0985 85.5621 72.3165 85.5322 72.523 85.5831C72.7294 85.634 72.9085 85.7619 73.0238 85.9406C73.139 86.1192 73.1815 86.3352 73.1427 86.5442C73.1039 86.7533 72.9867 86.9396 72.8151 87.065L69.9601 89.115L73.9351 86.82C74.119 86.7139 74.3365 86.6819 74.5431 86.7307C74.7498 86.7795 74.93 86.9054 75.047 87.0826C75.164 87.2598 75.209 87.475 75.1727 87.6842C75.1364 87.8934 75.0216 88.0809 74.8517 88.2083L71.6851 90.585L76.0867 88.0433C76.263 87.9372 76.4723 87.9 76.6744 87.939C76.8764 87.978 77.0569 88.0904 77.1811 88.2545C77.3053 88.4186 77.3643 88.6228 77.3469 88.8278C77.3295 89.0329 77.2368 89.2242 77.0867 89.365L72.1201 94.1533L79.4167 89.94C79.5977 89.8387 79.81 89.8085 80.012 89.8554C80.2141 89.9022 80.3914 90.0227 80.5093 90.1934C80.6273 90.364 80.6773 90.5725 80.6497 90.7781C80.6221 90.9836 80.5188 91.1715 80.3601 91.305L79.0017 92.4167L81.0017 91.265C81.1776 91.1622 81.3851 91.1274 81.5849 91.1671C81.7847 91.2069 81.9631 91.3185 82.0862 91.4808C82.2093 91.6431 82.2687 91.845 82.2532 92.0481C82.2376 92.2513 82.1481 92.4417 82.0017 92.5833L80.3351 94.2083L81.2251 93.695C81.3812 93.6051 81.5623 93.5683 81.7412 93.5901C81.9201 93.6118 82.0871 93.6909 82.2172 93.8156C82.3473 93.9402 82.4335 94.1037 82.4629 94.2815C82.4922 94.4593 82.4632 94.6418 82.3801 94.8017L81.5617 96.37C81.74 96.3828 81.9094 96.4525 82.045 96.569C82.1805 96.6854 82.2751 96.8423 82.3147 97.0166C82.3543 97.1908 82.3368 97.3732 82.2649 97.5368C82.1929 97.7003 82.0703 97.8364 81.915 97.925L80.0167 99C79.8604 99.091 79.6786 99.1287 79.499 99.1073C79.3194 99.0859 79.1516 99.0067 79.0209 98.8815C78.8903 98.7563 78.804 98.5921 78.7749 98.4135C78.7459 98.2349 78.7758 98.0518 78.8601 97.8917L79.5534 96.5583L75.3334 99C75.1575 99.1028 74.95 99.1376 74.7502 99.0979C74.5504 99.0581 74.372 98.9465 74.2489 98.7842C74.1258 98.6219 74.0664 98.42 74.0819 98.2169C74.0975 98.0137 74.187 97.8233 74.3334 97.6817L76 96.06L70.9117 99C70.7307 99.103 70.5176 99.1345 70.3145 99.0883C70.1114 99.042 69.933 98.9214 69.8144 98.7501C69.6958 98.5788 69.6457 98.3693 69.6739 98.1629C69.7021 97.9565 69.8065 97.7682 69.9667 97.635L71.3201 96.53L67.0367 99C66.8604 99.1061 66.6511 99.1433 66.449 99.1043C66.247 99.0653 66.0665 98.953 65.9423 98.7889C65.8182 98.6248 65.7591 98.4205 65.7766 98.2155C65.794 98.0105 65.8867 97.8191 66.0367 97.6783L71.0051 92.89L60.4284 99C60.2445 99.1061 60.027 99.1381 59.8203 99.0893C59.6137 99.0405 59.4334 98.9146 59.3164 98.7374C59.1994 98.5602 59.1545 98.345 59.1908 98.1358C59.2271 97.9266 59.3419 97.7391 59.5117 97.6117L62.6917 95.2317L56.1667 99C55.9816 99.1046 55.7636 99.1345 55.5571 99.0836C55.3507 99.0327 55.1716 98.9048 55.0564 98.7261C54.9411 98.5474 54.8986 98.3315 54.9374 98.1224C54.9762 97.9134 55.0934 97.7271 55.2651 97.6017L58.1267 95.55L52.1417 99C51.9565 99.1032 51.7389 99.1318 51.5332 99.0802C51.3276 99.0286 51.1494 98.9005 51.0349 98.722C50.9204 98.5436 50.8782 98.3282 50.9169 98.1197C50.9557 97.9113 51.0724 97.7254 51.2434 97.6L55.2651 94.7433L47.8901 99C47.7051 99.1061 47.4865 99.1373 47.2793 99.0872C47.072 99.037 46.8919 98.9093 46.7759 98.7304C46.66 98.5514 46.617 98.3348 46.6559 98.1252C46.6948 97.9155 46.8126 97.7288 46.9851 97.6033L52.0584 93.9367L43.2934 99C43.1096 99.1038 42.8932 99.134 42.688 99.0844C42.4828 99.0348 42.304 98.9092 42.1878 98.7329C42.0717 98.5567 42.0267 98.3429 42.0621 98.1347C42.0975 97.9266 42.2105 97.7397 42.3784 97.6117L48.8334 92.7933L38.0667 99C37.8835 99.1037 37.6678 99.1342 37.463 99.0853C37.2583 99.0365 37.0796 98.912 36.9628 98.7368C36.8461 98.5616 36.8 98.3487 36.8338 98.1409C36.8676 97.9331 36.9788 97.7458 37.1451 97.6167L44.1451 92.2833L32.5001 99C32.316 99.1046 32.099 99.1353 31.8931 99.0857C31.6873 99.0362 31.508 98.9101 31.3918 98.7332C31.2755 98.5562 31.2309 98.3416 31.2671 98.133C31.3034 97.9244 31.4176 97.7374 31.5867 97.61L37.9001 92.91L27.3501 99C27.2249 99.076 27.0815 99.1169 26.9351 99.1183Z" fill="#CCD0DA"/>
<path id="Vector_3" d="M55.9999 99.1183C55.8281 99.1187 55.6603 99.066 55.5196 98.9674C55.3789 98.8687 55.2721 98.729 55.2139 98.5673C55.1557 98.4056 55.1489 98.2299 55.1944 98.0642C55.2399 97.8985 55.3356 97.7509 55.4682 97.6417L55.7766 97.3883L52.9733 99.005C52.7993 99.1042 52.5955 99.1375 52.3991 99.0988C52.2026 99.06 52.0267 98.9518 51.9035 98.794C51.7802 98.6362 51.718 98.4393 51.728 98.2393C51.7381 98.0393 51.8198 97.8497 51.9582 97.705L54.1999 95.3817L47.9316 99C47.7572 99.0994 47.5527 99.1325 47.3558 99.0932C47.1589 99.0538 46.9829 98.9448 46.86 98.786C46.7371 98.6272 46.6757 98.4294 46.687 98.229C46.6983 98.0286 46.7816 97.8389 46.9216 97.695L49.0882 95.4917L43.0099 98.9917C42.8399 99.0926 42.6392 99.1289 42.4445 99.094C42.2499 99.0591 42.0743 98.9553 41.9499 98.8017C41.8246 98.6499 41.7571 98.4588 41.7592 98.262C41.7614 98.0653 41.833 97.8756 41.9616 97.7267L44.4249 94.8767L37.2966 99C37.1289 99.0958 36.9332 99.1303 36.7429 99.0978C36.5525 99.0653 36.3794 98.9677 36.2531 98.8217C36.1267 98.6756 36.055 98.4903 36.0502 98.2972C36.0453 98.1042 36.1077 97.9155 36.2266 97.7633L38.7266 94.5967L31.0866 99C30.9091 99.1031 30.6998 99.137 30.4988 99.0953C30.2978 99.0536 30.1192 98.9392 29.9974 98.774C29.8756 98.6088 29.819 98.4044 29.8385 98.2001C29.8581 97.9957 29.9523 97.8058 30.1032 97.6667L31.8016 96.085L26.7549 99C26.5743 99.1021 26.362 99.1332 26.1597 99.0871C25.9573 99.0411 25.7795 98.9212 25.6609 98.7509C25.5423 98.5806 25.4915 98.3722 25.5184 98.1664C25.5454 97.9606 25.6481 97.7723 25.8066 97.6383L26.1116 97.3867L23.3132 99C23.1412 99.0979 22.9399 99.1314 22.7454 99.0944C22.551 99.0575 22.376 98.9525 22.2519 98.7983C22.1277 98.6441 22.0626 98.4507 22.068 98.2528C22.0735 98.055 22.1492 97.8655 22.2816 97.7183L24.6532 95.1217L19.1299 98.31C18.9525 98.4102 18.7445 98.4419 18.5452 98.3992C18.346 98.3564 18.1693 98.2421 18.0486 98.0779C17.9279 97.9137 17.8716 97.711 17.8903 97.5081C17.9089 97.3051 18.0013 97.1161 18.1499 96.9767L18.9616 96.2317L18.7949 96.325C18.6508 96.4082 18.4851 96.4463 18.3192 96.4345C18.1532 96.4227 17.9946 96.3615 17.8637 96.2588C17.7328 96.1561 17.6357 96.0165 17.5848 95.8581C17.534 95.6997 17.5317 95.5297 17.5782 95.37L18.2449 93.1017C18.0906 93.0531 17.9537 92.9607 17.851 92.8357C17.7483 92.7107 17.6842 92.5585 17.6665 92.3977C17.6489 92.2369 17.6784 92.0744 17.7515 91.9301C17.8246 91.7858 17.9381 91.6659 18.0782 91.585L19.1066 90.9917C19.2507 90.9085 19.4164 90.8703 19.5823 90.8821C19.7483 90.8939 19.9069 90.9551 20.0378 91.0578C20.1686 91.1606 20.2658 91.3001 20.3167 91.4585C20.3675 91.6169 20.3698 91.7869 20.3232 91.9467L19.7682 93.8433L24.7099 91C24.8874 90.8998 25.0954 90.868 25.2946 90.9108C25.4939 90.9536 25.6705 91.0679 25.7912 91.2321C25.9119 91.3963 25.9682 91.599 25.9496 91.8019C25.9309 92.0048 25.8385 92.1939 25.6899 92.3333L24.8782 93.0783L28.4866 90.9967C28.6586 90.8987 28.8599 90.8653 29.0544 90.9022C29.2489 90.9392 29.4238 91.0442 29.548 91.1984C29.6721 91.3526 29.7373 91.5459 29.7318 91.7438C29.7264 91.9417 29.6507 92.1312 29.5182 92.2783L27.1466 94.875L33.8716 90.9933C34.0522 90.8912 34.2645 90.8601 34.4668 90.9062C34.6691 90.9523 34.847 91.0722 34.9656 91.2425C35.0842 91.4127 35.135 91.6212 35.1081 91.8269C35.0811 92.0327 34.9784 92.221 34.8199 92.355L34.5132 92.6083L37.3166 90.9917C37.4941 90.8886 37.7034 90.8546 37.9044 90.8963C38.1054 90.938 38.2839 91.0525 38.4058 91.2177C38.5276 91.3829 38.5842 91.5872 38.5646 91.7916C38.5451 91.9959 38.4508 92.1859 38.2999 92.325L36.6016 93.9067L41.6532 90.9917C41.8209 90.8959 42.0166 90.8613 42.207 90.8938C42.3973 90.9264 42.5704 91.024 42.6968 91.17C42.8231 91.316 42.8948 91.5014 42.8997 91.6944C42.9045 91.8875 42.8421 92.0762 42.7233 92.2283L40.2233 95.395L47.8699 90.9817C48.0405 90.8824 48.2408 90.8469 48.4351 90.8815C48.6295 90.9161 48.8052 91.0185 48.931 91.1706C49.0569 91.3226 49.1247 91.5144 49.1223 91.7118C49.12 91.9092 49.0477 92.0993 48.9182 92.2483L46.4549 95.0983L53.5916 90.9783C53.766 90.8777 53.971 90.8437 54.1687 90.8825C54.3663 90.9214 54.5431 91.0305 54.6665 91.1896C54.7899 91.3488 54.8515 91.5473 54.8399 91.7483C54.8282 91.9494 54.7442 92.1394 54.6033 92.2833L52.4366 94.485L58.5166 90.975C58.6905 90.8746 58.8949 90.8403 59.0921 90.8786C59.2892 90.9169 59.466 91.0251 59.5897 91.1833C59.7134 91.3415 59.7758 91.5391 59.7655 91.7397C59.7551 91.9403 59.6726 92.1304 59.5333 92.275L57.2899 94.5967L63.5699 90.9717C63.7508 90.8691 63.9634 90.8378 64.1661 90.884C64.3689 90.9302 64.547 91.0504 64.6656 91.2212C64.7841 91.392 64.8346 91.6009 64.807 91.807C64.7795 92.0131 64.6759 92.2014 64.5166 92.335L64.2083 92.59L67.0149 90.97C67.1888 90.8708 67.3927 90.8375 67.5891 90.8762C67.7856 90.915 67.9615 91.0231 68.0847 91.181C68.2079 91.3388 68.2702 91.5357 68.2602 91.7357C68.2501 91.9357 68.1684 92.1253 68.0299 92.27L65.7899 94.5867L72.0499 90.9667C72.2275 90.8568 72.4398 90.8176 72.6449 90.8569C72.85 90.8961 73.0329 91.011 73.1574 91.1786C73.2818 91.3462 73.3388 91.5545 73.3171 91.7622C73.2953 91.9698 73.1964 92.1618 73.0399 92.3L71.2066 94.0283L76.5049 90.97C76.6843 90.8655 76.8962 90.8318 77.0992 90.8753C77.3022 90.9189 77.4816 91.0366 77.6023 91.2055C77.723 91.3744 77.7763 91.5822 77.7519 91.7884C77.7274 91.9945 77.6268 92.1841 77.4699 92.32L76.3466 93.3033L80.3883 90.97C80.5576 90.8724 80.756 90.8374 80.9485 90.8712C81.1411 90.9051 81.3156 91.0055 81.4416 91.155C81.5667 91.3049 81.6353 91.4939 81.6353 91.6892C81.6353 91.8844 81.5667 92.0735 81.4416 92.2233L78.9333 95.25L81.1899 93.9483C81.3475 93.856 81.5314 93.8188 81.7125 93.8427C81.8936 93.8665 82.0616 93.95 82.1899 94.08C82.3201 94.21 82.4036 94.3794 82.4274 94.5617C82.4512 94.7441 82.414 94.9293 82.3216 95.0883L81.6016 96.3317C81.7724 96.3578 81.9309 96.4365 82.0551 96.5567C82.1793 96.6769 82.263 96.8328 82.2946 97.0027C82.3263 97.1726 82.3044 97.3481 82.2319 97.505C82.1594 97.6619 82.0399 97.7924 81.8899 97.8783L79.9199 99.0133C79.7609 99.1056 79.5758 99.1426 79.3936 99.1187C79.2113 99.0948 79.0421 99.0114 78.9122 98.8813C78.7823 98.7512 78.699 98.5818 78.6754 98.3995C78.6518 98.2172 78.6891 98.0322 78.7816 97.8733L79.3182 96.95L75.7599 99C75.5906 99.0977 75.3924 99.1328 75.1999 99.0991C75.0073 99.0655 74.8327 98.9652 74.7066 98.8159C74.5805 98.6666 74.5109 98.4777 74.51 98.2822C74.5091 98.0867 74.5769 97.8972 74.7016 97.7467L77.2099 94.7217L69.7949 99C69.6158 99.1025 69.405 99.1348 69.2033 99.0908C69.0017 99.0468 68.8236 98.9295 68.7035 98.7617C68.5833 98.5938 68.5298 98.3874 68.5531 98.1823C68.5765 97.9773 68.6751 97.7882 68.8299 97.6517L69.9516 96.6733L65.9149 99.0067C65.7373 99.1165 65.525 99.1557 65.3199 99.1164C65.1148 99.0772 64.932 98.9624 64.8075 98.7947C64.683 98.6271 64.626 98.4188 64.6477 98.2111C64.6695 98.0035 64.7684 97.8115 64.9249 97.6733L66.7583 95.9433L61.4583 99C61.2843 99.0992 61.0805 99.1325 60.8841 99.0938C60.6876 99.055 60.5117 98.9468 60.3885 98.789C60.2652 98.6312 60.203 98.4343 60.213 98.2343C60.2231 98.0343 60.3048 97.8447 60.4432 97.7L62.6833 95.385L56.4232 99C56.2953 99.0766 56.1491 99.1175 55.9999 99.1183Z" fill="#AFB5BF"/>
<path id="Vector_4" d="M22.9817 79.1184C22.8023 79.1186 22.6275 79.0609 22.4835 78.9538C22.3395 78.8468 22.2339 78.6961 22.1824 78.5242C22.1309 78.3523 22.1363 78.1683 22.1977 77.9997C22.2591 77.8311 22.3734 77.6868 22.5234 77.5884L24.0017 76.615L19.8601 79C19.6744 79.1028 19.4566 79.1309 19.2509 79.0786C19.0453 79.0263 18.8674 78.8975 18.7534 78.7185C18.6395 78.5395 18.5981 78.3238 18.6377 78.1153C18.6774 77.9069 18.795 77.7214 18.9667 77.5967L26.5884 72.2917L14.9667 79C14.7808 79.1039 14.5622 79.1327 14.3558 79.0804C14.1494 79.0282 13.9707 78.8989 13.8566 78.7191C13.7425 78.5393 13.7016 78.3226 13.7422 78.1136C13.7828 77.9046 13.9019 77.719 14.0751 77.595L21.3201 72.5784L11.3817 78.32C11.1945 78.4219 10.9752 78.4482 10.7692 78.3934C10.5631 78.3386 10.3859 78.2068 10.2741 78.0254C10.1622 77.8439 10.1241 77.6264 10.1677 77.4177C10.2113 77.209 10.3332 77.0249 10.5084 76.9034L10.5517 76.8734L10.0017 77.19C9.81515 77.2949 9.59535 77.3241 9.38789 77.2713C9.18043 77.2186 9.00123 77.088 8.88743 76.9067C8.77363 76.7254 8.73397 76.5072 8.77666 76.2975C8.81935 76.0877 8.94112 75.9024 9.11673 75.78L11.7917 73.9667L9.09673 75.5217C8.91351 75.6254 8.69784 75.6559 8.49306 75.607C8.28828 75.5582 8.10957 75.4337 7.99284 75.2585C7.87611 75.0833 7.83002 74.8704 7.86382 74.6626C7.89763 74.4548 8.00882 74.2675 8.17507 74.1384L14.9484 68.9834L8.79673 72.5334C8.61194 72.6412 8.39277 72.6738 8.1846 72.6244C7.97643 72.5751 7.79521 72.4475 7.67848 72.2683C7.56174 72.089 7.51843 71.8717 7.55751 71.6613C7.59658 71.451 7.71506 71.2637 7.8884 71.1384L9.12007 70.2417L8.78673 70.4284C8.60929 70.5286 8.40129 70.5603 8.20204 70.5175C8.00279 70.4748 7.82612 70.3605 7.70543 70.1963C7.58475 70.0321 7.52841 69.8294 7.54707 69.6264C7.56574 69.4235 7.65811 69.2345 7.80673 69.095L10.9517 66.2L8.78506 67.4517C8.61578 67.5494 8.41754 67.5845 8.22501 67.5508C8.03247 67.5172 7.85789 67.4169 7.73179 67.2676C7.60569 67.1183 7.53609 66.9293 7.53517 66.7339C7.53424 66.5384 7.60205 66.3489 7.72673 66.1984L9.98507 63.4717C9.88905 63.3833 9.81513 63.2737 9.76925 63.1515C9.72338 63.0294 9.70683 62.8981 9.72093 62.7684C9.73504 62.6387 9.77941 62.5141 9.85047 62.4047C9.92154 62.2952 10.0173 62.204 10.1301 62.1384L12.1051 61C12.2743 60.9023 12.4726 60.8672 12.6651 60.9009C12.8577 60.9345 13.0322 61.0348 13.1583 61.1841C13.2844 61.3335 13.354 61.5224 13.355 61.7178C13.3559 61.9133 13.2881 62.1028 13.1634 62.2534L11.9717 63.6917L16.6384 60.9984C16.8159 60.8967 17.0245 60.8639 17.2246 60.9062C17.4247 60.9484 17.6023 61.0628 17.7236 61.2275C17.8448 61.3921 17.9013 61.5957 17.8822 61.7993C17.8631 62.0029 17.7698 62.1924 17.6201 62.3317L14.4751 65.225L21.8084 60.9917C21.9932 60.8839 22.2124 60.8513 22.4205 60.9006C22.6287 60.95 22.8099 61.0775 22.9267 61.2568C23.0434 61.4361 23.0867 61.6534 23.0476 61.8637C23.0085 62.0741 22.8901 62.2613 22.7167 62.3867L21.4784 63.29L25.4584 61C25.6416 60.8963 25.8573 60.8659 26.0621 60.9147C26.2669 60.9635 26.4456 61.088 26.5623 61.2632C26.679 61.4384 26.7251 61.6513 26.6913 61.8591C26.6575 62.0669 26.5463 62.2542 26.3801 62.3834L19.6084 67.5384L30.9417 60.9984C31.1283 60.8934 31.3481 60.8643 31.5556 60.9171C31.763 60.9698 31.9422 61.1004 32.056 61.2817C32.1698 61.463 32.2095 61.6811 32.1668 61.8909C32.1241 62.1007 32.0023 62.286 31.8267 62.4084L29.1501 64.2234L34.7417 60.9967C34.929 60.8948 35.1482 60.8685 35.3543 60.9233C35.5603 60.9782 35.7375 61.1099 35.8494 61.2914C35.9613 61.4729 35.9994 61.6903 35.9558 61.8991C35.9122 62.1078 35.7902 62.2918 35.6151 62.4134L35.5867 62.4334L38.0867 60.995C38.273 60.8866 38.4941 60.8546 38.7035 60.9057C38.9129 60.9568 39.0943 61.0871 39.2097 61.2691C39.3251 61.4512 39.3655 61.6709 39.3223 61.882C39.2792 62.0932 39.1559 62.2795 38.9784 62.4017L31.7334 67.4167L42.8617 60.9934C43.0477 60.8866 43.2678 60.8557 43.476 60.907C43.6842 60.9584 43.8647 61.088 43.9797 61.269C44.0948 61.45 44.1357 61.6684 44.0938 61.8787C44.052 62.0891 43.9307 62.2752 43.7551 62.3984L36.1317 67.7017L47.7567 60.9917C47.9442 60.8869 48.1648 60.8584 48.3727 60.9123C48.5806 60.9663 48.7597 61.0984 48.8725 61.2811C48.9854 61.4638 49.0233 61.683 48.9785 61.8931C48.9336 62.1031 48.8094 62.2877 48.6317 62.4084L47.1601 63.3767L51.2984 60.99C51.4846 60.8849 51.704 60.8554 51.9113 60.9075C52.1187 60.9596 52.298 61.0895 52.4123 61.2701C52.5267 61.4508 52.5672 61.6685 52.5255 61.8781C52.4838 62.0878 52.3631 62.2735 52.1884 62.3967L45.1017 67.2934L56.0001 60.98C56.187 60.8659 56.4113 60.8299 56.6245 60.8799C56.8377 60.9298 57.0227 61.0617 57.1395 61.247C57.2562 61.4323 57.2953 61.6561 57.2483 61.87C57.2013 62.0839 57.072 62.2707 56.8884 62.39L50.7217 66.61L60.4767 60.9784C60.6614 60.8733 60.8793 60.8428 61.0857 60.893C61.2922 60.9432 61.4717 61.0704 61.5875 61.2486C61.7033 61.4267 61.7466 61.6424 61.7087 61.8515C61.6708 62.0605 61.5544 62.2472 61.3834 62.3734L51.3167 69.7067L66.4384 60.9767C66.6236 60.8693 66.843 60.8373 67.0512 60.8874C67.2593 60.9374 67.4402 61.0656 67.5564 61.2454C67.6725 61.4252 67.715 61.6429 67.6751 61.8532C67.6351 62.0635 67.5158 62.2503 67.3417 62.375L57.7851 69.2534L72.1184 60.975C72.3046 60.8645 72.5264 60.8307 72.737 60.8809C72.9476 60.9311 73.1304 61.0612 73.2467 61.2438C73.363 61.4264 73.4037 61.6471 73.3602 61.8592C73.3166 62.0713 73.1923 62.258 73.0134 62.38L65.2351 67.805L77.0684 60.9717C77.2553 60.8652 77.4761 60.8351 77.6846 60.8876C77.8932 60.9402 78.0734 61.0713 78.1875 61.2537C78.3015 61.436 78.3407 61.6554 78.2968 61.8659C78.2529 62.0765 78.1292 62.2619 77.9517 62.3834L72.8384 65.8417L81.2751 60.9717C81.4628 60.865 81.6847 60.8353 81.8939 60.8889C82.1031 60.9425 82.2833 61.0753 82.3965 61.2592C82.5098 61.4431 82.5472 61.6638 82.5009 61.8747C82.4546 62.0857 82.3282 62.2704 82.1484 62.39L81.4634 62.8384L84.7001 60.97C84.8877 60.8612 85.1103 60.8299 85.3207 60.8826C85.531 60.9353 85.7126 61.068 85.8267 61.2524C85.9408 61.4369 85.9785 61.6585 85.9319 61.8703C85.8852 62.0821 85.7578 62.2673 85.5767 62.3867L83.6901 63.6317L88.3034 60.965C88.4893 60.8565 88.7099 60.824 88.9192 60.8745C89.1284 60.925 89.31 61.0545 89.4259 61.2359C89.5418 61.4173 89.5831 61.6365 89.541 61.8476C89.4988 62.0587 89.3767 62.2453 89.2001 62.3684L80.7684 68.305L90.4234 62.7334C90.6063 62.629 90.8218 62.5977 91.0268 62.6458C91.2318 62.6939 91.4109 62.8178 91.5283 62.9926C91.6457 63.1673 91.6925 63.3801 91.6595 63.588C91.6264 63.7959 91.5159 63.9836 91.3501 64.1134L82.0001 71.3334L91.1967 66.0234C91.3797 65.9204 91.5949 65.8903 91.7991 65.9391C92.0033 65.9879 92.1816 66.112 92.2983 66.2866C92.415 66.4612 92.4614 66.6734 92.4284 66.8807C92.3953 67.0881 92.2852 67.2753 92.1201 67.405L87.1817 71.195L91.1984 68.875C91.3749 68.767 91.5852 68.7285 91.7885 68.7671C91.9918 68.8056 92.1735 68.9183 92.2982 69.0834C92.423 69.2485 92.4818 69.4541 92.4634 69.6601C92.4449 69.8662 92.3505 70.0581 92.1984 70.1984L88.1034 74.1167L91.2017 72.3334C91.3715 72.2349 91.5706 72.1994 91.7639 72.2334C91.9573 72.2673 92.1324 72.3683 92.2585 72.5187C92.3847 72.6692 92.4536 72.8593 92.4533 73.0556C92.453 73.2518 92.3834 73.4417 92.2567 73.5917L90.6667 75.4767C90.8363 75.5044 90.993 75.5839 91.1157 75.7042C91.2383 75.8244 91.3207 75.9797 91.3518 76.1486C91.3828 76.3175 91.3608 76.4919 91.2889 76.6479C91.217 76.8039 91.0987 76.9339 90.9501 77.02L87.7434 78.8717C87.5736 78.9702 87.3745 79.0056 87.1812 78.9717C86.9879 78.9378 86.8127 78.8367 86.6866 78.6863C86.5605 78.5359 86.4915 78.3458 86.4919 78.1495C86.4922 77.9532 86.5618 77.7633 86.6884 77.6134L87.9251 76.1467L82.9717 79C82.7954 79.1006 82.5883 79.1333 82.3896 79.092C82.1908 79.0507 82.0139 78.9383 81.8922 78.7758C81.7704 78.6133 81.7122 78.412 81.7283 78.2096C81.7445 78.0072 81.834 77.8177 81.9801 77.6767L86.0701 73.755L76.9817 79C76.7987 79.103 76.5836 79.1331 76.3794 79.0843C76.1751 79.0355 75.9968 78.9114 75.8802 78.7368C75.7635 78.5622 75.717 78.35 75.7501 78.1427C75.7831 77.9353 75.8932 77.748 76.0584 77.6184L81.0001 73.8334L72.0417 79C71.8589 79.1044 71.6433 79.1357 71.4384 79.0876C71.2334 79.0395 71.0542 78.9156 70.9368 78.7408C70.8195 78.566 70.7726 78.3533 70.8057 78.1454C70.8387 77.9375 70.9493 77.7498 71.1151 77.62L80.4651 70.4067L65.5784 79C65.3929 79.1042 65.1746 79.1335 64.9682 79.082C64.7618 79.0304 64.5829 78.9018 64.4683 78.7226C64.3536 78.5433 64.3118 78.327 64.3515 78.118C64.3912 77.909 64.5094 77.7231 64.6817 77.5984L73.1084 71.6667L60.3984 79C60.2114 79.1007 59.993 79.1262 59.7878 79.0713C59.5827 79.0164 59.4062 78.8852 59.2945 78.7046C59.1828 78.524 59.1443 78.3075 59.1868 78.0994C59.2294 77.8913 59.3498 77.7073 59.5234 77.585L61.4084 76.3417L56.7984 79C56.6111 79.1019 56.3919 79.1282 56.1859 79.0734C55.9798 79.0186 55.8026 78.8868 55.6907 78.7053C55.5788 78.5238 55.5408 78.3064 55.5844 78.0977C55.628 77.889 55.7499 77.7049 55.9251 77.5834L56.6101 77.1334L53.3717 79C53.1853 79.1022 52.9668 79.1293 52.7611 79.0757C52.5553 79.0221 52.3778 78.8919 52.2649 78.7117C52.1521 78.5315 52.1123 78.315 52.1539 78.1065C52.1954 77.898 52.3151 77.7132 52.4884 77.59L57.5884 74.14L49.1667 79C48.9811 79.1028 48.7632 79.1309 48.5576 79.0786C48.352 79.0263 48.174 78.8975 48.0601 78.7185C47.9461 78.5395 47.9048 78.3238 47.9444 78.1153C47.984 77.9069 48.1017 77.7214 48.2734 77.5967L56.0634 72.1667L44.2301 79C44.0449 79.1074 43.8255 79.1394 43.6173 79.0894C43.4092 79.0393 43.2283 78.9111 43.1121 78.7313C42.9959 78.5515 42.9534 78.3339 42.9934 78.1235C43.0334 77.9132 43.1527 77.7264 43.3267 77.6017L52.8867 70.725L38.5534 79C38.3687 79.1051 38.1509 79.1356 37.9444 79.0854C37.7379 79.0352 37.5584 78.908 37.4427 78.7298C37.3269 78.5516 37.2835 78.336 37.3214 78.1269C37.3594 77.9178 37.4757 77.7311 37.6467 77.605L47.7117 70.2717L32.5851 79C32.3988 79.1036 32.1798 79.1319 31.9733 79.079C31.7668 79.0261 31.5884 78.8961 31.4748 78.7157C31.3613 78.5353 31.3211 78.3183 31.3627 78.1092C31.4043 77.9001 31.5244 77.7149 31.6984 77.5917L37.8751 73.3684L28.1201 79C27.9343 79.1015 27.7169 79.1284 27.5119 79.0754C27.307 79.0224 27.13 78.8934 27.0167 78.7146C26.9034 78.5358 26.8624 78.3205 26.9021 78.1126C26.9417 77.9047 27.059 77.7196 27.2301 77.595L34.3167 72.6967L23.3984 79C23.2724 79.0755 23.1286 79.1163 22.9817 79.1184Z" fill="#CCD0DA"/>
<path id="Vector_5" d="M8.50011 65.8333C8.31786 65.8339 8.14045 65.7747 7.99506 65.6648C7.84967 65.5549 7.74432 65.4003 7.69515 65.2248C7.64598 65.0493 7.6557 64.8626 7.72282 64.6931C7.78995 64.5237 7.91077 64.3809 8.06678 64.2867L24.8901 54.0867L8.80011 63.375C8.61056 63.4781 8.3884 63.5036 8.1804 63.4463C7.97239 63.3889 7.79475 63.2531 7.68485 63.0674C7.57495 62.8817 7.54136 62.6606 7.59114 62.4507C7.64093 62.2407 7.7702 62.0583 7.95178 61.9417L21.8051 53.5583L8.80011 61.0667C8.61048 61.1803 8.38349 61.2139 8.16907 61.1601C7.95466 61.1064 7.77038 60.9696 7.65678 60.78C7.54318 60.5904 7.50956 60.3634 7.56332 60.149C7.61708 59.9346 7.75382 59.7503 7.94344 59.6367L45.2484 36.4783L8.80011 57.5217C8.61026 57.6351 8.38315 57.6684 8.16873 57.6143C7.95431 57.5602 7.77016 57.4232 7.65678 57.2333C7.5434 57.0435 7.51008 56.8164 7.56415 56.602C7.61823 56.3875 7.75526 56.2034 7.94511 56.09L38.1484 37.4483L8.80011 54.3917C8.61092 54.5059 8.38409 54.5404 8.16952 54.4874C7.95495 54.4344 7.77021 54.2984 7.65595 54.1092C7.54168 53.92 7.50725 53.6932 7.56023 53.4786C7.61321 53.264 7.74926 53.0793 7.93845 52.965L43.0001 30.89L8.80011 50.6383C8.70644 50.695 8.60251 50.7327 8.49427 50.7492C8.38603 50.7658 8.2756 50.7608 8.16928 50.7346C7.95455 50.6818 7.7696 50.5459 7.65511 50.3567C7.54063 50.1675 7.50599 49.9406 7.55881 49.7258C7.61163 49.5111 7.74759 49.3262 7.93678 49.2117L38.9784 29.5633L8.80011 46.9867C8.61151 47.0888 8.39077 47.1144 8.18384 47.0579C7.9769 47.0014 7.79971 46.8674 7.68913 46.6836C7.57855 46.4998 7.5431 46.2804 7.59016 46.0711C7.63722 45.8618 7.76316 45.6788 7.94178 45.56L27.6084 33.28L8.80011 44.14C8.61104 44.2425 8.38965 44.268 8.18225 44.211C7.97484 44.1541 7.79749 44.0192 7.68728 43.8345C7.57706 43.6498 7.54253 43.4296 7.59089 43.2201C7.63925 43.0105 7.76677 42.8277 7.94678 42.71L15.2351 38.22L8.80011 41.9333C8.61183 42.034 8.3921 42.0585 8.18625 42.0019C7.98041 41.9452 7.80416 41.8118 7.69384 41.629C7.58353 41.4462 7.54758 41.228 7.5934 41.0195C7.63923 40.811 7.76333 40.628 7.94011 40.5083L23.1801 30.9133L8.80011 39.215C8.61117 39.3191 8.38924 39.3458 8.18099 39.2896C7.97273 39.2334 7.79438 39.0987 7.68343 38.9137C7.57249 38.7287 7.53759 38.5079 7.58608 38.2977C7.63457 38.0875 7.76267 37.9044 7.94344 37.7867L13.5168 34.3183L8.80011 37.0417C8.61203 37.1511 8.38862 37.1825 8.17763 37.1294C7.96665 37.0762 7.78481 36.9427 7.67099 36.7573C7.55716 36.5718 7.52037 36.3492 7.56848 36.137C7.61659 35.9248 7.74578 35.7399 7.92845 35.6217L24.8668 24.5867L8.80011 33.8617C8.61142 33.9695 8.38807 33.9994 8.17768 33.9449C7.96729 33.8904 7.78651 33.7558 7.6739 33.57C7.56128 33.3841 7.52574 33.1616 7.57485 32.9499C7.62396 32.7381 7.75383 32.554 7.93678 32.4367L12.5501 29.5167L8.80011 31.6833C8.6125 31.7921 8.38986 31.8235 8.1795 31.7707C7.96914 31.718 7.78762 31.5854 7.67349 31.4009C7.55937 31.2165 7.52164 30.9949 7.56831 30.7831C7.61498 30.5713 7.74238 30.386 7.92345 30.2667L18.8168 23.08L8.80011 28.86C8.6121 28.9634 8.39144 28.9903 8.18409 28.9351C7.97674 28.8799 7.79868 28.7468 7.68699 28.5636C7.5753 28.3804 7.53858 28.1611 7.58449 27.9515C7.6304 27.7419 7.7554 27.5581 7.93345 27.4383L8.66678 26.9683C8.47573 27.0377 8.26592 27.0349 8.07681 26.9604C7.88771 26.8859 7.73235 26.7448 7.63998 26.5638C7.54761 26.3827 7.5246 26.1742 7.57527 25.9773C7.62594 25.7805 7.7468 25.609 7.91511 25.495L14.8784 20.7833L8.79845 24.2833C8.61522 24.387 8.39955 24.4175 8.19477 24.3687C7.98999 24.3198 7.81128 24.1953 7.69455 24.0201C7.57783 23.8449 7.53173 23.632 7.56554 23.4243C7.59934 23.2165 7.71054 23.0292 7.87678 22.9L17.4418 15.6167L8.79845 20.605C8.61522 20.7087 8.39955 20.7392 8.19477 20.6903C7.98999 20.6415 7.81128 20.517 7.69455 20.3418C7.57783 20.1666 7.53173 19.9537 7.56554 19.7459C7.59934 19.5381 7.71054 19.3508 7.87678 19.2217L12.6668 15.5583L8.79845 17.7933C8.61836 17.896 8.4065 17.9278 8.20421 17.8826C8.00193 17.8374 7.82374 17.7185 7.70443 17.549C7.58512 17.3795 7.53326 17.1716 7.55896 16.966C7.58466 16.7603 7.68609 16.5716 7.84345 16.4367L11.0468 13.7167L8.79845 15.015C8.6331 15.1127 8.43881 15.1495 8.2492 15.1191C8.05959 15.0886 7.88658 14.9929 7.76011 14.8483C7.63251 14.7052 7.55819 14.5224 7.54969 14.3308C7.54119 14.1392 7.59903 13.9506 7.71344 13.7967L9.66678 11.185C9.49202 11.2252 9.30901 11.2087 9.14422 11.138C8.97942 11.0673 8.8414 10.946 8.75011 10.7917C8.63961 10.6003 8.60966 10.3728 8.66686 10.1593C8.72406 9.94587 8.86372 9.76385 9.05511 9.65334L12.2684 7.79334C12.4344 7.69797 12.6281 7.66264 12.8171 7.69329C13.006 7.72394 13.1787 7.81871 13.306 7.96165C13.4333 8.1046 13.5075 8.28702 13.5161 8.47824C13.5248 8.66946 13.4673 8.85782 13.3534 9.01168L11.4601 11.555L18.2034 7.66667C18.3833 7.56443 18.5948 7.53276 18.7968 7.57783C18.9987 7.62291 19.1767 7.74149 19.296 7.91052C19.4153 8.07955 19.4675 8.28693 19.4424 8.49231C19.4173 8.69769 19.3167 8.88639 19.1601 9.02168L15.9584 11.735L23.0134 7.66667C23.1967 7.56079 23.4135 7.52863 23.6196 7.57673C23.8258 7.62482 24.0059 7.74957 24.1234 7.92563C24.2409 8.1017 24.287 8.31589 24.2524 8.52471C24.2177 8.73354 24.1049 8.92135 23.9368 9.05001L19.1384 12.7167L27.8868 7.66667C28.0701 7.56079 28.2868 7.52863 28.4929 7.57673C28.6991 7.62482 28.8792 7.74957 28.9967 7.92563C29.1142 8.1017 29.1604 8.31589 29.1257 8.52471C29.091 8.73354 28.9782 8.92135 28.8101 9.05001L19.2451 16.3333L34.2718 7.66667C34.4584 7.56175 34.6782 7.53264 34.8856 7.58539C35.0931 7.63815 35.2723 7.76871 35.3861 7.95001C35.4999 8.13132 35.5395 8.34946 35.4969 8.55922C35.4542 8.76898 35.3324 8.95427 35.1568 9.07668L28.1918 13.785L38.8001 7.66667C38.9881 7.56327 39.2088 7.53638 39.4161 7.59159C39.6235 7.64681 39.8016 7.77988 39.9132 7.9631C40.0249 8.14631 40.0616 8.36555 40.0157 8.57516C39.9698 8.78477 39.8448 8.96859 39.6668 9.08834L39.1934 9.39168L42.1934 7.66501C42.3804 7.5643 42.5988 7.5388 42.804 7.5937C43.0092 7.64861 43.1856 7.77978 43.2973 7.96043C43.409 8.14107 43.4476 8.35755 43.405 8.56563C43.3625 8.77372 43.2421 8.9577 43.0684 9.08001L32.1668 16.2667L47.0734 7.66667C47.2619 7.56303 47.4832 7.53628 47.6909 7.592C47.8987 7.64773 48.0768 7.78163 48.1881 7.96568C48.2994 8.14974 48.3352 8.3697 48.2881 8.57956C48.2409 8.78942 48.1144 8.97292 47.9351 9.09168L43.3334 12L50.8501 7.66667C51.0375 7.56608 51.2563 7.54096 51.4617 7.59647C51.667 7.65197 51.8433 7.78389 51.9546 7.96521C52.0658 8.14652 52.1035 8.3635 52.0599 8.5717C52.0163 8.77989 51.8947 8.96354 51.7201 9.08501L34.7868 20.1167L56.3535 7.66667C56.5427 7.55757 56.7671 7.52712 56.9786 7.58185C57.19 7.63659 57.3715 7.77215 57.484 7.95936C57.5965 8.14656 57.631 8.37045 57.5801 8.58284C57.5292 8.79523 57.3969 8.97915 57.2118 9.09501L51.6185 12.57L60.1184 7.66168C60.3069 7.55803 60.5282 7.53128 60.7359 7.587C60.9437 7.64273 61.1218 7.77663 61.2331 7.96068C61.3444 8.14474 61.3802 8.3647 61.3331 8.57456C61.2859 8.78442 61.1595 8.96792 60.9801 9.08668L45.7451 18.6767L64.8335 7.66667C65.0228 7.56002 65.2462 7.53153 65.4563 7.58727C65.6663 7.64302 65.8462 7.77858 65.9577 7.96508C66.0692 8.15157 66.1035 8.37424 66.0532 8.58563C66.0029 8.79701 65.872 8.98039 65.6884 9.09668L58.4068 13.5767L68.6501 7.66667C68.8387 7.56451 69.0595 7.539 69.2664 7.59546C69.4733 7.65192 69.6505 7.786 69.7611 7.9698C69.8717 8.1536 69.9071 8.37296 69.8601 8.58223C69.813 8.79151 69.6871 8.97458 69.5085 9.09334L49.8168 21.3833L73.5835 7.66667C73.7721 7.55884 73.9955 7.52899 74.2059 7.58348C74.4163 7.63798 74.5971 7.77251 74.7097 7.95839C74.8223 8.14426 74.8578 8.36678 74.8087 8.57849C74.7596 8.79021 74.6297 8.97435 74.4468 9.09168L43.4051 28.735L79.9068 7.66667C80.0953 7.56303 80.3165 7.53628 80.5242 7.592C80.732 7.64773 80.9101 7.78163 81.0214 7.96568C81.1327 8.14974 81.1686 8.3697 81.1214 8.57956C81.0742 8.78942 80.9478 8.97292 80.7684 9.09168L45.7118 31.155L86.3634 7.68501C86.5533 7.57163 86.7804 7.53831 86.9948 7.59238C87.2093 7.64646 87.3934 7.78349 87.5068 7.97334C87.6202 8.16319 87.6535 8.39031 87.5994 8.60472C87.5453 8.81914 87.4083 9.00329 87.2185 9.11667L57.0001 27.7683L89.5535 8.97501C89.7424 8.87095 89.9643 8.8442 90.1726 8.9004C90.3808 8.95659 90.5592 9.09135 90.6701 9.27633C90.7811 9.46131 90.816 9.68211 90.7675 9.89229C90.719 10.1025 90.5909 10.2857 90.4101 10.4033L53.1101 33.56L91.0101 11.6783C91.1997 11.5753 91.4218 11.5497 91.6298 11.6071C91.8378 11.6645 92.0155 11.8003 92.1254 11.986C92.2353 12.1717 92.2689 12.3927 92.2191 12.6027C92.1693 12.8126 92.04 12.9951 91.8585 13.1117L77.9784 21.5117L91.2018 13.8783C91.3917 13.7725 91.6155 13.7451 91.8254 13.802C92.0352 13.8589 92.2146 13.9956 92.325 14.1829C92.4355 14.3701 92.4685 14.5932 92.4168 14.8044C92.3651 15.0156 92.2329 15.1982 92.0485 15.3133L75.2584 25.5L91.2035 16.295C91.3933 16.1819 91.6203 16.1487 91.8346 16.203C92.0488 16.2572 92.2328 16.3943 92.346 16.5842C92.4591 16.774 92.4922 17.0011 92.438 17.2153C92.3838 17.4296 92.2466 17.6135 92.0568 17.7267L63.6234 35.2433L91.2068 19.3183C91.3959 19.2158 91.6172 19.1904 91.8246 19.2473C92.0321 19.3043 92.2094 19.4392 92.3196 19.6239C92.4298 19.8086 92.4644 20.0287 92.416 20.2383C92.3676 20.4479 92.2401 20.6306 92.0601 20.7483L68.9168 35L91.2101 22.1333C91.4 22.0202 91.627 21.9871 91.8413 22.0413C92.0555 22.0955 92.2395 22.2327 92.3526 22.4225C92.4658 22.6124 92.4989 22.8394 92.4446 23.0536C92.3904 23.2679 92.2533 23.4518 92.0634 23.565L73.1218 35.2317L91.2135 24.7867C91.4022 24.6859 91.6225 24.6615 91.8287 24.7187C92.0349 24.7758 92.2112 24.9101 92.3211 25.0937C92.431 25.2773 92.466 25.4961 92.419 25.7049C92.372 25.9136 92.2465 26.0963 92.0685 26.215L74.2018 37.2817L91.2151 27.4583C91.405 27.3502 91.6297 27.3209 91.841 27.3768C92.0522 27.4327 92.233 27.5694 92.3445 27.7573C92.4559 27.9453 92.4891 28.1695 92.4369 28.3816C92.3846 28.5938 92.2511 28.777 92.0651 28.8917L90.7518 29.6917L91.2151 29.425C91.4043 29.3107 91.6311 29.2763 91.8457 29.3293C92.0603 29.3823 92.245 29.5183 92.3593 29.7075C92.4735 29.8967 92.508 30.1235 92.455 30.3381C92.402 30.5527 92.266 30.7374 92.0768 30.8517L73.8335 42.3333L91.2185 32.3C91.4063 32.195 91.6275 32.1668 91.8358 32.2213C92.044 32.2757 92.2231 32.4086 92.3355 32.5921C92.4479 32.7757 92.485 32.9956 92.439 33.2058C92.3929 33.416 92.2673 33.6003 92.0884 33.72L70.0885 47.975L91.2301 35.77C91.418 35.665 91.6392 35.6368 91.8474 35.6913C92.0556 35.7457 92.2347 35.8786 92.3472 36.0621C92.4596 36.2457 92.4967 36.4656 92.4506 36.6758C92.4046 36.886 92.279 37.0703 92.1001 37.19L75.6668 47.82L91.2301 38.8367C91.4171 38.7318 91.6373 38.7031 91.845 38.7565C92.0526 38.8098 92.2317 38.9411 92.345 39.1231C92.4583 39.3051 92.4972 39.5238 92.4534 39.7336C92.4097 39.9435 92.2867 40.1285 92.1101 40.25L75.7968 51.1017L91.2335 42.1883C91.4204 42.0742 91.6447 42.0382 91.8579 42.0882C92.0711 42.1382 92.2561 42.27 92.3728 42.4553C92.4896 42.6406 92.5287 42.8644 92.4817 43.0783C92.4347 43.2922 92.3054 43.479 92.1218 43.5983L77.8634 53.35L91.2318 45.6317C91.4167 45.5255 91.6353 45.4943 91.8426 45.5445C92.0498 45.5946 92.23 45.7223 92.3459 45.9013C92.4619 46.0802 92.5048 46.2968 92.4659 46.5065C92.427 46.7161 92.3092 46.9029 92.1368 47.0283L79.6184 56.07L91.2351 49.3617C91.4193 49.2545 91.6375 49.222 91.8449 49.2707C92.0523 49.3195 92.2331 49.4458 92.3503 49.6238C92.4674 49.8017 92.512 50.0178 92.4747 50.2276C92.4375 50.4373 92.3213 50.6249 92.1501 50.7517L83.6668 57.07L91.2468 52.6933C91.4305 52.5881 91.6473 52.5567 91.8533 52.6056C92.0593 52.6544 92.239 52.7798 92.3558 52.9563C92.4727 53.1328 92.5181 53.3471 92.4826 53.5559C92.4472 53.7646 92.3337 53.952 92.1651 54.08L87.7518 57.4033L91.2518 55.3833C91.4277 55.2805 91.6352 55.2457 91.835 55.2855C92.0348 55.3252 92.2131 55.4368 92.3363 55.5992C92.4594 55.7615 92.5188 55.9633 92.5032 56.1665C92.4877 56.3696 92.3982 56.56 92.2518 56.7017L87.9168 60.94L91.2501 59.0183C91.4246 58.9177 91.6296 58.8837 91.8272 58.9225C92.0248 58.9614 92.2017 59.0705 92.3251 59.2297C92.4485 59.3888 92.51 59.5873 92.4984 59.7884C92.4868 59.9894 92.4027 60.1795 92.2618 60.3233L91.3918 61.21C91.5357 61.1595 91.6907 61.1494 91.8399 61.1809C91.9891 61.2124 92.1268 61.2842 92.238 61.3885C92.3492 61.4929 92.4297 61.6257 92.4706 61.7726C92.5115 61.9195 92.5114 62.0749 92.4701 62.2217L92.0485 63.7217C92.1942 63.7957 92.3144 63.9119 92.3935 64.055C92.5034 64.2463 92.5331 64.4733 92.4759 64.6864C92.4187 64.8995 92.2794 65.0812 92.0884 65.1917L91.2551 65.6733C91.1117 65.7559 90.9469 65.7939 90.7818 65.7825C90.6167 65.7711 90.4587 65.7107 90.328 65.6092C90.1973 65.5076 90.0998 65.3695 90.048 65.2123C89.9961 65.0551 89.9922 64.8861 90.0368 64.7267L90.3135 63.7433L86.9585 65.6667C86.784 65.7673 86.579 65.8013 86.3814 65.7625C86.1838 65.7236 86.0069 65.6145 85.8835 65.4554C85.7601 65.2962 85.6985 65.0977 85.7102 64.8967C85.7218 64.6956 85.8059 64.5056 85.9468 64.3617L86.7801 63.515L83.0468 65.67C82.8711 65.7713 82.6645 65.8051 82.4657 65.765C82.2669 65.7249 82.0895 65.6137 81.9668 65.4521C81.8442 65.2906 81.7846 65.0899 81.7993 64.8876C81.814 64.6854 81.902 64.4954 82.0468 64.3533L86.3718 60.1117L76.7401 65.6733C76.5564 65.7786 76.3396 65.81 76.1336 65.7611C75.9276 65.7123 75.7479 65.5869 75.6311 65.4104C75.5142 65.2339 75.4688 65.0195 75.5043 64.8108C75.5397 64.6021 75.6532 64.4147 75.8218 64.2867L80.2318 60.9683L72.0651 65.6767C71.881 65.7838 71.6628 65.8164 71.4554 65.7676C71.248 65.7189 71.0671 65.5926 70.95 65.4146C70.8328 65.2366 70.7883 65.0206 70.8255 64.8108C70.8627 64.601 70.9789 64.4135 71.1501 64.2867L79.6501 57.965L66.2884 65.68C66.1035 65.7861 65.8849 65.8174 65.6777 65.7672C65.4704 65.717 65.2903 65.5894 65.1743 65.4104C65.0584 65.2314 65.0154 65.0149 65.0543 64.8052C65.0932 64.5955 65.211 64.4088 65.3834 64.2833L77.9051 55.24L59.8218 65.69C59.6349 65.8041 59.4106 65.8401 59.1973 65.7902C58.9841 65.7402 58.7991 65.6083 58.6824 65.423C58.5657 65.2377 58.5266 65.0139 58.5735 64.8C58.6205 64.5861 58.7498 64.3993 58.9334 64.28L73.1918 54.5267L53.8484 65.6933C53.661 65.8047 53.4373 65.8382 53.2254 65.7865C53.0136 65.7348 52.8304 65.6021 52.7152 65.417C52.6 65.2318 52.5621 65.0088 52.6094 64.796C52.6567 64.5831 52.7857 64.3973 52.9684 64.2783L69.2734 53.435L48.0301 65.6983C47.8419 65.8055 47.6194 65.8351 47.4097 65.781C47.2 65.7269 47.0196 65.5933 46.9067 65.4085C46.7938 65.2237 46.7573 65.0022 46.8049 64.7909C46.8525 64.5796 46.9805 64.3952 47.1618 64.2767L63.5984 53.6417L42.7118 65.7C42.5233 65.8154 42.2966 65.8511 42.0817 65.7994C41.8669 65.7477 41.6813 65.6127 41.5659 65.4242C41.4506 65.2357 41.4148 65.009 41.4666 64.7941C41.5183 64.5792 41.6533 64.3937 41.8418 64.2783L63.8334 50.035L36.6934 65.7017C36.5046 65.8075 36.2821 65.8357 36.0728 65.7803C35.8636 65.7249 35.6842 65.5903 35.5724 65.4049C35.4607 65.2195 35.4254 64.998 35.4742 64.7871C35.5229 64.5762 35.6517 64.3926 35.8334 64.275L54.0768 52.8L31.7184 65.7083C31.5286 65.8165 31.3038 65.8458 31.0926 65.7899C30.8814 65.734 30.7005 65.5973 30.5891 65.4094C30.4776 65.2214 30.4445 64.9972 30.4967 64.785C30.549 64.5729 30.6825 64.3897 30.8684 64.275L32.2234 63.4417L28.3051 65.7033C28.1158 65.81 27.8923 65.8385 27.6823 65.7827C27.4723 65.727 27.2924 65.5914 27.1808 65.4049C27.0693 65.2184 27.0351 64.9958 27.0854 64.7844C27.1357 64.573 27.2666 64.3896 27.4501 64.2733L45.3118 53.2133L23.6668 65.7133C23.4769 65.8265 23.2499 65.8596 23.0356 65.8054C22.8214 65.7512 22.6374 65.614 22.5243 65.4242C22.4111 65.2343 22.378 65.0073 22.4322 64.793C22.4865 64.5788 22.6236 64.3948 22.8134 64.2817L41.7651 52.6033L19.0568 65.715C18.8669 65.8282 18.6399 65.8613 18.4256 65.807C18.2114 65.7528 18.0274 65.6157 17.9143 65.4258C17.8011 65.236 17.768 65.009 17.8222 64.7947C17.8765 64.5804 18.0136 64.3965 18.2034 64.2833L41.3418 50.0333L14.1668 65.7183C13.9769 65.8315 13.7499 65.8646 13.5356 65.8104C13.3214 65.7561 13.1374 65.619 13.0243 65.4292C12.9111 65.2393 12.878 65.0123 12.9322 64.798C12.9865 64.5838 13.1236 64.3998 13.3134 64.2867L41.7551 46.7633L8.91678 65.7217C8.79028 65.7953 8.64646 65.8338 8.50011 65.8333Z" fill="#444477"/>
<path id="Vector_6" d="M32.6801 55.785C32.4995 55.7848 32.3239 55.7259 32.1796 55.6172C32.0354 55.5085 31.9304 55.356 31.8803 55.1824C31.8303 55.0089 31.8381 54.8238 31.9023 54.655C31.9666 54.4863 32.084 54.3429 32.2368 54.2467L45.4401 45.9433L28.5884 55.6667C28.3991 55.7733 28.1756 55.8018 27.9656 55.7461C27.7556 55.6903 27.5757 55.5547 27.4642 55.3683C27.3527 55.1818 27.3184 54.9591 27.3687 54.7477C27.419 54.5363 27.5499 54.3529 27.7334 54.2367L34.2051 50.2367L24.8118 55.6667C24.6233 55.7703 24.4021 55.7971 24.1943 55.7413C23.9866 55.6856 23.8084 55.5517 23.6971 55.3676C23.5858 55.1836 23.55 54.9636 23.5972 54.7538C23.6443 54.5439 23.7708 54.3604 23.9501 54.2416L48.0234 39.0133L19.5734 55.4383C19.3846 55.5441 19.1621 55.5723 18.9528 55.5169C18.7436 55.4615 18.5641 55.3269 18.4524 55.1415C18.3407 54.9562 18.3054 54.7346 18.3541 54.5237C18.4029 54.3129 18.5317 54.1292 18.7134 54.0117L44.3801 37.8783L17.4218 53.445C17.2335 53.5456 17.0138 53.5701 16.8079 53.5135C16.6021 53.4569 16.4258 53.3234 16.3155 53.1406C16.2052 52.9578 16.1692 52.7397 16.2151 52.5312C16.2609 52.3227 16.385 52.1397 16.5618 52.02L40.4818 36.925L17.1334 50.405C16.9445 50.509 16.7226 50.5358 16.5143 50.4796C16.3061 50.4234 16.1277 50.2887 16.0168 50.1037C15.9058 49.9187 15.8709 49.6979 15.9194 49.4877C15.9679 49.2775 16.096 49.0943 16.2768 48.9767L29.2534 40.9L17.1334 47.9C16.9459 48.0033 16.7257 48.0304 16.5187 47.9757C16.3116 47.9211 16.1336 47.7888 16.0215 47.6064C15.9093 47.4239 15.8717 47.2053 15.9165 46.9959C15.9612 46.7865 16.0849 46.6023 16.2618 46.4817L39.1151 31.6383L17.1334 44.3333C16.9438 44.4469 16.7168 44.4805 16.5024 44.4268C16.288 44.373 16.1037 44.2363 15.9901 44.0467C15.8765 43.857 15.8429 43.63 15.8966 43.4156C15.9504 43.2012 16.0871 43.0169 16.2768 42.9033L18.9818 41.2217L17.1334 42.2883C16.945 42.392 16.7237 42.4187 16.516 42.363C16.3082 42.3073 16.1301 42.1734 16.0188 41.9893C15.9075 41.8053 15.8717 41.5853 15.9188 41.3754C15.966 41.1656 16.0924 40.9821 16.2718 40.8633L22.1551 37.1533L17.1334 40.045C16.946 40.1498 16.7253 40.1783 16.5174 40.1243C16.3095 40.0704 16.1305 39.9383 16.0176 39.7556C15.9048 39.5729 15.8668 39.3536 15.9117 39.1436C15.9566 38.9336 16.0808 38.749 16.2584 38.6283L29.2401 30.0933L17.1334 37.0817C16.9456 37.1981 16.7191 37.2352 16.5039 37.1847C16.2887 37.1342 16.1024 37.0003 15.9859 36.8125C15.8695 36.6246 15.8324 36.3982 15.8829 36.183C15.9333 35.9678 16.0672 35.7815 16.2551 35.665L26.2401 29.035L17.1334 34.2917C16.9475 34.3955 16.7289 34.4243 16.5225 34.3721C16.3161 34.3198 16.1374 34.1905 16.0233 34.0107C15.9092 33.8309 15.8683 33.6143 15.9089 33.4052C15.9495 33.1962 16.0686 33.0106 16.2418 32.8867L26.6001 25.685L17.1334 31.15C16.949 31.2583 16.7301 31.2916 16.5218 31.2429C16.3136 31.1943 16.132 31.0674 16.0147 30.8887C15.8974 30.7099 15.8533 30.4928 15.8915 30.2824C15.9297 30.072 16.0474 29.8844 16.2201 29.7583L25.1801 23.1383L17.1334 27.785C16.949 27.8891 16.7318 27.919 16.5261 27.8688C16.3203 27.8185 16.1414 27.6918 16.0258 27.5143C15.9101 27.3369 15.8663 27.1221 15.9034 26.9136C15.9404 26.705 16.0554 26.5184 16.2251 26.3917L20.1784 23.5L17.1334 25.2583C16.9504 25.3634 16.7342 25.3951 16.5287 25.347C16.3232 25.2989 16.1435 25.1746 16.0261 24.9992C15.9087 24.8238 15.8622 24.6103 15.896 24.402C15.9299 24.1936 16.0415 24.0059 16.2084 23.8767L18.5218 22.1017L17.1334 22.9017C16.9591 23.0022 16.7544 23.0363 16.5569 22.9976C16.3594 22.959 16.1826 22.8502 16.0591 22.6913C15.9356 22.5325 15.8738 22.3343 15.885 22.1334C15.8962 21.9325 15.9797 21.7424 16.1201 21.5983L18.8601 18.7917L17.1334 19.7917C16.9943 19.8721 16.8348 19.9107 16.6743 19.9026C16.5137 19.8945 16.3589 19.8401 16.2286 19.7461C16.0982 19.652 15.9978 19.5222 15.9395 19.3724C15.8813 19.2226 15.8676 19.0591 15.9001 18.9017L16.4368 16.3183C16.2512 16.251 16.0962 16.1191 16.0001 15.9467C15.8901 15.7554 15.8605 15.5284 15.9177 15.3153C15.9748 15.1022 16.1142 14.9205 16.3051 14.81L17.1384 14.3283C17.2776 14.2478 17.4371 14.2093 17.5976 14.2174C17.7582 14.2255 17.913 14.2798 18.0433 14.3739C18.1737 14.468 18.2741 14.5978 18.3323 14.7476C18.3906 14.8974 18.4043 15.0609 18.3718 15.2183L17.9151 17.415L23.2651 14.3333C23.4394 14.2328 23.6442 14.1987 23.8416 14.2373C24.0391 14.276 24.2159 14.3848 24.3394 14.5436C24.4629 14.7025 24.5248 14.9007 24.5136 15.1016C24.5024 15.3025 24.4188 15.4925 24.2784 15.6367L21.5368 18.445L28.6668 14.32C28.8498 14.2149 29.066 14.1832 29.2715 14.2313C29.477 14.2794 29.6567 14.4037 29.7741 14.5791C29.8915 14.7545 29.938 14.968 29.9042 15.1763C29.8703 15.3847 29.7587 15.5724 29.5918 15.7017L27.2851 17.4717L32.7518 14.3167C32.9362 14.2126 33.1534 14.1826 33.3591 14.2329C33.5649 14.2831 33.7438 14.4099 33.8594 14.5873C33.9751 14.7647 34.0189 14.9795 33.9819 15.1881C33.9448 15.3966 33.8298 15.5832 33.6601 15.71L29.7084 18.6L37.1351 14.3133C37.3194 14.2077 37.5371 14.1765 37.7436 14.2261C37.9502 14.2756 38.13 14.4021 38.2464 14.5798C38.3628 14.7574 38.4069 14.9729 38.3698 15.182C38.3327 15.3911 38.2172 15.5782 38.0468 15.705L29.0868 22.3333L42.9734 14.315C43.1593 14.2111 43.3779 14.1823 43.5844 14.2346C43.7908 14.2868 43.9694 14.4161 44.0835 14.5959C44.1976 14.7757 44.2386 14.9924 44.198 15.2014C44.1573 15.4104 44.0382 15.596 43.8651 15.72L33.5001 22.92L48.4218 14.305C48.6096 14.1885 48.8361 14.1514 49.0513 14.2019C49.2665 14.2524 49.4528 14.3863 49.5693 14.5742C49.6857 14.762 49.7228 14.9885 49.6723 15.2036C49.6219 15.4188 49.488 15.6052 49.3001 15.7217L39.3101 22.355L53.2601 14.3017C53.4479 14.1949 53.6697 14.1652 53.8789 14.2189C54.0881 14.2725 54.2683 14.4053 54.3816 14.5892C54.4948 14.7731 54.5322 14.9937 54.4859 15.2047C54.4396 15.4156 54.3133 15.6004 54.1334 15.72L41.1668 24.2483L58.4001 14.2967C58.5893 14.1824 58.8161 14.148 59.0307 14.2009C59.2453 14.2539 59.43 14.39 59.5443 14.5792C59.6585 14.7683 59.693 14.9952 59.64 15.2097C59.587 15.4243 59.451 15.6091 59.2618 15.7233L53.3818 19.43L62.2784 14.2933C62.4681 14.1797 62.6951 14.1461 62.9095 14.1999C63.1239 14.2536 63.3082 14.3904 63.4218 14.58C63.5354 14.7696 63.569 14.9966 63.5152 15.211C63.4615 15.4254 63.3247 15.6097 63.1351 15.7233L60.4134 17.4133L65.8234 14.2917C66.0115 14.1823 66.2349 14.1508 66.4459 14.2039C66.6569 14.2571 66.8387 14.3906 66.9526 14.5761C67.0664 14.7615 67.1032 14.9841 67.0551 15.1963C67.007 15.4085 66.8778 15.5934 66.6951 15.7117L43.8451 30.545L72.0118 14.28C72.2014 14.1662 72.4285 14.1323 72.6431 14.1859C72.8576 14.2395 73.0421 14.3762 73.1559 14.5658C73.2698 14.7554 73.3036 14.9825 73.25 15.1971C73.1964 15.4117 73.0597 15.5962 72.8701 15.71L59.9001 23.78L76.3601 14.28C76.5493 14.1657 76.7761 14.1313 76.9907 14.1843C77.2053 14.2373 77.39 14.3733 77.5043 14.5625C77.6185 14.7517 77.653 14.9785 77.6 15.1931C77.547 15.4076 77.411 15.5924 77.2218 15.7067L53.3168 30.7983L81.9268 14.2783C82.1156 14.1725 82.3382 14.1443 82.5474 14.1997C82.7566 14.2551 82.9361 14.3897 83.0478 14.5751C83.1595 14.7605 83.1948 14.982 83.1461 15.1929C83.0974 15.4038 82.9685 15.5874 82.7868 15.705L57.1101 31.8467L82.8668 16.9783C83.0553 16.8747 83.2765 16.8479 83.4842 16.9036C83.692 16.9594 83.8701 17.0933 83.9814 17.2773C84.0927 17.4614 84.1285 17.6813 84.0814 17.8912C84.0342 18.1011 83.9078 18.2846 83.7284 18.4033L59.6668 33.63L82.8668 20.2317C83.0559 20.1291 83.2772 20.1037 83.4846 20.1606C83.692 20.2176 83.8694 20.3525 83.9796 20.5372C84.0898 20.7219 84.1244 20.942 84.076 21.1516C84.0276 21.3612 83.9001 21.5439 83.7201 21.6617L77.2451 25.6617L82.8684 22.415C83.0573 22.3092 83.2798 22.281 83.4891 22.3364C83.6983 22.3918 83.8777 22.5264 83.9895 22.7118C84.1012 22.8971 84.1365 23.1187 84.0877 23.3296C84.039 23.5404 83.9102 23.7241 83.7284 23.8417L70.5001 32.15L82.8618 25.015C83.0501 24.9144 83.2698 24.8898 83.4756 24.9465C83.6815 25.0031 83.8577 25.1366 83.968 25.3194C84.0784 25.5021 84.1143 25.7203 84.0685 25.9288C84.0227 26.1373 83.8986 26.3203 83.7218 26.44L73.7484 32.7267L82.8618 27.465C83.0505 27.3572 83.2738 27.3273 83.4842 27.3818C83.6946 27.4363 83.8754 27.5708 83.988 27.7567C84.1006 27.9426 84.1361 28.1651 84.087 28.3768C84.0379 28.5885 83.9081 28.7727 83.7251 28.89L74.7918 34.565L82.8618 29.8983C83.0494 29.7895 83.272 29.7582 83.4824 29.8109C83.6928 29.8636 83.8743 29.9963 83.9884 30.1807C84.1025 30.3651 84.1403 30.5868 84.0936 30.7986C84.0469 31.0104 83.9195 31.1956 83.7384 31.315L69.7168 40.61L82.8684 33.0183C83.0542 32.9169 83.2716 32.8899 83.4766 32.9429C83.6815 32.9959 83.8586 33.125 83.9718 33.3038C84.0851 33.4826 84.1261 33.6978 84.0864 33.9057C84.0468 34.1137 83.9296 34.2987 83.7584 34.4233L69.9751 43.9467L82.8684 36.5C83.0541 36.393 83.2737 36.3615 83.4819 36.4122C83.6901 36.4629 83.8707 36.5919 83.9863 36.7722C84.1019 36.9526 84.1436 37.1706 84.1027 37.3809C84.0619 37.5912 83.9415 37.7777 83.7668 37.9017L73.2934 45.3333L82.8684 39.8067C83.0511 39.703 83.2661 39.6721 83.4705 39.7201C83.675 39.7682 83.8537 39.8916 83.9711 40.0658C84.0884 40.24 84.1356 40.4521 84.1033 40.6596C84.071 40.8671 83.9615 41.0547 83.7968 41.185L74.7434 48.255L82.8684 43.565C83.0491 43.4628 83.2613 43.4318 83.4637 43.4778C83.666 43.5239 83.8439 43.6438 83.9625 43.8141C84.0811 43.9844 84.1319 44.1928 84.1049 44.3986C84.078 44.6043 83.9752 44.7926 83.8168 44.9267L78.5318 49.3133L82.8651 46.8133C83.0443 46.7108 83.2551 46.6785 83.4567 46.7225C83.6583 46.7665 83.8365 46.8838 83.9566 47.0517C84.0767 47.2195 84.1302 47.4259 84.1069 47.631C84.0835 47.836 83.9849 48.0251 83.8301 48.1617L81.7885 49.9433L82.8651 49.3233C83.0308 49.2285 83.2239 49.1935 83.4123 49.224C83.6007 49.2546 83.7729 49.3488 83.9001 49.4911C84.0273 49.6333 84.1019 49.8149 84.1113 50.0056C84.1207 50.1962 84.0644 50.3842 83.9518 50.5383L82.6668 52.28C82.8617 52.2257 83.0698 52.2443 83.2521 52.3321C83.4344 52.42 83.5785 52.5712 83.6575 52.7576C83.7365 52.9439 83.7449 53.1526 83.6813 53.3447C83.6177 53.5369 83.4864 53.6993 83.3118 53.8017L80.0834 55.6667C79.9178 55.7623 79.7242 55.7981 79.5353 55.7679C79.3464 55.7378 79.1736 55.6435 79.046 55.501C78.9184 55.3585 78.8436 55.1764 78.8344 54.9854C78.8251 54.7943 78.8819 54.6058 78.9951 54.4517L80.2434 52.7617L75.2101 55.6667C75.031 55.7691 74.8202 55.8015 74.6185 55.7575C74.4169 55.7134 74.2388 55.5961 74.1187 55.4283C73.9985 55.2605 73.945 55.0541 73.9683 54.849C73.9917 54.6439 74.0903 54.4548 74.2451 54.3183L76.2884 52.5333L70.8618 55.6667C70.6811 55.7705 70.468 55.803 70.2646 55.7575C70.0612 55.712 69.8822 55.592 69.763 55.421C69.6437 55.2501 69.5928 55.0407 69.6204 54.8341C69.6479 54.6275 69.7519 54.4387 69.9118 54.305L75.1918 49.9217L65.2384 55.6667C65.0558 55.7725 64.8397 55.805 64.634 55.7576C64.4282 55.7103 64.2481 55.5866 64.13 55.4116C64.012 55.2366 63.9647 55.0233 63.9978 54.8148C64.0309 54.6063 64.1419 54.4181 64.3084 54.2883L73.3651 47.2167L58.7268 55.6667C58.5412 55.7737 58.3215 55.8051 58.1133 55.7544C57.9051 55.7037 57.7245 55.5748 57.6089 55.3944C57.4933 55.214 57.4516 54.996 57.4925 54.7857C57.5334 54.5754 57.6537 54.3889 57.8284 54.265L68.3034 46.8317L53.0001 55.6667C52.8143 55.7681 52.5969 55.7951 52.392 55.742C52.1871 55.689 52.01 55.56 51.8967 55.3812C51.7835 55.2024 51.7425 54.9872 51.7821 54.7793C51.8217 54.5713 51.939 54.3863 52.1101 54.2617L65.8868 44.7417L46.9618 55.6667C46.7746 55.77 46.5549 55.7974 46.3481 55.7433C46.1413 55.6892 45.9632 55.5577 45.8506 55.376C45.738 55.1943 45.6996 54.9762 45.7432 54.767C45.7869 54.5577 45.9093 54.3732 46.0851 54.2517L60.1134 44.9633L41.5734 55.6667C41.3853 55.7686 41.1651 55.7943 40.9586 55.7384C40.752 55.6824 40.5749 55.5491 40.4639 55.3662C40.3529 55.1832 40.3166 54.9645 40.3624 54.7555C40.4082 54.5465 40.5327 54.3631 40.7101 54.2433L49.6501 48.5633L37.3451 55.6667C37.1566 55.7703 36.9354 55.7971 36.7276 55.7413C36.5199 55.6856 36.3417 55.5517 36.2305 55.3676C36.1192 55.1836 36.0833 54.9636 36.1305 54.7538C36.1776 54.5439 36.3041 54.3604 36.4834 54.2416L46.4834 47.9433L33.0968 55.6667C32.9707 55.7421 32.827 55.783 32.6801 55.785Z" fill="#D6DBE3"/>
<path id="Vector_7" d="M17.6333 15.8334C17.4604 15.8341 17.2916 15.781 17.1502 15.6815C17.0088 15.5821 16.9019 15.441 16.8442 15.2781C16.7865 15.1151 16.7809 14.9382 16.8283 14.7719C16.8756 14.6057 16.9734 14.4582 17.1083 14.35L25.225 7.81002L17.1333 12.4767C16.9482 12.5813 16.7301 12.6112 16.5237 12.5603C16.3173 12.5094 16.1381 12.3815 16.0229 12.2028C15.9077 12.0241 15.8652 11.8082 15.9039 11.5991C15.9427 11.3901 16.06 11.2038 16.2316 11.0784L16.85 10.635C16.6972 10.6617 16.5401 10.6446 16.3967 10.5856C16.2534 10.5266 16.1297 10.4281 16.04 10.3017C15.9203 10.134 15.8671 9.92788 15.8905 9.7232C15.9139 9.51853 16.0123 9.32977 16.1666 9.19336L19.145 6.55169L17.135 7.71836C16.9739 7.81708 16.784 7.85813 16.5965 7.83476C16.409 7.8114 16.235 7.72501 16.1031 7.58977C15.9711 7.45453 15.8891 7.27847 15.8703 7.09045C15.8516 6.90244 15.8973 6.71364 16 6.55502L17.5116 4.08002C17.3137 4.16898 17.0889 4.17722 16.885 4.103C16.6811 4.02877 16.5142 3.87794 16.4197 3.68257C16.3253 3.4872 16.3108 3.26269 16.3793 3.0568C16.4478 2.8509 16.594 2.67986 16.7866 2.58002L19.5116 1.01502C19.6721 0.921984 19.859 0.885136 20.0428 0.910315C20.2265 0.935494 20.3966 1.02126 20.5262 1.15403C20.6557 1.2868 20.7372 1.45899 20.7578 1.64332C20.7784 1.82765 20.737 2.01359 20.64 2.17169L19.14 4.63002L25.4316 1.00002C25.6102 0.898423 25.82 0.866366 26.0208 0.910008C26.2215 0.953649 26.3991 1.06991 26.5194 1.23647C26.6396 1.40304 26.6941 1.60816 26.6724 1.81245C26.6507 2.01675 26.5542 2.20582 26.4016 2.34336L23.425 4.98002L30.3333 1.00002C30.5184 0.895419 30.7365 0.865515 30.9429 0.916431C31.1493 0.967348 31.3284 1.09523 31.4437 1.27391C31.5589 1.45259 31.6014 1.66855 31.5626 1.87759C31.5238 2.08662 31.4066 2.27292 31.235 2.39836L31.0683 2.51836L33.695 1.00002C33.8766 0.894582 34.0913 0.861583 34.2961 0.907625C34.501 0.953668 34.6809 1.07536 34.8 1.24836C34.9189 1.42185 34.9677 1.63388 34.9368 1.84191C34.9059 2.04994 34.7975 2.2386 34.6333 2.37002L26.5216 8.90502L40.2216 1.00002C40.4073 0.897235 40.6251 0.869132 40.8308 0.921447C41.0364 0.973761 41.2143 1.10255 41.3283 1.28155C41.4422 1.46055 41.4836 1.67628 41.444 1.88474C41.4043 2.09319 41.2867 2.27867 41.115 2.40336L38.06 4.53669L44.185 1.00002C44.3686 0.894784 44.5855 0.863395 44.7915 0.91223C44.9975 0.961064 45.1771 1.08646 45.294 1.26296C45.4109 1.43946 45.4562 1.65382 45.4208 1.86253C45.3854 2.07124 45.2719 2.25864 45.1033 2.38669L38.305 7.52002L49.6 1.00002C49.7841 0.892872 50.0023 0.860324 50.2097 0.909067C50.4171 0.95781 50.598 1.08414 50.7151 1.2621C50.8323 1.44006 50.8768 1.65613 50.8396 1.86591C50.8024 2.07569 50.6862 2.26324 50.515 2.39002L44.1666 7.11502L54.7616 1.00002C54.9482 0.895095 55.168 0.86599 55.3755 0.918741C55.5829 0.971493 55.7621 1.10205 55.8759 1.28336C55.9897 1.46467 56.0294 1.68281 55.9867 1.89257C55.944 2.10233 55.8222 2.28762 55.6466 2.41002L55.1183 2.76836L58.1833 1.00002C58.367 0.894784 58.5838 0.863395 58.7898 0.91223C58.9958 0.961064 59.1755 1.08646 59.2924 1.26296C59.4092 1.43946 59.4546 1.65382 59.4192 1.86253C59.3837 2.07124 59.2702 2.25864 59.1016 2.38669L52.3333 7.49002L63.5833 1.00002C63.7688 0.895815 63.9871 0.866502 64.1935 0.91809C64.3999 0.969679 64.5788 1.09826 64.6934 1.27749C64.8081 1.45671 64.8499 1.673 64.8102 1.88202C64.7705 2.09104 64.6523 2.27697 64.48 2.40169L60.8466 4.96002L67.705 1.00002C67.8895 0.893409 68.1079 0.861555 68.3152 0.911011C68.5225 0.960468 68.703 1.08747 68.8195 1.26592C68.9361 1.44436 68.9798 1.66067 68.9418 1.87038C68.9037 2.08008 68.7868 2.26723 68.615 2.39336L62.7716 6.68002L72.6183 1.00002C72.8037 0.898204 73.0208 0.870682 73.2257 0.923035C73.4307 0.975388 73.608 1.1037 73.7218 1.28196C73.8357 1.46022 73.8774 1.67509 73.8387 1.88301C73.8 2.09094 73.6837 2.27636 73.5133 2.40169L70.0933 4.79836L76.6816 1.00002C76.8669 0.893158 77.0861 0.861588 77.2939 0.911845C77.5018 0.962102 77.6824 1.09034 77.7983 1.27002C77.9145 1.44991 77.9571 1.66766 77.917 1.87807C77.877 2.08847 77.7575 2.27539 77.5833 2.40002L73 5.66669L80.6133 1.27502C80.7964 1.16994 81.0125 1.13824 81.218 1.18634C81.4236 1.23444 81.6032 1.35875 81.7206 1.53415C81.8381 1.70956 81.8846 1.923 81.8507 2.13136C81.8169 2.33972 81.7052 2.52747 81.5383 2.65669L74.69 7.91836L82.6116 3.34502C82.7968 3.23765 83.0162 3.20566 83.2244 3.25569C83.4325 3.30573 83.6134 3.43394 83.7296 3.61376C83.8458 3.79357 83.8883 4.01119 83.8483 4.2215C83.8083 4.43181 83.689 4.61868 83.515 4.74336L81.9783 5.84669L82.8733 5.33002C83.049 5.2287 83.2556 5.19493 83.4544 5.23503C83.6532 5.27514 83.8306 5.38638 83.9533 5.54789C84.0759 5.7094 84.1355 5.91011 84.1208 6.11239C84.106 6.31467 84.0181 6.50464 83.8733 6.64669L79.5 10.935L82.8983 8.97336C83.0546 8.88305 83.2361 8.84595 83.4153 8.86765C83.5945 8.88934 83.7619 8.96866 83.8921 9.09366C84.0224 9.21867 84.1085 9.38259 84.1376 9.56078C84.1667 9.73897 84.1371 9.92177 84.0533 10.0817L82.6316 12.7934L82.9166 12.6267C83.0115 12.5664 83.1175 12.5259 83.2284 12.5077C83.3393 12.4894 83.4528 12.4938 83.562 12.5205C83.6711 12.5473 83.7738 12.5958 83.8637 12.6633C83.9536 12.7307 84.0289 12.8156 84.0852 12.9129C84.1414 13.0102 84.1774 13.1179 84.1909 13.2295C84.2045 13.341 84.1954 13.4542 84.164 13.5621C84.1327 13.6701 84.0799 13.7706 84.0087 13.8576C83.9376 13.9446 83.8496 14.0163 83.75 14.0684L80.9666 15.6667C80.8103 15.7563 80.6292 15.7928 80.4504 15.7708C80.2715 15.7488 80.1047 15.6694 79.9748 15.5446C79.8448 15.4198 79.7589 15.2562 79.7298 15.0784C79.7007 14.9006 79.73 14.7181 79.8133 14.5584L81.235 11.845L74.6083 15.6784C74.4326 15.7797 74.226 15.8135 74.0272 15.7733C73.8284 15.7332 73.651 15.622 73.5284 15.4605C73.4057 15.299 73.3461 15.0983 73.3608 14.896C73.3756 14.6937 73.4635 14.5037 73.6083 14.3617L77.9883 10.075L68.2716 15.6834C68.0864 15.7907 67.867 15.8227 67.6589 15.7727C67.4507 15.7227 67.2698 15.5944 67.1537 15.4146C67.0375 15.2348 66.995 15.0172 67.035 14.8069C67.0749 14.5966 67.1943 14.4097 67.3683 14.285L68.895 13.19L64.5616 15.69C64.3786 15.793 64.1635 15.8231 63.9593 15.7743C63.755 15.7255 63.5767 15.6014 63.4601 15.4268C63.3434 15.2522 63.2969 15.04 63.33 14.8327C63.363 14.6253 63.4731 14.438 63.6383 14.3084L70.5 9.04336L58.9766 15.69C58.7912 15.7989 58.5708 15.8318 58.3617 15.7819C58.1525 15.7321 57.9707 15.6033 57.8542 15.4225C57.7378 15.2418 57.6958 15.023 57.7369 14.8119C57.778 14.6008 57.8992 14.4139 58.075 14.29L62.6666 11.0134L54.5516 15.6934C54.3659 15.7987 54.1468 15.8288 53.9395 15.7773C53.7322 15.7258 53.5527 15.5967 53.4378 15.4166C53.323 15.2366 53.2817 15.0193 53.3224 14.8097C53.3631 14.6 53.4827 14.414 53.6566 14.29L57.08 11.89L50.485 15.6967C50.3004 15.8033 50.082 15.8352 49.8747 15.7857C49.6674 15.7362 49.4869 15.6092 49.3704 15.4308C49.2539 15.2524 49.2101 15.036 49.2482 14.8263C49.2862 14.6166 49.4032 14.4295 49.575 14.3034L55.4083 10.015L45.5666 15.7C45.3808 15.8086 45.1601 15.841 44.9508 15.7905C44.7416 15.74 44.56 15.6105 44.4441 15.4291C44.3282 15.2478 44.287 15.0286 44.3291 14.8175C44.3712 14.6064 44.4933 14.4197 44.67 14.2967L48.3066 11.7384L41.4383 15.7034C41.2546 15.8086 41.0378 15.84 40.8318 15.7911C40.6258 15.7423 40.4461 15.6169 40.3292 15.4404C40.2124 15.2639 40.167 15.0496 40.2024 14.8408C40.2379 14.6321 40.3514 14.4447 40.52 14.3167L47.29 9.20669L36.0333 15.7067C35.8463 15.8175 35.6233 15.8508 35.4121 15.7996C35.2008 15.7483 35.0179 15.6166 34.9025 15.4324C34.787 15.2482 34.7481 15.0262 34.794 14.8137C34.8399 14.6012 34.9671 14.4151 35.1483 14.295L35.6766 13.9367L32.605 15.71C32.4209 15.8147 32.2039 15.8453 31.9981 15.7958C31.7922 15.7462 31.6129 15.6201 31.4967 15.4432C31.3804 15.2662 31.3358 15.0517 31.3721 14.8431C31.4083 14.6344 31.5225 14.4474 31.6916 14.32L38.0466 9.59002L27.4383 15.7134C27.2546 15.8186 27.0378 15.85 26.8318 15.8012C26.6258 15.7523 26.4461 15.6269 26.3292 15.4504C26.2124 15.2739 26.167 15.0596 26.2024 14.8509C26.2379 14.6421 26.3514 14.4547 26.52 14.3267L33.3166 9.19502L22.015 15.7184C21.8289 15.8251 21.6089 15.856 21.4007 15.8047C21.1925 15.7534 21.012 15.6237 20.897 15.4427C20.7819 15.2617 20.741 15.0433 20.7829 14.833C20.8247 14.6226 20.946 14.4365 21.1216 14.3134L24.1666 12.1867L18.0483 15.7217C17.9224 15.7952 17.7791 15.8338 17.6333 15.8334Z" fill="#444477"/>
<path id="Vector_8" d="M35.0216 45.7816C34.8684 45.7818 34.7181 45.7396 34.5872 45.6599C34.4564 45.5801 34.3501 45.4658 34.28 45.3296C34.2098 45.1933 34.1787 45.0404 34.1898 44.8875C34.201 44.7347 34.2541 44.5879 34.3433 44.4633L35.1483 43.3333L32.9816 44.5866C32.8106 44.6847 32.6103 44.719 32.4163 44.6833C32.2224 44.6476 32.0474 44.5443 31.9225 44.3918C31.7975 44.2392 31.7307 44.0473 31.7339 43.8502C31.7371 43.653 31.8101 43.4634 31.94 43.315L32.94 42.1783L31.44 43.0433C31.2776 43.1377 31.0881 43.1744 30.9023 43.1476C30.7164 43.1208 30.545 43.032 30.416 42.8956C30.2869 42.7592 30.2077 42.5832 30.1912 42.3961C30.1746 42.209 30.2218 42.0219 30.325 41.865L32.0833 39.1833L29.2283 40.8316C29.0577 40.9299 28.8579 40.9645 28.6642 40.9295C28.4705 40.8945 28.2955 40.792 28.1701 40.6403C28.0447 40.4886 27.9771 40.2973 27.9792 40.1005C27.9813 39.9037 28.053 39.714 28.1816 39.565L29.5966 37.9283L27.5216 39.1266C27.3415 39.2293 27.1297 39.2611 26.9274 39.2159C26.7251 39.1707 26.5469 39.0518 26.4276 38.8823C26.3083 38.7128 26.2564 38.5049 26.2821 38.2993C26.3078 38.0936 26.4093 37.9049 26.5666 37.77L30.5666 34.3833L25.8283 37.1166C25.645 37.2225 25.4283 37.2547 25.2221 37.2066C25.016 37.1585 24.8359 37.0338 24.7183 36.8577C24.6008 36.6816 24.5547 36.4674 24.5894 36.2586C24.624 36.0498 24.7369 35.862 24.905 35.7333L27.1566 34.0133L25.6383 34.89C25.4608 34.9916 25.2522 35.0244 25.0521 34.9822C24.852 34.9399 24.6744 34.8256 24.5531 34.6609C24.4319 34.4962 24.3754 34.2927 24.3945 34.089C24.4136 33.8854 24.5069 33.6959 24.6566 33.5566L31 27.6916C30.9496 27.6419 30.9059 27.5859 30.87 27.525C30.7595 27.3336 30.7295 27.1061 30.7867 26.8926C30.8439 26.6792 30.9836 26.4972 31.175 26.3866L34.5566 24.435C34.7341 24.3319 34.9434 24.2979 35.1444 24.3396C35.3454 24.3814 35.524 24.4958 35.6458 24.661C35.7676 24.8262 35.8242 25.0305 35.8047 25.2349C35.7852 25.4392 35.6909 25.6292 35.54 25.7683L31.25 29.7233L37.4883 26.1233C37.6715 26.0196 37.8872 25.9891 38.092 26.038C38.2967 26.0868 38.4755 26.2113 38.5922 26.3865C38.7089 26.5617 38.755 26.7746 38.7212 26.9824C38.6874 27.1902 38.5762 27.3775 38.41 27.5066L36.1666 29.2233L37.7316 28.32C37.9117 28.2174 38.1236 28.1855 38.3259 28.2307C38.5281 28.2759 38.7063 28.3948 38.8256 28.5643C38.945 28.7338 38.9968 28.9417 38.9711 29.1474C38.9454 29.353 38.844 29.5417 38.6866 29.6766L33.6666 33.9333C33.8362 33.9766 33.9874 34.0729 34.0983 34.2083C34.224 34.3602 34.2918 34.5517 34.2897 34.7488C34.2876 34.9459 34.2156 35.1359 34.0866 35.285L32.6716 36.92L34.2766 35.995C34.439 35.9006 34.6285 35.8639 34.8143 35.8907C35.0002 35.9175 35.1715 36.0063 35.3006 36.1427C35.4297 36.2791 35.5089 36.4551 35.5254 36.6422C35.5419 36.8292 35.4948 37.0164 35.3916 37.1733L33.6333 39.855L36.49 38.2066C36.6609 38.1075 36.8615 38.0724 37.056 38.1075C37.2505 38.1426 37.4261 38.2457 37.5516 38.3983C37.6773 38.5512 37.7445 38.7438 37.7411 38.9417C37.7378 39.1396 37.6641 39.3298 37.5333 39.4783L36.5333 40.615L37.6483 39.9716C37.8132 39.8761 38.0059 39.84 38.1942 39.8693C38.3825 39.8986 38.5551 39.9915 38.6832 40.1327C38.8113 40.2738 38.8871 40.4546 38.8981 40.6449C38.909 40.8351 38.8544 41.0234 38.7433 41.1783L37.7433 42.5833C37.9208 42.5965 38.0894 42.6662 38.2244 42.7821C38.3594 42.8981 38.4538 43.0542 38.4936 43.2277C38.5335 43.4011 38.5168 43.5828 38.4459 43.746C38.3751 43.9093 38.2539 44.0456 38.1 44.135L35.445 45.6683C35.3168 45.7439 35.1704 45.7831 35.0216 45.7816Z" fill="#D7A609"/>
<path id="Vector_9" d="M64.1334 45.6C63.9617 45.5995 63.7944 45.5459 63.6543 45.4467C63.5142 45.3474 63.4082 45.2073 63.3508 45.0456C63.2933 44.8838 63.2872 44.7082 63.3333 44.5428C63.3794 44.3775 63.4755 44.2304 63.6084 44.1217L66.1084 42.085L62.7001 44.0517C62.5199 44.156 62.3073 44.1892 62.1039 44.1446C61.9006 44.1 61.7213 43.9809 61.6013 43.8108C61.4814 43.6407 61.4294 43.4318 61.4557 43.2253C61.482 43.0188 61.5846 42.8296 61.7434 42.695L66.7617 38.4267L62.7317 40.7517C62.551 40.8556 62.338 40.888 62.1346 40.8425C61.9312 40.797 61.7522 40.677 61.6329 40.5061C61.5136 40.3351 61.4628 40.1257 61.4903 39.9191C61.5179 39.7125 61.6218 39.5237 61.7817 39.39L66.2634 35.6783C66.144 35.6212 66.04 35.5364 65.9599 35.431C65.8798 35.3256 65.826 35.2027 65.8029 35.0724C65.7797 34.9421 65.788 34.8082 65.8269 34.6817C65.8658 34.5552 65.9343 34.4398 66.0267 34.345L66.7017 33.6383L65.8534 34.1283C65.687 34.2242 65.4925 34.2596 65.303 34.2286C65.1134 34.1976 64.9404 34.1021 64.8132 33.9582C64.686 33.8143 64.6124 33.6309 64.6048 33.439C64.5972 33.2471 64.6562 33.0584 64.7717 32.905L66.2867 30.905L63.9651 32.2383C63.7946 32.3366 63.595 32.3714 63.4013 32.3366C63.2077 32.3018 63.0327 32.1996 62.9071 32.0482C62.7816 31.8967 62.7137 31.7057 62.7155 31.509C62.7172 31.3123 62.7885 31.1225 62.9167 30.9733L64.0034 29.7133L62.5667 30.5467C62.4081 30.6381 62.2239 30.6748 62.0424 30.651C61.8609 30.6273 61.6922 30.5444 61.5625 30.4153C61.4328 30.2861 61.3492 30.1179 61.3247 29.9365C61.3001 29.7551 61.336 29.5706 61.4267 29.4117L62.5934 27.3883C62.3989 27.4901 62.1721 27.5111 61.9623 27.4467C61.7525 27.3822 61.5765 27.2376 61.4727 27.0442C61.3689 26.8508 61.3455 26.6243 61.4078 26.4138C61.47 26.2033 61.6128 26.0259 61.8051 25.92L64.4284 24.4033C64.587 24.3119 64.7712 24.2752 64.9527 24.299C65.1342 24.3227 65.3029 24.4056 65.4326 24.5347C65.5623 24.6639 65.6459 24.8321 65.6704 25.0135C65.695 25.1949 65.6591 25.3794 65.5684 25.5383L64.4134 27.5617L67.4401 25.815C67.6105 25.7167 67.8102 25.6819 68.0038 25.7167C68.1974 25.7515 68.3724 25.8537 68.498 26.0052C68.6235 26.1566 68.6914 26.3476 68.6896 26.5443C68.6879 26.7411 68.6166 26.9308 68.4884 27.08L67.4034 28.3383L69.0267 27.4C69.1929 27.3034 69.3874 27.2672 69.5773 27.2975C69.7671 27.3279 69.9406 27.423 70.0684 27.5667C70.1959 27.7109 70.2695 27.8947 70.2768 28.087C70.2841 28.2793 70.2246 28.4682 70.1084 28.6217L68.5884 30.63L70.9217 29.2867C71.0953 29.1875 71.2987 29.1541 71.4949 29.1924C71.6911 29.2308 71.8669 29.3384 71.9904 29.4956C72.1139 29.6528 72.1767 29.8491 72.1675 30.0488C72.1582 30.2485 72.0775 30.4382 71.9401 30.5833L71.2734 31.2867L72.3234 30.6817C72.504 30.5795 72.7163 30.5484 72.9186 30.5945C73.121 30.6406 73.2988 30.7605 73.4174 30.9308C73.536 31.1011 73.5868 31.3095 73.5599 31.5153C73.5329 31.721 73.4302 31.9093 73.2717 32.0433L70.4851 34.35L73.8667 32.4C74.0469 32.2938 74.2604 32.2593 74.4649 32.3032C74.6694 32.3471 74.8498 32.4663 74.9705 32.6371C75.0912 32.8079 75.1432 33.0179 75.1162 33.2253C75.0893 33.4327 74.9854 33.6224 74.8251 33.7567L69.8017 38.03L74.3134 35.4267C74.4946 35.3249 74.7073 35.2945 74.9097 35.3415C75.1121 35.3884 75.2897 35.5093 75.4076 35.6805C75.5255 35.8516 75.5753 36.0606 75.547 36.2665C75.5188 36.4724 75.4147 36.6603 75.2551 36.7933L70.3334 40.8017C70.427 40.8699 70.5048 40.9574 70.5617 41.0583C70.6717 41.2496 70.7013 41.4766 70.6442 41.6897C70.587 41.9028 70.4477 42.0845 70.2567 42.195L64.5501 45.4883C64.4237 45.5622 64.2798 45.6007 64.1334 45.6Z" fill="#D7A609"/>
<path id="Vector_10" d="M46.4149 45.0634C46.2507 45.0637 46.09 45.0154 45.9531 44.9247C45.8162 44.834 45.7091 44.7048 45.6454 44.5535C45.5816 44.4021 45.564 44.2353 45.5948 44.074C45.6255 43.9126 45.7033 43.764 45.8182 43.6467L47.8466 41.5717L45.5899 42.875C45.4113 42.9782 45.2008 43.0114 44.9991 42.9683C44.7974 42.9252 44.6188 42.8089 44.498 42.6418C44.3771 42.4747 44.3225 42.2687 44.3447 42.0636C44.3669 41.8586 44.4644 41.669 44.6182 41.5317L46.8332 39.5567L45.9432 40.07C45.7634 40.1723 45.5519 40.2039 45.3499 40.1589C45.148 40.1138 44.97 39.9952 44.8507 39.8262C44.7314 39.6571 44.6792 39.4498 44.7043 39.2444C44.7294 39.039 44.83 38.8503 44.9866 38.715L46.6532 37.2917L46.6332 37.3034C46.4546 37.4065 46.2441 37.4397 46.0424 37.3966C45.8407 37.3536 45.6622 37.2372 45.5413 37.0701C45.4204 36.903 45.3658 36.697 45.388 36.4919C45.4102 36.2869 45.5077 36.0974 45.6616 35.96L48.2949 33.605L47.4332 34.105C47.2615 34.2041 47.0601 34.2387 46.8651 34.2025C46.6702 34.1664 46.4945 34.062 46.3696 33.908C46.2448 33.7541 46.1789 33.5606 46.1838 33.3624C46.1888 33.1642 46.2642 32.9743 46.3966 32.8267L49.6482 29.2017L48.4932 29.8684C48.3218 29.9674 48.1207 30.0023 47.926 29.9666C47.7312 29.9309 47.5555 29.8271 47.4304 29.6736C47.3053 29.5202 47.2388 29.3272 47.243 29.1293C47.2472 28.9313 47.3217 28.7414 47.4532 28.5934L48.4999 27.4134C48.3783 27.337 48.2786 27.2306 48.2102 27.1044C48.1418 26.9782 48.1073 26.8365 48.1098 26.693C48.1123 26.5495 48.1518 26.409 48.2246 26.2853C48.2973 26.1615 48.4007 26.0587 48.5249 25.9867L51.1916 24.445C51.363 24.3459 51.5641 24.3111 51.7588 24.3468C51.9536 24.3825 52.1293 24.4863 52.2544 24.6397C52.3796 24.7932 52.446 24.9861 52.4418 25.1841C52.4376 25.382 52.3631 25.572 52.2316 25.72L52.1132 25.8534L53.3332 25.1434C53.505 25.0443 53.7064 25.0097 53.9013 25.0458C54.0963 25.0819 54.272 25.1864 54.3968 25.3403C54.5217 25.4943 54.5876 25.6878 54.5827 25.886C54.5777 26.0842 54.5023 26.2741 54.3699 26.4217L51.1182 30.0484L54.4232 28.1417C54.6004 28.0478 54.8055 28.0209 55.0009 28.066C55.1963 28.111 55.3689 28.2251 55.487 28.3872C55.6051 28.5492 55.6609 28.7485 55.6439 28.9483C55.627 29.1481 55.5386 29.3351 55.3949 29.475L52.7716 31.8334L53.7149 31.2884C53.895 31.184 54.1077 31.1509 54.311 31.1954C54.5144 31.24 54.6937 31.3591 54.8136 31.5292C54.9336 31.6993 54.9856 31.9082 54.9593 32.1147C54.933 32.3212 54.8303 32.5104 54.6716 32.645L53.0049 34.0684L53.0282 34.0567C53.2054 33.9628 53.4105 33.9359 53.6059 33.981C53.8013 34.026 53.9739 34.1401 54.092 34.3022C54.2101 34.4642 54.2659 34.6635 54.2489 34.8633C54.232 35.0631 54.1436 35.2501 53.9999 35.39L51.7932 37.3584L52.2682 37.085C52.4425 36.9845 52.6473 36.9504 52.8448 36.989C53.0422 37.0277 53.2191 37.1365 53.3426 37.2953C53.4661 37.4542 53.5279 37.6524 53.5167 37.8533C53.5055 38.0542 53.422 38.2442 53.2816 38.3884L51.2499 40.475L51.4482 40.3617C51.5431 40.3014 51.6492 40.2609 51.7601 40.2427C51.871 40.2244 51.9844 40.2288 52.0936 40.2555C52.2027 40.2823 52.3054 40.3308 52.3953 40.3983C52.4852 40.4657 52.5605 40.5506 52.6168 40.6479C52.673 40.7452 52.709 40.8529 52.7226 40.9645C52.7361 41.076 52.727 41.1892 52.6956 41.2971C52.6643 41.4051 52.6115 41.5056 52.5403 41.5926C52.4692 41.6796 52.3812 41.7513 52.2816 41.8034L46.8332 44.9517C46.7064 45.0258 46.5618 45.0644 46.4149 45.0634Z" fill="#D7A609"/>
<g id="Group">
<path id="Vector_11" d="M92.8833 69.5333V15.6833C92.8833 12.9 92.9666 10.0166 90.15 8.39998C88.3957 7.61194 86.4563 7.32911 84.55 7.58331V6.96664C84.55 6.26664 84.5833 5.56664 84.55 4.86664C84.5155 3.79223 84.0587 2.77478 83.2785 2.03522C82.4984 1.29566 81.458 0.893705 80.3833 0.916642C78.2166 0.799976 76.0333 0.916642 73.8666 0.916642H43.0166C35.6 0.916642 28.1666 0.766642 20.75 0.916642C20.0532 0.85729 19.3519 0.947996 18.6932 1.18265C18.0345 1.4173 17.4338 1.79044 16.9315 2.27692C16.4292 2.7634 16.0371 3.3519 15.7815 4.00276C15.526 4.65363 15.4129 5.35172 15.45 6.04998V7.56664C13.6909 7.40357 11.92 7.7083 10.3166 8.44998C9.37471 8.94346 8.58155 9.67938 8.01902 10.5818C7.45649 11.4842 7.14497 12.5203 7.11663 13.5833C7.03329 15.7833 7.11663 18 7.11663 20.2V72.6833C7.04631 73.4952 7.14518 74.3128 7.40698 75.0845C7.66878 75.8562 8.08782 76.5652 8.63762 77.1667C9.18741 77.7682 9.856 78.249 10.6011 78.5789C11.3463 78.9089 12.1517 79.0806 12.9666 79.0833C14.7333 79.15 16.5333 79.0833 18.3166 79.0833H28.8V85.0333C28.7182 85.0564 28.6398 85.0901 28.5666 85.1333C25.8666 86.65 23.1833 88.2166 20.4833 89.75C19.8166 90.1333 19.1 90.4833 18.45 90.9166C17.1666 91.7666 17.1333 92.8 17.1333 94.1833C17.1333 96.45 16.7666 98.8 19.7 98.9333C20.85 98.9833 22.0166 98.9333 23.1666 98.9333H76.05C77.15 98.9333 78.2666 98.9833 79.3666 98.9333C80.234 98.9268 81.0825 98.6786 81.8166 98.2167C83.0333 97.35 82.8666 96.05 82.8666 94.7333C83.0529 93.571 82.9025 92.3796 82.4333 91.3C82.4368 91.2924 82.4388 91.2841 82.439 91.2757C82.4392 91.2673 82.4378 91.2589 82.4346 91.2511C82.4315 91.2433 82.4268 91.2362 82.4209 91.2303C82.4149 91.2244 82.4078 91.2197 82.4 91.2167C82.268 91.0397 82.1171 90.8776 81.95 90.7333C79.8 89.5 77.6389 88.2667 75.4666 87.0333C74.121 86.09 72.693 85.2701 71.2 84.5833V79.0833H84.5C87.2666 79.0833 90.0666 78.85 91.8333 76.35C93.2333 74.4 92.8833 71.8 92.8833 69.5333ZM17.8833 5.04998C18.1 1.88331 20.35 2.41664 22.6 2.41664H75.7833C78.0333 2.41664 81.5 1.76664 82.0833 4.78331C82.2792 6.02892 82.3239 7.29363 82.2166 8.54998C82.1937 8.59625 82.1804 8.6467 82.1775 8.69827C82.1747 8.74983 82.1823 8.80144 82.2 8.84998C82.1666 9.66664 82.1166 10.4666 82.1166 11.2166V14.5166H17.8833V12.8C17.8833 10.2333 17.7 7.59998 17.8833 5.04998ZM17.8833 27.5833V15.4833H82.1166V50.75C82.1166 52.1833 82.15 54.0666 80.1833 54.25H22.5166C20.2333 54.25 18.0333 54.1666 17.8833 51.15C17.4666 43.3333 17.8833 35.4 17.8833 27.5833ZM80.4666 95.95C80.4666 96.4667 80.6 97.55 80.3 97.7333C79.75 98.0833 77.9833 97.7333 77.35 97.7333H22.2333C20.9166 97.7333 19.8833 98.05 19.5333 96.3C19.4083 95.1144 19.4083 93.9189 19.5333 92.7333C19.5495 92.535 19.5886 92.3393 19.65 92.15H80.1166C80.5508 93.3671 80.6712 94.674 80.4666 95.95ZM72.6833 87.6166C74.7666 88.8167 76.8333 90 78.9166 91.1833H20.4C20.5833 91.0667 20.7833 90.95 21.0333 90.8167C23.6333 89.3333 26.2333 87.8444 28.8333 86.35C28.9166 86.3 29.35 86.1 29.7666 85.8833C29.953 85.806 30.1316 85.7111 30.3 85.6H30.6166C32.3333 85.65 34.05 85.6 35.75 85.6H63.5666C65.3928 85.7083 67.2238 85.7083 69.05 85.6C69.1 85.6 69.1333 85.5833 69.1666 85.5833C69.1917 85.6087 69.2197 85.6311 69.25 85.65C70.3385 86.3986 71.4869 87.0564 72.6833 87.6166ZM31.2 83.6333V79.0833H68.8V84.3333C68.0333 84.35 67.2666 84.4 66.55 84.4H38.0333C35.7647 84.235 33.488 84.2127 31.2166 84.3333C31.2333 84.1666 31.2 83.9 31.2 83.6333ZM90.45 72.4666C90.45 75 89.55 77.45 86.6333 77.5833C84.6 77.6833 82.5333 77.5833 80.4833 77.5833H16.4166C14.05 77.5833 11.6166 77.85 10.2 75.4333C9.18329 73.7166 9.54996 71.2333 9.54996 69.3167V65.9166H90.45V72.4666ZM90.45 22.2166V64.0833H9.54996V17.4166C9.39693 15.6565 9.43605 13.885 9.66663 12.1333C10.3666 9.04998 12.9666 9.04998 15.45 9.06664V47.3666C15.45 49.6833 14.8333 53.2333 16.9166 54.85C18.6333 56.2 21.4833 55.75 23.5333 55.75H79.55C79.5833 55.75 79.6166 55.7333 79.65 55.7333C79.7166 55.7333 79.7666 55.75 79.85 55.75C81.0306 55.7463 82.1673 55.3014 83.0368 54.5028C83.9064 53.7042 84.446 52.6094 84.55 51.4333C84.6 50.55 84.55 49.6333 84.55 48.75V9.06664C86.7333 9.04998 88.9333 9.26664 90.0166 11.5833C90.3675 12.4437 90.5158 13.3732 90.45 14.3C90.4666 16.9333 90.45 19.5833 90.45 22.2166Z" fill="#262626"/>
<path id="Vector_12" d="M37.1833 32.275C38.7166 30.7417 40.2316 29.0317 39.2666 26.685C37.9333 23.4333 33.735 23.5183 31.4983 25.71C30.465 26.7217 29.4533 27.755 28.4316 28.7767C27.2866 29.9217 26.0983 31.0383 24.99 32.2183C24.6077 32.6089 24.3064 33.0712 24.1034 33.5787C23.9005 34.0862 23.7999 34.6288 23.8075 35.1753C23.8151 35.7218 23.9307 36.2614 24.1477 36.7631C24.3646 37.2647 24.6786 37.7185 25.0716 38.0983C26.53 39.5783 28.01 41.0383 29.48 42.5067C30.95 43.975 32.3333 45.8333 34.5933 45.92H34.74C34.7952 45.929 34.8508 45.9351 34.9066 45.9383C35.7062 45.9567 36.4957 45.7581 37.1913 45.3634C37.8869 44.9687 38.4625 44.3929 38.8568 43.6971C39.2511 43.0013 39.4494 42.2116 39.4306 41.4121C39.4118 40.6126 39.1766 39.8331 38.75 39.1567C37.6525 37.8043 36.4347 36.5542 35.1116 35.4217C34.6816 34.9917 34.5783 34.8883 35.0283 34.4383L37.1833 32.275ZM33.0916 36.6917L35.2183 38.8183C35.8224 39.3241 36.3422 39.9226 36.7583 40.5917C36.9548 40.9105 37.0701 41.2727 37.0941 41.6465C37.1181 42.0202 37.05 42.3942 36.8958 42.7355C36.7417 43.0769 36.5062 43.3752 36.2099 43.6044C35.9137 43.8336 35.5658 43.9866 35.1966 44.05C33.8333 43.8833 32.9883 42.7167 32.0566 41.79L28.1983 37.9317C27.1583 36.8917 25.8516 35.825 26.3166 34.1517C26.6333 33.0183 28.02 32.0117 28.8166 31.215L32.6183 27.4133C33.6466 26.385 34.915 25.2133 36.3216 26.6C36.7659 27.0406 37.0378 27.6257 37.0879 28.2494C37.1381 28.8731 36.9632 29.4941 36.595 30C36.2218 30.439 35.8198 30.8527 35.3916 31.2383C34.7416 31.8883 34.0922 32.5378 33.4433 33.1867C32.9625 33.5664 32.5653 34.0413 32.2766 34.5817C31.9283 35.5183 32.5 36.1 33.0916 36.6917Z" fill="#262626"/>
<path id="Vector_13" d="M72.9433 29.9633L68.9433 25.9633C68.1261 25.0837 67.0252 24.5201 65.8338 24.3714C64.6424 24.2227 63.4367 24.4983 62.4283 25.15C61.905 25.4605 61.4609 25.8884 61.1312 26.4C60.8015 26.9115 60.5951 27.4926 60.5283 28.0975C60.4616 28.7024 60.5363 29.3145 60.7466 29.8856C60.9568 30.4567 61.2969 30.9711 61.74 31.3883C62.3966 32.055 63.0617 32.71 63.7233 33.37C64.2766 33.8266 64.785 34.335 65.2416 34.8883C65.6866 35.5717 64.3033 36.4517 63.87 36.8883C63.2033 37.555 62.5267 38.205 61.87 38.8883C61.3559 39.3722 60.9678 39.9744 60.7395 40.6425C60.5111 41.3106 60.4495 42.0243 60.56 42.7217C60.7857 43.5972 61.3014 44.3704 62.023 44.9152C62.7446 45.46 63.6295 45.7443 64.5333 45.7217C64.595 45.7217 64.675 45.7117 64.7483 45.7083H64.8383C64.8383 45.7083 64.9083 45.6983 64.9433 45.6967H64.9617C66.856 45.4061 68.5631 44.39 69.7216 42.8633L74.0817 38.5C75.4333 37.1483 76.7483 35.625 76.0066 33.5483C75.2426 32.1556 74.1998 30.9352 72.9433 29.9633ZM72.6666 37.5083C71.3433 38.8339 70.0194 40.1578 68.695 41.48C67.84 42.3367 66.6233 44.0683 65.32 44.265C64.5964 44.1711 63.9396 43.7941 63.4935 43.2168C63.0474 42.6395 62.8483 41.9088 62.94 41.185C63.0675 40.3442 63.4899 39.5763 64.1316 39.0183C65.1866 37.965 66.2983 36.9483 67.2983 35.8517C68.59 34.425 66.77 33.2433 65.8133 32.2867C64.7466 31.22 63.0266 29.995 62.88 28.38C62.7766 27.2433 63.485 25.5467 64.8567 25.7883C65.5476 25.9553 66.1682 26.3362 66.63 26.8767L69.9633 30.21C70.925 31.1717 71.915 32.11 72.8483 33.095C73.1405 33.3892 73.3689 33.7405 73.519 34.1271C73.6691 34.5136 73.7378 34.927 73.7208 35.3413C73.7037 35.7556 73.6013 36.1619 73.4199 36.5348C73.2385 36.9077 72.9821 37.2391 72.6666 37.5083Z" fill="#262626"/>
<path id="Vector_14" d="M53.2316 24.5C52.0112 24.2121 50.7278 24.3801 49.6227 24.9726C48.5176 25.565 47.6673 26.5409 47.2316 27.7166C46.4066 30.6283 45.7599 33.6 45.0266 36.535C44.6649 37.9816 44.2832 39.425 43.9416 40.8766C43.8042 41.4207 43.7906 41.9887 43.9019 42.5387C44.0132 43.0887 44.2465 43.6067 44.5846 44.0546C44.9227 44.5024 45.357 44.8686 45.8555 45.1263C46.354 45.384 46.904 45.5265 47.4649 45.5433C47.5897 45.5807 47.7197 45.5976 47.8499 45.5933C48.0178 45.594 48.1853 45.5778 48.3499 45.545C49.3542 45.5044 50.3215 45.1554 51.1204 44.5456C51.9193 43.9357 52.511 43.0946 52.8149 42.1366C53.1482 40.9033 53.4332 39.6616 53.7416 38.425C54.5199 35.3116 55.3432 32.205 56.0749 29.0816C56.2035 28.5936 56.2312 28.0844 56.1563 27.5853C56.0815 27.0862 55.9056 26.6076 55.6395 26.1788C55.3733 25.7499 55.0225 25.3799 54.6085 25.0912C54.1945 24.8026 53.726 24.6014 53.2316 24.5ZM53.6816 29.385C53.1482 31.8516 52.4532 34.2966 51.8482 36.745C51.4582 38.3005 51.0694 39.8561 50.6816 41.4116C50.4249 42.4383 50.1516 44.3316 48.8332 44.385C48.3947 44.3241 47.9748 44.1679 47.603 43.9275C47.2312 43.687 46.9166 43.3681 46.6812 42.9931C46.4458 42.6181 46.2954 42.1961 46.2404 41.7568C46.1855 41.3174 46.2274 40.8714 46.3632 40.45C46.6066 39.4366 46.8632 38.4266 47.1216 37.415L49.3332 28.5216C49.4179 27.5063 49.8575 26.5533 50.5749 25.83C51.5232 25.1433 52.8516 26.1833 53.3416 27.0083C53.76 27.7285 53.8819 28.5832 53.6816 29.3916V29.385Z" fill="#262626"/>
<path id="Vector_15" d="M53.7984 70.9667H47.1317C46.8329 70.9469 46.5336 70.9969 46.2574 71.1126C45.9812 71.2283 45.7356 71.4065 45.5401 71.6333C45.2401 72.11 45.7967 72.3683 46.2067 72.3683H52.8734C53.1723 72.3885 53.4717 72.3387 53.748 72.223C54.0242 72.1073 54.2698 71.9288 54.4651 71.7017C54.7601 71.225 54.2034 70.9667 53.7984 70.9667Z" fill="#262626"/>
<path id="Vector_16" d="M22.3548 8.85164C22.51 8.8968 22.6719 8.91484 22.8332 8.90497H24.4998C24.6562 8.90009 24.8115 8.8783 24.9632 8.83997C25.1275 8.81128 25.2884 8.76547 25.4432 8.7033C25.5804 8.65522 25.711 8.58968 25.8315 8.5083C25.9351 8.45258 26.0281 8.37927 26.1065 8.29164C26.1932 8.17497 26.2732 8.01497 26.1298 7.89664L25.9782 7.81497C25.823 7.76971 25.6612 7.75167 25.4998 7.76164H23.8332C23.6768 7.76652 23.5215 7.78831 23.3698 7.82664C23.2055 7.85533 23.0446 7.90113 22.8898 7.9633C22.7526 8.01139 22.6221 8.07693 22.5015 8.1583C22.398 8.21402 22.3049 8.28734 22.2265 8.37497C22.1398 8.49164 22.0598 8.65164 22.2032 8.76997L22.3548 8.85164Z" fill="#262626"/>
<path id="Vector_17" d="M31.1882 8.98666H32.8549C33.1798 8.98424 33.5013 8.91916 33.8016 8.79499C33.9393 8.74411 34.0685 8.67275 34.1849 8.58333C34.29 8.51856 34.3812 8.43359 34.4532 8.33333C34.5432 8.18833 34.6082 7.99999 34.4532 7.86333C34.2678 7.72498 34.039 7.65758 33.8082 7.67333H32.1416C31.8166 7.67575 31.4952 7.74082 31.1949 7.86499C31.0572 7.91588 30.928 7.98724 30.8116 8.07666C30.707 8.14373 30.6169 8.23099 30.5466 8.33333C30.4566 8.47833 30.3916 8.66666 30.5466 8.80333C30.732 8.93854 30.9594 9.00351 31.1882 8.98666Z" fill="#262626"/>
<path id="Vector_18" d="M39.525 8.99996H41.1917C41.5165 8.99811 41.838 8.9336 42.1384 8.80996C42.276 8.7575 42.4052 8.68506 42.5217 8.59496C42.6261 8.53135 42.7168 8.44748 42.7883 8.34829C42.8783 8.19829 42.9417 8.01496 42.7883 7.86662C42.604 7.72285 42.3733 7.65169 42.14 7.66663H40.4733C40.1485 7.66847 39.8271 7.73299 39.5267 7.85663C39.3889 7.90868 39.2596 7.98115 39.1433 8.07163C39.0389 8.13524 38.9482 8.2191 38.8767 8.31829C38.7867 8.46829 38.7233 8.65163 38.8767 8.79996C39.0614 8.94304 39.2918 9.01412 39.525 8.99996Z" fill="#262626"/>
<path id="Vector_19" d="M60.8833 8.8333H75.8833C76.4849 8.84968 77.0784 8.69104 77.5916 8.37663C77.9349 8.13497 77.955 7.84997 77.4499 7.84997H62.4499C61.8483 7.83359 61.2548 7.99223 60.7416 8.30663C60.3983 8.53997 60.3783 8.8333 60.8833 8.8333Z" fill="#262626"/>
</g>
</g>
</svg>
